M48
; DRILL file {KiCad (6.0.6)} date Fri Jun  9 12:55:28 2023
; FORMAT={-:-/ absolute / metric / decimal}
; #@! TF.CreationDate,2023-06-09T12:55:28+02:00
; #@! TF.GenerationSoftware,Kicad,Pcbnew,(6.0.6)
; #@! TF.FileFunction,Plated,1,2,PTH
FMAT,2
METRIC
; #@! TA.AperFunction,Plated,PTH,ComponentDrill
T1C1.000
; #@! TA.AperFunction,Plated,PTH,ComponentDrill
T2C3.200
%
G90
G05
T1
X132.636Y-70.104
X134.021Y-72.944
X135.406Y-70.104
X136.652Y-59.291
X136.652Y-61.831
X136.791Y-72.944
X138.176Y-70.104
X139.192Y-59.291
X139.192Y-61.831
X139.561Y-72.944
X140.946Y-70.104
X141.732Y-59.291
X141.732Y-61.831
X142.331Y-72.944
X143.716Y-70.104
X144.272Y-59.291
X144.272Y-61.831
X145.101Y-72.944
X146.486Y-70.104
X146.812Y-59.291
X146.812Y-61.831
X147.871Y-72.944
X149.256Y-70.104
X149.352Y-59.291
X149.352Y-61.831
X150.641Y-72.944
X151.892Y-59.291
X151.892Y-61.831
X152.026Y-70.104
X153.411Y-72.944
X154.432Y-59.291
X154.432Y-61.831
X154.796Y-70.104
X156.181Y-72.944
X156.972Y-59.291
X156.972Y-61.831
X157.566Y-70.104
X158.951Y-72.944
X159.512Y-59.291
X159.512Y-61.831
X160.336Y-70.104
X161.721Y-72.944
X162.052Y-59.291
X162.052Y-61.831
X163.106Y-70.104
X164.491Y-72.944
X164.592Y-59.291
X164.592Y-61.831
X165.876Y-70.104
X167.132Y-59.291
X167.132Y-61.831
X167.261Y-72.944
X168.646Y-70.104
X169.672Y-59.291
X169.672Y-61.831
X170.031Y-72.944
X171.416Y-70.104
X172.212Y-59.291
X172.212Y-61.831
X172.801Y-72.944
X174.186Y-70.104
X174.752Y-59.291
X174.752Y-61.831
X175.571Y-72.944
X176.956Y-70.104
X177.292Y-59.291
X177.292Y-61.831
X178.341Y-72.944
X179.726Y-70.104
X181.111Y-72.944
X182.496Y-70.104
T2
X125.816Y-70.404
X189.316Y-70.404
T0
M30
