%TF.GenerationSoftware,KiCad,Pcbnew,(6.0.6)*%
%TF.CreationDate,2023-06-09T12:55:26+02:00*%
%TF.ProjectId,FDAdapter,46444164-6170-4746-9572-2e6b69636164,rev?*%
%TF.SameCoordinates,Original*%
%TF.FileFunction,Copper,L2,Bot*%
%TF.FilePolarity,Positive*%
%FSLAX46Y46*%
G04 Gerber Fmt 4.6, Leading zero omitted, Abs format (unit mm)*
G04 Created by KiCad (PCBNEW (6.0.6)) date 2023-06-09 12:55:26*
%MOMM*%
%LPD*%
G01*
G04 APERTURE LIST*
G04 Aperture macros list*
%AMRoundRect*
0 Rectangle with rounded corners*
0 $1 Rounding radius*
0 $2 $3 $4 $5 $6 $7 $8 $9 X,Y pos of 4 corners*
0 Add a 4 corners polygon primitive as box body*
4,1,4,$2,$3,$4,$5,$6,$7,$8,$9,$2,$3,0*
0 Add four circle primitives for the rounded corners*
1,1,$1+$1,$2,$3*
1,1,$1+$1,$4,$5*
1,1,$1+$1,$6,$7*
1,1,$1+$1,$8,$9*
0 Add four rect primitives between the rounded corners*
20,1,$1+$1,$2,$3,$4,$5,0*
20,1,$1+$1,$4,$5,$6,$7,0*
20,1,$1+$1,$6,$7,$8,$9,0*
20,1,$1+$1,$8,$9,$2,$3,0*%
G04 Aperture macros list end*
%TA.AperFunction,ComponentPad*%
%ADD10C,4.000000*%
%TD*%
%TA.AperFunction,ComponentPad*%
%ADD11R,1.600000X1.600000*%
%TD*%
%TA.AperFunction,ComponentPad*%
%ADD12C,1.600000*%
%TD*%
%TA.AperFunction,ComponentPad*%
%ADD13RoundRect,0.250000X0.600000X-0.600000X0.600000X0.600000X-0.600000X0.600000X-0.600000X-0.600000X0*%
%TD*%
%TA.AperFunction,ComponentPad*%
%ADD14C,1.700000*%
%TD*%
%TA.AperFunction,Conductor*%
%ADD15C,0.250000*%
%TD*%
G04 APERTURE END LIST*
D10*
%TO.P,J1,0*%
%TO.N,N/C*%
X189316000Y-70404000D03*
X125816000Y-70404000D03*
D11*
%TO.P,J1,1,1*%
%TO.N,~{DENSITY}*%
X132636000Y-70104000D03*
D12*
%TO.P,J1,2,2*%
%TO.N,unconnected-(J1-Pad2)*%
X135406000Y-70104000D03*
%TO.P,J1,3,3*%
%TO.N,~{DS3}*%
X138176000Y-70104000D03*
%TO.P,J1,4,4*%
%TO.N,~{INDEX}*%
X140946000Y-70104000D03*
%TO.P,J1,5,5*%
%TO.N,~{DS0}*%
X143716000Y-70104000D03*
%TO.P,J1,6,6*%
%TO.N,~{DS1}*%
X146486000Y-70104000D03*
%TO.P,J1,7,7*%
%TO.N,~{DS2}*%
X149256000Y-70104000D03*
%TO.P,J1,8,8*%
%TO.N,~{MOTOR}*%
X152026000Y-70104000D03*
%TO.P,J1,9,9*%
%TO.N,~{DIR}*%
X154796000Y-70104000D03*
%TO.P,J1,10,10*%
%TO.N,~{STEP}*%
X157566000Y-70104000D03*
%TO.P,J1,11,11*%
%TO.N,~{WDATA}*%
X160336000Y-70104000D03*
%TO.P,J1,12,12*%
%TO.N,~{WGATE}*%
X163106000Y-70104000D03*
%TO.P,J1,13,13*%
%TO.N,~{TRK0}*%
X165876000Y-70104000D03*
%TO.P,J1,14,14*%
%TO.N,~{WPROT}*%
X168646000Y-70104000D03*
%TO.P,J1,15,15*%
%TO.N,~{RDATA}*%
X171416000Y-70104000D03*
%TO.P,J1,16,16*%
%TO.N,~{SIDE}*%
X174186000Y-70104000D03*
%TO.P,J1,17,17*%
%TO.N,~{RDY}*%
X176956000Y-70104000D03*
%TO.P,J1,18,18*%
%TO.N,unconnected-(J1-Pad18)*%
X179726000Y-70104000D03*
%TO.P,J1,19,19*%
%TO.N,unconnected-(J1-Pad19)*%
X182496000Y-70104000D03*
%TO.P,J1,20,20*%
%TO.N,~{OPT0}*%
X134021000Y-72944000D03*
%TO.P,J1,21,21*%
%TO.N,~{OPT1}*%
X136791000Y-72944000D03*
%TO.P,J1,22,22*%
%TO.N,~{OPT2}*%
X139561000Y-72944000D03*
%TO.P,J1,23,23*%
%TO.N,~{OPT3}*%
X142331000Y-72944000D03*
%TO.P,J1,24,24*%
%TO.N,~{EJECT}*%
X145101000Y-72944000D03*
%TO.P,J1,25,25*%
%TO.N,~{EjectMSK}*%
X147871000Y-72944000D03*
%TO.P,J1,26,26*%
%TO.N,LED*%
X150641000Y-72944000D03*
%TO.P,J1,27,27*%
%TO.N,~{INSERTED}*%
X153411000Y-72944000D03*
%TO.P,J1,28,28*%
%TO.N,~{ERROR}*%
X156181000Y-72944000D03*
%TO.P,J1,29,29*%
%TO.N,~{FDDINT}*%
X158951000Y-72944000D03*
%TO.P,J1,30,30*%
%TO.N,GND*%
X161721000Y-72944000D03*
%TO.P,J1,31,31*%
X164491000Y-72944000D03*
%TO.P,J1,32,32*%
X167261000Y-72944000D03*
%TO.P,J1,33,33*%
X170031000Y-72944000D03*
%TO.P,J1,34,34*%
X172801000Y-72944000D03*
%TO.P,J1,35,35*%
X175571000Y-72944000D03*
%TO.P,J1,36,36*%
X178341000Y-72944000D03*
%TO.P,J1,37,37*%
%TO.N,unconnected-(J1-Pad37)*%
X181111000Y-72944000D03*
%TD*%
D13*
%TO.P,J2,1,Pin_1*%
%TO.N,~{OPT0}*%
X136652000Y-61831500D03*
D14*
%TO.P,J2,2,Pin_2*%
%TO.N,~{DENSITY}*%
X136652000Y-59291500D03*
%TO.P,J2,3,Pin_3*%
%TO.N,~{OPT1}*%
X139192000Y-61831500D03*
%TO.P,J2,4,Pin_4*%
%TO.N,unconnected-(J2-Pad4)*%
X139192000Y-59291500D03*
%TO.P,J2,5,Pin_5*%
%TO.N,~{OPT2}*%
X141732000Y-61831500D03*
%TO.P,J2,6,Pin_6*%
%TO.N,~{DS3}*%
X141732000Y-59291500D03*
%TO.P,J2,7,Pin_7*%
%TO.N,~{OPT3}*%
X144272000Y-61831500D03*
%TO.P,J2,8,Pin_8*%
%TO.N,~{INDEX}*%
X144272000Y-59291500D03*
%TO.P,J2,9,Pin_9*%
%TO.N,~{EJECT}*%
X146812000Y-61831500D03*
%TO.P,J2,10,Pin_10*%
%TO.N,~{DS0}*%
X146812000Y-59291500D03*
%TO.P,J2,11,Pin_11*%
%TO.N,~{EjectMSK}*%
X149352000Y-61831500D03*
%TO.P,J2,12,Pin_12*%
%TO.N,~{DS1}*%
X149352000Y-59291500D03*
%TO.P,J2,13,Pin_13*%
%TO.N,~{LED_BLINK}*%
X151892000Y-61831500D03*
%TO.P,J2,14,Pin_14*%
%TO.N,~{DS2}*%
X151892000Y-59291500D03*
%TO.P,J2,15,Pin_15*%
%TO.N,~{INSERTED}*%
X154432000Y-61831500D03*
%TO.P,J2,16,Pin_16*%
%TO.N,~{MOTOR}*%
X154432000Y-59291500D03*
%TO.P,J2,17,Pin_17*%
%TO.N,~{ERROR}*%
X156972000Y-61831500D03*
%TO.P,J2,18,Pin_18*%
%TO.N,~{DIR}*%
X156972000Y-59291500D03*
%TO.P,J2,19,Pin_19*%
%TO.N,~{FDDINT}*%
X159512000Y-61831500D03*
%TO.P,J2,20,Pin_20*%
%TO.N,~{STEP}*%
X159512000Y-59291500D03*
%TO.P,J2,21,Pin_21*%
%TO.N,GND*%
X162052000Y-61831500D03*
%TO.P,J2,22,Pin_22*%
%TO.N,~{WDATA}*%
X162052000Y-59291500D03*
%TO.P,J2,23,Pin_23*%
%TO.N,GND*%
X164592000Y-61831500D03*
%TO.P,J2,24,Pin_24*%
%TO.N,~{WGATE}*%
X164592000Y-59291500D03*
%TO.P,J2,25,Pin_25*%
%TO.N,GND*%
X167132000Y-61831500D03*
%TO.P,J2,26,Pin_26*%
%TO.N,~{TRK0}*%
X167132000Y-59291500D03*
%TO.P,J2,27,Pin_27*%
%TO.N,GND*%
X169672000Y-61831500D03*
%TO.P,J2,28,Pin_28*%
%TO.N,~{WPROT}*%
X169672000Y-59291500D03*
%TO.P,J2,29,Pin_29*%
%TO.N,GND*%
X172212000Y-61831500D03*
%TO.P,J2,30,Pin_30*%
%TO.N,~{RDATA}*%
X172212000Y-59291500D03*
%TO.P,J2,31,Pin_31*%
%TO.N,GND*%
X174752000Y-61831500D03*
%TO.P,J2,32,Pin_32*%
%TO.N,~{SIDE}*%
X174752000Y-59291500D03*
%TO.P,J2,33,Pin_33*%
%TO.N,GND*%
X177292000Y-61831500D03*
%TO.P,J2,34,Pin_34*%
%TO.N,~{RDY}*%
X177292000Y-59291500D03*
%TD*%
D15*
%TO.N,GND*%
X164592000Y-61831500D02*
X164491000Y-61932500D01*
X164491000Y-61932500D02*
X164491000Y-72944000D01*
%TO.N,~{DENSITY}*%
X136652000Y-59291500D02*
X132636000Y-63307500D01*
X132636000Y-63307500D02*
X132636000Y-70104000D01*
%TO.N,~{DS3}*%
X140461000Y-67819000D02*
X138176000Y-70104000D01*
X141732000Y-59291500D02*
X140461000Y-60562500D01*
X140461000Y-60562500D02*
X140461000Y-67819000D01*
%TO.N,~{INDEX}*%
X143002000Y-60561500D02*
X143002000Y-68048000D01*
X144272000Y-59291500D02*
X143002000Y-60561500D01*
X143002000Y-68048000D02*
X140946000Y-70104000D01*
%TO.N,~{DS0}*%
X146812000Y-59291500D02*
X145542000Y-60561500D01*
X145542000Y-60561500D02*
X145542000Y-68278000D01*
X145542000Y-68278000D02*
X143716000Y-70104000D01*
%TO.N,~{DS1}*%
X148082000Y-62464800D02*
X148082000Y-60561500D01*
X148082000Y-60561500D02*
X149352000Y-59291500D01*
X147262200Y-63284600D02*
X148082000Y-62464800D01*
X146486000Y-70104000D02*
X147262200Y-69327800D01*
X147262200Y-69327800D02*
X147262200Y-63284600D01*
%TO.N,~{DS2}*%
X151892000Y-59291500D02*
X150622000Y-60561500D01*
X150622000Y-60561500D02*
X150622000Y-68738000D01*
X150622000Y-68738000D02*
X149256000Y-70104000D01*
%TO.N,~{MOTOR}*%
X154432000Y-59291500D02*
X153162000Y-60561500D01*
X153162000Y-68968000D02*
X152026000Y-70104000D01*
X153162000Y-60561500D02*
X153162000Y-68968000D01*
%TO.N,~{DIR}*%
X156972000Y-59291500D02*
X155702000Y-60561500D01*
X155702000Y-69198000D02*
X154796000Y-70104000D01*
X155702000Y-60561500D02*
X155702000Y-69198000D01*
%TO.N,~{STEP}*%
X159512000Y-59291500D02*
X158242000Y-60561500D01*
X158242000Y-69428000D02*
X157566000Y-70104000D01*
X158242000Y-60561500D02*
X158242000Y-69428000D01*
%TO.N,~{WDATA}*%
X160782000Y-69658000D02*
X160336000Y-70104000D01*
X160782000Y-60561500D02*
X160782000Y-69658000D01*
X162052000Y-59291500D02*
X160782000Y-60561500D01*
%TO.N,~{WGATE}*%
X163322000Y-60561500D02*
X163322000Y-69888000D01*
X164592000Y-59291500D02*
X163322000Y-60561500D01*
X163322000Y-69888000D02*
X163106000Y-70104000D01*
%TO.N,~{TRK0}*%
X165876000Y-60547500D02*
X165876000Y-70104000D01*
X167132000Y-59291500D02*
X165876000Y-60547500D01*
%TO.N,~{WPROT}*%
X169672000Y-59291500D02*
X168463000Y-60500500D01*
X168463000Y-69921000D02*
X168646000Y-70104000D01*
X168463000Y-60500500D02*
X168463000Y-69921000D01*
%TO.N,~{RDATA}*%
X172212000Y-59291500D02*
X171001200Y-60502300D01*
X171001200Y-60502300D02*
X171001200Y-69689200D01*
X171001200Y-69689200D02*
X171416000Y-70104000D01*
%TO.N,~{SIDE}*%
X173570000Y-60473500D02*
X173570000Y-69488000D01*
X174752000Y-59291500D02*
X173570000Y-60473500D01*
X173570000Y-69488000D02*
X174186000Y-70104000D01*
%TO.N,~{RDY}*%
X176080400Y-60503100D02*
X176080400Y-69228400D01*
X176080400Y-69228400D02*
X176956000Y-70104000D01*
X177292000Y-59291500D02*
X176080400Y-60503100D01*
%TO.N,~{OPT0}*%
X134021000Y-64462500D02*
X134021000Y-72944000D01*
X136652000Y-61831500D02*
X134021000Y-64462500D01*
%TO.N,~{OPT1}*%
X139192000Y-61831500D02*
X136791000Y-64232500D01*
X136791000Y-64232500D02*
X136791000Y-72944000D01*
%TO.N,~{OPT2}*%
X141732000Y-61831500D02*
X141732000Y-67230500D01*
X139561000Y-69401500D02*
X139561000Y-72944000D01*
X141732000Y-67230500D02*
X139561000Y-69401500D01*
%TO.N,~{OPT3}*%
X144272000Y-61831500D02*
X144272000Y-67460500D01*
X144272000Y-67460500D02*
X142331000Y-69401500D01*
X142331000Y-69401500D02*
X142331000Y-72944000D01*
%TO.N,~{EJECT}*%
X145101000Y-69401500D02*
X145101000Y-72944000D01*
X146812000Y-67690500D02*
X145101000Y-69401500D01*
X146812000Y-61831500D02*
X146812000Y-67690500D01*
%TO.N,~{EjectMSK}*%
X149352000Y-61831500D02*
X147871000Y-63312500D01*
X147871000Y-63312500D02*
X147871000Y-72944000D01*
%TO.N,~{INSERTED}*%
X154432000Y-61831500D02*
X154432000Y-68334700D01*
X153411000Y-69355700D02*
X153411000Y-72944000D01*
X154432000Y-68334700D02*
X153411000Y-69355700D01*
%TO.N,~{ERROR}*%
X156181000Y-62622500D02*
X156181000Y-72944000D01*
X156972000Y-61831500D02*
X156181000Y-62622500D01*
%TO.N,~{FDDINT}*%
X159512000Y-61831500D02*
X158951000Y-62392500D01*
X158951000Y-62392500D02*
X158951000Y-72944000D01*
%TD*%
M02*
