%FSLAX45Y45*%
G04 Gerber Fmt 4.5, Leading zero omitted, Abs format (unit mm)*
G04 Created by KiCad (PCBNEW (6.0.6)) date 2023-06-09 12:55:29*
%MOMM*%
%LPD*%
G01*
G04 APERTURE LIST*
%TA.AperFunction,Profile*%
%ADD10C,0.100000*%
%TD*%
%ADD11C,0.200000*%
%ADD12C,0.100000*%
%ADD13C,0.320000*%
G04 APERTURE END LIST*
D10*
X12192000Y-4775201D02*
G75*
G03*
X12014200Y-5054600I60950J-235059D01*
G01*
X19354800Y-4775200D02*
X12192000Y-4775200D01*
X12014200Y-7620000D02*
G75*
G03*
X12192000Y-7874000I239552J-21544D01*
G01*
X12014200Y-5054600D02*
X12014200Y-7620000D01*
X19354800Y-7874000D02*
G75*
G03*
X19634200Y-7620000I-9672J291309D01*
G01*
X19634200Y-7620000D02*
X19634200Y-5054600D01*
X12192000Y-7874000D02*
X19354800Y-7874000D01*
X19634200Y-5054600D02*
G75*
G03*
X19354800Y-4775200I-267500J11900D01*
G01*
D11*
D12*
X13213600Y-6960400D02*
X13313600Y-7060400D01*
X13313600Y-6960400D02*
X13213600Y-7060400D01*
X13352100Y-7244400D02*
X13452100Y-7344400D01*
X13452100Y-7244400D02*
X13352100Y-7344400D01*
X13490600Y-6960400D02*
X13590600Y-7060400D01*
X13590600Y-6960400D02*
X13490600Y-7060400D01*
X13615200Y-5879150D02*
X13715200Y-5979150D01*
X13715200Y-5879150D02*
X13615200Y-5979150D01*
X13615200Y-6133150D02*
X13715200Y-6233150D01*
X13715200Y-6133150D02*
X13615200Y-6233150D01*
X13629100Y-7244400D02*
X13729100Y-7344400D01*
X13729100Y-7244400D02*
X13629100Y-7344400D01*
X13767600Y-6960400D02*
X13867600Y-7060400D01*
X13867600Y-6960400D02*
X13767600Y-7060400D01*
X13869200Y-5879150D02*
X13969200Y-5979150D01*
X13969200Y-5879150D02*
X13869200Y-5979150D01*
X13869200Y-6133150D02*
X13969200Y-6233150D01*
X13969200Y-6133150D02*
X13869200Y-6233150D01*
X13906100Y-7244400D02*
X14006100Y-7344400D01*
X14006100Y-7244400D02*
X13906100Y-7344400D01*
X14044600Y-6960400D02*
X14144600Y-7060400D01*
X14144600Y-6960400D02*
X14044600Y-7060400D01*
X14123200Y-5879150D02*
X14223200Y-5979150D01*
X14223200Y-5879150D02*
X14123200Y-5979150D01*
X14123200Y-6133150D02*
X14223200Y-6233150D01*
X14223200Y-6133150D02*
X14123200Y-6233150D01*
X14183100Y-7244400D02*
X14283100Y-7344400D01*
X14283100Y-7244400D02*
X14183100Y-7344400D01*
X14321600Y-6960400D02*
X14421600Y-7060400D01*
X14421600Y-6960400D02*
X14321600Y-7060400D01*
X14377200Y-5879150D02*
X14477200Y-5979150D01*
X14477200Y-5879150D02*
X14377200Y-5979150D01*
X14377200Y-6133150D02*
X14477200Y-6233150D01*
X14477200Y-6133150D02*
X14377200Y-6233150D01*
X14460100Y-7244400D02*
X14560100Y-7344400D01*
X14560100Y-7244400D02*
X14460100Y-7344400D01*
X14598600Y-6960400D02*
X14698600Y-7060400D01*
X14698600Y-6960400D02*
X14598600Y-7060400D01*
X14631200Y-5879150D02*
X14731200Y-5979150D01*
X14731200Y-5879150D02*
X14631200Y-5979150D01*
X14631200Y-6133150D02*
X14731200Y-6233150D01*
X14731200Y-6133150D02*
X14631200Y-6233150D01*
X14737100Y-7244400D02*
X14837100Y-7344400D01*
X14837100Y-7244400D02*
X14737100Y-7344400D01*
X14875600Y-6960400D02*
X14975600Y-7060400D01*
X14975600Y-6960400D02*
X14875600Y-7060400D01*
X14885200Y-5879150D02*
X14985200Y-5979150D01*
X14985200Y-5879150D02*
X14885200Y-5979150D01*
X14885200Y-6133150D02*
X14985200Y-6233150D01*
X14985200Y-6133150D02*
X14885200Y-6233150D01*
X15014100Y-7244400D02*
X15114100Y-7344400D01*
X15114100Y-7244400D02*
X15014100Y-7344400D01*
X15139200Y-5879150D02*
X15239200Y-5979150D01*
X15239200Y-5879150D02*
X15139200Y-5979150D01*
X15139200Y-6133150D02*
X15239200Y-6233150D01*
X15239200Y-6133150D02*
X15139200Y-6233150D01*
X15152600Y-6960400D02*
X15252600Y-7060400D01*
X15252600Y-6960400D02*
X15152600Y-7060400D01*
X15291100Y-7244400D02*
X15391100Y-7344400D01*
X15391100Y-7244400D02*
X15291100Y-7344400D01*
X15393200Y-5879150D02*
X15493200Y-5979150D01*
X15493200Y-5879150D02*
X15393200Y-5979150D01*
X15393200Y-6133150D02*
X15493200Y-6233150D01*
X15493200Y-6133150D02*
X15393200Y-6233150D01*
X15429600Y-6960400D02*
X15529600Y-7060400D01*
X15529600Y-6960400D02*
X15429600Y-7060400D01*
X15568100Y-7244400D02*
X15668100Y-7344400D01*
X15668100Y-7244400D02*
X15568100Y-7344400D01*
X15647200Y-5879150D02*
X15747200Y-5979150D01*
X15747200Y-5879150D02*
X15647200Y-5979150D01*
X15647200Y-6133150D02*
X15747200Y-6233150D01*
X15747200Y-6133150D02*
X15647200Y-6233150D01*
X15706600Y-6960400D02*
X15806600Y-7060400D01*
X15806600Y-6960400D02*
X15706600Y-7060400D01*
X15845100Y-7244400D02*
X15945100Y-7344400D01*
X15945100Y-7244400D02*
X15845100Y-7344400D01*
X15901200Y-5879150D02*
X16001200Y-5979150D01*
X16001200Y-5879150D02*
X15901200Y-5979150D01*
X15901200Y-6133150D02*
X16001200Y-6233150D01*
X16001200Y-6133150D02*
X15901200Y-6233150D01*
X15983600Y-6960400D02*
X16083600Y-7060400D01*
X16083600Y-6960400D02*
X15983600Y-7060400D01*
X16122100Y-7244400D02*
X16222100Y-7344400D01*
X16222100Y-7244400D02*
X16122100Y-7344400D01*
X16155200Y-5879150D02*
X16255200Y-5979150D01*
X16255200Y-5879150D02*
X16155200Y-5979150D01*
X16155200Y-6133150D02*
X16255200Y-6233150D01*
X16255200Y-6133150D02*
X16155200Y-6233150D01*
X16260600Y-6960400D02*
X16360600Y-7060400D01*
X16360600Y-6960400D02*
X16260600Y-7060400D01*
X16399100Y-7244400D02*
X16499100Y-7344400D01*
X16499100Y-7244400D02*
X16399100Y-7344400D01*
X16409200Y-5879150D02*
X16509200Y-5979150D01*
X16509200Y-5879150D02*
X16409200Y-5979150D01*
X16409200Y-6133150D02*
X16509200Y-6233150D01*
X16509200Y-6133150D02*
X16409200Y-6233150D01*
X16537600Y-6960400D02*
X16637600Y-7060400D01*
X16637600Y-6960400D02*
X16537600Y-7060400D01*
X16663200Y-5879150D02*
X16763200Y-5979150D01*
X16763200Y-5879150D02*
X16663200Y-5979150D01*
X16663200Y-6133150D02*
X16763200Y-6233150D01*
X16763200Y-6133150D02*
X16663200Y-6233150D01*
X16676100Y-7244400D02*
X16776100Y-7344400D01*
X16776100Y-7244400D02*
X16676100Y-7344400D01*
X16814600Y-6960400D02*
X16914600Y-7060400D01*
X16914600Y-6960400D02*
X16814600Y-7060400D01*
X16917200Y-5879150D02*
X17017200Y-5979150D01*
X17017200Y-5879150D02*
X16917200Y-5979150D01*
X16917200Y-6133150D02*
X17017200Y-6233150D01*
X17017200Y-6133150D02*
X16917200Y-6233150D01*
X16953100Y-7244400D02*
X17053100Y-7344400D01*
X17053100Y-7244400D02*
X16953100Y-7344400D01*
X17091600Y-6960400D02*
X17191600Y-7060400D01*
X17191600Y-6960400D02*
X17091600Y-7060400D01*
X17171200Y-5879150D02*
X17271200Y-5979150D01*
X17271200Y-5879150D02*
X17171200Y-5979150D01*
X17171200Y-6133150D02*
X17271200Y-6233150D01*
X17271200Y-6133150D02*
X17171200Y-6233150D01*
X17230100Y-7244400D02*
X17330100Y-7344400D01*
X17330100Y-7244400D02*
X17230100Y-7344400D01*
X17368600Y-6960400D02*
X17468600Y-7060400D01*
X17468600Y-6960400D02*
X17368600Y-7060400D01*
X17425200Y-5879150D02*
X17525200Y-5979150D01*
X17525200Y-5879150D02*
X17425200Y-5979150D01*
X17425200Y-6133150D02*
X17525200Y-6233150D01*
X17525200Y-6133150D02*
X17425200Y-6233150D01*
X17507100Y-7244400D02*
X17607100Y-7344400D01*
X17607100Y-7244400D02*
X17507100Y-7344400D01*
X17645600Y-6960400D02*
X17745600Y-7060400D01*
X17745600Y-6960400D02*
X17645600Y-7060400D01*
X17679200Y-5879150D02*
X17779200Y-5979150D01*
X17779200Y-5879150D02*
X17679200Y-5979150D01*
X17679200Y-6133150D02*
X17779200Y-6233150D01*
X17779200Y-6133150D02*
X17679200Y-6233150D01*
X17784100Y-7244400D02*
X17884100Y-7344400D01*
X17884100Y-7244400D02*
X17784100Y-7344400D01*
X17922600Y-6960400D02*
X18022600Y-7060400D01*
X18022600Y-6960400D02*
X17922600Y-7060400D01*
X18061100Y-7244400D02*
X18161100Y-7344400D01*
X18161100Y-7244400D02*
X18061100Y-7344400D01*
X18199600Y-6960400D02*
X18299600Y-7060400D01*
X18299600Y-6960400D02*
X18199600Y-7060400D01*
D13*
X12741600Y-7040400D02*
G75*
G03*
X12741600Y-7040400I-160000J0D01*
G01*
X19091600Y-7040400D02*
G75*
G03*
X19091600Y-7040400I-160000J0D01*
G01*
D11*
X12262737Y-8189476D02*
X12262737Y-7989476D01*
X12310356Y-7989476D01*
X12338927Y-7999000D01*
X12357975Y-8018048D01*
X12367498Y-8037095D01*
X12377022Y-8075190D01*
X12377022Y-8103762D01*
X12367498Y-8141857D01*
X12357975Y-8160905D01*
X12338927Y-8179952D01*
X12310356Y-8189476D01*
X12262737Y-8189476D01*
X12462737Y-8189476D02*
X12462737Y-8056143D01*
X12462737Y-8094238D02*
X12472260Y-8075190D01*
X12481784Y-8065667D01*
X12500832Y-8056143D01*
X12519879Y-8056143D01*
X12586546Y-8189476D02*
X12586546Y-8056143D01*
X12586546Y-7989476D02*
X12577022Y-7999000D01*
X12586546Y-8008524D01*
X12596070Y-7999000D01*
X12586546Y-7989476D01*
X12586546Y-8008524D01*
X12710356Y-8189476D02*
X12691308Y-8179952D01*
X12681784Y-8160905D01*
X12681784Y-7989476D01*
X12815118Y-8189476D02*
X12796070Y-8179952D01*
X12786546Y-8160905D01*
X12786546Y-7989476D01*
X13043689Y-8189476D02*
X13043689Y-7989476D01*
X13110356Y-8132333D01*
X13177022Y-7989476D01*
X13177022Y-8189476D01*
X13357975Y-8189476D02*
X13357975Y-8084714D01*
X13348451Y-8065667D01*
X13329403Y-8056143D01*
X13291308Y-8056143D01*
X13272260Y-8065667D01*
X13357975Y-8179952D02*
X13338927Y-8189476D01*
X13291308Y-8189476D01*
X13272260Y-8179952D01*
X13262737Y-8160905D01*
X13262737Y-8141857D01*
X13272260Y-8122809D01*
X13291308Y-8113286D01*
X13338927Y-8113286D01*
X13357975Y-8103762D01*
X13453213Y-8056143D02*
X13453213Y-8256143D01*
X13453213Y-8065667D02*
X13472260Y-8056143D01*
X13510356Y-8056143D01*
X13529403Y-8065667D01*
X13538927Y-8075190D01*
X13548451Y-8094238D01*
X13548451Y-8151381D01*
X13538927Y-8170428D01*
X13529403Y-8179952D01*
X13510356Y-8189476D01*
X13472260Y-8189476D01*
X13453213Y-8179952D01*
X13634165Y-8170428D02*
X13643689Y-8179952D01*
X13634165Y-8189476D01*
X13624641Y-8179952D01*
X13634165Y-8170428D01*
X13634165Y-8189476D01*
X13634165Y-8065667D02*
X13643689Y-8075190D01*
X13634165Y-8084714D01*
X13624641Y-8075190D01*
X13634165Y-8065667D01*
X13634165Y-8084714D01*
D12*
X11905118Y-8469000D02*
X12005118Y-8569000D01*
X12005118Y-8469000D02*
X11905118Y-8569000D01*
D11*
X12367498Y-8609476D02*
X12253213Y-8609476D01*
X12310356Y-8609476D02*
X12310356Y-8409476D01*
X12291308Y-8438048D01*
X12272260Y-8457095D01*
X12253213Y-8466619D01*
X12453213Y-8590429D02*
X12462737Y-8599952D01*
X12453213Y-8609476D01*
X12443689Y-8599952D01*
X12453213Y-8590429D01*
X12453213Y-8609476D01*
X12586546Y-8409476D02*
X12605594Y-8409476D01*
X12624641Y-8419000D01*
X12634165Y-8428524D01*
X12643689Y-8447571D01*
X12653213Y-8485667D01*
X12653213Y-8533286D01*
X12643689Y-8571381D01*
X12634165Y-8590429D01*
X12624641Y-8599952D01*
X12605594Y-8609476D01*
X12586546Y-8609476D01*
X12567498Y-8599952D01*
X12557975Y-8590429D01*
X12548451Y-8571381D01*
X12538927Y-8533286D01*
X12538927Y-8485667D01*
X12548451Y-8447571D01*
X12557975Y-8428524D01*
X12567498Y-8419000D01*
X12586546Y-8409476D01*
X12777022Y-8409476D02*
X12796070Y-8409476D01*
X12815118Y-8419000D01*
X12824641Y-8428524D01*
X12834165Y-8447571D01*
X12843689Y-8485667D01*
X12843689Y-8533286D01*
X12834165Y-8571381D01*
X12824641Y-8590429D01*
X12815118Y-8599952D01*
X12796070Y-8609476D01*
X12777022Y-8609476D01*
X12757975Y-8599952D01*
X12748451Y-8590429D01*
X12738927Y-8571381D01*
X12729403Y-8533286D01*
X12729403Y-8485667D01*
X12738927Y-8447571D01*
X12748451Y-8428524D01*
X12757975Y-8419000D01*
X12777022Y-8409476D01*
X12967498Y-8409476D02*
X12986546Y-8409476D01*
X13005594Y-8419000D01*
X13015118Y-8428524D01*
X13024641Y-8447571D01*
X13034165Y-8485667D01*
X13034165Y-8533286D01*
X13024641Y-8571381D01*
X13015118Y-8590429D01*
X13005594Y-8599952D01*
X12986546Y-8609476D01*
X12967498Y-8609476D01*
X12948451Y-8599952D01*
X12938927Y-8590429D01*
X12929403Y-8571381D01*
X12919879Y-8533286D01*
X12919879Y-8485667D01*
X12929403Y-8447571D01*
X12938927Y-8428524D01*
X12948451Y-8419000D01*
X12967498Y-8409476D01*
X13119879Y-8609476D02*
X13119879Y-8476143D01*
X13119879Y-8495190D02*
X13129403Y-8485667D01*
X13148451Y-8476143D01*
X13177022Y-8476143D01*
X13196070Y-8485667D01*
X13205594Y-8504714D01*
X13205594Y-8609476D01*
X13205594Y-8504714D02*
X13215118Y-8485667D01*
X13234165Y-8476143D01*
X13262737Y-8476143D01*
X13281784Y-8485667D01*
X13291308Y-8504714D01*
X13291308Y-8609476D01*
X13386546Y-8609476D02*
X13386546Y-8476143D01*
X13386546Y-8495190D02*
X13396070Y-8485667D01*
X13415118Y-8476143D01*
X13443689Y-8476143D01*
X13462737Y-8485667D01*
X13472260Y-8504714D01*
X13472260Y-8609476D01*
X13472260Y-8504714D02*
X13481784Y-8485667D01*
X13500832Y-8476143D01*
X13529403Y-8476143D01*
X13548451Y-8485667D01*
X13557975Y-8504714D01*
X13557975Y-8609476D01*
X13948451Y-8399952D02*
X13777022Y-8657095D01*
X14205594Y-8409476D02*
X14224641Y-8409476D01*
X14243689Y-8419000D01*
X14253213Y-8428524D01*
X14262737Y-8447571D01*
X14272260Y-8485667D01*
X14272260Y-8533286D01*
X14262737Y-8571381D01*
X14253213Y-8590429D01*
X14243689Y-8599952D01*
X14224641Y-8609476D01*
X14205594Y-8609476D01*
X14186546Y-8599952D01*
X14177022Y-8590429D01*
X14167498Y-8571381D01*
X14157975Y-8533286D01*
X14157975Y-8485667D01*
X14167498Y-8447571D01*
X14177022Y-8428524D01*
X14186546Y-8419000D01*
X14205594Y-8409476D01*
X14357975Y-8590429D02*
X14367498Y-8599952D01*
X14357975Y-8609476D01*
X14348451Y-8599952D01*
X14357975Y-8590429D01*
X14357975Y-8609476D01*
X14491308Y-8409476D02*
X14510356Y-8409476D01*
X14529403Y-8419000D01*
X14538927Y-8428524D01*
X14548451Y-8447571D01*
X14557975Y-8485667D01*
X14557975Y-8533286D01*
X14548451Y-8571381D01*
X14538927Y-8590429D01*
X14529403Y-8599952D01*
X14510356Y-8609476D01*
X14491308Y-8609476D01*
X14472260Y-8599952D01*
X14462737Y-8590429D01*
X14453213Y-8571381D01*
X14443689Y-8533286D01*
X14443689Y-8485667D01*
X14453213Y-8447571D01*
X14462737Y-8428524D01*
X14472260Y-8419000D01*
X14491308Y-8409476D01*
X14624641Y-8409476D02*
X14748451Y-8409476D01*
X14681784Y-8485667D01*
X14710356Y-8485667D01*
X14729403Y-8495190D01*
X14738927Y-8504714D01*
X14748451Y-8523762D01*
X14748451Y-8571381D01*
X14738927Y-8590429D01*
X14729403Y-8599952D01*
X14710356Y-8609476D01*
X14653213Y-8609476D01*
X14634165Y-8599952D01*
X14624641Y-8590429D01*
X14843689Y-8609476D02*
X14881784Y-8609476D01*
X14900832Y-8599952D01*
X14910356Y-8590429D01*
X14929403Y-8561857D01*
X14938927Y-8523762D01*
X14938927Y-8447571D01*
X14929403Y-8428524D01*
X14919879Y-8419000D01*
X14900832Y-8409476D01*
X14862737Y-8409476D01*
X14843689Y-8419000D01*
X14834165Y-8428524D01*
X14824641Y-8447571D01*
X14824641Y-8495190D01*
X14834165Y-8514238D01*
X14843689Y-8523762D01*
X14862737Y-8533286D01*
X14900832Y-8533286D01*
X14919879Y-8523762D01*
X14929403Y-8514238D01*
X14938927Y-8495190D01*
X15110356Y-8476143D02*
X15110356Y-8609476D01*
X15062737Y-8399952D02*
X15015118Y-8542810D01*
X15138927Y-8542810D01*
X15205594Y-8409476D02*
X15205594Y-8447571D01*
X15281784Y-8409476D02*
X15281784Y-8447571D01*
X15577022Y-8685667D02*
X15567498Y-8676143D01*
X15548451Y-8647571D01*
X15538927Y-8628524D01*
X15529403Y-8599952D01*
X15519879Y-8552333D01*
X15519879Y-8514238D01*
X15529403Y-8466619D01*
X15538927Y-8438048D01*
X15548451Y-8419000D01*
X15567498Y-8390429D01*
X15577022Y-8380905D01*
X15634165Y-8409476D02*
X15767498Y-8409476D01*
X15681784Y-8609476D01*
X15948451Y-8609476D02*
X15834165Y-8609476D01*
X15891308Y-8609476D02*
X15891308Y-8409476D01*
X15872260Y-8438048D01*
X15853213Y-8457095D01*
X15834165Y-8466619D01*
X16186546Y-8609476D02*
X16186546Y-8409476D01*
X16272260Y-8609476D02*
X16272260Y-8504714D01*
X16262737Y-8485667D01*
X16243689Y-8476143D01*
X16215117Y-8476143D01*
X16196070Y-8485667D01*
X16186546Y-8495190D01*
X16396070Y-8609476D02*
X16377022Y-8599952D01*
X16367498Y-8590429D01*
X16357975Y-8571381D01*
X16357975Y-8514238D01*
X16367498Y-8495190D01*
X16377022Y-8485667D01*
X16396070Y-8476143D01*
X16424641Y-8476143D01*
X16443689Y-8485667D01*
X16453213Y-8495190D01*
X16462737Y-8514238D01*
X16462737Y-8571381D01*
X16453213Y-8590429D01*
X16443689Y-8599952D01*
X16424641Y-8609476D01*
X16396070Y-8609476D01*
X16577022Y-8609476D02*
X16557975Y-8599952D01*
X16548451Y-8580905D01*
X16548451Y-8409476D01*
X16729403Y-8599952D02*
X16710356Y-8609476D01*
X16672260Y-8609476D01*
X16653213Y-8599952D01*
X16643689Y-8580905D01*
X16643689Y-8504714D01*
X16653213Y-8485667D01*
X16672260Y-8476143D01*
X16710356Y-8476143D01*
X16729403Y-8485667D01*
X16738927Y-8504714D01*
X16738927Y-8523762D01*
X16643689Y-8542810D01*
X16815118Y-8599952D02*
X16834165Y-8609476D01*
X16872260Y-8609476D01*
X16891308Y-8599952D01*
X16900832Y-8580905D01*
X16900832Y-8571381D01*
X16891308Y-8552333D01*
X16872260Y-8542810D01*
X16843689Y-8542810D01*
X16824641Y-8533286D01*
X16815118Y-8514238D01*
X16815118Y-8504714D01*
X16824641Y-8485667D01*
X16843689Y-8476143D01*
X16872260Y-8476143D01*
X16891308Y-8485667D01*
X16967499Y-8685667D02*
X16977022Y-8676143D01*
X16996070Y-8647571D01*
X17005594Y-8628524D01*
X17015118Y-8599952D01*
X17024641Y-8552333D01*
X17024641Y-8514238D01*
X17015118Y-8466619D01*
X17005594Y-8438048D01*
X16996070Y-8419000D01*
X16977022Y-8390429D01*
X16967499Y-8380905D01*
X12005118Y-8783000D02*
G75*
G03*
X12005118Y-8783000I-100000J0D01*
G01*
X12243689Y-8673476D02*
X12367498Y-8673476D01*
X12300832Y-8749667D01*
X12329403Y-8749667D01*
X12348451Y-8759190D01*
X12357975Y-8768714D01*
X12367498Y-8787762D01*
X12367498Y-8835381D01*
X12357975Y-8854429D01*
X12348451Y-8863952D01*
X12329403Y-8873476D01*
X12272260Y-8873476D01*
X12253213Y-8863952D01*
X12243689Y-8854429D01*
X12453213Y-8854429D02*
X12462737Y-8863952D01*
X12453213Y-8873476D01*
X12443689Y-8863952D01*
X12453213Y-8854429D01*
X12453213Y-8873476D01*
X12538927Y-8692524D02*
X12548451Y-8683000D01*
X12567498Y-8673476D01*
X12615118Y-8673476D01*
X12634165Y-8683000D01*
X12643689Y-8692524D01*
X12653213Y-8711571D01*
X12653213Y-8730619D01*
X12643689Y-8759190D01*
X12529403Y-8873476D01*
X12653213Y-8873476D01*
X12777022Y-8673476D02*
X12796070Y-8673476D01*
X12815118Y-8683000D01*
X12824641Y-8692524D01*
X12834165Y-8711571D01*
X12843689Y-8749667D01*
X12843689Y-8797286D01*
X12834165Y-8835381D01*
X12824641Y-8854429D01*
X12815118Y-8863952D01*
X12796070Y-8873476D01*
X12777022Y-8873476D01*
X12757975Y-8863952D01*
X12748451Y-8854429D01*
X12738927Y-8835381D01*
X12729403Y-8797286D01*
X12729403Y-8749667D01*
X12738927Y-8711571D01*
X12748451Y-8692524D01*
X12757975Y-8683000D01*
X12777022Y-8673476D01*
X12967498Y-8673476D02*
X12986546Y-8673476D01*
X13005594Y-8683000D01*
X13015118Y-8692524D01*
X13024641Y-8711571D01*
X13034165Y-8749667D01*
X13034165Y-8797286D01*
X13024641Y-8835381D01*
X13015118Y-8854429D01*
X13005594Y-8863952D01*
X12986546Y-8873476D01*
X12967498Y-8873476D01*
X12948451Y-8863952D01*
X12938927Y-8854429D01*
X12929403Y-8835381D01*
X12919879Y-8797286D01*
X12919879Y-8749667D01*
X12929403Y-8711571D01*
X12938927Y-8692524D01*
X12948451Y-8683000D01*
X12967498Y-8673476D01*
X13119879Y-8873476D02*
X13119879Y-8740143D01*
X13119879Y-8759190D02*
X13129403Y-8749667D01*
X13148451Y-8740143D01*
X13177022Y-8740143D01*
X13196070Y-8749667D01*
X13205594Y-8768714D01*
X13205594Y-8873476D01*
X13205594Y-8768714D02*
X13215118Y-8749667D01*
X13234165Y-8740143D01*
X13262737Y-8740143D01*
X13281784Y-8749667D01*
X13291308Y-8768714D01*
X13291308Y-8873476D01*
X13386546Y-8873476D02*
X13386546Y-8740143D01*
X13386546Y-8759190D02*
X13396070Y-8749667D01*
X13415118Y-8740143D01*
X13443689Y-8740143D01*
X13462737Y-8749667D01*
X13472260Y-8768714D01*
X13472260Y-8873476D01*
X13472260Y-8768714D02*
X13481784Y-8749667D01*
X13500832Y-8740143D01*
X13529403Y-8740143D01*
X13548451Y-8749667D01*
X13557975Y-8768714D01*
X13557975Y-8873476D01*
X13948451Y-8663952D02*
X13777022Y-8921095D01*
X14205594Y-8673476D02*
X14224641Y-8673476D01*
X14243689Y-8683000D01*
X14253213Y-8692524D01*
X14262737Y-8711571D01*
X14272260Y-8749667D01*
X14272260Y-8797286D01*
X14262737Y-8835381D01*
X14253213Y-8854429D01*
X14243689Y-8863952D01*
X14224641Y-8873476D01*
X14205594Y-8873476D01*
X14186546Y-8863952D01*
X14177022Y-8854429D01*
X14167498Y-8835381D01*
X14157975Y-8797286D01*
X14157975Y-8749667D01*
X14167498Y-8711571D01*
X14177022Y-8692524D01*
X14186546Y-8683000D01*
X14205594Y-8673476D01*
X14357975Y-8854429D02*
X14367498Y-8863952D01*
X14357975Y-8873476D01*
X14348451Y-8863952D01*
X14357975Y-8854429D01*
X14357975Y-8873476D01*
X14557975Y-8873476D02*
X14443689Y-8873476D01*
X14500832Y-8873476D02*
X14500832Y-8673476D01*
X14481784Y-8702048D01*
X14462737Y-8721095D01*
X14443689Y-8730619D01*
X14634165Y-8692524D02*
X14643689Y-8683000D01*
X14662737Y-8673476D01*
X14710356Y-8673476D01*
X14729403Y-8683000D01*
X14738927Y-8692524D01*
X14748451Y-8711571D01*
X14748451Y-8730619D01*
X14738927Y-8759190D01*
X14624641Y-8873476D01*
X14748451Y-8873476D01*
X14919879Y-8673476D02*
X14881784Y-8673476D01*
X14862737Y-8683000D01*
X14853213Y-8692524D01*
X14834165Y-8721095D01*
X14824641Y-8759190D01*
X14824641Y-8835381D01*
X14834165Y-8854429D01*
X14843689Y-8863952D01*
X14862737Y-8873476D01*
X14900832Y-8873476D01*
X14919879Y-8863952D01*
X14929403Y-8854429D01*
X14938927Y-8835381D01*
X14938927Y-8787762D01*
X14929403Y-8768714D01*
X14919879Y-8759190D01*
X14900832Y-8749667D01*
X14862737Y-8749667D01*
X14843689Y-8759190D01*
X14834165Y-8768714D01*
X14824641Y-8787762D01*
X15062737Y-8673476D02*
X15081784Y-8673476D01*
X15100832Y-8683000D01*
X15110356Y-8692524D01*
X15119879Y-8711571D01*
X15129403Y-8749667D01*
X15129403Y-8797286D01*
X15119879Y-8835381D01*
X15110356Y-8854429D01*
X15100832Y-8863952D01*
X15081784Y-8873476D01*
X15062737Y-8873476D01*
X15043689Y-8863952D01*
X15034165Y-8854429D01*
X15024641Y-8835381D01*
X15015118Y-8797286D01*
X15015118Y-8749667D01*
X15024641Y-8711571D01*
X15034165Y-8692524D01*
X15043689Y-8683000D01*
X15062737Y-8673476D01*
X15205594Y-8673476D02*
X15205594Y-8711571D01*
X15281784Y-8673476D02*
X15281784Y-8711571D01*
X15577022Y-8949667D02*
X15567498Y-8940143D01*
X15548451Y-8911571D01*
X15538927Y-8892524D01*
X15529403Y-8863952D01*
X15519879Y-8816333D01*
X15519879Y-8778238D01*
X15529403Y-8730619D01*
X15538927Y-8702048D01*
X15548451Y-8683000D01*
X15567498Y-8654429D01*
X15577022Y-8644905D01*
X15643689Y-8692524D02*
X15653213Y-8683000D01*
X15672260Y-8673476D01*
X15719879Y-8673476D01*
X15738927Y-8683000D01*
X15748451Y-8692524D01*
X15757975Y-8711571D01*
X15757975Y-8730619D01*
X15748451Y-8759190D01*
X15634165Y-8873476D01*
X15757975Y-8873476D01*
X15996070Y-8873476D02*
X15996070Y-8673476D01*
X16081784Y-8873476D02*
X16081784Y-8768714D01*
X16072260Y-8749667D01*
X16053213Y-8740143D01*
X16024641Y-8740143D01*
X16005594Y-8749667D01*
X15996070Y-8759190D01*
X16205594Y-8873476D02*
X16186546Y-8863952D01*
X16177022Y-8854429D01*
X16167498Y-8835381D01*
X16167498Y-8778238D01*
X16177022Y-8759190D01*
X16186546Y-8749667D01*
X16205594Y-8740143D01*
X16234165Y-8740143D01*
X16253213Y-8749667D01*
X16262737Y-8759190D01*
X16272260Y-8778238D01*
X16272260Y-8835381D01*
X16262737Y-8854429D01*
X16253213Y-8863952D01*
X16234165Y-8873476D01*
X16205594Y-8873476D01*
X16386546Y-8873476D02*
X16367498Y-8863952D01*
X16357975Y-8844905D01*
X16357975Y-8673476D01*
X16538927Y-8863952D02*
X16519879Y-8873476D01*
X16481784Y-8873476D01*
X16462737Y-8863952D01*
X16453213Y-8844905D01*
X16453213Y-8768714D01*
X16462737Y-8749667D01*
X16481784Y-8740143D01*
X16519879Y-8740143D01*
X16538927Y-8749667D01*
X16548451Y-8768714D01*
X16548451Y-8787762D01*
X16453213Y-8806810D01*
X16624641Y-8863952D02*
X16643689Y-8873476D01*
X16681784Y-8873476D01*
X16700832Y-8863952D01*
X16710356Y-8844905D01*
X16710356Y-8835381D01*
X16700832Y-8816333D01*
X16681784Y-8806810D01*
X16653213Y-8806810D01*
X16634165Y-8797286D01*
X16624641Y-8778238D01*
X16624641Y-8768714D01*
X16634165Y-8749667D01*
X16653213Y-8740143D01*
X16681784Y-8740143D01*
X16700832Y-8749667D01*
X16777022Y-8949667D02*
X16786546Y-8940143D01*
X16805594Y-8911571D01*
X16815118Y-8892524D01*
X16824641Y-8863952D01*
X16834165Y-8816333D01*
X16834165Y-8778238D01*
X16824641Y-8730619D01*
X16815118Y-8702048D01*
X16805594Y-8683000D01*
X16786546Y-8654429D01*
X16777022Y-8644905D01*
M02*
