%TF.GenerationSoftware,KiCad,Pcbnew,(6.0.6)*%
%TF.CreationDate,2023-06-09T12:55:26+02:00*%
%TF.ProjectId,FDAdapter,46444164-6170-4746-9572-2e6b69636164,rev?*%
%TF.SameCoordinates,Original*%
%TF.FileFunction,Soldermask,Bot*%
%TF.FilePolarity,Negative*%
%FSLAX46Y46*%
G04 Gerber Fmt 4.6, Leading zero omitted, Abs format (unit mm)*
G04 Created by KiCad (PCBNEW (6.0.6)) date 2023-06-09 12:55:26*
%MOMM*%
%LPD*%
G01*
G04 APERTURE LIST*
G04 Aperture macros list*
%AMRoundRect*
0 Rectangle with rounded corners*
0 $1 Rounding radius*
0 $2 $3 $4 $5 $6 $7 $8 $9 X,Y pos of 4 corners*
0 Add a 4 corners polygon primitive as box body*
4,1,4,$2,$3,$4,$5,$6,$7,$8,$9,$2,$3,0*
0 Add four circle primitives for the rounded corners*
1,1,$1+$1,$2,$3*
1,1,$1+$1,$4,$5*
1,1,$1+$1,$6,$7*
1,1,$1+$1,$8,$9*
0 Add four rect primitives between the rounded corners*
20,1,$1+$1,$2,$3,$4,$5,0*
20,1,$1+$1,$4,$5,$6,$7,0*
20,1,$1+$1,$6,$7,$8,$9,0*
20,1,$1+$1,$8,$9,$2,$3,0*%
G04 Aperture macros list end*
%ADD10C,4.000000*%
%ADD11R,1.600000X1.600000*%
%ADD12C,1.600000*%
%ADD13RoundRect,0.250000X0.600000X-0.600000X0.600000X0.600000X-0.600000X0.600000X-0.600000X-0.600000X0*%
%ADD14C,1.700000*%
G04 APERTURE END LIST*
D10*
%TO.C,J1*%
X189316000Y-70404000D03*
X125816000Y-70404000D03*
D11*
X132636000Y-70104000D03*
D12*
X135406000Y-70104000D03*
X138176000Y-70104000D03*
X140946000Y-70104000D03*
X143716000Y-70104000D03*
X146486000Y-70104000D03*
X149256000Y-70104000D03*
X152026000Y-70104000D03*
X154796000Y-70104000D03*
X157566000Y-70104000D03*
X160336000Y-70104000D03*
X163106000Y-70104000D03*
X165876000Y-70104000D03*
X168646000Y-70104000D03*
X171416000Y-70104000D03*
X174186000Y-70104000D03*
X176956000Y-70104000D03*
X179726000Y-70104000D03*
X182496000Y-70104000D03*
X134021000Y-72944000D03*
X136791000Y-72944000D03*
X139561000Y-72944000D03*
X142331000Y-72944000D03*
X145101000Y-72944000D03*
X147871000Y-72944000D03*
X150641000Y-72944000D03*
X153411000Y-72944000D03*
X156181000Y-72944000D03*
X158951000Y-72944000D03*
X161721000Y-72944000D03*
X164491000Y-72944000D03*
X167261000Y-72944000D03*
X170031000Y-72944000D03*
X172801000Y-72944000D03*
X175571000Y-72944000D03*
X178341000Y-72944000D03*
X181111000Y-72944000D03*
%TD*%
D13*
%TO.C,J2*%
X136652000Y-61831500D03*
D14*
X136652000Y-59291500D03*
X139192000Y-61831500D03*
X139192000Y-59291500D03*
X141732000Y-61831500D03*
X141732000Y-59291500D03*
X144272000Y-61831500D03*
X144272000Y-59291500D03*
X146812000Y-61831500D03*
X146812000Y-59291500D03*
X149352000Y-61831500D03*
X149352000Y-59291500D03*
X151892000Y-61831500D03*
X151892000Y-59291500D03*
X154432000Y-61831500D03*
X154432000Y-59291500D03*
X156972000Y-61831500D03*
X156972000Y-59291500D03*
X159512000Y-61831500D03*
X159512000Y-59291500D03*
X162052000Y-61831500D03*
X162052000Y-59291500D03*
X164592000Y-61831500D03*
X164592000Y-59291500D03*
X167132000Y-61831500D03*
X167132000Y-59291500D03*
X169672000Y-61831500D03*
X169672000Y-59291500D03*
X172212000Y-61831500D03*
X172212000Y-59291500D03*
X174752000Y-61831500D03*
X174752000Y-59291500D03*
X177292000Y-61831500D03*
X177292000Y-59291500D03*
%TD*%
M02*
