%TF.GenerationSoftware,KiCad,Pcbnew,(6.0.6)*%
%TF.CreationDate,2023-06-21T15:59:23+02:00*%
%TF.ProjectId,X68KFDPI,5836384b-4644-4504-992e-6b696361645f,rev?*%
%TF.SameCoordinates,Original*%
%TF.FileFunction,Copper,L2,Bot*%
%TF.FilePolarity,Positive*%
%FSLAX46Y46*%
G04 Gerber Fmt 4.6, Leading zero omitted, Abs format (unit mm)*
G04 Created by KiCad (PCBNEW (6.0.6)) date 2023-06-21 15:59:23*
%MOMM*%
%LPD*%
G01*
G04 APERTURE LIST*
G04 Aperture macros list*
%AMRoundRect*
0 Rectangle with rounded corners*
0 $1 Rounding radius*
0 $2 $3 $4 $5 $6 $7 $8 $9 X,Y pos of 4 corners*
0 Add a 4 corners polygon primitive as box body*
4,1,4,$2,$3,$4,$5,$6,$7,$8,$9,$2,$3,0*
0 Add four circle primitives for the rounded corners*
1,1,$1+$1,$2,$3*
1,1,$1+$1,$4,$5*
1,1,$1+$1,$6,$7*
1,1,$1+$1,$8,$9*
0 Add four rect primitives between the rounded corners*
20,1,$1+$1,$2,$3,$4,$5,0*
20,1,$1+$1,$4,$5,$6,$7,0*
20,1,$1+$1,$6,$7,$8,$9,0*
20,1,$1+$1,$8,$9,$2,$3,0*%
G04 Aperture macros list end*
%TA.AperFunction,ComponentPad*%
%ADD10C,1.600000*%
%TD*%
%TA.AperFunction,ComponentPad*%
%ADD11R,1.800000X1.800000*%
%TD*%
%TA.AperFunction,ComponentPad*%
%ADD12C,1.800000*%
%TD*%
%TA.AperFunction,ComponentPad*%
%ADD13O,1.600000X1.600000*%
%TD*%
%TA.AperFunction,ComponentPad*%
%ADD14O,1.700000X1.700000*%
%TD*%
%TA.AperFunction,ComponentPad*%
%ADD15R,1.700000X1.700000*%
%TD*%
%TA.AperFunction,ComponentPad*%
%ADD16C,2.100000*%
%TD*%
%TA.AperFunction,ComponentPad*%
%ADD17C,1.750000*%
%TD*%
%TA.AperFunction,ComponentPad*%
%ADD18RoundRect,0.250000X-0.600000X0.600000X-0.600000X-0.600000X0.600000X-0.600000X0.600000X0.600000X0*%
%TD*%
%TA.AperFunction,ComponentPad*%
%ADD19C,1.700000*%
%TD*%
%TA.AperFunction,ComponentPad*%
%ADD20R,2.400000X2.400000*%
%TD*%
%TA.AperFunction,ComponentPad*%
%ADD21O,2.400000X2.400000*%
%TD*%
%TA.AperFunction,ComponentPad*%
%ADD22R,1.600000X1.600000*%
%TD*%
%TA.AperFunction,ComponentPad*%
%ADD23RoundRect,0.250000X0.600000X-0.600000X0.600000X0.600000X-0.600000X0.600000X-0.600000X-0.600000X0*%
%TD*%
%TA.AperFunction,ViaPad*%
%ADD24C,0.800000*%
%TD*%
%TA.AperFunction,Conductor*%
%ADD25C,0.250000*%
%TD*%
G04 APERTURE END LIST*
D10*
%TO.P,C2,1*%
%TO.N,+3.3V*%
X169946000Y-78486000D03*
%TO.P,C2,2*%
%TO.N,GND*%
X172446000Y-78486000D03*
%TD*%
D11*
%TO.P,D3,1,K*%
%TO.N,GND*%
X122174000Y-100838000D03*
D12*
%TO.P,D3,2,A*%
%TO.N,Net-(D3-Pad2)*%
X122174000Y-98298000D03*
%TD*%
D10*
%TO.P,R5,1*%
%TO.N,GND*%
X118618000Y-83058000D03*
D13*
%TO.P,R5,2*%
%TO.N,BT_FD0*%
X118618000Y-90678000D03*
%TD*%
D11*
%TO.P,D4,1,K*%
%TO.N,GND*%
X121920000Y-71374000D03*
D12*
%TO.P,D4,2,A*%
%TO.N,Net-(D4-Pad2)*%
X121920000Y-68834000D03*
%TD*%
D10*
%TO.P,R1,1*%
%TO.N,Net-(D1-Pad2)*%
X118872000Y-110490000D03*
D13*
%TO.P,R1,2*%
%TO.N,LEDFD0*%
X118872000Y-118110000D03*
%TD*%
D10*
%TO.P,R3,1*%
%TO.N,Net-(D3-Pad2)*%
X114046000Y-118110000D03*
D13*
%TO.P,R3,2*%
%TO.N,LED_F0_Red*%
X114046000Y-110490000D03*
%TD*%
D14*
%TO.P,U1,1,GPIO0*%
%TO.N,unconnected-(U1-Pad1)*%
X181610000Y-87376000D03*
%TO.P,U1,2,GPIO1*%
%TO.N,unconnected-(U1-Pad2)*%
X179070000Y-87376000D03*
D15*
%TO.P,U1,3,GND*%
%TO.N,GND*%
X176530000Y-87376000D03*
D14*
%TO.P,U1,4,GPIO2*%
%TO.N,~{OPT0'}*%
X173990000Y-87376000D03*
%TO.P,U1,5,GPIO3*%
%TO.N,~{OPT1'}*%
X171450000Y-87376000D03*
%TO.P,U1,6,GPIO4*%
%TO.N,~{OPT2'}*%
X168910000Y-87376000D03*
%TO.P,U1,7,GPIO5*%
%TO.N,~{OPT3'}*%
X166370000Y-87376000D03*
D15*
%TO.P,U1,8,GND*%
%TO.N,GND*%
X163830000Y-87376000D03*
D14*
%TO.P,U1,9,GPIO6*%
%TO.N,~{EJECT'}*%
X161290000Y-87376000D03*
%TO.P,U1,10,GPIO7*%
%TO.N,~{INSERTED'}*%
X158750000Y-87376000D03*
%TO.P,U1,11,GPIO8*%
%TO.N,~{FDDINT'}*%
X156210000Y-87376000D03*
%TO.P,U1,12,GPIO9*%
%TO.N,~{ERROR'}*%
X153670000Y-87376000D03*
D15*
%TO.P,U1,13,GND*%
%TO.N,GND*%
X151130000Y-87376000D03*
D14*
%TO.P,U1,14,GPIO10*%
%TO.N,~{EjectMSK'}*%
X148590000Y-87376000D03*
%TO.P,U1,15,GPIO11*%
%TO.N,~{MOTOR'}*%
X146050000Y-87376000D03*
%TO.P,U1,16,GPIO12*%
%TO.N,LEDFD0*%
X143510000Y-87376000D03*
%TO.P,U1,17,GPIO13*%
%TO.N,LEDFD1*%
X140970000Y-87376000D03*
D15*
%TO.P,U1,18,GND*%
%TO.N,GND*%
X138430000Y-87376000D03*
D14*
%TO.P,U1,19,GPIO14*%
%TO.N,LED_F0_Red*%
X135890000Y-87376000D03*
%TO.P,U1,20,GPIO15*%
%TO.N,LED_F1_Red*%
X133350000Y-87376000D03*
%TO.P,U1,21,GPIO16*%
%TO.N,BT_FD0*%
X133350000Y-105156000D03*
%TO.P,U1,22,GPIO17*%
%TO.N,BT_FD1*%
X135890000Y-105156000D03*
D15*
%TO.P,U1,23,GND*%
%TO.N,GND*%
X138430000Y-105156000D03*
D14*
%TO.P,U1,24,GPIO18*%
%TO.N,~{LED_BLINK'}*%
X140970000Y-105156000D03*
%TO.P,U1,25,GPIO19*%
%TO.N,unconnected-(U1-Pad25)*%
X143510000Y-105156000D03*
%TO.P,U1,26,GPIO20*%
%TO.N,unconnected-(U1-Pad26)*%
X146050000Y-105156000D03*
%TO.P,U1,27,GPIO21*%
%TO.N,unconnected-(U1-Pad27)*%
X148590000Y-105156000D03*
D15*
%TO.P,U1,28,GND*%
%TO.N,GND*%
X151130000Y-105156000D03*
D14*
%TO.P,U1,29,GPIO22*%
%TO.N,unconnected-(U1-Pad29)*%
X153670000Y-105156000D03*
%TO.P,U1,30,RUN*%
%TO.N,unconnected-(U1-Pad30)*%
X156210000Y-105156000D03*
%TO.P,U1,31,GPIO26_ADC0*%
%TO.N,unconnected-(U1-Pad31)*%
X158750000Y-105156000D03*
%TO.P,U1,32,GPIO27_ADC1*%
%TO.N,unconnected-(U1-Pad32)*%
X161290000Y-105156000D03*
D15*
%TO.P,U1,33,AGND*%
%TO.N,GND*%
X163830000Y-105156000D03*
D14*
%TO.P,U1,34,GPIO28_ADC2*%
%TO.N,unconnected-(U1-Pad34)*%
X166370000Y-105156000D03*
%TO.P,U1,35,ADC_VREF*%
%TO.N,unconnected-(U1-Pad35)*%
X168910000Y-105156000D03*
%TO.P,U1,36,3V3*%
%TO.N,+3.3V*%
X171450000Y-105156000D03*
%TO.P,U1,37,3V3_EN*%
%TO.N,unconnected-(U1-Pad37)*%
X173990000Y-105156000D03*
D15*
%TO.P,U1,38,GND*%
%TO.N,GND*%
X176530000Y-105156000D03*
D14*
%TO.P,U1,39,VSYS*%
%TO.N,Net-(D5-Pad1)*%
X179070000Y-105156000D03*
%TO.P,U1,40,VBUS*%
%TO.N,unconnected-(U1-Pad40)*%
X181610000Y-105156000D03*
%TO.P,U1,41,SWCLK*%
%TO.N,unconnected-(U1-Pad41)*%
X133580000Y-93726000D03*
D15*
%TO.P,U1,42,GND*%
%TO.N,unconnected-(U1-Pad42)*%
X133580000Y-96266000D03*
D14*
%TO.P,U1,43,SWDIO*%
%TO.N,unconnected-(U1-Pad43)*%
X133580000Y-98806000D03*
%TD*%
D15*
%TO.P,J8,1,Pin_1*%
%TO.N,+5V*%
X189173000Y-78242000D03*
D14*
%TO.P,J8,2,Pin_2*%
%TO.N,GND*%
X189173000Y-80782000D03*
%TO.P,J8,3,Pin_3*%
X189173000Y-83322000D03*
%TO.P,J8,4,Pin_4*%
%TO.N,unconnected-(J8-Pad4)*%
X189173000Y-85862000D03*
%TD*%
D16*
%TO.P,SW2,*%
%TO.N,*%
X114688500Y-76942000D03*
X114688500Y-69932000D03*
D17*
%TO.P,SW2,1,1*%
%TO.N,+3.3V*%
X112198500Y-75692000D03*
%TO.P,SW2,2,2*%
%TO.N,BT_FD1*%
X112198500Y-71192000D03*
%TD*%
D15*
%TO.P,J15,1,Pin_1*%
%TO.N,+5V*%
X189173000Y-65034000D03*
D14*
%TO.P,J15,2,Pin_2*%
%TO.N,GND*%
X189173000Y-67574000D03*
%TO.P,J15,3,Pin_3*%
X189173000Y-70114000D03*
%TO.P,J15,4,Pin_4*%
%TO.N,unconnected-(J15-Pad4)*%
X189173000Y-72654000D03*
%TD*%
D10*
%TO.P,R4,1*%
%TO.N,Net-(D4-Pad2)*%
X114300000Y-54102000D03*
D13*
%TO.P,R4,2*%
%TO.N,LED_F1_Red*%
X114300000Y-61722000D03*
%TD*%
D10*
%TO.P,R2,1*%
%TO.N,Net-(D2-Pad2)*%
X119126000Y-54102000D03*
D13*
%TO.P,R2,2*%
%TO.N,LEDFD1*%
X119126000Y-61722000D03*
%TD*%
D18*
%TO.P,J1,1,Pin_1*%
%TO.N,GND*%
X177546000Y-113428500D03*
D19*
%TO.P,J1,2,Pin_2*%
%TO.N,~{DENSITY}*%
X177546000Y-115968500D03*
%TO.P,J1,3,Pin_3*%
%TO.N,unconnected-(J1-Pad3)*%
X175006000Y-113428500D03*
%TO.P,J1,4,Pin_4*%
%TO.N,unconnected-(J1-Pad4)*%
X175006000Y-115968500D03*
%TO.P,J1,5,Pin_5*%
%TO.N,GND*%
X172466000Y-113428500D03*
%TO.P,J1,6,Pin_6*%
%TO.N,~{DS3}*%
X172466000Y-115968500D03*
%TO.P,J1,7,Pin_7*%
%TO.N,GND*%
X169926000Y-113428500D03*
%TO.P,J1,8,Pin_8*%
%TO.N,~{INDEX}*%
X169926000Y-115968500D03*
%TO.P,J1,9,Pin_9*%
%TO.N,GND*%
X167386000Y-113428500D03*
%TO.P,J1,10,Pin_10*%
%TO.N,~{DS0}*%
X167386000Y-115968500D03*
%TO.P,J1,11,Pin_11*%
%TO.N,GND*%
X164846000Y-113428500D03*
%TO.P,J1,12,Pin_12*%
%TO.N,~{DS1}*%
X164846000Y-115968500D03*
%TO.P,J1,13,Pin_13*%
%TO.N,GND*%
X162306000Y-113428500D03*
%TO.P,J1,14,Pin_14*%
%TO.N,~{DS2}*%
X162306000Y-115968500D03*
%TO.P,J1,15,Pin_15*%
%TO.N,GND*%
X159766000Y-113428500D03*
%TO.P,J1,16,Pin_16*%
%TO.N,~{MOTOR}*%
X159766000Y-115968500D03*
%TO.P,J1,17,Pin_17*%
%TO.N,GND*%
X157226000Y-113428500D03*
%TO.P,J1,18,Pin_18*%
%TO.N,~{DIR}*%
X157226000Y-115968500D03*
%TO.P,J1,19,Pin_19*%
%TO.N,GND*%
X154686000Y-113428500D03*
%TO.P,J1,20,Pin_20*%
%TO.N,~{STEP}*%
X154686000Y-115968500D03*
%TO.P,J1,21,Pin_21*%
%TO.N,GND*%
X152146000Y-113428500D03*
%TO.P,J1,22,Pin_22*%
%TO.N,~{WDATA}*%
X152146000Y-115968500D03*
%TO.P,J1,23,Pin_23*%
%TO.N,GND*%
X149606000Y-113428500D03*
%TO.P,J1,24,Pin_24*%
%TO.N,~{WGATE}*%
X149606000Y-115968500D03*
%TO.P,J1,25,Pin_25*%
%TO.N,GND*%
X147066000Y-113428500D03*
%TO.P,J1,26,Pin_26*%
%TO.N,~{TRK0}*%
X147066000Y-115968500D03*
%TO.P,J1,27,Pin_27*%
%TO.N,GND*%
X144526000Y-113428500D03*
%TO.P,J1,28,Pin_28*%
%TO.N,~{WPROT}*%
X144526000Y-115968500D03*
%TO.P,J1,29,Pin_29*%
%TO.N,GND*%
X141986000Y-113428500D03*
%TO.P,J1,30,Pin_30*%
%TO.N,~{RDATA}*%
X141986000Y-115968500D03*
%TO.P,J1,31,Pin_31*%
%TO.N,GND*%
X139446000Y-113428500D03*
%TO.P,J1,32,Pin_32*%
%TO.N,~{SIDE}*%
X139446000Y-115968500D03*
%TO.P,J1,33,Pin_33*%
%TO.N,GND*%
X136906000Y-113428500D03*
%TO.P,J1,34,Pin_34*%
%TO.N,~{RDY}*%
X136906000Y-115968500D03*
%TD*%
D20*
%TO.P,D5,1,K*%
%TO.N,Net-(D5-Pad1)*%
X187706000Y-104394000D03*
D21*
%TO.P,D5,2,A*%
%TO.N,+5V*%
X187706000Y-91694000D03*
%TD*%
D10*
%TO.P,R6,1*%
%TO.N,GND*%
X114300000Y-90678000D03*
D13*
%TO.P,R6,2*%
%TO.N,BT_FD1*%
X114300000Y-83058000D03*
%TD*%
D22*
%TO.P,U2,1,A->B*%
%TO.N,GND*%
X130307000Y-74666000D03*
D13*
%TO.P,U2,2,A0*%
%TO.N,~{OPT0'}*%
X132847000Y-74666000D03*
%TO.P,U2,3,A1*%
%TO.N,~{OPT1'}*%
X135387000Y-74666000D03*
%TO.P,U2,4,A2*%
%TO.N,~{OPT2'}*%
X137927000Y-74666000D03*
%TO.P,U2,5,A3*%
%TO.N,~{OPT3'}*%
X140467000Y-74666000D03*
%TO.P,U2,6,A4*%
%TO.N,~{EJECT'}*%
X143007000Y-74666000D03*
%TO.P,U2,7,A5*%
%TO.N,~{EjectMSK'}*%
X145547000Y-74666000D03*
%TO.P,U2,8,A6*%
%TO.N,~{LED_BLINK'}*%
X148087000Y-74666000D03*
%TO.P,U2,9,A7*%
%TO.N,~{MOTOR'}*%
X150627000Y-74666000D03*
%TO.P,U2,10,GND*%
%TO.N,GND*%
X153167000Y-74666000D03*
%TO.P,U2,11,B7*%
%TO.N,~{MOTOR}*%
X153167000Y-67046000D03*
%TO.P,U2,12,B6*%
%TO.N,~{LED_BLINK}*%
X150627000Y-67046000D03*
%TO.P,U2,13,B5*%
%TO.N,~{EjectMSK}*%
X148087000Y-67046000D03*
%TO.P,U2,14,B4*%
%TO.N,~{EJECT}*%
X145547000Y-67046000D03*
%TO.P,U2,15,B3*%
%TO.N,~{OPT3}*%
X143007000Y-67046000D03*
%TO.P,U2,16,B2*%
%TO.N,~{OPT2}*%
X140467000Y-67046000D03*
%TO.P,U2,17,B1*%
%TO.N,~{OPT1}*%
X137927000Y-67046000D03*
%TO.P,U2,18,B0*%
%TO.N,~{OPT0}*%
X135387000Y-67046000D03*
%TO.P,U2,19,CE*%
%TO.N,GND*%
X132847000Y-67046000D03*
%TO.P,U2,20,VCC*%
%TO.N,+3.3V*%
X130307000Y-67046000D03*
%TD*%
D11*
%TO.P,D2,1,K*%
%TO.N,GND*%
X121920000Y-77729000D03*
D12*
%TO.P,D2,2,A*%
%TO.N,Net-(D2-Pad2)*%
X121920000Y-75189000D03*
%TD*%
D16*
%TO.P,SW1,*%
%TO.N,*%
X114758000Y-106152000D03*
X114758000Y-99142000D03*
D17*
%TO.P,SW1,1,1*%
%TO.N,+3.3V*%
X112268000Y-104902000D03*
%TO.P,SW1,2,2*%
%TO.N,BT_FD0*%
X112268000Y-100402000D03*
%TD*%
D23*
%TO.P,J2,1,Pin_1*%
%TO.N,~{OPT0}*%
X136652000Y-61831500D03*
D19*
%TO.P,J2,2,Pin_2*%
%TO.N,~{DENSITY}*%
X136652000Y-59291500D03*
%TO.P,J2,3,Pin_3*%
%TO.N,~{OPT1}*%
X139192000Y-61831500D03*
%TO.P,J2,4,Pin_4*%
%TO.N,unconnected-(J2-Pad4)*%
X139192000Y-59291500D03*
%TO.P,J2,5,Pin_5*%
%TO.N,~{OPT2}*%
X141732000Y-61831500D03*
%TO.P,J2,6,Pin_6*%
%TO.N,~{DS3}*%
X141732000Y-59291500D03*
%TO.P,J2,7,Pin_7*%
%TO.N,~{OPT3}*%
X144272000Y-61831500D03*
%TO.P,J2,8,Pin_8*%
%TO.N,~{INDEX}*%
X144272000Y-59291500D03*
%TO.P,J2,9,Pin_9*%
%TO.N,~{EJECT}*%
X146812000Y-61831500D03*
%TO.P,J2,10,Pin_10*%
%TO.N,~{DS0}*%
X146812000Y-59291500D03*
%TO.P,J2,11,Pin_11*%
%TO.N,~{EjectMSK}*%
X149352000Y-61831500D03*
%TO.P,J2,12,Pin_12*%
%TO.N,~{DS1}*%
X149352000Y-59291500D03*
%TO.P,J2,13,Pin_13*%
%TO.N,~{LED_BLINK}*%
X151892000Y-61831500D03*
%TO.P,J2,14,Pin_14*%
%TO.N,~{DS2}*%
X151892000Y-59291500D03*
%TO.P,J2,15,Pin_15*%
%TO.N,~{INSERTED}*%
X154432000Y-61831500D03*
%TO.P,J2,16,Pin_16*%
%TO.N,~{MOTOR}*%
X154432000Y-59291500D03*
%TO.P,J2,17,Pin_17*%
%TO.N,~{ERROR}*%
X156972000Y-61831500D03*
%TO.P,J2,18,Pin_18*%
%TO.N,~{DIR}*%
X156972000Y-59291500D03*
%TO.P,J2,19,Pin_19*%
%TO.N,~{FDDINT}*%
X159512000Y-61831500D03*
%TO.P,J2,20,Pin_20*%
%TO.N,~{STEP}*%
X159512000Y-59291500D03*
%TO.P,J2,21,Pin_21*%
%TO.N,GND*%
X162052000Y-61831500D03*
%TO.P,J2,22,Pin_22*%
%TO.N,~{WDATA}*%
X162052000Y-59291500D03*
%TO.P,J2,23,Pin_23*%
%TO.N,GND*%
X164592000Y-61831500D03*
%TO.P,J2,24,Pin_24*%
%TO.N,~{WGATE}*%
X164592000Y-59291500D03*
%TO.P,J2,25,Pin_25*%
%TO.N,GND*%
X167132000Y-61831500D03*
%TO.P,J2,26,Pin_26*%
%TO.N,~{TRK0}*%
X167132000Y-59291500D03*
%TO.P,J2,27,Pin_27*%
%TO.N,GND*%
X169672000Y-61831500D03*
%TO.P,J2,28,Pin_28*%
%TO.N,~{WPROT}*%
X169672000Y-59291500D03*
%TO.P,J2,29,Pin_29*%
%TO.N,GND*%
X172212000Y-61831500D03*
%TO.P,J2,30,Pin_30*%
%TO.N,~{RDATA}*%
X172212000Y-59291500D03*
%TO.P,J2,31,Pin_31*%
%TO.N,GND*%
X174752000Y-61831500D03*
%TO.P,J2,32,Pin_32*%
%TO.N,~{SIDE}*%
X174752000Y-59291500D03*
%TO.P,J2,33,Pin_33*%
%TO.N,GND*%
X177292000Y-61831500D03*
%TO.P,J2,34,Pin_34*%
%TO.N,~{RDY}*%
X177292000Y-59291500D03*
%TD*%
D10*
%TO.P,C1,1*%
%TO.N,+3.3V*%
X140228000Y-78740000D03*
%TO.P,C1,2*%
%TO.N,GND*%
X142728000Y-78740000D03*
%TD*%
D11*
%TO.P,D1,1,K*%
%TO.N,GND*%
X122174000Y-107447000D03*
D12*
%TO.P,D1,2,A*%
%TO.N,Net-(D1-Pad2)*%
X122174000Y-104907000D03*
%TD*%
D22*
%TO.P,U3,1,A->B*%
%TO.N,+3.3V*%
X159771000Y-74412000D03*
D13*
%TO.P,U3,2,A0*%
%TO.N,~{INSERTED'}*%
X162311000Y-74412000D03*
%TO.P,U3,3,A1*%
%TO.N,~{ERROR'}*%
X164851000Y-74412000D03*
%TO.P,U3,4,A2*%
%TO.N,~{FDDINT'}*%
X167391000Y-74412000D03*
%TO.P,U3,5,A3*%
%TO.N,unconnected-(U3-Pad5)*%
X169931000Y-74412000D03*
%TO.P,U3,6,A4*%
%TO.N,unconnected-(U3-Pad6)*%
X172471000Y-74412000D03*
%TO.P,U3,7,A5*%
%TO.N,unconnected-(U3-Pad7)*%
X175011000Y-74412000D03*
%TO.P,U3,8,A6*%
%TO.N,unconnected-(U3-Pad8)*%
X177551000Y-74412000D03*
%TO.P,U3,9,A7*%
%TO.N,unconnected-(U3-Pad9)*%
X180091000Y-74412000D03*
%TO.P,U3,10,GND*%
%TO.N,GND*%
X182631000Y-74412000D03*
%TO.P,U3,11,B7*%
%TO.N,unconnected-(U3-Pad11)*%
X182631000Y-66792000D03*
%TO.P,U3,12,B6*%
%TO.N,unconnected-(U3-Pad12)*%
X180091000Y-66792000D03*
%TO.P,U3,13,B5*%
%TO.N,unconnected-(U3-Pad13)*%
X177551000Y-66792000D03*
%TO.P,U3,14,B4*%
%TO.N,unconnected-(U3-Pad14)*%
X175011000Y-66792000D03*
%TO.P,U3,15,B3*%
%TO.N,unconnected-(U3-Pad15)*%
X172471000Y-66792000D03*
%TO.P,U3,16,B2*%
%TO.N,~{FDDINT}*%
X169931000Y-66792000D03*
%TO.P,U3,17,B1*%
%TO.N,~{ERROR}*%
X167391000Y-66792000D03*
%TO.P,U3,18,B0*%
%TO.N,~{INSERTED}*%
X164851000Y-66792000D03*
%TO.P,U3,19,CE*%
%TO.N,GND*%
X162311000Y-66792000D03*
%TO.P,U3,20,VCC*%
%TO.N,+3.3V*%
X159771000Y-66792000D03*
%TD*%
D24*
%TO.N,GND*%
X159766000Y-71882000D03*
%TO.N,~{DS3}*%
X174697400Y-76885800D03*
%TO.N,~{INDEX}*%
X142300700Y-92079200D03*
%TO.N,~{DS0}*%
X168645500Y-65360200D03*
%TO.N,~{DS1}*%
X159206100Y-117510100D03*
%TO.N,~{DS2}*%
X151030200Y-76634100D03*
X159273100Y-68905800D03*
%TO.N,~{ERROR'}*%
X154606600Y-81204600D03*
%TD*%
D25*
%TO.N,GND*%
X162311000Y-69337000D02*
X159766000Y-71882000D01*
X162311000Y-66792000D02*
X162311000Y-69337000D01*
X163830000Y-105156000D02*
X163830000Y-106331100D01*
X138679000Y-82789000D02*
X142728000Y-78740000D01*
X139446000Y-113428500D02*
X138938000Y-112920500D01*
X164846000Y-107347100D02*
X164846000Y-113428500D01*
X189173000Y-83322000D02*
X189173000Y-80782000D01*
X183756100Y-74412000D02*
X183756100Y-75021000D01*
X172446000Y-78486000D02*
X176530000Y-82570000D01*
X153167000Y-74666000D02*
X153167000Y-84163900D01*
X123399100Y-103288200D02*
X122174000Y-102063100D01*
X169672000Y-61831500D02*
X167132000Y-61831500D01*
X187997900Y-70114000D02*
X187997900Y-70170200D01*
X183756100Y-75021000D02*
X188342000Y-79606900D01*
X130307000Y-74666000D02*
X130307000Y-75791100D01*
X187997900Y-70170200D02*
X183756100Y-74412000D01*
X131432100Y-75791100D02*
X138430000Y-82789000D01*
X114300000Y-90678000D02*
X118618000Y-86360000D01*
X176530000Y-105743500D02*
X176530000Y-105156000D01*
X138430000Y-82789000D02*
X138679000Y-82789000D01*
X163830000Y-106331100D02*
X164846000Y-107347100D01*
X123399100Y-105456200D02*
X123399100Y-103288200D01*
X138430000Y-82789000D02*
X138430000Y-87376000D01*
X181505900Y-72161800D02*
X181505900Y-66045400D01*
X118618000Y-82256100D02*
X118618000Y-83058000D01*
X137414000Y-112920500D02*
X136906000Y-113428500D01*
X149606000Y-113428500D02*
X149606000Y-107855100D01*
X149606000Y-107855100D02*
X151130000Y-106331100D01*
X189173000Y-70114000D02*
X187997900Y-70114000D01*
X130307000Y-75791100D02*
X131432100Y-75791100D01*
X118618000Y-86360000D02*
X118618000Y-83058000D01*
X151130000Y-87376000D02*
X151130000Y-86200900D01*
X188342000Y-79606900D02*
X189173000Y-79606900D01*
X151130000Y-105156000D02*
X151130000Y-106331100D01*
X122174000Y-106221900D02*
X122633400Y-106221900D01*
X138430000Y-112920500D02*
X138430000Y-105156000D01*
X182631000Y-73286900D02*
X181505900Y-72161800D01*
X138430000Y-112920500D02*
X137414000Y-112920500D01*
X176530000Y-106331100D02*
X177546000Y-107347100D01*
X122174000Y-107447000D02*
X122174000Y-106221900D01*
X182631000Y-74412000D02*
X183756100Y-74412000D01*
X189173000Y-70114000D02*
X189173000Y-67574000D01*
X189173000Y-80782000D02*
X189173000Y-79606900D01*
X162311000Y-62090500D02*
X162311000Y-66792000D01*
X121920000Y-77729000D02*
X121920000Y-78954100D01*
X176530000Y-82570000D02*
X176530000Y-87376000D01*
X153167000Y-84163900D02*
X151130000Y-86200900D01*
X138938000Y-112920500D02*
X138430000Y-112920500D01*
X181505900Y-66045400D02*
X177292000Y-61831500D01*
X182631000Y-74412000D02*
X182631000Y-73286900D01*
X177292000Y-61831500D02*
X174752000Y-61831500D01*
X122174000Y-100838000D02*
X122174000Y-102063100D01*
X176530000Y-105743500D02*
X176530000Y-106331100D01*
X121920000Y-78954100D02*
X118618000Y-82256100D01*
X177546000Y-107347100D02*
X177546000Y-113428500D01*
X122633400Y-106221900D02*
X123399100Y-105456200D01*
X162052000Y-61831500D02*
X162311000Y-62090500D01*
X151130000Y-105156000D02*
X151130000Y-87376000D01*
%TO.N,~{DS3}*%
X172466000Y-115968500D02*
X173736000Y-114698500D01*
X177752300Y-92718700D02*
X177752300Y-79940700D01*
X175354800Y-107204700D02*
X175354800Y-95116200D01*
X175354800Y-95116200D02*
X177752300Y-92718700D01*
X173736000Y-108823500D02*
X175354800Y-107204700D01*
X177752300Y-79940700D02*
X174697400Y-76885800D01*
X173736000Y-114698500D02*
X173736000Y-108823500D01*
%TO.N,~{INDEX}*%
X141873900Y-69242100D02*
X144168500Y-71536700D01*
X142907200Y-64449500D02*
X141873900Y-65482800D01*
X144272000Y-59291500D02*
X142907200Y-60656300D01*
X141873900Y-65482800D02*
X141873900Y-69242100D01*
X142300700Y-80940700D02*
X142300700Y-92079200D01*
X144168500Y-79072900D02*
X142300700Y-80940700D01*
X142907200Y-60656300D02*
X142907200Y-64449500D01*
X144168500Y-71536700D02*
X144168500Y-79072900D01*
%TO.N,~{DS0}*%
X167706500Y-81151000D02*
X168645500Y-80212000D01*
X168596700Y-114757800D02*
X168596700Y-111304500D01*
X168645500Y-80212000D02*
X168645500Y-65360200D01*
X168596700Y-111304500D02*
X167706500Y-110414300D01*
X167386000Y-115968500D02*
X168596700Y-114757800D01*
X167706500Y-110414300D02*
X167706500Y-81151000D01*
%TO.N,~{DS1}*%
X158615100Y-118101100D02*
X159206100Y-117510100D01*
X146262400Y-69413100D02*
X146995100Y-69413100D01*
X144407600Y-63599200D02*
X144407600Y-67558300D01*
X145636800Y-61305800D02*
X145636800Y-62370000D01*
X144407600Y-67558300D02*
X146262400Y-69413100D01*
X145636800Y-62370000D02*
X144407600Y-63599200D01*
X146381100Y-60561500D02*
X145636800Y-61305800D01*
X148430800Y-107910600D02*
X148430800Y-116525600D01*
X149954800Y-79240900D02*
X149954800Y-106386600D01*
X149352000Y-59291500D02*
X148082000Y-60561500D01*
X151785300Y-74203300D02*
X151785300Y-77410400D01*
X146995100Y-69413100D02*
X151785300Y-74203300D01*
X148430800Y-116525600D02*
X150006300Y-118101100D01*
X148082000Y-60561500D02*
X146381100Y-60561500D01*
X150006300Y-118101100D02*
X158615100Y-118101100D01*
X149954800Y-106386600D02*
X148430800Y-107910600D01*
X151785300Y-77410400D02*
X149954800Y-79240900D01*
%TO.N,~{DS2}*%
X162306000Y-116142500D02*
X159447200Y-119001300D01*
X162306000Y-115968500D02*
X162306000Y-116142500D01*
X160782000Y-64442800D02*
X160782000Y-58897700D01*
X153074500Y-58109000D02*
X151892000Y-59291500D01*
X145890800Y-108728700D02*
X147320000Y-107299500D01*
X148392500Y-119001300D02*
X145890800Y-116499600D01*
X147320000Y-80344300D02*
X151030200Y-76634100D01*
X145890800Y-116499600D02*
X145890800Y-108728700D01*
X160935500Y-64596300D02*
X160782000Y-64442800D01*
X160782000Y-58897700D02*
X159993300Y-58109000D01*
X147320000Y-107299500D02*
X147320000Y-80344300D01*
X159273100Y-68905800D02*
X160935500Y-67243400D01*
X160935500Y-67243400D02*
X160935500Y-64596300D01*
X159447200Y-119001300D02*
X148392500Y-119001300D01*
X159993300Y-58109000D02*
X153074500Y-58109000D01*
%TO.N,~{MOTOR}*%
X153416000Y-112798500D02*
X153416000Y-116428000D01*
X153416000Y-116428000D02*
X154638900Y-117650900D01*
X153617200Y-76055400D02*
X153617200Y-84833400D01*
X152484800Y-111867300D02*
X153416000Y-112798500D01*
X154432000Y-59291500D02*
X153167000Y-60556500D01*
X154321100Y-75351500D02*
X153617200Y-76055400D01*
X153617200Y-84833400D02*
X152484800Y-85965800D01*
X152484800Y-85965800D02*
X152484800Y-111867300D01*
X153167000Y-67046000D02*
X153167000Y-68171100D01*
X153167000Y-68171100D02*
X154321100Y-69325200D01*
X154321100Y-69325200D02*
X154321100Y-75351500D01*
X154638900Y-117650900D02*
X157986200Y-117650900D01*
X157986200Y-117650900D02*
X159668600Y-115968500D01*
X153167000Y-60556500D02*
X153167000Y-67046000D01*
X159668600Y-115968500D02*
X159766000Y-115968500D01*
%TO.N,~{DIR}*%
X155025300Y-86898700D02*
X155612100Y-86311900D01*
X156050800Y-107716400D02*
X155025300Y-106690900D01*
X157226000Y-115968500D02*
X156050800Y-114793300D01*
X155612100Y-60651400D02*
X156972000Y-59291500D01*
X155025300Y-106690900D02*
X155025300Y-86898700D01*
X156050800Y-114793300D02*
X156050800Y-107716400D01*
X155612100Y-86311900D02*
X155612100Y-60651400D01*
%TO.N,~{STEP}*%
X159512000Y-59291500D02*
X158242000Y-60561500D01*
X158402000Y-109863800D02*
X158402000Y-116492900D01*
X158242000Y-78969400D02*
X157563400Y-79648000D01*
X158402000Y-116492900D02*
X157744100Y-117150800D01*
X157563400Y-79648000D02*
X157563400Y-109025200D01*
X158242000Y-60561500D02*
X158242000Y-78969400D01*
X157744100Y-117150800D02*
X155868300Y-117150800D01*
X155868300Y-117150800D02*
X154686000Y-115968500D01*
X157563400Y-109025200D02*
X158402000Y-109863800D01*
%TO.N,~{TRK0}*%
X163581000Y-66403800D02*
X165862000Y-64122800D01*
X165862000Y-64122800D02*
X165862000Y-60561500D01*
X149648700Y-118551200D02*
X159190600Y-118551200D01*
X160078400Y-107240300D02*
X160078400Y-80232900D01*
X165862000Y-60561500D02*
X167132000Y-59291500D01*
X163581000Y-76730300D02*
X163581000Y-66403800D01*
X160078400Y-80232900D02*
X163581000Y-76730300D01*
X160955200Y-116786600D02*
X160955200Y-108117100D01*
X159190600Y-118551200D02*
X160955200Y-116786600D01*
X160955200Y-108117100D02*
X160078400Y-107240300D01*
X147066000Y-115968500D02*
X149648700Y-118551200D01*
%TO.N,~{WPROT}*%
X138230700Y-115482800D02*
X138230700Y-116419000D01*
X190807000Y-64493600D02*
X186780100Y-60466700D01*
X176022000Y-59722500D02*
X176022000Y-58870600D01*
X190807000Y-104405200D02*
X190807000Y-64493600D01*
X176022000Y-58870600D02*
X175262800Y-58111400D01*
X186780100Y-60466700D02*
X176766200Y-60466700D01*
X175262800Y-58111400D02*
X170852100Y-58111400D01*
X174860600Y-120351600D02*
X190807000Y-104405200D01*
X138230700Y-116419000D02*
X142163300Y-120351600D01*
X144526000Y-115968500D02*
X143350800Y-114793300D01*
X170852100Y-58111400D02*
X169672000Y-59291500D01*
X138920200Y-114793300D02*
X138230700Y-115482800D01*
X143350800Y-114793300D02*
X138920200Y-114793300D01*
X176766200Y-60466700D02*
X176022000Y-59722500D01*
X142163300Y-120351600D02*
X174860600Y-120351600D01*
%TO.N,~{RDATA}*%
X170852200Y-62333000D02*
X170852200Y-60651300D01*
X170852200Y-60651300D02*
X172212000Y-59291500D01*
X145468900Y-119451400D02*
X160559100Y-119451400D01*
X166262300Y-85583700D02*
X166262300Y-66312100D01*
X166262300Y-66312100D02*
X167953100Y-64621300D01*
X165005200Y-86840800D02*
X166262300Y-85583700D01*
X160559100Y-119451400D02*
X163491400Y-116519100D01*
X168563900Y-64621300D02*
X170852200Y-62333000D01*
X163491400Y-111200300D02*
X162654800Y-110363700D01*
X167953100Y-64621300D02*
X168563900Y-64621300D01*
X165005200Y-99701700D02*
X165005200Y-86840800D01*
X162654800Y-110363700D02*
X162654800Y-102052100D01*
X162654800Y-102052100D02*
X165005200Y-99701700D01*
X141986000Y-115968500D02*
X145468900Y-119451400D01*
X163491400Y-116519100D02*
X163491400Y-111200300D01*
%TO.N,~{SIDE}*%
X172646600Y-107372900D02*
X172646600Y-83968100D01*
X171294000Y-64779100D02*
X173546700Y-62526400D01*
X171196000Y-108823500D02*
X172646600Y-107372900D01*
X173546700Y-62526400D02*
X173546700Y-60496800D01*
X171294000Y-82615500D02*
X171294000Y-64779100D01*
X171196000Y-116360500D02*
X171196000Y-108823500D01*
X143379000Y-119901500D02*
X167655000Y-119901500D01*
X139446000Y-115968500D02*
X143379000Y-119901500D01*
X172646600Y-83968100D02*
X171294000Y-82615500D01*
X167655000Y-119901500D02*
X171196000Y-116360500D01*
X173546700Y-60496800D02*
X174752000Y-59291500D01*
%TO.N,~{RDY}*%
X175047100Y-120801700D02*
X191313400Y-104535400D01*
X191313400Y-64363400D02*
X186241500Y-59291500D01*
X191313400Y-104535400D02*
X191313400Y-64363400D01*
X136906000Y-115968500D02*
X141739200Y-120801700D01*
X141739200Y-120801700D02*
X175047100Y-120801700D01*
X186241500Y-59291500D02*
X177292000Y-59291500D01*
%TO.N,~{OPT0}*%
X135387000Y-67046000D02*
X135387000Y-65920900D01*
X136652000Y-64655900D02*
X136652000Y-61831500D01*
X135387000Y-65920900D02*
X136652000Y-64655900D01*
%TO.N,~{OPT1}*%
X137927000Y-67046000D02*
X137927000Y-65920900D01*
X137927000Y-65920900D02*
X139192000Y-64655900D01*
X139192000Y-64655900D02*
X139192000Y-61831500D01*
%TO.N,~{OPT2}*%
X140467000Y-65920900D02*
X141732000Y-64655900D01*
X141732000Y-64655900D02*
X141732000Y-61831500D01*
X140467000Y-67046000D02*
X140467000Y-65920900D01*
%TO.N,~{OPT3}*%
X143007000Y-65920900D02*
X143457100Y-65470800D01*
X143457100Y-65470800D02*
X143457100Y-62646400D01*
X143007000Y-67046000D02*
X143007000Y-65920900D01*
X143457100Y-62646400D02*
X144272000Y-61831500D01*
%TO.N,~{EJECT}*%
X146812000Y-64655900D02*
X146812000Y-61831500D01*
X145547000Y-65920900D02*
X146812000Y-64655900D01*
X145547000Y-67046000D02*
X145547000Y-65920900D01*
%TO.N,~{EjectMSK}*%
X148087000Y-65920900D02*
X149352000Y-64655900D01*
X149352000Y-64655900D02*
X149352000Y-61831500D01*
X148087000Y-67046000D02*
X148087000Y-65920900D01*
%TO.N,+5V*%
X189173000Y-65034000D02*
X189173000Y-66209100D01*
X190348100Y-75891800D02*
X189173000Y-77066900D01*
X189540200Y-66209100D02*
X190348100Y-67017000D01*
X189173000Y-78242000D02*
X189173000Y-77066900D01*
X189173000Y-66209100D02*
X189540200Y-66209100D01*
X190348100Y-67017000D02*
X190348100Y-75891800D01*
%TO.N,Net-(D1-Pad2)*%
X118872000Y-108209000D02*
X118872000Y-110490000D01*
X122174000Y-104907000D02*
X118872000Y-108209000D01*
%TO.N,+3.3V*%
X112198500Y-75692000D02*
X111021400Y-76869100D01*
X170180000Y-78720000D02*
X170180000Y-102710900D01*
X169946000Y-78486000D02*
X170180000Y-78720000D01*
X130588300Y-68171100D02*
X136657000Y-74239800D01*
X136657000Y-75169000D02*
X140228000Y-78740000D01*
X111021400Y-103655400D02*
X112268000Y-104902000D01*
X170180000Y-102710900D02*
X171450000Y-103980900D01*
X136657000Y-74239800D02*
X136657000Y-75169000D01*
X111021400Y-76869100D02*
X111021400Y-103655400D01*
X171450000Y-105156000D02*
X171450000Y-103980900D01*
X130307000Y-67046000D02*
X130307000Y-68171100D01*
X130307000Y-68171100D02*
X130588300Y-68171100D01*
%TO.N,Net-(D2-Pad2)*%
X119126000Y-72395000D02*
X119126000Y-63863000D01*
X119126000Y-63863000D02*
X113121200Y-57858200D01*
X113121200Y-57858200D02*
X113121200Y-53670200D01*
X113860600Y-52930800D02*
X117954800Y-52930800D01*
X117954800Y-52930800D02*
X119126000Y-54102000D01*
X121920000Y-75189000D02*
X119126000Y-72395000D01*
X113121200Y-53670200D02*
X113860600Y-52930800D01*
%TO.N,Net-(D3-Pad2)*%
X114046000Y-118110000D02*
X117459000Y-114697000D01*
X117459000Y-103013000D02*
X122174000Y-98298000D01*
X117459000Y-114697000D02*
X117459000Y-103013000D01*
%TO.N,BT_FD0*%
X112268000Y-98153100D02*
X118618000Y-91803100D01*
X112268000Y-100402000D02*
X112268000Y-98153100D01*
X118618000Y-90678000D02*
X118618000Y-91803100D01*
%TO.N,BT_FD1*%
X113264800Y-76420900D02*
X113414600Y-76271100D01*
X113414600Y-76271100D02*
X113414600Y-72408100D01*
X113264800Y-80897700D02*
X113264800Y-76420900D01*
X114300000Y-83058000D02*
X114300000Y-81932900D01*
X113414600Y-72408100D02*
X112198500Y-71192000D01*
X114300000Y-81932900D02*
X113264800Y-80897700D01*
%TO.N,LEDFD0*%
X118872000Y-116984900D02*
X143510000Y-92346900D01*
X118872000Y-118110000D02*
X118872000Y-116984900D01*
X143510000Y-92346900D02*
X143510000Y-87376000D01*
%TO.N,LEDFD1*%
X140970000Y-87376000D02*
X139794900Y-87376000D01*
X137450600Y-88565500D02*
X139436400Y-88565500D01*
X119126000Y-61722000D02*
X119126000Y-62847100D01*
X137254800Y-84441100D02*
X137254800Y-88369700D01*
X119126000Y-62847100D02*
X119592400Y-63313500D01*
X119592400Y-63313500D02*
X119592400Y-68245500D01*
X139436400Y-88565500D02*
X139794900Y-88207000D01*
X139794900Y-88207000D02*
X139794900Y-87376000D01*
X137254800Y-88369700D02*
X137450600Y-88565500D01*
X119592400Y-68245500D02*
X121495700Y-70148800D01*
X121495700Y-70148800D02*
X122962500Y-70148800D01*
X122962500Y-70148800D02*
X137254800Y-84441100D01*
%TO.N,~{LED_BLINK}*%
X150627000Y-67046000D02*
X150627000Y-65920900D01*
X151892000Y-64655900D02*
X151892000Y-61831500D01*
X150627000Y-65920900D02*
X151892000Y-64655900D01*
%TO.N,LED_F0_Red*%
X135890000Y-87376000D02*
X134714900Y-87376000D01*
X134714900Y-87376000D02*
X134714900Y-87743300D01*
X116730300Y-101996200D02*
X116730300Y-106680600D01*
X114046000Y-110490000D02*
X114046000Y-109364900D01*
X133907100Y-88551100D02*
X130175400Y-88551100D01*
X134714900Y-87743300D02*
X133907100Y-88551100D01*
X130175400Y-88551100D02*
X116730300Y-101996200D01*
X116730300Y-106680600D02*
X114046000Y-109364900D01*
%TO.N,LED_F1_Red*%
X116063700Y-71066900D02*
X121500600Y-76503800D01*
X116063700Y-64610800D02*
X116063700Y-71066900D01*
X114300000Y-61722000D02*
X114300000Y-62847100D01*
X133350000Y-87376000D02*
X133350000Y-86200900D01*
X114300000Y-62847100D02*
X116063700Y-64610800D01*
X123652900Y-76503800D02*
X133350000Y-86200900D01*
X121500600Y-76503800D02*
X123652900Y-76503800D01*
%TO.N,~{INSERTED'}*%
X158750000Y-87376000D02*
X158750000Y-79098100D01*
X158750000Y-79098100D02*
X162311000Y-75537100D01*
X162311000Y-74412000D02*
X162311000Y-75537100D01*
%TO.N,~{ERROR'}*%
X153670000Y-87376000D02*
X153670000Y-86200900D01*
X154606600Y-81204600D02*
X154606600Y-85264300D01*
X154606600Y-85264300D02*
X153670000Y-86200900D01*
%TO.N,~{MOTOR'}*%
X146050000Y-80368100D02*
X150627000Y-75791100D01*
X146050000Y-87376000D02*
X146050000Y-80368100D01*
X150627000Y-74666000D02*
X150627000Y-75791100D01*
%TO.N,~{LED_BLINK'}*%
X144844100Y-79034000D02*
X144844100Y-100106800D01*
X148087000Y-74666000D02*
X148087000Y-75791100D01*
X140970000Y-105156000D02*
X140970000Y-103980900D01*
X148087000Y-75791100D02*
X144844100Y-79034000D01*
X144844100Y-100106800D02*
X140970000Y-103980900D01*
%TO.N,Net-(D4-Pad2)*%
X121920000Y-61722000D02*
X121920000Y-68834000D01*
X114300000Y-54102000D02*
X121920000Y-61722000D01*
%TD*%
M02*
