%TF.GenerationSoftware,KiCad,Pcbnew,(6.0.6)*%
%TF.CreationDate,2023-06-21T15:59:23+02:00*%
%TF.ProjectId,X68KFDPI,5836384b-4644-4504-992e-6b696361645f,rev?*%
%TF.SameCoordinates,Original*%
%TF.FileFunction,Soldermask,Top*%
%TF.FilePolarity,Negative*%
%FSLAX46Y46*%
G04 Gerber Fmt 4.6, Leading zero omitted, Abs format (unit mm)*
G04 Created by KiCad (PCBNEW (6.0.6)) date 2023-06-21 15:59:23*
%MOMM*%
%LPD*%
G01*
G04 APERTURE LIST*
G04 Aperture macros list*
%AMRoundRect*
0 Rectangle with rounded corners*
0 $1 Rounding radius*
0 $2 $3 $4 $5 $6 $7 $8 $9 X,Y pos of 4 corners*
0 Add a 4 corners polygon primitive as box body*
4,1,4,$2,$3,$4,$5,$6,$7,$8,$9,$2,$3,0*
0 Add four circle primitives for the rounded corners*
1,1,$1+$1,$2,$3*
1,1,$1+$1,$4,$5*
1,1,$1+$1,$6,$7*
1,1,$1+$1,$8,$9*
0 Add four rect primitives between the rounded corners*
20,1,$1+$1,$2,$3,$4,$5,0*
20,1,$1+$1,$4,$5,$6,$7,0*
20,1,$1+$1,$6,$7,$8,$9,0*
20,1,$1+$1,$8,$9,$2,$3,0*%
G04 Aperture macros list end*
%ADD10C,1.600000*%
%ADD11R,1.800000X1.800000*%
%ADD12C,1.800000*%
%ADD13O,1.600000X1.600000*%
%ADD14O,1.800000X1.800000*%
%ADD15O,1.500000X1.500000*%
%ADD16R,1.700000X3.500000*%
%ADD17O,1.700000X1.700000*%
%ADD18R,1.700000X1.700000*%
%ADD19R,3.500000X1.700000*%
%ADD20C,2.100000*%
%ADD21C,1.750000*%
%ADD22RoundRect,0.250000X-0.600000X0.600000X-0.600000X-0.600000X0.600000X-0.600000X0.600000X0.600000X0*%
%ADD23C,1.700000*%
%ADD24R,2.400000X2.400000*%
%ADD25O,2.400000X2.400000*%
%ADD26R,1.600000X1.600000*%
%ADD27RoundRect,0.250000X0.600000X-0.600000X0.600000X0.600000X-0.600000X0.600000X-0.600000X-0.600000X0*%
G04 APERTURE END LIST*
D10*
%TO.C,C2*%
X169946000Y-78486000D03*
X172446000Y-78486000D03*
%TD*%
D11*
%TO.C,D3*%
X122174000Y-100838000D03*
D12*
X122174000Y-98298000D03*
%TD*%
D10*
%TO.C,R5*%
X118618000Y-83058000D03*
D13*
X118618000Y-90678000D03*
%TD*%
D11*
%TO.C,D4*%
X121920000Y-71374000D03*
D12*
X121920000Y-68834000D03*
%TD*%
D10*
%TO.C,R1*%
X118872000Y-110490000D03*
D13*
X118872000Y-118110000D03*
%TD*%
D10*
%TO.C,R3*%
X114046000Y-118110000D03*
D13*
X114046000Y-110490000D03*
%TD*%
D14*
%TO.C,U1*%
X181480000Y-93541000D03*
D15*
X178450000Y-98691000D03*
X178450000Y-93841000D03*
D14*
X181480000Y-98991000D03*
D16*
X181610000Y-86476000D03*
D17*
X181610000Y-87376000D03*
D16*
X179070000Y-86476000D03*
D17*
X179070000Y-87376000D03*
D16*
X176530000Y-86476000D03*
D18*
X176530000Y-87376000D03*
D17*
X173990000Y-87376000D03*
D16*
X173990000Y-86476000D03*
X171450000Y-86476000D03*
D17*
X171450000Y-87376000D03*
X168910000Y-87376000D03*
D16*
X168910000Y-86476000D03*
D17*
X166370000Y-87376000D03*
D16*
X166370000Y-86476000D03*
D18*
X163830000Y-87376000D03*
D16*
X163830000Y-86476000D03*
D17*
X161290000Y-87376000D03*
D16*
X161290000Y-86476000D03*
D17*
X158750000Y-87376000D03*
D16*
X158750000Y-86476000D03*
X156210000Y-86476000D03*
D17*
X156210000Y-87376000D03*
D16*
X153670000Y-86476000D03*
D17*
X153670000Y-87376000D03*
D16*
X151130000Y-86476000D03*
D18*
X151130000Y-87376000D03*
D16*
X148590000Y-86476000D03*
D17*
X148590000Y-87376000D03*
X146050000Y-87376000D03*
D16*
X146050000Y-86476000D03*
X143510000Y-86476000D03*
D17*
X143510000Y-87376000D03*
D16*
X140970000Y-86476000D03*
D17*
X140970000Y-87376000D03*
D18*
X138430000Y-87376000D03*
D16*
X138430000Y-86476000D03*
D17*
X135890000Y-87376000D03*
D16*
X135890000Y-86476000D03*
D17*
X133350000Y-87376000D03*
D16*
X133350000Y-86476000D03*
X133350000Y-106056000D03*
D17*
X133350000Y-105156000D03*
X135890000Y-105156000D03*
D16*
X135890000Y-106056000D03*
X138430000Y-106056000D03*
D18*
X138430000Y-105156000D03*
D16*
X140970000Y-106056000D03*
D17*
X140970000Y-105156000D03*
D16*
X143510000Y-106056000D03*
D17*
X143510000Y-105156000D03*
X146050000Y-105156000D03*
D16*
X146050000Y-106056000D03*
X148590000Y-106056000D03*
D17*
X148590000Y-105156000D03*
D16*
X151130000Y-106056000D03*
D18*
X151130000Y-105156000D03*
D17*
X153670000Y-105156000D03*
D16*
X153670000Y-106056000D03*
X156210000Y-106056000D03*
D17*
X156210000Y-105156000D03*
X158750000Y-105156000D03*
D16*
X158750000Y-106056000D03*
D17*
X161290000Y-105156000D03*
D16*
X161290000Y-106056000D03*
X163830000Y-106056000D03*
D18*
X163830000Y-105156000D03*
D16*
X166370000Y-106056000D03*
D17*
X166370000Y-105156000D03*
D16*
X168910000Y-106056000D03*
D17*
X168910000Y-105156000D03*
D16*
X171450000Y-106056000D03*
D17*
X171450000Y-105156000D03*
D16*
X173990000Y-106056000D03*
D17*
X173990000Y-105156000D03*
D16*
X176530000Y-106056000D03*
D18*
X176530000Y-105156000D03*
D16*
X179070000Y-106056000D03*
D17*
X179070000Y-105156000D03*
D16*
X181610000Y-106056000D03*
D17*
X181610000Y-105156000D03*
X133580000Y-93726000D03*
D19*
X132680000Y-93726000D03*
D18*
X133580000Y-96266000D03*
D19*
X132680000Y-96266000D03*
D17*
X133580000Y-98806000D03*
D19*
X132680000Y-98806000D03*
%TD*%
D18*
%TO.C,J8*%
X189173000Y-78242000D03*
D17*
X189173000Y-80782000D03*
X189173000Y-83322000D03*
X189173000Y-85862000D03*
%TD*%
D20*
%TO.C,SW2*%
X114688500Y-76942000D03*
X114688500Y-69932000D03*
D21*
X112198500Y-75692000D03*
X112198500Y-71192000D03*
%TD*%
D18*
%TO.C,J15*%
X189173000Y-65034000D03*
D17*
X189173000Y-67574000D03*
X189173000Y-70114000D03*
X189173000Y-72654000D03*
%TD*%
D10*
%TO.C,R4*%
X114300000Y-54102000D03*
D13*
X114300000Y-61722000D03*
%TD*%
D10*
%TO.C,R2*%
X119126000Y-54102000D03*
D13*
X119126000Y-61722000D03*
%TD*%
D22*
%TO.C,J1*%
X177546000Y-113428500D03*
D23*
X177546000Y-115968500D03*
X175006000Y-113428500D03*
X175006000Y-115968500D03*
X172466000Y-113428500D03*
X172466000Y-115968500D03*
X169926000Y-113428500D03*
X169926000Y-115968500D03*
X167386000Y-113428500D03*
X167386000Y-115968500D03*
X164846000Y-113428500D03*
X164846000Y-115968500D03*
X162306000Y-113428500D03*
X162306000Y-115968500D03*
X159766000Y-113428500D03*
X159766000Y-115968500D03*
X157226000Y-113428500D03*
X157226000Y-115968500D03*
X154686000Y-113428500D03*
X154686000Y-115968500D03*
X152146000Y-113428500D03*
X152146000Y-115968500D03*
X149606000Y-113428500D03*
X149606000Y-115968500D03*
X147066000Y-113428500D03*
X147066000Y-115968500D03*
X144526000Y-113428500D03*
X144526000Y-115968500D03*
X141986000Y-113428500D03*
X141986000Y-115968500D03*
X139446000Y-113428500D03*
X139446000Y-115968500D03*
X136906000Y-113428500D03*
X136906000Y-115968500D03*
%TD*%
D24*
%TO.C,D5*%
X187706000Y-104394000D03*
D25*
X187706000Y-91694000D03*
%TD*%
D10*
%TO.C,R6*%
X114300000Y-90678000D03*
D13*
X114300000Y-83058000D03*
%TD*%
D26*
%TO.C,U2*%
X130307000Y-74666000D03*
D13*
X132847000Y-74666000D03*
X135387000Y-74666000D03*
X137927000Y-74666000D03*
X140467000Y-74666000D03*
X143007000Y-74666000D03*
X145547000Y-74666000D03*
X148087000Y-74666000D03*
X150627000Y-74666000D03*
X153167000Y-74666000D03*
X153167000Y-67046000D03*
X150627000Y-67046000D03*
X148087000Y-67046000D03*
X145547000Y-67046000D03*
X143007000Y-67046000D03*
X140467000Y-67046000D03*
X137927000Y-67046000D03*
X135387000Y-67046000D03*
X132847000Y-67046000D03*
X130307000Y-67046000D03*
%TD*%
D11*
%TO.C,D2*%
X121920000Y-77729000D03*
D12*
X121920000Y-75189000D03*
%TD*%
D20*
%TO.C,SW1*%
X114758000Y-106152000D03*
X114758000Y-99142000D03*
D21*
X112268000Y-104902000D03*
X112268000Y-100402000D03*
%TD*%
D27*
%TO.C,J2*%
X136652000Y-61831500D03*
D23*
X136652000Y-59291500D03*
X139192000Y-61831500D03*
X139192000Y-59291500D03*
X141732000Y-61831500D03*
X141732000Y-59291500D03*
X144272000Y-61831500D03*
X144272000Y-59291500D03*
X146812000Y-61831500D03*
X146812000Y-59291500D03*
X149352000Y-61831500D03*
X149352000Y-59291500D03*
X151892000Y-61831500D03*
X151892000Y-59291500D03*
X154432000Y-61831500D03*
X154432000Y-59291500D03*
X156972000Y-61831500D03*
X156972000Y-59291500D03*
X159512000Y-61831500D03*
X159512000Y-59291500D03*
X162052000Y-61831500D03*
X162052000Y-59291500D03*
X164592000Y-61831500D03*
X164592000Y-59291500D03*
X167132000Y-61831500D03*
X167132000Y-59291500D03*
X169672000Y-61831500D03*
X169672000Y-59291500D03*
X172212000Y-61831500D03*
X172212000Y-59291500D03*
X174752000Y-61831500D03*
X174752000Y-59291500D03*
X177292000Y-61831500D03*
X177292000Y-59291500D03*
%TD*%
D10*
%TO.C,C1*%
X140228000Y-78740000D03*
X142728000Y-78740000D03*
%TD*%
D11*
%TO.C,D1*%
X122174000Y-107447000D03*
D12*
X122174000Y-104907000D03*
%TD*%
D26*
%TO.C,U3*%
X159771000Y-74412000D03*
D13*
X162311000Y-74412000D03*
X164851000Y-74412000D03*
X167391000Y-74412000D03*
X169931000Y-74412000D03*
X172471000Y-74412000D03*
X175011000Y-74412000D03*
X177551000Y-74412000D03*
X180091000Y-74412000D03*
X182631000Y-74412000D03*
X182631000Y-66792000D03*
X180091000Y-66792000D03*
X177551000Y-66792000D03*
X175011000Y-66792000D03*
X172471000Y-66792000D03*
X169931000Y-66792000D03*
X167391000Y-66792000D03*
X164851000Y-66792000D03*
X162311000Y-66792000D03*
X159771000Y-66792000D03*
%TD*%
M02*
