%FSLAX45Y45*%
G04 Gerber Fmt 4.5, Leading zero omitted, Abs format (unit mm)*
G04 Created by KiCad (PCBNEW (6.0.6)) date 2023-06-21 15:59:26*
%MOMM*%
%LPD*%
G01*
G04 APERTURE LIST*
%TA.AperFunction,Profile*%
%ADD10C,0.100000*%
%TD*%
%ADD11C,0.200000*%
%ADD12C,0.150000*%
%ADD13C,0.180000*%
G04 APERTURE END LIST*
D10*
X11023834Y-4767893D02*
G75*
G03*
X10845800Y-5054600I68196J-240977D01*
G01*
X19786600Y-4775200D02*
X11023834Y-4767895D01*
X10838500Y-12446000D02*
G75*
G03*
X11051896Y-12700000I233700J-20300D01*
G01*
X10845800Y-5054600D02*
X10838495Y-12446000D01*
X19812001Y-12700001D02*
G75*
G03*
X20000001Y-12446000I-108851J277141D01*
G01*
X20000001Y-12446000D02*
X20000001Y-4978400D01*
X11051896Y-12700000D02*
X19812000Y-12700000D01*
X19999998Y-4978400D02*
G75*
G03*
X19786600Y-4775200I-188608J15580D01*
G01*
D11*
D12*
X17770000Y-9309100D02*
X17920000Y-9459100D01*
X17920000Y-9309100D02*
X17770000Y-9459100D01*
X17770000Y-9794100D02*
X17920000Y-9944100D01*
X17920000Y-9794100D02*
X17770000Y-9944100D01*
D13*
X18238000Y-9354100D02*
G75*
G03*
X18238000Y-9354100I-90000J0D01*
G01*
X18238000Y-9899100D02*
G75*
G03*
X18238000Y-9899100I-90000J0D01*
G01*
D11*
X11090239Y-13015476D02*
X11090239Y-12815476D01*
X11137858Y-12815476D01*
X11166429Y-12825000D01*
X11185477Y-12844048D01*
X11195000Y-12863095D01*
X11204524Y-12901190D01*
X11204524Y-12929762D01*
X11195000Y-12967857D01*
X11185477Y-12986905D01*
X11166429Y-13005952D01*
X11137858Y-13015476D01*
X11090239Y-13015476D01*
X11290239Y-13015476D02*
X11290239Y-12882143D01*
X11290239Y-12920238D02*
X11299762Y-12901190D01*
X11309286Y-12891667D01*
X11328334Y-12882143D01*
X11347381Y-12882143D01*
X11414048Y-13015476D02*
X11414048Y-12882143D01*
X11414048Y-12815476D02*
X11404524Y-12825000D01*
X11414048Y-12834524D01*
X11423572Y-12825000D01*
X11414048Y-12815476D01*
X11414048Y-12834524D01*
X11537858Y-13015476D02*
X11518810Y-13005952D01*
X11509286Y-12986905D01*
X11509286Y-12815476D01*
X11642620Y-13015476D02*
X11623572Y-13005952D01*
X11614048Y-12986905D01*
X11614048Y-12815476D01*
X11871191Y-13015476D02*
X11871191Y-12815476D01*
X11937858Y-12958333D01*
X12004524Y-12815476D01*
X12004524Y-13015476D01*
X12185477Y-13015476D02*
X12185477Y-12910714D01*
X12175953Y-12891667D01*
X12156905Y-12882143D01*
X12118810Y-12882143D01*
X12099762Y-12891667D01*
X12185477Y-13005952D02*
X12166429Y-13015476D01*
X12118810Y-13015476D01*
X12099762Y-13005952D01*
X12090239Y-12986905D01*
X12090239Y-12967857D01*
X12099762Y-12948809D01*
X12118810Y-12939286D01*
X12166429Y-12939286D01*
X12185477Y-12929762D01*
X12280715Y-12882143D02*
X12280715Y-13082143D01*
X12280715Y-12891667D02*
X12299762Y-12882143D01*
X12337858Y-12882143D01*
X12356905Y-12891667D01*
X12366429Y-12901190D01*
X12375953Y-12920238D01*
X12375953Y-12977381D01*
X12366429Y-12996428D01*
X12356905Y-13005952D01*
X12337858Y-13015476D01*
X12299762Y-13015476D01*
X12280715Y-13005952D01*
X12461667Y-12996428D02*
X12471191Y-13005952D01*
X12461667Y-13015476D01*
X12452143Y-13005952D01*
X12461667Y-12996428D01*
X12461667Y-13015476D01*
X12461667Y-12891667D02*
X12471191Y-12901190D01*
X12461667Y-12910714D01*
X12452143Y-12901190D01*
X12461667Y-12891667D01*
X12461667Y-12910714D01*
D12*
X10682620Y-13270000D02*
X10832620Y-13420000D01*
X10832620Y-13270000D02*
X10682620Y-13420000D01*
D11*
X11195000Y-13435476D02*
X11080715Y-13435476D01*
X11137858Y-13435476D02*
X11137858Y-13235476D01*
X11118810Y-13264048D01*
X11099762Y-13283095D01*
X11080715Y-13292619D01*
X11280715Y-13416428D02*
X11290239Y-13425952D01*
X11280715Y-13435476D01*
X11271191Y-13425952D01*
X11280715Y-13416428D01*
X11280715Y-13435476D01*
X11471191Y-13235476D02*
X11375953Y-13235476D01*
X11366429Y-13330714D01*
X11375953Y-13321190D01*
X11395000Y-13311667D01*
X11442620Y-13311667D01*
X11461667Y-13321190D01*
X11471191Y-13330714D01*
X11480715Y-13349762D01*
X11480715Y-13397381D01*
X11471191Y-13416428D01*
X11461667Y-13425952D01*
X11442620Y-13435476D01*
X11395000Y-13435476D01*
X11375953Y-13425952D01*
X11366429Y-13416428D01*
X11604524Y-13235476D02*
X11623572Y-13235476D01*
X11642620Y-13245000D01*
X11652143Y-13254524D01*
X11661667Y-13273571D01*
X11671191Y-13311667D01*
X11671191Y-13359286D01*
X11661667Y-13397381D01*
X11652143Y-13416428D01*
X11642620Y-13425952D01*
X11623572Y-13435476D01*
X11604524Y-13435476D01*
X11585477Y-13425952D01*
X11575953Y-13416428D01*
X11566429Y-13397381D01*
X11556905Y-13359286D01*
X11556905Y-13311667D01*
X11566429Y-13273571D01*
X11575953Y-13254524D01*
X11585477Y-13245000D01*
X11604524Y-13235476D01*
X11795000Y-13235476D02*
X11814048Y-13235476D01*
X11833096Y-13245000D01*
X11842620Y-13254524D01*
X11852143Y-13273571D01*
X11861667Y-13311667D01*
X11861667Y-13359286D01*
X11852143Y-13397381D01*
X11842620Y-13416428D01*
X11833096Y-13425952D01*
X11814048Y-13435476D01*
X11795000Y-13435476D01*
X11775953Y-13425952D01*
X11766429Y-13416428D01*
X11756905Y-13397381D01*
X11747381Y-13359286D01*
X11747381Y-13311667D01*
X11756905Y-13273571D01*
X11766429Y-13254524D01*
X11775953Y-13245000D01*
X11795000Y-13235476D01*
X11947381Y-13435476D02*
X11947381Y-13302143D01*
X11947381Y-13321190D02*
X11956905Y-13311667D01*
X11975953Y-13302143D01*
X12004524Y-13302143D01*
X12023572Y-13311667D01*
X12033096Y-13330714D01*
X12033096Y-13435476D01*
X12033096Y-13330714D02*
X12042620Y-13311667D01*
X12061667Y-13302143D01*
X12090239Y-13302143D01*
X12109286Y-13311667D01*
X12118810Y-13330714D01*
X12118810Y-13435476D01*
X12214048Y-13435476D02*
X12214048Y-13302143D01*
X12214048Y-13321190D02*
X12223572Y-13311667D01*
X12242620Y-13302143D01*
X12271191Y-13302143D01*
X12290239Y-13311667D01*
X12299762Y-13330714D01*
X12299762Y-13435476D01*
X12299762Y-13330714D02*
X12309286Y-13311667D01*
X12328334Y-13302143D01*
X12356905Y-13302143D01*
X12375953Y-13311667D01*
X12385477Y-13330714D01*
X12385477Y-13435476D01*
X12775953Y-13225952D02*
X12604524Y-13483095D01*
X13033096Y-13235476D02*
X13052143Y-13235476D01*
X13071191Y-13245000D01*
X13080715Y-13254524D01*
X13090239Y-13273571D01*
X13099762Y-13311667D01*
X13099762Y-13359286D01*
X13090239Y-13397381D01*
X13080715Y-13416428D01*
X13071191Y-13425952D01*
X13052143Y-13435476D01*
X13033096Y-13435476D01*
X13014048Y-13425952D01*
X13004524Y-13416428D01*
X12995000Y-13397381D01*
X12985477Y-13359286D01*
X12985477Y-13311667D01*
X12995000Y-13273571D01*
X13004524Y-13254524D01*
X13014048Y-13245000D01*
X13033096Y-13235476D01*
X13185477Y-13416428D02*
X13195000Y-13425952D01*
X13185477Y-13435476D01*
X13175953Y-13425952D01*
X13185477Y-13416428D01*
X13185477Y-13435476D01*
X13318810Y-13235476D02*
X13337858Y-13235476D01*
X13356905Y-13245000D01*
X13366429Y-13254524D01*
X13375953Y-13273571D01*
X13385477Y-13311667D01*
X13385477Y-13359286D01*
X13375953Y-13397381D01*
X13366429Y-13416428D01*
X13356905Y-13425952D01*
X13337858Y-13435476D01*
X13318810Y-13435476D01*
X13299762Y-13425952D01*
X13290239Y-13416428D01*
X13280715Y-13397381D01*
X13271191Y-13359286D01*
X13271191Y-13311667D01*
X13280715Y-13273571D01*
X13290239Y-13254524D01*
X13299762Y-13245000D01*
X13318810Y-13235476D01*
X13566429Y-13235476D02*
X13471191Y-13235476D01*
X13461667Y-13330714D01*
X13471191Y-13321190D01*
X13490239Y-13311667D01*
X13537858Y-13311667D01*
X13556905Y-13321190D01*
X13566429Y-13330714D01*
X13575953Y-13349762D01*
X13575953Y-13397381D01*
X13566429Y-13416428D01*
X13556905Y-13425952D01*
X13537858Y-13435476D01*
X13490239Y-13435476D01*
X13471191Y-13425952D01*
X13461667Y-13416428D01*
X13671191Y-13435476D02*
X13709286Y-13435476D01*
X13728334Y-13425952D01*
X13737858Y-13416428D01*
X13756905Y-13387857D01*
X13766429Y-13349762D01*
X13766429Y-13273571D01*
X13756905Y-13254524D01*
X13747381Y-13245000D01*
X13728334Y-13235476D01*
X13690239Y-13235476D01*
X13671191Y-13245000D01*
X13661667Y-13254524D01*
X13652143Y-13273571D01*
X13652143Y-13321190D01*
X13661667Y-13340238D01*
X13671191Y-13349762D01*
X13690239Y-13359286D01*
X13728334Y-13359286D01*
X13747381Y-13349762D01*
X13756905Y-13340238D01*
X13766429Y-13321190D01*
X13956905Y-13435476D02*
X13842620Y-13435476D01*
X13899762Y-13435476D02*
X13899762Y-13235476D01*
X13880715Y-13264048D01*
X13861667Y-13283095D01*
X13842620Y-13292619D01*
X14033096Y-13235476D02*
X14033096Y-13273571D01*
X14109286Y-13235476D02*
X14109286Y-13273571D01*
X14404524Y-13511667D02*
X14395000Y-13502143D01*
X14375953Y-13473571D01*
X14366429Y-13454524D01*
X14356905Y-13425952D01*
X14347381Y-13378333D01*
X14347381Y-13340238D01*
X14356905Y-13292619D01*
X14366429Y-13264048D01*
X14375953Y-13245000D01*
X14395000Y-13216428D01*
X14404524Y-13206905D01*
X14471191Y-13254524D02*
X14480715Y-13245000D01*
X14499762Y-13235476D01*
X14547381Y-13235476D01*
X14566429Y-13245000D01*
X14575953Y-13254524D01*
X14585477Y-13273571D01*
X14585477Y-13292619D01*
X14575953Y-13321190D01*
X14461667Y-13435476D01*
X14585477Y-13435476D01*
X14823572Y-13435476D02*
X14823572Y-13235476D01*
X14909286Y-13435476D02*
X14909286Y-13330714D01*
X14899762Y-13311667D01*
X14880715Y-13302143D01*
X14852143Y-13302143D01*
X14833096Y-13311667D01*
X14823572Y-13321190D01*
X15033096Y-13435476D02*
X15014048Y-13425952D01*
X15004524Y-13416428D01*
X14995000Y-13397381D01*
X14995000Y-13340238D01*
X15004524Y-13321190D01*
X15014048Y-13311667D01*
X15033096Y-13302143D01*
X15061667Y-13302143D01*
X15080715Y-13311667D01*
X15090239Y-13321190D01*
X15099762Y-13340238D01*
X15099762Y-13397381D01*
X15090239Y-13416428D01*
X15080715Y-13425952D01*
X15061667Y-13435476D01*
X15033096Y-13435476D01*
X15214048Y-13435476D02*
X15195000Y-13425952D01*
X15185477Y-13406905D01*
X15185477Y-13235476D01*
X15366429Y-13425952D02*
X15347381Y-13435476D01*
X15309286Y-13435476D01*
X15290239Y-13425952D01*
X15280715Y-13406905D01*
X15280715Y-13330714D01*
X15290239Y-13311667D01*
X15309286Y-13302143D01*
X15347381Y-13302143D01*
X15366429Y-13311667D01*
X15375953Y-13330714D01*
X15375953Y-13349762D01*
X15280715Y-13368809D01*
X15452143Y-13425952D02*
X15471191Y-13435476D01*
X15509286Y-13435476D01*
X15528334Y-13425952D01*
X15537858Y-13406905D01*
X15537858Y-13397381D01*
X15528334Y-13378333D01*
X15509286Y-13368809D01*
X15480715Y-13368809D01*
X15461667Y-13359286D01*
X15452143Y-13340238D01*
X15452143Y-13330714D01*
X15461667Y-13311667D01*
X15480715Y-13302143D01*
X15509286Y-13302143D01*
X15528334Y-13311667D01*
X15604524Y-13511667D02*
X15614048Y-13502143D01*
X15633096Y-13473571D01*
X15642619Y-13454524D01*
X15652143Y-13425952D01*
X15661667Y-13378333D01*
X15661667Y-13340238D01*
X15652143Y-13292619D01*
X15642619Y-13264048D01*
X15633096Y-13245000D01*
X15614048Y-13216428D01*
X15604524Y-13206905D01*
X15966429Y-13511667D02*
X15956905Y-13502143D01*
X15937858Y-13473571D01*
X15928334Y-13454524D01*
X15918810Y-13425952D01*
X15909286Y-13378333D01*
X15909286Y-13340238D01*
X15918810Y-13292619D01*
X15928334Y-13264048D01*
X15937858Y-13245000D01*
X15956905Y-13216428D01*
X15966429Y-13206905D01*
X16042619Y-13302143D02*
X16042619Y-13435476D01*
X16042619Y-13321190D02*
X16052143Y-13311667D01*
X16071191Y-13302143D01*
X16099762Y-13302143D01*
X16118810Y-13311667D01*
X16128334Y-13330714D01*
X16128334Y-13435476D01*
X16252143Y-13435476D02*
X16233096Y-13425952D01*
X16223572Y-13416428D01*
X16214048Y-13397381D01*
X16214048Y-13340238D01*
X16223572Y-13321190D01*
X16233096Y-13311667D01*
X16252143Y-13302143D01*
X16280715Y-13302143D01*
X16299762Y-13311667D01*
X16309286Y-13321190D01*
X16318810Y-13340238D01*
X16318810Y-13397381D01*
X16309286Y-13416428D01*
X16299762Y-13425952D01*
X16280715Y-13435476D01*
X16252143Y-13435476D01*
X16375953Y-13302143D02*
X16452143Y-13302143D01*
X16404524Y-13235476D02*
X16404524Y-13406905D01*
X16414048Y-13425952D01*
X16433096Y-13435476D01*
X16452143Y-13435476D01*
X16671191Y-13302143D02*
X16671191Y-13502143D01*
X16671191Y-13311667D02*
X16690239Y-13302143D01*
X16728334Y-13302143D01*
X16747381Y-13311667D01*
X16756905Y-13321190D01*
X16766429Y-13340238D01*
X16766429Y-13397381D01*
X16756905Y-13416428D01*
X16747381Y-13425952D01*
X16728334Y-13435476D01*
X16690239Y-13435476D01*
X16671191Y-13425952D01*
X16880715Y-13435476D02*
X16861667Y-13425952D01*
X16852143Y-13406905D01*
X16852143Y-13235476D01*
X17042620Y-13435476D02*
X17042620Y-13330714D01*
X17033096Y-13311667D01*
X17014048Y-13302143D01*
X16975953Y-13302143D01*
X16956905Y-13311667D01*
X17042620Y-13425952D02*
X17023572Y-13435476D01*
X16975953Y-13435476D01*
X16956905Y-13425952D01*
X16947382Y-13406905D01*
X16947382Y-13387857D01*
X16956905Y-13368809D01*
X16975953Y-13359286D01*
X17023572Y-13359286D01*
X17042620Y-13349762D01*
X17109286Y-13302143D02*
X17185477Y-13302143D01*
X17137858Y-13235476D02*
X17137858Y-13406905D01*
X17147382Y-13425952D01*
X17166429Y-13435476D01*
X17185477Y-13435476D01*
X17328334Y-13425952D02*
X17309286Y-13435476D01*
X17271191Y-13435476D01*
X17252143Y-13425952D01*
X17242620Y-13406905D01*
X17242620Y-13330714D01*
X17252143Y-13311667D01*
X17271191Y-13302143D01*
X17309286Y-13302143D01*
X17328334Y-13311667D01*
X17337858Y-13330714D01*
X17337858Y-13349762D01*
X17242620Y-13368809D01*
X17509286Y-13435476D02*
X17509286Y-13235476D01*
X17509286Y-13425952D02*
X17490239Y-13435476D01*
X17452143Y-13435476D01*
X17433096Y-13425952D01*
X17423572Y-13416428D01*
X17414048Y-13397381D01*
X17414048Y-13340238D01*
X17423572Y-13321190D01*
X17433096Y-13311667D01*
X17452143Y-13302143D01*
X17490239Y-13302143D01*
X17509286Y-13311667D01*
X17585477Y-13511667D02*
X17595001Y-13502143D01*
X17614048Y-13473571D01*
X17623572Y-13454524D01*
X17633096Y-13425952D01*
X17642620Y-13378333D01*
X17642620Y-13340238D01*
X17633096Y-13292619D01*
X17623572Y-13264048D01*
X17614048Y-13245000D01*
X17595001Y-13216428D01*
X17585477Y-13206905D01*
D13*
X10832620Y-13615000D02*
G75*
G03*
X10832620Y-13615000I-90000J0D01*
G01*
D11*
X11195000Y-13705476D02*
X11080715Y-13705476D01*
X11137858Y-13705476D02*
X11137858Y-13505476D01*
X11118810Y-13534048D01*
X11099762Y-13553095D01*
X11080715Y-13562619D01*
X11280715Y-13686428D02*
X11290239Y-13695952D01*
X11280715Y-13705476D01*
X11271191Y-13695952D01*
X11280715Y-13686428D01*
X11280715Y-13705476D01*
X11404524Y-13591190D02*
X11385477Y-13581667D01*
X11375953Y-13572143D01*
X11366429Y-13553095D01*
X11366429Y-13543571D01*
X11375953Y-13524524D01*
X11385477Y-13515000D01*
X11404524Y-13505476D01*
X11442620Y-13505476D01*
X11461667Y-13515000D01*
X11471191Y-13524524D01*
X11480715Y-13543571D01*
X11480715Y-13553095D01*
X11471191Y-13572143D01*
X11461667Y-13581667D01*
X11442620Y-13591190D01*
X11404524Y-13591190D01*
X11385477Y-13600714D01*
X11375953Y-13610238D01*
X11366429Y-13629286D01*
X11366429Y-13667381D01*
X11375953Y-13686428D01*
X11385477Y-13695952D01*
X11404524Y-13705476D01*
X11442620Y-13705476D01*
X11461667Y-13695952D01*
X11471191Y-13686428D01*
X11480715Y-13667381D01*
X11480715Y-13629286D01*
X11471191Y-13610238D01*
X11461667Y-13600714D01*
X11442620Y-13591190D01*
X11604524Y-13505476D02*
X11623572Y-13505476D01*
X11642620Y-13515000D01*
X11652143Y-13524524D01*
X11661667Y-13543571D01*
X11671191Y-13581667D01*
X11671191Y-13629286D01*
X11661667Y-13667381D01*
X11652143Y-13686428D01*
X11642620Y-13695952D01*
X11623572Y-13705476D01*
X11604524Y-13705476D01*
X11585477Y-13695952D01*
X11575953Y-13686428D01*
X11566429Y-13667381D01*
X11556905Y-13629286D01*
X11556905Y-13581667D01*
X11566429Y-13543571D01*
X11575953Y-13524524D01*
X11585477Y-13515000D01*
X11604524Y-13505476D01*
X11795000Y-13505476D02*
X11814048Y-13505476D01*
X11833096Y-13515000D01*
X11842620Y-13524524D01*
X11852143Y-13543571D01*
X11861667Y-13581667D01*
X11861667Y-13629286D01*
X11852143Y-13667381D01*
X11842620Y-13686428D01*
X11833096Y-13695952D01*
X11814048Y-13705476D01*
X11795000Y-13705476D01*
X11775953Y-13695952D01*
X11766429Y-13686428D01*
X11756905Y-13667381D01*
X11747381Y-13629286D01*
X11747381Y-13581667D01*
X11756905Y-13543571D01*
X11766429Y-13524524D01*
X11775953Y-13515000D01*
X11795000Y-13505476D01*
X11947381Y-13705476D02*
X11947381Y-13572143D01*
X11947381Y-13591190D02*
X11956905Y-13581667D01*
X11975953Y-13572143D01*
X12004524Y-13572143D01*
X12023572Y-13581667D01*
X12033096Y-13600714D01*
X12033096Y-13705476D01*
X12033096Y-13600714D02*
X12042620Y-13581667D01*
X12061667Y-13572143D01*
X12090239Y-13572143D01*
X12109286Y-13581667D01*
X12118810Y-13600714D01*
X12118810Y-13705476D01*
X12214048Y-13705476D02*
X12214048Y-13572143D01*
X12214048Y-13591190D02*
X12223572Y-13581667D01*
X12242620Y-13572143D01*
X12271191Y-13572143D01*
X12290239Y-13581667D01*
X12299762Y-13600714D01*
X12299762Y-13705476D01*
X12299762Y-13600714D02*
X12309286Y-13581667D01*
X12328334Y-13572143D01*
X12356905Y-13572143D01*
X12375953Y-13581667D01*
X12385477Y-13600714D01*
X12385477Y-13705476D01*
X12775953Y-13495952D02*
X12604524Y-13753095D01*
X13033096Y-13505476D02*
X13052143Y-13505476D01*
X13071191Y-13515000D01*
X13080715Y-13524524D01*
X13090239Y-13543571D01*
X13099762Y-13581667D01*
X13099762Y-13629286D01*
X13090239Y-13667381D01*
X13080715Y-13686428D01*
X13071191Y-13695952D01*
X13052143Y-13705476D01*
X13033096Y-13705476D01*
X13014048Y-13695952D01*
X13004524Y-13686428D01*
X12995000Y-13667381D01*
X12985477Y-13629286D01*
X12985477Y-13581667D01*
X12995000Y-13543571D01*
X13004524Y-13524524D01*
X13014048Y-13515000D01*
X13033096Y-13505476D01*
X13185477Y-13686428D02*
X13195000Y-13695952D01*
X13185477Y-13705476D01*
X13175953Y-13695952D01*
X13185477Y-13686428D01*
X13185477Y-13705476D01*
X13318810Y-13505476D02*
X13337858Y-13505476D01*
X13356905Y-13515000D01*
X13366429Y-13524524D01*
X13375953Y-13543571D01*
X13385477Y-13581667D01*
X13385477Y-13629286D01*
X13375953Y-13667381D01*
X13366429Y-13686428D01*
X13356905Y-13695952D01*
X13337858Y-13705476D01*
X13318810Y-13705476D01*
X13299762Y-13695952D01*
X13290239Y-13686428D01*
X13280715Y-13667381D01*
X13271191Y-13629286D01*
X13271191Y-13581667D01*
X13280715Y-13543571D01*
X13290239Y-13524524D01*
X13299762Y-13515000D01*
X13318810Y-13505476D01*
X13452143Y-13505476D02*
X13585477Y-13505476D01*
X13499762Y-13705476D01*
X13699762Y-13505476D02*
X13718810Y-13505476D01*
X13737858Y-13515000D01*
X13747381Y-13524524D01*
X13756905Y-13543571D01*
X13766429Y-13581667D01*
X13766429Y-13629286D01*
X13756905Y-13667381D01*
X13747381Y-13686428D01*
X13737858Y-13695952D01*
X13718810Y-13705476D01*
X13699762Y-13705476D01*
X13680715Y-13695952D01*
X13671191Y-13686428D01*
X13661667Y-13667381D01*
X13652143Y-13629286D01*
X13652143Y-13581667D01*
X13661667Y-13543571D01*
X13671191Y-13524524D01*
X13680715Y-13515000D01*
X13699762Y-13505476D01*
X13861667Y-13705476D02*
X13899762Y-13705476D01*
X13918810Y-13695952D01*
X13928334Y-13686428D01*
X13947381Y-13657857D01*
X13956905Y-13619762D01*
X13956905Y-13543571D01*
X13947381Y-13524524D01*
X13937858Y-13515000D01*
X13918810Y-13505476D01*
X13880715Y-13505476D01*
X13861667Y-13515000D01*
X13852143Y-13524524D01*
X13842620Y-13543571D01*
X13842620Y-13591190D01*
X13852143Y-13610238D01*
X13861667Y-13619762D01*
X13880715Y-13629286D01*
X13918810Y-13629286D01*
X13937858Y-13619762D01*
X13947381Y-13610238D01*
X13956905Y-13591190D01*
X14033096Y-13505476D02*
X14033096Y-13543571D01*
X14109286Y-13505476D02*
X14109286Y-13543571D01*
X14404524Y-13781667D02*
X14395000Y-13772143D01*
X14375953Y-13743571D01*
X14366429Y-13724524D01*
X14356905Y-13695952D01*
X14347381Y-13648333D01*
X14347381Y-13610238D01*
X14356905Y-13562619D01*
X14366429Y-13534048D01*
X14375953Y-13515000D01*
X14395000Y-13486428D01*
X14404524Y-13476905D01*
X14471191Y-13524524D02*
X14480715Y-13515000D01*
X14499762Y-13505476D01*
X14547381Y-13505476D01*
X14566429Y-13515000D01*
X14575953Y-13524524D01*
X14585477Y-13543571D01*
X14585477Y-13562619D01*
X14575953Y-13591190D01*
X14461667Y-13705476D01*
X14585477Y-13705476D01*
X14823572Y-13705476D02*
X14823572Y-13505476D01*
X14909286Y-13705476D02*
X14909286Y-13600714D01*
X14899762Y-13581667D01*
X14880715Y-13572143D01*
X14852143Y-13572143D01*
X14833096Y-13581667D01*
X14823572Y-13591190D01*
X15033096Y-13705476D02*
X15014048Y-13695952D01*
X15004524Y-13686428D01*
X14995000Y-13667381D01*
X14995000Y-13610238D01*
X15004524Y-13591190D01*
X15014048Y-13581667D01*
X15033096Y-13572143D01*
X15061667Y-13572143D01*
X15080715Y-13581667D01*
X15090239Y-13591190D01*
X15099762Y-13610238D01*
X15099762Y-13667381D01*
X15090239Y-13686428D01*
X15080715Y-13695952D01*
X15061667Y-13705476D01*
X15033096Y-13705476D01*
X15214048Y-13705476D02*
X15195000Y-13695952D01*
X15185477Y-13676905D01*
X15185477Y-13505476D01*
X15366429Y-13695952D02*
X15347381Y-13705476D01*
X15309286Y-13705476D01*
X15290239Y-13695952D01*
X15280715Y-13676905D01*
X15280715Y-13600714D01*
X15290239Y-13581667D01*
X15309286Y-13572143D01*
X15347381Y-13572143D01*
X15366429Y-13581667D01*
X15375953Y-13600714D01*
X15375953Y-13619762D01*
X15280715Y-13638809D01*
X15452143Y-13695952D02*
X15471191Y-13705476D01*
X15509286Y-13705476D01*
X15528334Y-13695952D01*
X15537858Y-13676905D01*
X15537858Y-13667381D01*
X15528334Y-13648333D01*
X15509286Y-13638809D01*
X15480715Y-13638809D01*
X15461667Y-13629286D01*
X15452143Y-13610238D01*
X15452143Y-13600714D01*
X15461667Y-13581667D01*
X15480715Y-13572143D01*
X15509286Y-13572143D01*
X15528334Y-13581667D01*
X15604524Y-13781667D02*
X15614048Y-13772143D01*
X15633096Y-13743571D01*
X15642619Y-13724524D01*
X15652143Y-13695952D01*
X15661667Y-13648333D01*
X15661667Y-13610238D01*
X15652143Y-13562619D01*
X15642619Y-13534048D01*
X15633096Y-13515000D01*
X15614048Y-13486428D01*
X15604524Y-13476905D01*
X15966429Y-13781667D02*
X15956905Y-13772143D01*
X15937858Y-13743571D01*
X15928334Y-13724524D01*
X15918810Y-13695952D01*
X15909286Y-13648333D01*
X15909286Y-13610238D01*
X15918810Y-13562619D01*
X15928334Y-13534048D01*
X15937858Y-13515000D01*
X15956905Y-13486428D01*
X15966429Y-13476905D01*
X16042619Y-13572143D02*
X16042619Y-13705476D01*
X16042619Y-13591190D02*
X16052143Y-13581667D01*
X16071191Y-13572143D01*
X16099762Y-13572143D01*
X16118810Y-13581667D01*
X16128334Y-13600714D01*
X16128334Y-13705476D01*
X16252143Y-13705476D02*
X16233096Y-13695952D01*
X16223572Y-13686428D01*
X16214048Y-13667381D01*
X16214048Y-13610238D01*
X16223572Y-13591190D01*
X16233096Y-13581667D01*
X16252143Y-13572143D01*
X16280715Y-13572143D01*
X16299762Y-13581667D01*
X16309286Y-13591190D01*
X16318810Y-13610238D01*
X16318810Y-13667381D01*
X16309286Y-13686428D01*
X16299762Y-13695952D01*
X16280715Y-13705476D01*
X16252143Y-13705476D01*
X16375953Y-13572143D02*
X16452143Y-13572143D01*
X16404524Y-13505476D02*
X16404524Y-13676905D01*
X16414048Y-13695952D01*
X16433096Y-13705476D01*
X16452143Y-13705476D01*
X16671191Y-13572143D02*
X16671191Y-13772143D01*
X16671191Y-13581667D02*
X16690239Y-13572143D01*
X16728334Y-13572143D01*
X16747381Y-13581667D01*
X16756905Y-13591190D01*
X16766429Y-13610238D01*
X16766429Y-13667381D01*
X16756905Y-13686428D01*
X16747381Y-13695952D01*
X16728334Y-13705476D01*
X16690239Y-13705476D01*
X16671191Y-13695952D01*
X16880715Y-13705476D02*
X16861667Y-13695952D01*
X16852143Y-13676905D01*
X16852143Y-13505476D01*
X17042620Y-13705476D02*
X17042620Y-13600714D01*
X17033096Y-13581667D01*
X17014048Y-13572143D01*
X16975953Y-13572143D01*
X16956905Y-13581667D01*
X17042620Y-13695952D02*
X17023572Y-13705476D01*
X16975953Y-13705476D01*
X16956905Y-13695952D01*
X16947382Y-13676905D01*
X16947382Y-13657857D01*
X16956905Y-13638809D01*
X16975953Y-13629286D01*
X17023572Y-13629286D01*
X17042620Y-13619762D01*
X17109286Y-13572143D02*
X17185477Y-13572143D01*
X17137858Y-13505476D02*
X17137858Y-13676905D01*
X17147382Y-13695952D01*
X17166429Y-13705476D01*
X17185477Y-13705476D01*
X17328334Y-13695952D02*
X17309286Y-13705476D01*
X17271191Y-13705476D01*
X17252143Y-13695952D01*
X17242620Y-13676905D01*
X17242620Y-13600714D01*
X17252143Y-13581667D01*
X17271191Y-13572143D01*
X17309286Y-13572143D01*
X17328334Y-13581667D01*
X17337858Y-13600714D01*
X17337858Y-13619762D01*
X17242620Y-13638809D01*
X17509286Y-13705476D02*
X17509286Y-13505476D01*
X17509286Y-13695952D02*
X17490239Y-13705476D01*
X17452143Y-13705476D01*
X17433096Y-13695952D01*
X17423572Y-13686428D01*
X17414048Y-13667381D01*
X17414048Y-13610238D01*
X17423572Y-13591190D01*
X17433096Y-13581667D01*
X17452143Y-13572143D01*
X17490239Y-13572143D01*
X17509286Y-13581667D01*
X17585477Y-13781667D02*
X17595001Y-13772143D01*
X17614048Y-13743571D01*
X17623572Y-13724524D01*
X17633096Y-13695952D01*
X17642620Y-13648333D01*
X17642620Y-13610238D01*
X17633096Y-13562619D01*
X17623572Y-13534048D01*
X17614048Y-13515000D01*
X17595001Y-13486428D01*
X17585477Y-13476905D01*
M02*
