%FSLAX45Y45*%
G04 Gerber Fmt 4.5, Leading zero omitted, Abs format (unit mm)*
G04 Created by KiCad (PCBNEW (6.0.6)) date 2023-06-21 15:59:26*
%MOMM*%
%LPD*%
G01*
G04 APERTURE LIST*
%TA.AperFunction,Profile*%
%ADD10C,0.100000*%
%TD*%
%ADD11C,0.200000*%
%ADD12C,0.040000*%
%ADD13C,0.080000*%
%ADD14C,0.090000*%
%ADD15C,0.099000*%
%ADD16C,0.100000*%
%ADD17C,0.102000*%
%ADD18C,0.120000*%
%ADD19C,0.130000*%
G04 APERTURE END LIST*
D10*
X11023834Y-4767893D02*
G75*
G03*
X10845800Y-5054600I68196J-240977D01*
G01*
X19786600Y-4775200D02*
X11023834Y-4767895D01*
X10838500Y-12446000D02*
G75*
G03*
X11051896Y-12700000I233700J-20300D01*
G01*
X10845800Y-5054600D02*
X10838495Y-12446000D01*
X19812001Y-12700001D02*
G75*
G03*
X20000001Y-12446000I-108851J277141D01*
G01*
X20000001Y-12446000D02*
X20000001Y-4978400D01*
X11051896Y-12700000D02*
X19812000Y-12700000D01*
X19999998Y-4978400D02*
G75*
G03*
X19786600Y-4775200I-188608J15580D01*
G01*
D11*
D12*
X14210070Y-9187920D02*
X14250070Y-9227920D01*
X14250070Y-9187920D02*
X14210070Y-9227920D01*
X15083020Y-7643410D02*
X15123020Y-7683410D01*
X15123020Y-7643410D02*
X15083020Y-7683410D01*
X15440660Y-8100460D02*
X15480660Y-8140460D01*
X15480660Y-8100460D02*
X15440660Y-8140460D01*
X15900610Y-11731010D02*
X15940610Y-11771010D01*
X15940610Y-11731010D02*
X15900610Y-11771010D01*
X15907310Y-6870580D02*
X15947310Y-6910580D01*
X15947310Y-6870580D02*
X15907310Y-6910580D01*
X15956600Y-7168200D02*
X15996600Y-7208200D01*
X15996600Y-7168200D02*
X15956600Y-7208200D01*
X16844550Y-6516020D02*
X16884550Y-6556020D01*
X16884550Y-6516020D02*
X16844550Y-6556020D01*
X17449740Y-7668580D02*
X17489740Y-7708580D01*
X17489740Y-7668580D02*
X17449740Y-7708580D01*
D13*
X11444600Y-11049000D02*
G75*
G03*
X11444600Y-11049000I-40000J0D01*
G01*
X11444600Y-11811000D02*
G75*
G03*
X11444600Y-11811000I-40000J0D01*
G01*
X11470000Y-5410200D02*
G75*
G03*
X11470000Y-5410200I-40000J0D01*
G01*
X11470000Y-6172200D02*
G75*
G03*
X11470000Y-6172200I-40000J0D01*
G01*
X11470000Y-8305800D02*
G75*
G03*
X11470000Y-8305800I-40000J0D01*
G01*
X11470000Y-9067800D02*
G75*
G03*
X11470000Y-9067800I-40000J0D01*
G01*
X11901800Y-8305800D02*
G75*
G03*
X11901800Y-8305800I-40000J0D01*
G01*
X11901800Y-9067800D02*
G75*
G03*
X11901800Y-9067800I-40000J0D01*
G01*
X11927200Y-11049000D02*
G75*
G03*
X11927200Y-11049000I-40000J0D01*
G01*
X11927200Y-11811000D02*
G75*
G03*
X11927200Y-11811000I-40000J0D01*
G01*
X11952600Y-5410200D02*
G75*
G03*
X11952600Y-5410200I-40000J0D01*
G01*
X11952600Y-6172200D02*
G75*
G03*
X11952600Y-6172200I-40000J0D01*
G01*
X13070700Y-6704600D02*
G75*
G03*
X13070700Y-6704600I-40000J0D01*
G01*
X13070700Y-7466600D02*
G75*
G03*
X13070700Y-7466600I-40000J0D01*
G01*
X13324700Y-6704600D02*
G75*
G03*
X13324700Y-6704600I-40000J0D01*
G01*
X13324700Y-7466600D02*
G75*
G03*
X13324700Y-7466600I-40000J0D01*
G01*
X13578700Y-6704600D02*
G75*
G03*
X13578700Y-6704600I-40000J0D01*
G01*
X13578700Y-7466600D02*
G75*
G03*
X13578700Y-7466600I-40000J0D01*
G01*
X13832700Y-6704600D02*
G75*
G03*
X13832700Y-6704600I-40000J0D01*
G01*
X13832700Y-7466600D02*
G75*
G03*
X13832700Y-7466600I-40000J0D01*
G01*
X14062800Y-7874000D02*
G75*
G03*
X14062800Y-7874000I-40000J0D01*
G01*
X14086700Y-6704600D02*
G75*
G03*
X14086700Y-6704600I-40000J0D01*
G01*
X14086700Y-7466600D02*
G75*
G03*
X14086700Y-7466600I-40000J0D01*
G01*
X14312800Y-7874000D02*
G75*
G03*
X14312800Y-7874000I-40000J0D01*
G01*
X14340700Y-6704600D02*
G75*
G03*
X14340700Y-6704600I-40000J0D01*
G01*
X14340700Y-7466600D02*
G75*
G03*
X14340700Y-7466600I-40000J0D01*
G01*
X14594700Y-6704600D02*
G75*
G03*
X14594700Y-6704600I-40000J0D01*
G01*
X14594700Y-7466600D02*
G75*
G03*
X14594700Y-7466600I-40000J0D01*
G01*
X14848700Y-6704600D02*
G75*
G03*
X14848700Y-6704600I-40000J0D01*
G01*
X14848700Y-7466600D02*
G75*
G03*
X14848700Y-7466600I-40000J0D01*
G01*
X15102700Y-6704600D02*
G75*
G03*
X15102700Y-6704600I-40000J0D01*
G01*
X15102700Y-7466600D02*
G75*
G03*
X15102700Y-7466600I-40000J0D01*
G01*
X15356700Y-6704600D02*
G75*
G03*
X15356700Y-6704600I-40000J0D01*
G01*
X15356700Y-7466600D02*
G75*
G03*
X15356700Y-7466600I-40000J0D01*
G01*
X16017100Y-6679200D02*
G75*
G03*
X16017100Y-6679200I-40000J0D01*
G01*
X16017100Y-7441200D02*
G75*
G03*
X16017100Y-7441200I-40000J0D01*
G01*
X16271100Y-6679200D02*
G75*
G03*
X16271100Y-6679200I-40000J0D01*
G01*
X16271100Y-7441200D02*
G75*
G03*
X16271100Y-7441200I-40000J0D01*
G01*
X16525100Y-6679200D02*
G75*
G03*
X16525100Y-6679200I-40000J0D01*
G01*
X16525100Y-7441200D02*
G75*
G03*
X16525100Y-7441200I-40000J0D01*
G01*
X16779100Y-6679200D02*
G75*
G03*
X16779100Y-6679200I-40000J0D01*
G01*
X16779100Y-7441200D02*
G75*
G03*
X16779100Y-7441200I-40000J0D01*
G01*
X17033100Y-6679200D02*
G75*
G03*
X17033100Y-6679200I-40000J0D01*
G01*
X17033100Y-7441200D02*
G75*
G03*
X17033100Y-7441200I-40000J0D01*
G01*
X17034600Y-7848600D02*
G75*
G03*
X17034600Y-7848600I-40000J0D01*
G01*
X17284600Y-7848600D02*
G75*
G03*
X17284600Y-7848600I-40000J0D01*
G01*
X17287100Y-6679200D02*
G75*
G03*
X17287100Y-6679200I-40000J0D01*
G01*
X17287100Y-7441200D02*
G75*
G03*
X17287100Y-7441200I-40000J0D01*
G01*
X17541100Y-6679200D02*
G75*
G03*
X17541100Y-6679200I-40000J0D01*
G01*
X17541100Y-7441200D02*
G75*
G03*
X17541100Y-7441200I-40000J0D01*
G01*
X17795100Y-6679200D02*
G75*
G03*
X17795100Y-6679200I-40000J0D01*
G01*
X17795100Y-7441200D02*
G75*
G03*
X17795100Y-7441200I-40000J0D01*
G01*
X18049100Y-6679200D02*
G75*
G03*
X18049100Y-6679200I-40000J0D01*
G01*
X18049100Y-7441200D02*
G75*
G03*
X18049100Y-7441200I-40000J0D01*
G01*
X18303100Y-6679200D02*
G75*
G03*
X18303100Y-6679200I-40000J0D01*
G01*
X18303100Y-7441200D02*
G75*
G03*
X18303100Y-7441200I-40000J0D01*
G01*
D14*
X12192000Y-6838400D02*
X12192000Y-6928400D01*
X12147000Y-6883400D02*
X12237000Y-6883400D01*
X12192000Y-7092400D02*
X12192000Y-7182400D01*
X12147000Y-7137400D02*
X12237000Y-7137400D01*
X12192000Y-7473900D02*
X12192000Y-7563900D01*
X12147000Y-7518900D02*
X12237000Y-7518900D01*
X12192000Y-7727900D02*
X12192000Y-7817900D01*
X12147000Y-7772900D02*
X12237000Y-7772900D01*
X12217400Y-9784800D02*
X12217400Y-9874800D01*
X12172400Y-9829800D02*
X12262400Y-9829800D01*
X12217400Y-10038800D02*
X12217400Y-10128800D01*
X12172400Y-10083800D02*
X12262400Y-10083800D01*
X12217400Y-10445700D02*
X12217400Y-10535700D01*
X12172400Y-10490700D02*
X12262400Y-10490700D01*
X12217400Y-10699700D02*
X12217400Y-10789700D01*
X12172400Y-10744700D02*
X12262400Y-10744700D01*
D15*
X11254852Y-7154202D02*
X11254852Y-7084198D01*
X11184848Y-7084198D01*
X11184848Y-7154202D01*
X11254852Y-7154202D01*
X11254852Y-7604202D02*
X11254852Y-7534198D01*
X11184848Y-7534198D01*
X11184848Y-7604202D01*
X11254852Y-7604202D01*
X11261802Y-10075202D02*
X11261802Y-10005198D01*
X11191798Y-10005198D01*
X11191798Y-10075202D01*
X11261802Y-10075202D01*
X11261802Y-10525202D02*
X11261802Y-10455198D01*
X11191798Y-10455198D01*
X11191798Y-10525202D01*
X11261802Y-10525202D01*
D16*
X13665200Y-5979150D02*
X13715200Y-5929150D01*
X13665200Y-5879150D01*
X13615200Y-5929150D01*
X13665200Y-5979150D01*
X13665200Y-6233150D02*
X13715200Y-6183150D01*
X13665200Y-6133150D01*
X13615200Y-6183150D01*
X13665200Y-6233150D01*
X13690600Y-11392850D02*
X13740600Y-11342850D01*
X13690600Y-11292850D01*
X13640600Y-11342850D01*
X13690600Y-11392850D01*
X13690600Y-11646850D02*
X13740600Y-11596850D01*
X13690600Y-11546850D01*
X13640600Y-11596850D01*
X13690600Y-11646850D01*
X13919200Y-5979150D02*
X13969200Y-5929150D01*
X13919200Y-5879150D01*
X13869200Y-5929150D01*
X13919200Y-5979150D01*
X13919200Y-6233150D02*
X13969200Y-6183150D01*
X13919200Y-6133150D01*
X13869200Y-6183150D01*
X13919200Y-6233150D01*
X13944600Y-11392850D02*
X13994600Y-11342850D01*
X13944600Y-11292850D01*
X13894600Y-11342850D01*
X13944600Y-11392850D01*
X13944600Y-11646850D02*
X13994600Y-11596850D01*
X13944600Y-11546850D01*
X13894600Y-11596850D01*
X13944600Y-11646850D01*
X14173200Y-5979150D02*
X14223200Y-5929150D01*
X14173200Y-5879150D01*
X14123200Y-5929150D01*
X14173200Y-5979150D01*
X14173200Y-6233150D02*
X14223200Y-6183150D01*
X14173200Y-6133150D01*
X14123200Y-6183150D01*
X14173200Y-6233150D01*
X14198600Y-11392850D02*
X14248600Y-11342850D01*
X14198600Y-11292850D01*
X14148600Y-11342850D01*
X14198600Y-11392850D01*
X14198600Y-11646850D02*
X14248600Y-11596850D01*
X14198600Y-11546850D01*
X14148600Y-11596850D01*
X14198600Y-11646850D01*
X14427200Y-5979150D02*
X14477200Y-5929150D01*
X14427200Y-5879150D01*
X14377200Y-5929150D01*
X14427200Y-5979150D01*
X14427200Y-6233150D02*
X14477200Y-6183150D01*
X14427200Y-6133150D01*
X14377200Y-6183150D01*
X14427200Y-6233150D01*
X14452600Y-11392850D02*
X14502600Y-11342850D01*
X14452600Y-11292850D01*
X14402600Y-11342850D01*
X14452600Y-11392850D01*
X14452600Y-11646850D02*
X14502600Y-11596850D01*
X14452600Y-11546850D01*
X14402600Y-11596850D01*
X14452600Y-11646850D01*
X14681200Y-5979150D02*
X14731200Y-5929150D01*
X14681200Y-5879150D01*
X14631200Y-5929150D01*
X14681200Y-5979150D01*
X14681200Y-6233150D02*
X14731200Y-6183150D01*
X14681200Y-6133150D01*
X14631200Y-6183150D01*
X14681200Y-6233150D01*
X14706600Y-11392850D02*
X14756600Y-11342850D01*
X14706600Y-11292850D01*
X14656600Y-11342850D01*
X14706600Y-11392850D01*
X14706600Y-11646850D02*
X14756600Y-11596850D01*
X14706600Y-11546850D01*
X14656600Y-11596850D01*
X14706600Y-11646850D01*
X14935200Y-5979150D02*
X14985200Y-5929150D01*
X14935200Y-5879150D01*
X14885200Y-5929150D01*
X14935200Y-5979150D01*
X14935200Y-6233150D02*
X14985200Y-6183150D01*
X14935200Y-6133150D01*
X14885200Y-6183150D01*
X14935200Y-6233150D01*
X14960600Y-11392850D02*
X15010600Y-11342850D01*
X14960600Y-11292850D01*
X14910600Y-11342850D01*
X14960600Y-11392850D01*
X14960600Y-11646850D02*
X15010600Y-11596850D01*
X14960600Y-11546850D01*
X14910600Y-11596850D01*
X14960600Y-11646850D01*
X15189200Y-5979150D02*
X15239200Y-5929150D01*
X15189200Y-5879150D01*
X15139200Y-5929150D01*
X15189200Y-5979150D01*
X15189200Y-6233150D02*
X15239200Y-6183150D01*
X15189200Y-6133150D01*
X15139200Y-6183150D01*
X15189200Y-6233150D01*
X15214600Y-11392850D02*
X15264600Y-11342850D01*
X15214600Y-11292850D01*
X15164600Y-11342850D01*
X15214600Y-11392850D01*
X15214600Y-11646850D02*
X15264600Y-11596850D01*
X15214600Y-11546850D01*
X15164600Y-11596850D01*
X15214600Y-11646850D01*
X15443200Y-5979150D02*
X15493200Y-5929150D01*
X15443200Y-5879150D01*
X15393200Y-5929150D01*
X15443200Y-5979150D01*
X15443200Y-6233150D02*
X15493200Y-6183150D01*
X15443200Y-6133150D01*
X15393200Y-6183150D01*
X15443200Y-6233150D01*
X15468600Y-11392850D02*
X15518600Y-11342850D01*
X15468600Y-11292850D01*
X15418600Y-11342850D01*
X15468600Y-11392850D01*
X15468600Y-11646850D02*
X15518600Y-11596850D01*
X15468600Y-11546850D01*
X15418600Y-11596850D01*
X15468600Y-11646850D01*
X15697200Y-5979150D02*
X15747200Y-5929150D01*
X15697200Y-5879150D01*
X15647200Y-5929150D01*
X15697200Y-5979150D01*
X15697200Y-6233150D02*
X15747200Y-6183150D01*
X15697200Y-6133150D01*
X15647200Y-6183150D01*
X15697200Y-6233150D01*
X15722600Y-11392850D02*
X15772600Y-11342850D01*
X15722600Y-11292850D01*
X15672600Y-11342850D01*
X15722600Y-11392850D01*
X15722600Y-11646850D02*
X15772600Y-11596850D01*
X15722600Y-11546850D01*
X15672600Y-11596850D01*
X15722600Y-11646850D01*
X15951200Y-5979150D02*
X16001200Y-5929150D01*
X15951200Y-5879150D01*
X15901200Y-5929150D01*
X15951200Y-5979150D01*
X15951200Y-6233150D02*
X16001200Y-6183150D01*
X15951200Y-6133150D01*
X15901200Y-6183150D01*
X15951200Y-6233150D01*
X15976600Y-11392850D02*
X16026600Y-11342850D01*
X15976600Y-11292850D01*
X15926600Y-11342850D01*
X15976600Y-11392850D01*
X15976600Y-11646850D02*
X16026600Y-11596850D01*
X15976600Y-11546850D01*
X15926600Y-11596850D01*
X15976600Y-11646850D01*
X16205200Y-5979150D02*
X16255200Y-5929150D01*
X16205200Y-5879150D01*
X16155200Y-5929150D01*
X16205200Y-5979150D01*
X16205200Y-6233150D02*
X16255200Y-6183150D01*
X16205200Y-6133150D01*
X16155200Y-6183150D01*
X16205200Y-6233150D01*
X16230600Y-11392850D02*
X16280600Y-11342850D01*
X16230600Y-11292850D01*
X16180600Y-11342850D01*
X16230600Y-11392850D01*
X16230600Y-11646850D02*
X16280600Y-11596850D01*
X16230600Y-11546850D01*
X16180600Y-11596850D01*
X16230600Y-11646850D01*
X16459200Y-5979150D02*
X16509200Y-5929150D01*
X16459200Y-5879150D01*
X16409200Y-5929150D01*
X16459200Y-5979150D01*
X16459200Y-6233150D02*
X16509200Y-6183150D01*
X16459200Y-6133150D01*
X16409200Y-6183150D01*
X16459200Y-6233150D01*
X16484600Y-11392850D02*
X16534600Y-11342850D01*
X16484600Y-11292850D01*
X16434600Y-11342850D01*
X16484600Y-11392850D01*
X16484600Y-11646850D02*
X16534600Y-11596850D01*
X16484600Y-11546850D01*
X16434600Y-11596850D01*
X16484600Y-11646850D01*
X16713200Y-5979150D02*
X16763200Y-5929150D01*
X16713200Y-5879150D01*
X16663200Y-5929150D01*
X16713200Y-5979150D01*
X16713200Y-6233150D02*
X16763200Y-6183150D01*
X16713200Y-6133150D01*
X16663200Y-6183150D01*
X16713200Y-6233150D01*
X16738600Y-11392850D02*
X16788600Y-11342850D01*
X16738600Y-11292850D01*
X16688600Y-11342850D01*
X16738600Y-11392850D01*
X16738600Y-11646850D02*
X16788600Y-11596850D01*
X16738600Y-11546850D01*
X16688600Y-11596850D01*
X16738600Y-11646850D01*
X16967200Y-5979150D02*
X17017200Y-5929150D01*
X16967200Y-5879150D01*
X16917200Y-5929150D01*
X16967200Y-5979150D01*
X16967200Y-6233150D02*
X17017200Y-6183150D01*
X16967200Y-6133150D01*
X16917200Y-6183150D01*
X16967200Y-6233150D01*
X16992600Y-11392850D02*
X17042600Y-11342850D01*
X16992600Y-11292850D01*
X16942600Y-11342850D01*
X16992600Y-11392850D01*
X16992600Y-11646850D02*
X17042600Y-11596850D01*
X16992600Y-11546850D01*
X16942600Y-11596850D01*
X16992600Y-11646850D01*
X17221200Y-5979150D02*
X17271200Y-5929150D01*
X17221200Y-5879150D01*
X17171200Y-5929150D01*
X17221200Y-5979150D01*
X17221200Y-6233150D02*
X17271200Y-6183150D01*
X17221200Y-6133150D01*
X17171200Y-6183150D01*
X17221200Y-6233150D01*
X17246600Y-11392850D02*
X17296600Y-11342850D01*
X17246600Y-11292850D01*
X17196600Y-11342850D01*
X17246600Y-11392850D01*
X17246600Y-11646850D02*
X17296600Y-11596850D01*
X17246600Y-11546850D01*
X17196600Y-11596850D01*
X17246600Y-11646850D01*
X17475200Y-5979150D02*
X17525200Y-5929150D01*
X17475200Y-5879150D01*
X17425200Y-5929150D01*
X17475200Y-5979150D01*
X17475200Y-6233150D02*
X17525200Y-6183150D01*
X17475200Y-6133150D01*
X17425200Y-6183150D01*
X17475200Y-6233150D01*
X17500600Y-11392850D02*
X17550600Y-11342850D01*
X17500600Y-11292850D01*
X17450600Y-11342850D01*
X17500600Y-11392850D01*
X17500600Y-11646850D02*
X17550600Y-11596850D01*
X17500600Y-11546850D01*
X17450600Y-11596850D01*
X17500600Y-11646850D01*
X17729200Y-5979150D02*
X17779200Y-5929150D01*
X17729200Y-5879150D01*
X17679200Y-5929150D01*
X17729200Y-5979150D01*
X17729200Y-6233150D02*
X17779200Y-6183150D01*
X17729200Y-6133150D01*
X17679200Y-6183150D01*
X17729200Y-6233150D01*
X17754600Y-11392850D02*
X17804600Y-11342850D01*
X17754600Y-11292850D01*
X17704600Y-11342850D01*
X17754600Y-11392850D01*
X17754600Y-11646850D02*
X17804600Y-11596850D01*
X17754600Y-11546850D01*
X17704600Y-11596850D01*
X17754600Y-11646850D01*
X18917300Y-6553400D02*
X18967300Y-6503400D01*
X18917300Y-6453400D01*
X18867300Y-6503400D01*
X18917300Y-6553400D01*
X18917300Y-6807400D02*
X18967300Y-6757400D01*
X18917300Y-6707400D01*
X18867300Y-6757400D01*
X18917300Y-6807400D01*
X18917300Y-7061400D02*
X18967300Y-7011400D01*
X18917300Y-6961400D01*
X18867300Y-7011400D01*
X18917300Y-7061400D01*
X18917300Y-7315400D02*
X18967300Y-7265400D01*
X18917300Y-7215400D01*
X18867300Y-7265400D01*
X18917300Y-7315400D01*
X18917300Y-7874200D02*
X18967300Y-7824200D01*
X18917300Y-7774200D01*
X18867300Y-7824200D01*
X18917300Y-7874200D01*
X18917300Y-8128200D02*
X18967300Y-8078200D01*
X18917300Y-8028200D01*
X18867300Y-8078200D01*
X18917300Y-8128200D01*
X18917300Y-8382200D02*
X18967300Y-8332200D01*
X18917300Y-8282200D01*
X18867300Y-8332200D01*
X18917300Y-8382200D01*
X18917300Y-8636200D02*
X18967300Y-8586200D01*
X18917300Y-8536200D01*
X18867300Y-8586200D01*
X18917300Y-8636200D01*
D17*
X13284000Y-8686600D02*
X13386000Y-8788600D01*
X13386000Y-8686600D02*
X13284000Y-8788600D01*
X13386000Y-8737600D02*
G75*
G03*
X13386000Y-8737600I-51000J0D01*
G01*
X13284000Y-10464600D02*
X13386000Y-10566600D01*
X13386000Y-10464600D02*
X13284000Y-10566600D01*
X13386000Y-10515600D02*
G75*
G03*
X13386000Y-10515600I-51000J0D01*
G01*
X13307000Y-9321600D02*
X13409000Y-9423600D01*
X13409000Y-9321600D02*
X13307000Y-9423600D01*
X13409000Y-9372600D02*
G75*
G03*
X13409000Y-9372600I-51000J0D01*
G01*
X13307000Y-9575600D02*
X13409000Y-9677600D01*
X13409000Y-9575600D02*
X13307000Y-9677600D01*
X13409000Y-9626600D02*
G75*
G03*
X13409000Y-9626600I-51000J0D01*
G01*
X13307000Y-9829600D02*
X13409000Y-9931600D01*
X13409000Y-9829600D02*
X13307000Y-9931600D01*
X13409000Y-9880600D02*
G75*
G03*
X13409000Y-9880600I-51000J0D01*
G01*
X13538000Y-8686600D02*
X13640000Y-8788600D01*
X13640000Y-8686600D02*
X13538000Y-8788600D01*
X13640000Y-8737600D02*
G75*
G03*
X13640000Y-8737600I-51000J0D01*
G01*
X13538000Y-10464600D02*
X13640000Y-10566600D01*
X13640000Y-10464600D02*
X13538000Y-10566600D01*
X13640000Y-10515600D02*
G75*
G03*
X13640000Y-10515600I-51000J0D01*
G01*
X13792000Y-8686600D02*
X13894000Y-8788600D01*
X13894000Y-8686600D02*
X13792000Y-8788600D01*
X13894000Y-8737600D02*
G75*
G03*
X13894000Y-8737600I-51000J0D01*
G01*
X13792000Y-10464600D02*
X13894000Y-10566600D01*
X13894000Y-10464600D02*
X13792000Y-10566600D01*
X13894000Y-10515600D02*
G75*
G03*
X13894000Y-10515600I-51000J0D01*
G01*
X14046000Y-8686600D02*
X14148000Y-8788600D01*
X14148000Y-8686600D02*
X14046000Y-8788600D01*
X14148000Y-8737600D02*
G75*
G03*
X14148000Y-8737600I-51000J0D01*
G01*
X14046000Y-10464600D02*
X14148000Y-10566600D01*
X14148000Y-10464600D02*
X14046000Y-10566600D01*
X14148000Y-10515600D02*
G75*
G03*
X14148000Y-10515600I-51000J0D01*
G01*
X14300000Y-8686600D02*
X14402000Y-8788600D01*
X14402000Y-8686600D02*
X14300000Y-8788600D01*
X14402000Y-8737600D02*
G75*
G03*
X14402000Y-8737600I-51000J0D01*
G01*
X14300000Y-10464600D02*
X14402000Y-10566600D01*
X14402000Y-10464600D02*
X14300000Y-10566600D01*
X14402000Y-10515600D02*
G75*
G03*
X14402000Y-10515600I-51000J0D01*
G01*
X14554000Y-8686600D02*
X14656000Y-8788600D01*
X14656000Y-8686600D02*
X14554000Y-8788600D01*
X14656000Y-8737600D02*
G75*
G03*
X14656000Y-8737600I-51000J0D01*
G01*
X14554000Y-10464600D02*
X14656000Y-10566600D01*
X14656000Y-10464600D02*
X14554000Y-10566600D01*
X14656000Y-10515600D02*
G75*
G03*
X14656000Y-10515600I-51000J0D01*
G01*
X14808000Y-8686600D02*
X14910000Y-8788600D01*
X14910000Y-8686600D02*
X14808000Y-8788600D01*
X14910000Y-8737600D02*
G75*
G03*
X14910000Y-8737600I-51000J0D01*
G01*
X14808000Y-10464600D02*
X14910000Y-10566600D01*
X14910000Y-10464600D02*
X14808000Y-10566600D01*
X14910000Y-10515600D02*
G75*
G03*
X14910000Y-10515600I-51000J0D01*
G01*
X15062000Y-8686600D02*
X15164000Y-8788600D01*
X15164000Y-8686600D02*
X15062000Y-8788600D01*
X15164000Y-8737600D02*
G75*
G03*
X15164000Y-8737600I-51000J0D01*
G01*
X15062000Y-10464600D02*
X15164000Y-10566600D01*
X15164000Y-10464600D02*
X15062000Y-10566600D01*
X15164000Y-10515600D02*
G75*
G03*
X15164000Y-10515600I-51000J0D01*
G01*
X15316000Y-8686600D02*
X15418000Y-8788600D01*
X15418000Y-8686600D02*
X15316000Y-8788600D01*
X15418000Y-8737600D02*
G75*
G03*
X15418000Y-8737600I-51000J0D01*
G01*
X15316000Y-10464600D02*
X15418000Y-10566600D01*
X15418000Y-10464600D02*
X15316000Y-10566600D01*
X15418000Y-10515600D02*
G75*
G03*
X15418000Y-10515600I-51000J0D01*
G01*
X15570000Y-8686600D02*
X15672000Y-8788600D01*
X15672000Y-8686600D02*
X15570000Y-8788600D01*
X15672000Y-8737600D02*
G75*
G03*
X15672000Y-8737600I-51000J0D01*
G01*
X15570000Y-10464600D02*
X15672000Y-10566600D01*
X15672000Y-10464600D02*
X15570000Y-10566600D01*
X15672000Y-10515600D02*
G75*
G03*
X15672000Y-10515600I-51000J0D01*
G01*
X15824000Y-8686600D02*
X15926000Y-8788600D01*
X15926000Y-8686600D02*
X15824000Y-8788600D01*
X15926000Y-8737600D02*
G75*
G03*
X15926000Y-8737600I-51000J0D01*
G01*
X15824000Y-10464600D02*
X15926000Y-10566600D01*
X15926000Y-10464600D02*
X15824000Y-10566600D01*
X15926000Y-10515600D02*
G75*
G03*
X15926000Y-10515600I-51000J0D01*
G01*
X16078000Y-8686600D02*
X16180000Y-8788600D01*
X16180000Y-8686600D02*
X16078000Y-8788600D01*
X16180000Y-8737600D02*
G75*
G03*
X16180000Y-8737600I-51000J0D01*
G01*
X16078000Y-10464600D02*
X16180000Y-10566600D01*
X16180000Y-10464600D02*
X16078000Y-10566600D01*
X16180000Y-10515600D02*
G75*
G03*
X16180000Y-10515600I-51000J0D01*
G01*
X16332000Y-8686600D02*
X16434000Y-8788600D01*
X16434000Y-8686600D02*
X16332000Y-8788600D01*
X16434000Y-8737600D02*
G75*
G03*
X16434000Y-8737600I-51000J0D01*
G01*
X16332000Y-10464600D02*
X16434000Y-10566600D01*
X16434000Y-10464600D02*
X16332000Y-10566600D01*
X16434000Y-10515600D02*
G75*
G03*
X16434000Y-10515600I-51000J0D01*
G01*
X16586000Y-8686600D02*
X16688000Y-8788600D01*
X16688000Y-8686600D02*
X16586000Y-8788600D01*
X16688000Y-8737600D02*
G75*
G03*
X16688000Y-8737600I-51000J0D01*
G01*
X16586000Y-10464600D02*
X16688000Y-10566600D01*
X16688000Y-10464600D02*
X16586000Y-10566600D01*
X16688000Y-10515600D02*
G75*
G03*
X16688000Y-10515600I-51000J0D01*
G01*
X16840000Y-8686600D02*
X16942000Y-8788600D01*
X16942000Y-8686600D02*
X16840000Y-8788600D01*
X16942000Y-8737600D02*
G75*
G03*
X16942000Y-8737600I-51000J0D01*
G01*
X16840000Y-10464600D02*
X16942000Y-10566600D01*
X16942000Y-10464600D02*
X16840000Y-10566600D01*
X16942000Y-10515600D02*
G75*
G03*
X16942000Y-10515600I-51000J0D01*
G01*
X17094000Y-8686600D02*
X17196000Y-8788600D01*
X17196000Y-8686600D02*
X17094000Y-8788600D01*
X17196000Y-8737600D02*
G75*
G03*
X17196000Y-8737600I-51000J0D01*
G01*
X17094000Y-10464600D02*
X17196000Y-10566600D01*
X17196000Y-10464600D02*
X17094000Y-10566600D01*
X17196000Y-10515600D02*
G75*
G03*
X17196000Y-10515600I-51000J0D01*
G01*
X17348000Y-8686600D02*
X17450000Y-8788600D01*
X17450000Y-8686600D02*
X17348000Y-8788600D01*
X17450000Y-8737600D02*
G75*
G03*
X17450000Y-8737600I-51000J0D01*
G01*
X17348000Y-10464600D02*
X17450000Y-10566600D01*
X17450000Y-10464600D02*
X17348000Y-10566600D01*
X17450000Y-10515600D02*
G75*
G03*
X17450000Y-10515600I-51000J0D01*
G01*
X17602000Y-8686600D02*
X17704000Y-8788600D01*
X17704000Y-8686600D02*
X17602000Y-8788600D01*
X17704000Y-8737600D02*
G75*
G03*
X17704000Y-8737600I-51000J0D01*
G01*
X17602000Y-10464600D02*
X17704000Y-10566600D01*
X17704000Y-10464600D02*
X17602000Y-10566600D01*
X17704000Y-10515600D02*
G75*
G03*
X17704000Y-10515600I-51000J0D01*
G01*
X17856000Y-8686600D02*
X17958000Y-8788600D01*
X17958000Y-8686600D02*
X17856000Y-8788600D01*
X17958000Y-8737600D02*
G75*
G03*
X17958000Y-8737600I-51000J0D01*
G01*
X17856000Y-10464600D02*
X17958000Y-10566600D01*
X17958000Y-10464600D02*
X17856000Y-10566600D01*
X17958000Y-10515600D02*
G75*
G03*
X17958000Y-10515600I-51000J0D01*
G01*
X18110000Y-8686600D02*
X18212000Y-8788600D01*
X18212000Y-8686600D02*
X18110000Y-8788600D01*
X18212000Y-8737600D02*
G75*
G03*
X18212000Y-8737600I-51000J0D01*
G01*
X18110000Y-10464600D02*
X18212000Y-10566600D01*
X18212000Y-10464600D02*
X18110000Y-10566600D01*
X18212000Y-10515600D02*
G75*
G03*
X18212000Y-10515600I-51000J0D01*
G01*
D18*
X18710600Y-9109400D02*
X18830600Y-9229400D01*
X18830600Y-9109400D02*
X18710600Y-9229400D01*
X18770600Y-9109400D02*
X18770600Y-9229400D01*
X18710600Y-9169400D02*
X18830600Y-9169400D01*
X18710600Y-10379400D02*
X18830600Y-10499400D01*
X18830600Y-10379400D02*
X18710600Y-10499400D01*
X18770600Y-10379400D02*
X18770600Y-10499400D01*
X18710600Y-10439400D02*
X18830600Y-10439400D01*
D19*
X11403850Y-6928200D02*
X11533850Y-7058200D01*
X11533850Y-6928200D02*
X11403850Y-7058200D01*
X11514812Y-7039162D02*
X11514812Y-6947238D01*
X11422888Y-6947238D01*
X11422888Y-7039162D01*
X11514812Y-7039162D01*
X11403850Y-7629200D02*
X11533850Y-7759200D01*
X11533850Y-7629200D02*
X11403850Y-7759200D01*
X11514812Y-7740162D02*
X11514812Y-7648238D01*
X11422888Y-7648238D01*
X11422888Y-7740162D01*
X11514812Y-7740162D01*
X11410800Y-9849200D02*
X11540800Y-9979200D01*
X11540800Y-9849200D02*
X11410800Y-9979200D01*
X11521762Y-9960162D02*
X11521762Y-9868238D01*
X11429838Y-9868238D01*
X11429838Y-9960162D01*
X11521762Y-9960162D01*
X11410800Y-10550200D02*
X11540800Y-10680200D01*
X11540800Y-10550200D02*
X11410800Y-10680200D01*
X11521762Y-10661162D02*
X11521762Y-10569238D01*
X11429838Y-10569238D01*
X11429838Y-10661162D01*
X11521762Y-10661162D01*
D11*
X11090239Y-13015476D02*
X11090239Y-12815476D01*
X11137858Y-12815476D01*
X11166429Y-12825000D01*
X11185477Y-12844048D01*
X11195000Y-12863095D01*
X11204524Y-12901190D01*
X11204524Y-12929762D01*
X11195000Y-12967857D01*
X11185477Y-12986905D01*
X11166429Y-13005952D01*
X11137858Y-13015476D01*
X11090239Y-13015476D01*
X11290239Y-13015476D02*
X11290239Y-12882143D01*
X11290239Y-12920238D02*
X11299762Y-12901190D01*
X11309286Y-12891667D01*
X11328334Y-12882143D01*
X11347381Y-12882143D01*
X11414048Y-13015476D02*
X11414048Y-12882143D01*
X11414048Y-12815476D02*
X11404524Y-12825000D01*
X11414048Y-12834524D01*
X11423572Y-12825000D01*
X11414048Y-12815476D01*
X11414048Y-12834524D01*
X11537858Y-13015476D02*
X11518810Y-13005952D01*
X11509286Y-12986905D01*
X11509286Y-12815476D01*
X11642620Y-13015476D02*
X11623572Y-13005952D01*
X11614048Y-12986905D01*
X11614048Y-12815476D01*
X11871191Y-13015476D02*
X11871191Y-12815476D01*
X11937858Y-12958333D01*
X12004524Y-12815476D01*
X12004524Y-13015476D01*
X12185477Y-13015476D02*
X12185477Y-12910714D01*
X12175953Y-12891667D01*
X12156905Y-12882143D01*
X12118810Y-12882143D01*
X12099762Y-12891667D01*
X12185477Y-13005952D02*
X12166429Y-13015476D01*
X12118810Y-13015476D01*
X12099762Y-13005952D01*
X12090239Y-12986905D01*
X12090239Y-12967857D01*
X12099762Y-12948809D01*
X12118810Y-12939286D01*
X12166429Y-12939286D01*
X12185477Y-12929762D01*
X12280715Y-12882143D02*
X12280715Y-13082143D01*
X12280715Y-12891667D02*
X12299762Y-12882143D01*
X12337858Y-12882143D01*
X12356905Y-12891667D01*
X12366429Y-12901190D01*
X12375953Y-12920238D01*
X12375953Y-12977381D01*
X12366429Y-12996428D01*
X12356905Y-13005952D01*
X12337858Y-13015476D01*
X12299762Y-13015476D01*
X12280715Y-13005952D01*
X12461667Y-12996428D02*
X12471191Y-13005952D01*
X12461667Y-13015476D01*
X12452143Y-13005952D01*
X12461667Y-12996428D01*
X12461667Y-13015476D01*
X12461667Y-12891667D02*
X12471191Y-12901190D01*
X12461667Y-12910714D01*
X12452143Y-12901190D01*
X12461667Y-12891667D01*
X12461667Y-12910714D01*
D12*
X10792620Y-13325000D02*
X10832620Y-13365000D01*
X10832620Y-13325000D02*
X10792620Y-13365000D01*
D11*
X11128334Y-13235476D02*
X11147382Y-13235476D01*
X11166429Y-13245000D01*
X11175953Y-13254524D01*
X11185477Y-13273571D01*
X11195000Y-13311667D01*
X11195000Y-13359286D01*
X11185477Y-13397381D01*
X11175953Y-13416428D01*
X11166429Y-13425952D01*
X11147382Y-13435476D01*
X11128334Y-13435476D01*
X11109286Y-13425952D01*
X11099762Y-13416428D01*
X11090239Y-13397381D01*
X11080715Y-13359286D01*
X11080715Y-13311667D01*
X11090239Y-13273571D01*
X11099762Y-13254524D01*
X11109286Y-13245000D01*
X11128334Y-13235476D01*
X11280715Y-13416428D02*
X11290239Y-13425952D01*
X11280715Y-13435476D01*
X11271191Y-13425952D01*
X11280715Y-13416428D01*
X11280715Y-13435476D01*
X11461667Y-13302143D02*
X11461667Y-13435476D01*
X11414048Y-13225952D02*
X11366429Y-13368809D01*
X11490239Y-13368809D01*
X11604524Y-13235476D02*
X11623572Y-13235476D01*
X11642620Y-13245000D01*
X11652143Y-13254524D01*
X11661667Y-13273571D01*
X11671191Y-13311667D01*
X11671191Y-13359286D01*
X11661667Y-13397381D01*
X11652143Y-13416428D01*
X11642620Y-13425952D01*
X11623572Y-13435476D01*
X11604524Y-13435476D01*
X11585477Y-13425952D01*
X11575953Y-13416428D01*
X11566429Y-13397381D01*
X11556905Y-13359286D01*
X11556905Y-13311667D01*
X11566429Y-13273571D01*
X11575953Y-13254524D01*
X11585477Y-13245000D01*
X11604524Y-13235476D01*
X11795000Y-13235476D02*
X11814048Y-13235476D01*
X11833096Y-13245000D01*
X11842620Y-13254524D01*
X11852143Y-13273571D01*
X11861667Y-13311667D01*
X11861667Y-13359286D01*
X11852143Y-13397381D01*
X11842620Y-13416428D01*
X11833096Y-13425952D01*
X11814048Y-13435476D01*
X11795000Y-13435476D01*
X11775953Y-13425952D01*
X11766429Y-13416428D01*
X11756905Y-13397381D01*
X11747381Y-13359286D01*
X11747381Y-13311667D01*
X11756905Y-13273571D01*
X11766429Y-13254524D01*
X11775953Y-13245000D01*
X11795000Y-13235476D01*
X11947381Y-13435476D02*
X11947381Y-13302143D01*
X11947381Y-13321190D02*
X11956905Y-13311667D01*
X11975953Y-13302143D01*
X12004524Y-13302143D01*
X12023572Y-13311667D01*
X12033096Y-13330714D01*
X12033096Y-13435476D01*
X12033096Y-13330714D02*
X12042620Y-13311667D01*
X12061667Y-13302143D01*
X12090239Y-13302143D01*
X12109286Y-13311667D01*
X12118810Y-13330714D01*
X12118810Y-13435476D01*
X12214048Y-13435476D02*
X12214048Y-13302143D01*
X12214048Y-13321190D02*
X12223572Y-13311667D01*
X12242620Y-13302143D01*
X12271191Y-13302143D01*
X12290239Y-13311667D01*
X12299762Y-13330714D01*
X12299762Y-13435476D01*
X12299762Y-13330714D02*
X12309286Y-13311667D01*
X12328334Y-13302143D01*
X12356905Y-13302143D01*
X12375953Y-13311667D01*
X12385477Y-13330714D01*
X12385477Y-13435476D01*
X12775953Y-13225952D02*
X12604524Y-13483095D01*
X13033096Y-13235476D02*
X13052143Y-13235476D01*
X13071191Y-13245000D01*
X13080715Y-13254524D01*
X13090239Y-13273571D01*
X13099762Y-13311667D01*
X13099762Y-13359286D01*
X13090239Y-13397381D01*
X13080715Y-13416428D01*
X13071191Y-13425952D01*
X13052143Y-13435476D01*
X13033096Y-13435476D01*
X13014048Y-13425952D01*
X13004524Y-13416428D01*
X12995000Y-13397381D01*
X12985477Y-13359286D01*
X12985477Y-13311667D01*
X12995000Y-13273571D01*
X13004524Y-13254524D01*
X13014048Y-13245000D01*
X13033096Y-13235476D01*
X13185477Y-13416428D02*
X13195000Y-13425952D01*
X13185477Y-13435476D01*
X13175953Y-13425952D01*
X13185477Y-13416428D01*
X13185477Y-13435476D01*
X13318810Y-13235476D02*
X13337858Y-13235476D01*
X13356905Y-13245000D01*
X13366429Y-13254524D01*
X13375953Y-13273571D01*
X13385477Y-13311667D01*
X13385477Y-13359286D01*
X13375953Y-13397381D01*
X13366429Y-13416428D01*
X13356905Y-13425952D01*
X13337858Y-13435476D01*
X13318810Y-13435476D01*
X13299762Y-13425952D01*
X13290239Y-13416428D01*
X13280715Y-13397381D01*
X13271191Y-13359286D01*
X13271191Y-13311667D01*
X13280715Y-13273571D01*
X13290239Y-13254524D01*
X13299762Y-13245000D01*
X13318810Y-13235476D01*
X13575953Y-13435476D02*
X13461667Y-13435476D01*
X13518810Y-13435476D02*
X13518810Y-13235476D01*
X13499762Y-13264048D01*
X13480715Y-13283095D01*
X13461667Y-13292619D01*
X13756905Y-13235476D02*
X13661667Y-13235476D01*
X13652143Y-13330714D01*
X13661667Y-13321190D01*
X13680715Y-13311667D01*
X13728334Y-13311667D01*
X13747381Y-13321190D01*
X13756905Y-13330714D01*
X13766429Y-13349762D01*
X13766429Y-13397381D01*
X13756905Y-13416428D01*
X13747381Y-13425952D01*
X13728334Y-13435476D01*
X13680715Y-13435476D01*
X13661667Y-13425952D01*
X13652143Y-13416428D01*
X13833096Y-13235476D02*
X13966429Y-13235476D01*
X13880715Y-13435476D01*
X14033096Y-13235476D02*
X14033096Y-13273571D01*
X14109286Y-13235476D02*
X14109286Y-13273571D01*
X14404524Y-13511667D02*
X14395000Y-13502143D01*
X14375953Y-13473571D01*
X14366429Y-13454524D01*
X14356905Y-13425952D01*
X14347381Y-13378333D01*
X14347381Y-13340238D01*
X14356905Y-13292619D01*
X14366429Y-13264048D01*
X14375953Y-13245000D01*
X14395000Y-13216428D01*
X14404524Y-13206905D01*
X14509286Y-13321190D02*
X14490239Y-13311667D01*
X14480715Y-13302143D01*
X14471191Y-13283095D01*
X14471191Y-13273571D01*
X14480715Y-13254524D01*
X14490239Y-13245000D01*
X14509286Y-13235476D01*
X14547381Y-13235476D01*
X14566429Y-13245000D01*
X14575953Y-13254524D01*
X14585477Y-13273571D01*
X14585477Y-13283095D01*
X14575953Y-13302143D01*
X14566429Y-13311667D01*
X14547381Y-13321190D01*
X14509286Y-13321190D01*
X14490239Y-13330714D01*
X14480715Y-13340238D01*
X14471191Y-13359286D01*
X14471191Y-13397381D01*
X14480715Y-13416428D01*
X14490239Y-13425952D01*
X14509286Y-13435476D01*
X14547381Y-13435476D01*
X14566429Y-13425952D01*
X14575953Y-13416428D01*
X14585477Y-13397381D01*
X14585477Y-13359286D01*
X14575953Y-13340238D01*
X14566429Y-13330714D01*
X14547381Y-13321190D01*
X14823572Y-13435476D02*
X14823572Y-13235476D01*
X14909286Y-13435476D02*
X14909286Y-13330714D01*
X14899762Y-13311667D01*
X14880715Y-13302143D01*
X14852143Y-13302143D01*
X14833096Y-13311667D01*
X14823572Y-13321190D01*
X15033096Y-13435476D02*
X15014048Y-13425952D01*
X15004524Y-13416428D01*
X14995000Y-13397381D01*
X14995000Y-13340238D01*
X15004524Y-13321190D01*
X15014048Y-13311667D01*
X15033096Y-13302143D01*
X15061667Y-13302143D01*
X15080715Y-13311667D01*
X15090239Y-13321190D01*
X15099762Y-13340238D01*
X15099762Y-13397381D01*
X15090239Y-13416428D01*
X15080715Y-13425952D01*
X15061667Y-13435476D01*
X15033096Y-13435476D01*
X15214048Y-13435476D02*
X15195000Y-13425952D01*
X15185477Y-13406905D01*
X15185477Y-13235476D01*
X15366429Y-13425952D02*
X15347381Y-13435476D01*
X15309286Y-13435476D01*
X15290239Y-13425952D01*
X15280715Y-13406905D01*
X15280715Y-13330714D01*
X15290239Y-13311667D01*
X15309286Y-13302143D01*
X15347381Y-13302143D01*
X15366429Y-13311667D01*
X15375953Y-13330714D01*
X15375953Y-13349762D01*
X15280715Y-13368809D01*
X15452143Y-13425952D02*
X15471191Y-13435476D01*
X15509286Y-13435476D01*
X15528334Y-13425952D01*
X15537858Y-13406905D01*
X15537858Y-13397381D01*
X15528334Y-13378333D01*
X15509286Y-13368809D01*
X15480715Y-13368809D01*
X15461667Y-13359286D01*
X15452143Y-13340238D01*
X15452143Y-13330714D01*
X15461667Y-13311667D01*
X15480715Y-13302143D01*
X15509286Y-13302143D01*
X15528334Y-13311667D01*
X15604524Y-13511667D02*
X15614048Y-13502143D01*
X15633096Y-13473571D01*
X15642619Y-13454524D01*
X15652143Y-13425952D01*
X15661667Y-13378333D01*
X15661667Y-13340238D01*
X15652143Y-13292619D01*
X15642619Y-13264048D01*
X15633096Y-13245000D01*
X15614048Y-13216428D01*
X15604524Y-13206905D01*
D13*
X10832620Y-13609000D02*
G75*
G03*
X10832620Y-13609000I-40000J0D01*
G01*
D11*
X11128334Y-13499476D02*
X11147382Y-13499476D01*
X11166429Y-13509000D01*
X11175953Y-13518524D01*
X11185477Y-13537571D01*
X11195000Y-13575667D01*
X11195000Y-13623286D01*
X11185477Y-13661381D01*
X11175953Y-13680428D01*
X11166429Y-13689952D01*
X11147382Y-13699476D01*
X11128334Y-13699476D01*
X11109286Y-13689952D01*
X11099762Y-13680428D01*
X11090239Y-13661381D01*
X11080715Y-13623286D01*
X11080715Y-13575667D01*
X11090239Y-13537571D01*
X11099762Y-13518524D01*
X11109286Y-13509000D01*
X11128334Y-13499476D01*
X11280715Y-13680428D02*
X11290239Y-13689952D01*
X11280715Y-13699476D01*
X11271191Y-13689952D01*
X11280715Y-13680428D01*
X11280715Y-13699476D01*
X11404524Y-13585190D02*
X11385477Y-13575667D01*
X11375953Y-13566143D01*
X11366429Y-13547095D01*
X11366429Y-13537571D01*
X11375953Y-13518524D01*
X11385477Y-13509000D01*
X11404524Y-13499476D01*
X11442620Y-13499476D01*
X11461667Y-13509000D01*
X11471191Y-13518524D01*
X11480715Y-13537571D01*
X11480715Y-13547095D01*
X11471191Y-13566143D01*
X11461667Y-13575667D01*
X11442620Y-13585190D01*
X11404524Y-13585190D01*
X11385477Y-13594714D01*
X11375953Y-13604238D01*
X11366429Y-13623286D01*
X11366429Y-13661381D01*
X11375953Y-13680428D01*
X11385477Y-13689952D01*
X11404524Y-13699476D01*
X11442620Y-13699476D01*
X11461667Y-13689952D01*
X11471191Y-13680428D01*
X11480715Y-13661381D01*
X11480715Y-13623286D01*
X11471191Y-13604238D01*
X11461667Y-13594714D01*
X11442620Y-13585190D01*
X11604524Y-13499476D02*
X11623572Y-13499476D01*
X11642620Y-13509000D01*
X11652143Y-13518524D01*
X11661667Y-13537571D01*
X11671191Y-13575667D01*
X11671191Y-13623286D01*
X11661667Y-13661381D01*
X11652143Y-13680428D01*
X11642620Y-13689952D01*
X11623572Y-13699476D01*
X11604524Y-13699476D01*
X11585477Y-13689952D01*
X11575953Y-13680428D01*
X11566429Y-13661381D01*
X11556905Y-13623286D01*
X11556905Y-13575667D01*
X11566429Y-13537571D01*
X11575953Y-13518524D01*
X11585477Y-13509000D01*
X11604524Y-13499476D01*
X11795000Y-13499476D02*
X11814048Y-13499476D01*
X11833096Y-13509000D01*
X11842620Y-13518524D01*
X11852143Y-13537571D01*
X11861667Y-13575667D01*
X11861667Y-13623286D01*
X11852143Y-13661381D01*
X11842620Y-13680428D01*
X11833096Y-13689952D01*
X11814048Y-13699476D01*
X11795000Y-13699476D01*
X11775953Y-13689952D01*
X11766429Y-13680428D01*
X11756905Y-13661381D01*
X11747381Y-13623286D01*
X11747381Y-13575667D01*
X11756905Y-13537571D01*
X11766429Y-13518524D01*
X11775953Y-13509000D01*
X11795000Y-13499476D01*
X11947381Y-13699476D02*
X11947381Y-13566143D01*
X11947381Y-13585190D02*
X11956905Y-13575667D01*
X11975953Y-13566143D01*
X12004524Y-13566143D01*
X12023572Y-13575667D01*
X12033096Y-13594714D01*
X12033096Y-13699476D01*
X12033096Y-13594714D02*
X12042620Y-13575667D01*
X12061667Y-13566143D01*
X12090239Y-13566143D01*
X12109286Y-13575667D01*
X12118810Y-13594714D01*
X12118810Y-13699476D01*
X12214048Y-13699476D02*
X12214048Y-13566143D01*
X12214048Y-13585190D02*
X12223572Y-13575667D01*
X12242620Y-13566143D01*
X12271191Y-13566143D01*
X12290239Y-13575667D01*
X12299762Y-13594714D01*
X12299762Y-13699476D01*
X12299762Y-13594714D02*
X12309286Y-13575667D01*
X12328334Y-13566143D01*
X12356905Y-13566143D01*
X12375953Y-13575667D01*
X12385477Y-13594714D01*
X12385477Y-13699476D01*
X12775953Y-13489952D02*
X12604524Y-13747095D01*
X13033096Y-13499476D02*
X13052143Y-13499476D01*
X13071191Y-13509000D01*
X13080715Y-13518524D01*
X13090239Y-13537571D01*
X13099762Y-13575667D01*
X13099762Y-13623286D01*
X13090239Y-13661381D01*
X13080715Y-13680428D01*
X13071191Y-13689952D01*
X13052143Y-13699476D01*
X13033096Y-13699476D01*
X13014048Y-13689952D01*
X13004524Y-13680428D01*
X12995000Y-13661381D01*
X12985477Y-13623286D01*
X12985477Y-13575667D01*
X12995000Y-13537571D01*
X13004524Y-13518524D01*
X13014048Y-13509000D01*
X13033096Y-13499476D01*
X13185477Y-13680428D02*
X13195000Y-13689952D01*
X13185477Y-13699476D01*
X13175953Y-13689952D01*
X13185477Y-13680428D01*
X13185477Y-13699476D01*
X13318810Y-13499476D02*
X13337858Y-13499476D01*
X13356905Y-13509000D01*
X13366429Y-13518524D01*
X13375953Y-13537571D01*
X13385477Y-13575667D01*
X13385477Y-13623286D01*
X13375953Y-13661381D01*
X13366429Y-13680428D01*
X13356905Y-13689952D01*
X13337858Y-13699476D01*
X13318810Y-13699476D01*
X13299762Y-13689952D01*
X13290239Y-13680428D01*
X13280715Y-13661381D01*
X13271191Y-13623286D01*
X13271191Y-13575667D01*
X13280715Y-13537571D01*
X13290239Y-13518524D01*
X13299762Y-13509000D01*
X13318810Y-13499476D01*
X13452143Y-13499476D02*
X13575953Y-13499476D01*
X13509286Y-13575667D01*
X13537858Y-13575667D01*
X13556905Y-13585190D01*
X13566429Y-13594714D01*
X13575953Y-13613762D01*
X13575953Y-13661381D01*
X13566429Y-13680428D01*
X13556905Y-13689952D01*
X13537858Y-13699476D01*
X13480715Y-13699476D01*
X13461667Y-13689952D01*
X13452143Y-13680428D01*
X13766429Y-13699476D02*
X13652143Y-13699476D01*
X13709286Y-13699476D02*
X13709286Y-13499476D01*
X13690239Y-13528048D01*
X13671191Y-13547095D01*
X13652143Y-13556619D01*
X13947381Y-13499476D02*
X13852143Y-13499476D01*
X13842620Y-13594714D01*
X13852143Y-13585190D01*
X13871191Y-13575667D01*
X13918810Y-13575667D01*
X13937858Y-13585190D01*
X13947381Y-13594714D01*
X13956905Y-13613762D01*
X13956905Y-13661381D01*
X13947381Y-13680428D01*
X13937858Y-13689952D01*
X13918810Y-13699476D01*
X13871191Y-13699476D01*
X13852143Y-13689952D01*
X13842620Y-13680428D01*
X14033096Y-13499476D02*
X14033096Y-13537571D01*
X14109286Y-13499476D02*
X14109286Y-13537571D01*
X14404524Y-13775667D02*
X14395000Y-13766143D01*
X14375953Y-13737571D01*
X14366429Y-13718524D01*
X14356905Y-13689952D01*
X14347381Y-13642333D01*
X14347381Y-13604238D01*
X14356905Y-13556619D01*
X14366429Y-13528048D01*
X14375953Y-13509000D01*
X14395000Y-13480428D01*
X14404524Y-13470905D01*
X14575953Y-13499476D02*
X14480715Y-13499476D01*
X14471191Y-13594714D01*
X14480715Y-13585190D01*
X14499762Y-13575667D01*
X14547381Y-13575667D01*
X14566429Y-13585190D01*
X14575953Y-13594714D01*
X14585477Y-13613762D01*
X14585477Y-13661381D01*
X14575953Y-13680428D01*
X14566429Y-13689952D01*
X14547381Y-13699476D01*
X14499762Y-13699476D01*
X14480715Y-13689952D01*
X14471191Y-13680428D01*
X14756905Y-13499476D02*
X14718810Y-13499476D01*
X14699762Y-13509000D01*
X14690239Y-13518524D01*
X14671191Y-13547095D01*
X14661667Y-13585190D01*
X14661667Y-13661381D01*
X14671191Y-13680428D01*
X14680715Y-13689952D01*
X14699762Y-13699476D01*
X14737858Y-13699476D01*
X14756905Y-13689952D01*
X14766429Y-13680428D01*
X14775953Y-13661381D01*
X14775953Y-13613762D01*
X14766429Y-13594714D01*
X14756905Y-13585190D01*
X14737858Y-13575667D01*
X14699762Y-13575667D01*
X14680715Y-13585190D01*
X14671191Y-13594714D01*
X14661667Y-13613762D01*
X15014048Y-13699476D02*
X15014048Y-13499476D01*
X15099762Y-13699476D02*
X15099762Y-13594714D01*
X15090239Y-13575667D01*
X15071191Y-13566143D01*
X15042619Y-13566143D01*
X15023572Y-13575667D01*
X15014048Y-13585190D01*
X15223572Y-13699476D02*
X15204524Y-13689952D01*
X15195000Y-13680428D01*
X15185477Y-13661381D01*
X15185477Y-13604238D01*
X15195000Y-13585190D01*
X15204524Y-13575667D01*
X15223572Y-13566143D01*
X15252143Y-13566143D01*
X15271191Y-13575667D01*
X15280715Y-13585190D01*
X15290239Y-13604238D01*
X15290239Y-13661381D01*
X15280715Y-13680428D01*
X15271191Y-13689952D01*
X15252143Y-13699476D01*
X15223572Y-13699476D01*
X15404524Y-13699476D02*
X15385477Y-13689952D01*
X15375953Y-13670905D01*
X15375953Y-13499476D01*
X15556905Y-13689952D02*
X15537858Y-13699476D01*
X15499762Y-13699476D01*
X15480715Y-13689952D01*
X15471191Y-13670905D01*
X15471191Y-13594714D01*
X15480715Y-13575667D01*
X15499762Y-13566143D01*
X15537858Y-13566143D01*
X15556905Y-13575667D01*
X15566429Y-13594714D01*
X15566429Y-13613762D01*
X15471191Y-13632809D01*
X15642619Y-13689952D02*
X15661667Y-13699476D01*
X15699762Y-13699476D01*
X15718810Y-13689952D01*
X15728334Y-13670905D01*
X15728334Y-13661381D01*
X15718810Y-13642333D01*
X15699762Y-13632809D01*
X15671191Y-13632809D01*
X15652143Y-13623286D01*
X15642619Y-13604238D01*
X15642619Y-13594714D01*
X15652143Y-13575667D01*
X15671191Y-13566143D01*
X15699762Y-13566143D01*
X15718810Y-13575667D01*
X15795000Y-13775667D02*
X15804524Y-13766143D01*
X15823572Y-13737571D01*
X15833096Y-13718524D01*
X15842619Y-13689952D01*
X15852143Y-13642333D01*
X15852143Y-13604238D01*
X15842619Y-13556619D01*
X15833096Y-13528048D01*
X15823572Y-13509000D01*
X15804524Y-13480428D01*
X15795000Y-13470905D01*
D14*
X10787620Y-13828000D02*
X10787620Y-13918000D01*
X10742620Y-13873000D02*
X10832620Y-13873000D01*
D11*
X11128334Y-13763476D02*
X11147382Y-13763476D01*
X11166429Y-13773000D01*
X11175953Y-13782524D01*
X11185477Y-13801571D01*
X11195000Y-13839667D01*
X11195000Y-13887286D01*
X11185477Y-13925381D01*
X11175953Y-13944428D01*
X11166429Y-13953952D01*
X11147382Y-13963476D01*
X11128334Y-13963476D01*
X11109286Y-13953952D01*
X11099762Y-13944428D01*
X11090239Y-13925381D01*
X11080715Y-13887286D01*
X11080715Y-13839667D01*
X11090239Y-13801571D01*
X11099762Y-13782524D01*
X11109286Y-13773000D01*
X11128334Y-13763476D01*
X11280715Y-13944428D02*
X11290239Y-13953952D01*
X11280715Y-13963476D01*
X11271191Y-13953952D01*
X11280715Y-13944428D01*
X11280715Y-13963476D01*
X11385477Y-13963476D02*
X11423572Y-13963476D01*
X11442620Y-13953952D01*
X11452143Y-13944428D01*
X11471191Y-13915857D01*
X11480715Y-13877762D01*
X11480715Y-13801571D01*
X11471191Y-13782524D01*
X11461667Y-13773000D01*
X11442620Y-13763476D01*
X11404524Y-13763476D01*
X11385477Y-13773000D01*
X11375953Y-13782524D01*
X11366429Y-13801571D01*
X11366429Y-13849190D01*
X11375953Y-13868238D01*
X11385477Y-13877762D01*
X11404524Y-13887286D01*
X11442620Y-13887286D01*
X11461667Y-13877762D01*
X11471191Y-13868238D01*
X11480715Y-13849190D01*
X11604524Y-13763476D02*
X11623572Y-13763476D01*
X11642620Y-13773000D01*
X11652143Y-13782524D01*
X11661667Y-13801571D01*
X11671191Y-13839667D01*
X11671191Y-13887286D01*
X11661667Y-13925381D01*
X11652143Y-13944428D01*
X11642620Y-13953952D01*
X11623572Y-13963476D01*
X11604524Y-13963476D01*
X11585477Y-13953952D01*
X11575953Y-13944428D01*
X11566429Y-13925381D01*
X11556905Y-13887286D01*
X11556905Y-13839667D01*
X11566429Y-13801571D01*
X11575953Y-13782524D01*
X11585477Y-13773000D01*
X11604524Y-13763476D01*
X11795000Y-13763476D02*
X11814048Y-13763476D01*
X11833096Y-13773000D01*
X11842620Y-13782524D01*
X11852143Y-13801571D01*
X11861667Y-13839667D01*
X11861667Y-13887286D01*
X11852143Y-13925381D01*
X11842620Y-13944428D01*
X11833096Y-13953952D01*
X11814048Y-13963476D01*
X11795000Y-13963476D01*
X11775953Y-13953952D01*
X11766429Y-13944428D01*
X11756905Y-13925381D01*
X11747381Y-13887286D01*
X11747381Y-13839667D01*
X11756905Y-13801571D01*
X11766429Y-13782524D01*
X11775953Y-13773000D01*
X11795000Y-13763476D01*
X11947381Y-13963476D02*
X11947381Y-13830143D01*
X11947381Y-13849190D02*
X11956905Y-13839667D01*
X11975953Y-13830143D01*
X12004524Y-13830143D01*
X12023572Y-13839667D01*
X12033096Y-13858714D01*
X12033096Y-13963476D01*
X12033096Y-13858714D02*
X12042620Y-13839667D01*
X12061667Y-13830143D01*
X12090239Y-13830143D01*
X12109286Y-13839667D01*
X12118810Y-13858714D01*
X12118810Y-13963476D01*
X12214048Y-13963476D02*
X12214048Y-13830143D01*
X12214048Y-13849190D02*
X12223572Y-13839667D01*
X12242620Y-13830143D01*
X12271191Y-13830143D01*
X12290239Y-13839667D01*
X12299762Y-13858714D01*
X12299762Y-13963476D01*
X12299762Y-13858714D02*
X12309286Y-13839667D01*
X12328334Y-13830143D01*
X12356905Y-13830143D01*
X12375953Y-13839667D01*
X12385477Y-13858714D01*
X12385477Y-13963476D01*
X12775953Y-13753952D02*
X12604524Y-14011095D01*
X13033096Y-13763476D02*
X13052143Y-13763476D01*
X13071191Y-13773000D01*
X13080715Y-13782524D01*
X13090239Y-13801571D01*
X13099762Y-13839667D01*
X13099762Y-13887286D01*
X13090239Y-13925381D01*
X13080715Y-13944428D01*
X13071191Y-13953952D01*
X13052143Y-13963476D01*
X13033096Y-13963476D01*
X13014048Y-13953952D01*
X13004524Y-13944428D01*
X12995000Y-13925381D01*
X12985477Y-13887286D01*
X12985477Y-13839667D01*
X12995000Y-13801571D01*
X13004524Y-13782524D01*
X13014048Y-13773000D01*
X13033096Y-13763476D01*
X13185477Y-13944428D02*
X13195000Y-13953952D01*
X13185477Y-13963476D01*
X13175953Y-13953952D01*
X13185477Y-13944428D01*
X13185477Y-13963476D01*
X13318810Y-13763476D02*
X13337858Y-13763476D01*
X13356905Y-13773000D01*
X13366429Y-13782524D01*
X13375953Y-13801571D01*
X13385477Y-13839667D01*
X13385477Y-13887286D01*
X13375953Y-13925381D01*
X13366429Y-13944428D01*
X13356905Y-13953952D01*
X13337858Y-13963476D01*
X13318810Y-13963476D01*
X13299762Y-13953952D01*
X13290239Y-13944428D01*
X13280715Y-13925381D01*
X13271191Y-13887286D01*
X13271191Y-13839667D01*
X13280715Y-13801571D01*
X13290239Y-13782524D01*
X13299762Y-13773000D01*
X13318810Y-13763476D01*
X13452143Y-13763476D02*
X13575953Y-13763476D01*
X13509286Y-13839667D01*
X13537858Y-13839667D01*
X13556905Y-13849190D01*
X13566429Y-13858714D01*
X13575953Y-13877762D01*
X13575953Y-13925381D01*
X13566429Y-13944428D01*
X13556905Y-13953952D01*
X13537858Y-13963476D01*
X13480715Y-13963476D01*
X13461667Y-13953952D01*
X13452143Y-13944428D01*
X13756905Y-13763476D02*
X13661667Y-13763476D01*
X13652143Y-13858714D01*
X13661667Y-13849190D01*
X13680715Y-13839667D01*
X13728334Y-13839667D01*
X13747381Y-13849190D01*
X13756905Y-13858714D01*
X13766429Y-13877762D01*
X13766429Y-13925381D01*
X13756905Y-13944428D01*
X13747381Y-13953952D01*
X13728334Y-13963476D01*
X13680715Y-13963476D01*
X13661667Y-13953952D01*
X13652143Y-13944428D01*
X13937858Y-13830143D02*
X13937858Y-13963476D01*
X13890239Y-13753952D02*
X13842620Y-13896809D01*
X13966429Y-13896809D01*
X14033096Y-13763476D02*
X14033096Y-13801571D01*
X14109286Y-13763476D02*
X14109286Y-13801571D01*
X14404524Y-14039667D02*
X14395000Y-14030143D01*
X14375953Y-14001571D01*
X14366429Y-13982524D01*
X14356905Y-13953952D01*
X14347381Y-13906333D01*
X14347381Y-13868238D01*
X14356905Y-13820619D01*
X14366429Y-13792048D01*
X14375953Y-13773000D01*
X14395000Y-13744428D01*
X14404524Y-13734905D01*
X14509286Y-13849190D02*
X14490239Y-13839667D01*
X14480715Y-13830143D01*
X14471191Y-13811095D01*
X14471191Y-13801571D01*
X14480715Y-13782524D01*
X14490239Y-13773000D01*
X14509286Y-13763476D01*
X14547381Y-13763476D01*
X14566429Y-13773000D01*
X14575953Y-13782524D01*
X14585477Y-13801571D01*
X14585477Y-13811095D01*
X14575953Y-13830143D01*
X14566429Y-13839667D01*
X14547381Y-13849190D01*
X14509286Y-13849190D01*
X14490239Y-13858714D01*
X14480715Y-13868238D01*
X14471191Y-13887286D01*
X14471191Y-13925381D01*
X14480715Y-13944428D01*
X14490239Y-13953952D01*
X14509286Y-13963476D01*
X14547381Y-13963476D01*
X14566429Y-13953952D01*
X14575953Y-13944428D01*
X14585477Y-13925381D01*
X14585477Y-13887286D01*
X14575953Y-13868238D01*
X14566429Y-13858714D01*
X14547381Y-13849190D01*
X14823572Y-13963476D02*
X14823572Y-13763476D01*
X14909286Y-13963476D02*
X14909286Y-13858714D01*
X14899762Y-13839667D01*
X14880715Y-13830143D01*
X14852143Y-13830143D01*
X14833096Y-13839667D01*
X14823572Y-13849190D01*
X15033096Y-13963476D02*
X15014048Y-13953952D01*
X15004524Y-13944428D01*
X14995000Y-13925381D01*
X14995000Y-13868238D01*
X15004524Y-13849190D01*
X15014048Y-13839667D01*
X15033096Y-13830143D01*
X15061667Y-13830143D01*
X15080715Y-13839667D01*
X15090239Y-13849190D01*
X15099762Y-13868238D01*
X15099762Y-13925381D01*
X15090239Y-13944428D01*
X15080715Y-13953952D01*
X15061667Y-13963476D01*
X15033096Y-13963476D01*
X15214048Y-13963476D02*
X15195000Y-13953952D01*
X15185477Y-13934905D01*
X15185477Y-13763476D01*
X15366429Y-13953952D02*
X15347381Y-13963476D01*
X15309286Y-13963476D01*
X15290239Y-13953952D01*
X15280715Y-13934905D01*
X15280715Y-13858714D01*
X15290239Y-13839667D01*
X15309286Y-13830143D01*
X15347381Y-13830143D01*
X15366429Y-13839667D01*
X15375953Y-13858714D01*
X15375953Y-13877762D01*
X15280715Y-13896809D01*
X15452143Y-13953952D02*
X15471191Y-13963476D01*
X15509286Y-13963476D01*
X15528334Y-13953952D01*
X15537858Y-13934905D01*
X15537858Y-13925381D01*
X15528334Y-13906333D01*
X15509286Y-13896809D01*
X15480715Y-13896809D01*
X15461667Y-13887286D01*
X15452143Y-13868238D01*
X15452143Y-13858714D01*
X15461667Y-13839667D01*
X15480715Y-13830143D01*
X15509286Y-13830143D01*
X15528334Y-13839667D01*
X15604524Y-14039667D02*
X15614048Y-14030143D01*
X15633096Y-14001571D01*
X15642619Y-13982524D01*
X15652143Y-13953952D01*
X15661667Y-13906333D01*
X15661667Y-13868238D01*
X15652143Y-13820619D01*
X15642619Y-13792048D01*
X15633096Y-13773000D01*
X15614048Y-13744428D01*
X15604524Y-13734905D01*
D15*
X10818122Y-14172002D02*
X10818122Y-14101998D01*
X10748118Y-14101998D01*
X10748118Y-14172002D01*
X10818122Y-14172002D01*
D11*
X11128334Y-14027476D02*
X11147382Y-14027476D01*
X11166429Y-14037000D01*
X11175953Y-14046524D01*
X11185477Y-14065571D01*
X11195000Y-14103667D01*
X11195000Y-14151286D01*
X11185477Y-14189381D01*
X11175953Y-14208428D01*
X11166429Y-14217952D01*
X11147382Y-14227476D01*
X11128334Y-14227476D01*
X11109286Y-14217952D01*
X11099762Y-14208428D01*
X11090239Y-14189381D01*
X11080715Y-14151286D01*
X11080715Y-14103667D01*
X11090239Y-14065571D01*
X11099762Y-14046524D01*
X11109286Y-14037000D01*
X11128334Y-14027476D01*
X11280715Y-14208428D02*
X11290239Y-14217952D01*
X11280715Y-14227476D01*
X11271191Y-14217952D01*
X11280715Y-14208428D01*
X11280715Y-14227476D01*
X11385477Y-14227476D02*
X11423572Y-14227476D01*
X11442620Y-14217952D01*
X11452143Y-14208428D01*
X11471191Y-14179857D01*
X11480715Y-14141762D01*
X11480715Y-14065571D01*
X11471191Y-14046524D01*
X11461667Y-14037000D01*
X11442620Y-14027476D01*
X11404524Y-14027476D01*
X11385477Y-14037000D01*
X11375953Y-14046524D01*
X11366429Y-14065571D01*
X11366429Y-14113190D01*
X11375953Y-14132238D01*
X11385477Y-14141762D01*
X11404524Y-14151286D01*
X11442620Y-14151286D01*
X11461667Y-14141762D01*
X11471191Y-14132238D01*
X11480715Y-14113190D01*
X11575953Y-14227476D02*
X11614048Y-14227476D01*
X11633096Y-14217952D01*
X11642620Y-14208428D01*
X11661667Y-14179857D01*
X11671191Y-14141762D01*
X11671191Y-14065571D01*
X11661667Y-14046524D01*
X11652143Y-14037000D01*
X11633096Y-14027476D01*
X11595000Y-14027476D01*
X11575953Y-14037000D01*
X11566429Y-14046524D01*
X11556905Y-14065571D01*
X11556905Y-14113190D01*
X11566429Y-14132238D01*
X11575953Y-14141762D01*
X11595000Y-14151286D01*
X11633096Y-14151286D01*
X11652143Y-14141762D01*
X11661667Y-14132238D01*
X11671191Y-14113190D01*
X11795000Y-14027476D02*
X11814048Y-14027476D01*
X11833096Y-14037000D01*
X11842620Y-14046524D01*
X11852143Y-14065571D01*
X11861667Y-14103667D01*
X11861667Y-14151286D01*
X11852143Y-14189381D01*
X11842620Y-14208428D01*
X11833096Y-14217952D01*
X11814048Y-14227476D01*
X11795000Y-14227476D01*
X11775953Y-14217952D01*
X11766429Y-14208428D01*
X11756905Y-14189381D01*
X11747381Y-14151286D01*
X11747381Y-14103667D01*
X11756905Y-14065571D01*
X11766429Y-14046524D01*
X11775953Y-14037000D01*
X11795000Y-14027476D01*
X11947381Y-14227476D02*
X11947381Y-14094143D01*
X11947381Y-14113190D02*
X11956905Y-14103667D01*
X11975953Y-14094143D01*
X12004524Y-14094143D01*
X12023572Y-14103667D01*
X12033096Y-14122714D01*
X12033096Y-14227476D01*
X12033096Y-14122714D02*
X12042620Y-14103667D01*
X12061667Y-14094143D01*
X12090239Y-14094143D01*
X12109286Y-14103667D01*
X12118810Y-14122714D01*
X12118810Y-14227476D01*
X12214048Y-14227476D02*
X12214048Y-14094143D01*
X12214048Y-14113190D02*
X12223572Y-14103667D01*
X12242620Y-14094143D01*
X12271191Y-14094143D01*
X12290239Y-14103667D01*
X12299762Y-14122714D01*
X12299762Y-14227476D01*
X12299762Y-14122714D02*
X12309286Y-14103667D01*
X12328334Y-14094143D01*
X12356905Y-14094143D01*
X12375953Y-14103667D01*
X12385477Y-14122714D01*
X12385477Y-14227476D01*
X12775953Y-14017952D02*
X12604524Y-14275095D01*
X13033096Y-14027476D02*
X13052143Y-14027476D01*
X13071191Y-14037000D01*
X13080715Y-14046524D01*
X13090239Y-14065571D01*
X13099762Y-14103667D01*
X13099762Y-14151286D01*
X13090239Y-14189381D01*
X13080715Y-14208428D01*
X13071191Y-14217952D01*
X13052143Y-14227476D01*
X13033096Y-14227476D01*
X13014048Y-14217952D01*
X13004524Y-14208428D01*
X12995000Y-14189381D01*
X12985477Y-14151286D01*
X12985477Y-14103667D01*
X12995000Y-14065571D01*
X13004524Y-14046524D01*
X13014048Y-14037000D01*
X13033096Y-14027476D01*
X13185477Y-14208428D02*
X13195000Y-14217952D01*
X13185477Y-14227476D01*
X13175953Y-14217952D01*
X13185477Y-14208428D01*
X13185477Y-14227476D01*
X13318810Y-14027476D02*
X13337858Y-14027476D01*
X13356905Y-14037000D01*
X13366429Y-14046524D01*
X13375953Y-14065571D01*
X13385477Y-14103667D01*
X13385477Y-14151286D01*
X13375953Y-14189381D01*
X13366429Y-14208428D01*
X13356905Y-14217952D01*
X13337858Y-14227476D01*
X13318810Y-14227476D01*
X13299762Y-14217952D01*
X13290239Y-14208428D01*
X13280715Y-14189381D01*
X13271191Y-14151286D01*
X13271191Y-14103667D01*
X13280715Y-14065571D01*
X13290239Y-14046524D01*
X13299762Y-14037000D01*
X13318810Y-14027476D01*
X13452143Y-14027476D02*
X13575953Y-14027476D01*
X13509286Y-14103667D01*
X13537858Y-14103667D01*
X13556905Y-14113190D01*
X13566429Y-14122714D01*
X13575953Y-14141762D01*
X13575953Y-14189381D01*
X13566429Y-14208428D01*
X13556905Y-14217952D01*
X13537858Y-14227476D01*
X13480715Y-14227476D01*
X13461667Y-14217952D01*
X13452143Y-14208428D01*
X13671191Y-14227476D02*
X13709286Y-14227476D01*
X13728334Y-14217952D01*
X13737858Y-14208428D01*
X13756905Y-14179857D01*
X13766429Y-14141762D01*
X13766429Y-14065571D01*
X13756905Y-14046524D01*
X13747381Y-14037000D01*
X13728334Y-14027476D01*
X13690239Y-14027476D01*
X13671191Y-14037000D01*
X13661667Y-14046524D01*
X13652143Y-14065571D01*
X13652143Y-14113190D01*
X13661667Y-14132238D01*
X13671191Y-14141762D01*
X13690239Y-14151286D01*
X13728334Y-14151286D01*
X13747381Y-14141762D01*
X13756905Y-14132238D01*
X13766429Y-14113190D01*
X13890239Y-14027476D02*
X13909286Y-14027476D01*
X13928334Y-14037000D01*
X13937858Y-14046524D01*
X13947381Y-14065571D01*
X13956905Y-14103667D01*
X13956905Y-14151286D01*
X13947381Y-14189381D01*
X13937858Y-14208428D01*
X13928334Y-14217952D01*
X13909286Y-14227476D01*
X13890239Y-14227476D01*
X13871191Y-14217952D01*
X13861667Y-14208428D01*
X13852143Y-14189381D01*
X13842620Y-14151286D01*
X13842620Y-14103667D01*
X13852143Y-14065571D01*
X13861667Y-14046524D01*
X13871191Y-14037000D01*
X13890239Y-14027476D01*
X14033096Y-14027476D02*
X14033096Y-14065571D01*
X14109286Y-14027476D02*
X14109286Y-14065571D01*
X14404524Y-14303667D02*
X14395000Y-14294143D01*
X14375953Y-14265571D01*
X14366429Y-14246524D01*
X14356905Y-14217952D01*
X14347381Y-14170333D01*
X14347381Y-14132238D01*
X14356905Y-14084619D01*
X14366429Y-14056048D01*
X14375953Y-14037000D01*
X14395000Y-14008428D01*
X14404524Y-13998905D01*
X14566429Y-14094143D02*
X14566429Y-14227476D01*
X14518810Y-14017952D02*
X14471191Y-14160809D01*
X14595000Y-14160809D01*
X14823572Y-14227476D02*
X14823572Y-14027476D01*
X14909286Y-14227476D02*
X14909286Y-14122714D01*
X14899762Y-14103667D01*
X14880715Y-14094143D01*
X14852143Y-14094143D01*
X14833096Y-14103667D01*
X14823572Y-14113190D01*
X15033096Y-14227476D02*
X15014048Y-14217952D01*
X15004524Y-14208428D01*
X14995000Y-14189381D01*
X14995000Y-14132238D01*
X15004524Y-14113190D01*
X15014048Y-14103667D01*
X15033096Y-14094143D01*
X15061667Y-14094143D01*
X15080715Y-14103667D01*
X15090239Y-14113190D01*
X15099762Y-14132238D01*
X15099762Y-14189381D01*
X15090239Y-14208428D01*
X15080715Y-14217952D01*
X15061667Y-14227476D01*
X15033096Y-14227476D01*
X15214048Y-14227476D02*
X15195000Y-14217952D01*
X15185477Y-14198905D01*
X15185477Y-14027476D01*
X15366429Y-14217952D02*
X15347381Y-14227476D01*
X15309286Y-14227476D01*
X15290239Y-14217952D01*
X15280715Y-14198905D01*
X15280715Y-14122714D01*
X15290239Y-14103667D01*
X15309286Y-14094143D01*
X15347381Y-14094143D01*
X15366429Y-14103667D01*
X15375953Y-14122714D01*
X15375953Y-14141762D01*
X15280715Y-14160809D01*
X15452143Y-14217952D02*
X15471191Y-14227476D01*
X15509286Y-14227476D01*
X15528334Y-14217952D01*
X15537858Y-14198905D01*
X15537858Y-14189381D01*
X15528334Y-14170333D01*
X15509286Y-14160809D01*
X15480715Y-14160809D01*
X15461667Y-14151286D01*
X15452143Y-14132238D01*
X15452143Y-14122714D01*
X15461667Y-14103667D01*
X15480715Y-14094143D01*
X15509286Y-14094143D01*
X15528334Y-14103667D01*
X15604524Y-14303667D02*
X15614048Y-14294143D01*
X15633096Y-14265571D01*
X15642619Y-14246524D01*
X15652143Y-14217952D01*
X15661667Y-14170333D01*
X15661667Y-14132238D01*
X15652143Y-14084619D01*
X15642619Y-14056048D01*
X15633096Y-14037000D01*
X15614048Y-14008428D01*
X15604524Y-13998905D01*
D16*
X10782620Y-14451000D02*
X10832620Y-14401000D01*
X10782620Y-14351000D01*
X10732620Y-14401000D01*
X10782620Y-14451000D01*
D11*
X11195000Y-14491476D02*
X11080715Y-14491476D01*
X11137858Y-14491476D02*
X11137858Y-14291476D01*
X11118810Y-14320048D01*
X11099762Y-14339095D01*
X11080715Y-14348619D01*
X11280715Y-14472428D02*
X11290239Y-14481952D01*
X11280715Y-14491476D01*
X11271191Y-14481952D01*
X11280715Y-14472428D01*
X11280715Y-14491476D01*
X11414048Y-14291476D02*
X11433096Y-14291476D01*
X11452143Y-14301000D01*
X11461667Y-14310524D01*
X11471191Y-14329571D01*
X11480715Y-14367667D01*
X11480715Y-14415286D01*
X11471191Y-14453381D01*
X11461667Y-14472428D01*
X11452143Y-14481952D01*
X11433096Y-14491476D01*
X11414048Y-14491476D01*
X11395000Y-14481952D01*
X11385477Y-14472428D01*
X11375953Y-14453381D01*
X11366429Y-14415286D01*
X11366429Y-14367667D01*
X11375953Y-14329571D01*
X11385477Y-14310524D01*
X11395000Y-14301000D01*
X11414048Y-14291476D01*
X11604524Y-14291476D02*
X11623572Y-14291476D01*
X11642620Y-14301000D01*
X11652143Y-14310524D01*
X11661667Y-14329571D01*
X11671191Y-14367667D01*
X11671191Y-14415286D01*
X11661667Y-14453381D01*
X11652143Y-14472428D01*
X11642620Y-14481952D01*
X11623572Y-14491476D01*
X11604524Y-14491476D01*
X11585477Y-14481952D01*
X11575953Y-14472428D01*
X11566429Y-14453381D01*
X11556905Y-14415286D01*
X11556905Y-14367667D01*
X11566429Y-14329571D01*
X11575953Y-14310524D01*
X11585477Y-14301000D01*
X11604524Y-14291476D01*
X11795000Y-14291476D02*
X11814048Y-14291476D01*
X11833096Y-14301000D01*
X11842620Y-14310524D01*
X11852143Y-14329571D01*
X11861667Y-14367667D01*
X11861667Y-14415286D01*
X11852143Y-14453381D01*
X11842620Y-14472428D01*
X11833096Y-14481952D01*
X11814048Y-14491476D01*
X11795000Y-14491476D01*
X11775953Y-14481952D01*
X11766429Y-14472428D01*
X11756905Y-14453381D01*
X11747381Y-14415286D01*
X11747381Y-14367667D01*
X11756905Y-14329571D01*
X11766429Y-14310524D01*
X11775953Y-14301000D01*
X11795000Y-14291476D01*
X11947381Y-14491476D02*
X11947381Y-14358143D01*
X11947381Y-14377190D02*
X11956905Y-14367667D01*
X11975953Y-14358143D01*
X12004524Y-14358143D01*
X12023572Y-14367667D01*
X12033096Y-14386714D01*
X12033096Y-14491476D01*
X12033096Y-14386714D02*
X12042620Y-14367667D01*
X12061667Y-14358143D01*
X12090239Y-14358143D01*
X12109286Y-14367667D01*
X12118810Y-14386714D01*
X12118810Y-14491476D01*
X12214048Y-14491476D02*
X12214048Y-14358143D01*
X12214048Y-14377190D02*
X12223572Y-14367667D01*
X12242620Y-14358143D01*
X12271191Y-14358143D01*
X12290239Y-14367667D01*
X12299762Y-14386714D01*
X12299762Y-14491476D01*
X12299762Y-14386714D02*
X12309286Y-14367667D01*
X12328334Y-14358143D01*
X12356905Y-14358143D01*
X12375953Y-14367667D01*
X12385477Y-14386714D01*
X12385477Y-14491476D01*
X12775953Y-14281952D02*
X12604524Y-14539095D01*
X13033096Y-14291476D02*
X13052143Y-14291476D01*
X13071191Y-14301000D01*
X13080715Y-14310524D01*
X13090239Y-14329571D01*
X13099762Y-14367667D01*
X13099762Y-14415286D01*
X13090239Y-14453381D01*
X13080715Y-14472428D01*
X13071191Y-14481952D01*
X13052143Y-14491476D01*
X13033096Y-14491476D01*
X13014048Y-14481952D01*
X13004524Y-14472428D01*
X12995000Y-14453381D01*
X12985477Y-14415286D01*
X12985477Y-14367667D01*
X12995000Y-14329571D01*
X13004524Y-14310524D01*
X13014048Y-14301000D01*
X13033096Y-14291476D01*
X13185477Y-14472428D02*
X13195000Y-14481952D01*
X13185477Y-14491476D01*
X13175953Y-14481952D01*
X13185477Y-14472428D01*
X13185477Y-14491476D01*
X13318810Y-14291476D02*
X13337858Y-14291476D01*
X13356905Y-14301000D01*
X13366429Y-14310524D01*
X13375953Y-14329571D01*
X13385477Y-14367667D01*
X13385477Y-14415286D01*
X13375953Y-14453381D01*
X13366429Y-14472428D01*
X13356905Y-14481952D01*
X13337858Y-14491476D01*
X13318810Y-14491476D01*
X13299762Y-14481952D01*
X13290239Y-14472428D01*
X13280715Y-14453381D01*
X13271191Y-14415286D01*
X13271191Y-14367667D01*
X13280715Y-14329571D01*
X13290239Y-14310524D01*
X13299762Y-14301000D01*
X13318810Y-14291476D01*
X13452143Y-14291476D02*
X13575953Y-14291476D01*
X13509286Y-14367667D01*
X13537858Y-14367667D01*
X13556905Y-14377190D01*
X13566429Y-14386714D01*
X13575953Y-14405762D01*
X13575953Y-14453381D01*
X13566429Y-14472428D01*
X13556905Y-14481952D01*
X13537858Y-14491476D01*
X13480715Y-14491476D01*
X13461667Y-14481952D01*
X13452143Y-14472428D01*
X13671191Y-14491476D02*
X13709286Y-14491476D01*
X13728334Y-14481952D01*
X13737858Y-14472428D01*
X13756905Y-14443857D01*
X13766429Y-14405762D01*
X13766429Y-14329571D01*
X13756905Y-14310524D01*
X13747381Y-14301000D01*
X13728334Y-14291476D01*
X13690239Y-14291476D01*
X13671191Y-14301000D01*
X13661667Y-14310524D01*
X13652143Y-14329571D01*
X13652143Y-14377190D01*
X13661667Y-14396238D01*
X13671191Y-14405762D01*
X13690239Y-14415286D01*
X13728334Y-14415286D01*
X13747381Y-14405762D01*
X13756905Y-14396238D01*
X13766429Y-14377190D01*
X13937858Y-14358143D02*
X13937858Y-14491476D01*
X13890239Y-14281952D02*
X13842620Y-14424809D01*
X13966429Y-14424809D01*
X14033096Y-14291476D02*
X14033096Y-14329571D01*
X14109286Y-14291476D02*
X14109286Y-14329571D01*
X14404524Y-14567667D02*
X14395000Y-14558143D01*
X14375953Y-14529571D01*
X14366429Y-14510524D01*
X14356905Y-14481952D01*
X14347381Y-14434333D01*
X14347381Y-14396238D01*
X14356905Y-14348619D01*
X14366429Y-14320048D01*
X14375953Y-14301000D01*
X14395000Y-14272428D01*
X14404524Y-14262905D01*
X14461667Y-14291476D02*
X14595000Y-14291476D01*
X14509286Y-14491476D01*
X14756905Y-14291476D02*
X14718810Y-14291476D01*
X14699762Y-14301000D01*
X14690239Y-14310524D01*
X14671191Y-14339095D01*
X14661667Y-14377190D01*
X14661667Y-14453381D01*
X14671191Y-14472428D01*
X14680715Y-14481952D01*
X14699762Y-14491476D01*
X14737858Y-14491476D01*
X14756905Y-14481952D01*
X14766429Y-14472428D01*
X14775953Y-14453381D01*
X14775953Y-14405762D01*
X14766429Y-14386714D01*
X14756905Y-14377190D01*
X14737858Y-14367667D01*
X14699762Y-14367667D01*
X14680715Y-14377190D01*
X14671191Y-14386714D01*
X14661667Y-14405762D01*
X15014048Y-14491476D02*
X15014048Y-14291476D01*
X15099762Y-14491476D02*
X15099762Y-14386714D01*
X15090239Y-14367667D01*
X15071191Y-14358143D01*
X15042619Y-14358143D01*
X15023572Y-14367667D01*
X15014048Y-14377190D01*
X15223572Y-14491476D02*
X15204524Y-14481952D01*
X15195000Y-14472428D01*
X15185477Y-14453381D01*
X15185477Y-14396238D01*
X15195000Y-14377190D01*
X15204524Y-14367667D01*
X15223572Y-14358143D01*
X15252143Y-14358143D01*
X15271191Y-14367667D01*
X15280715Y-14377190D01*
X15290239Y-14396238D01*
X15290239Y-14453381D01*
X15280715Y-14472428D01*
X15271191Y-14481952D01*
X15252143Y-14491476D01*
X15223572Y-14491476D01*
X15404524Y-14491476D02*
X15385477Y-14481952D01*
X15375953Y-14462905D01*
X15375953Y-14291476D01*
X15556905Y-14481952D02*
X15537858Y-14491476D01*
X15499762Y-14491476D01*
X15480715Y-14481952D01*
X15471191Y-14462905D01*
X15471191Y-14386714D01*
X15480715Y-14367667D01*
X15499762Y-14358143D01*
X15537858Y-14358143D01*
X15556905Y-14367667D01*
X15566429Y-14386714D01*
X15566429Y-14405762D01*
X15471191Y-14424809D01*
X15642619Y-14481952D02*
X15661667Y-14491476D01*
X15699762Y-14491476D01*
X15718810Y-14481952D01*
X15728334Y-14462905D01*
X15728334Y-14453381D01*
X15718810Y-14434333D01*
X15699762Y-14424809D01*
X15671191Y-14424809D01*
X15652143Y-14415286D01*
X15642619Y-14396238D01*
X15642619Y-14386714D01*
X15652143Y-14367667D01*
X15671191Y-14358143D01*
X15699762Y-14358143D01*
X15718810Y-14367667D01*
X15795000Y-14567667D02*
X15804524Y-14558143D01*
X15823572Y-14529571D01*
X15833096Y-14510524D01*
X15842619Y-14481952D01*
X15852143Y-14434333D01*
X15852143Y-14396238D01*
X15842619Y-14348619D01*
X15833096Y-14320048D01*
X15823572Y-14301000D01*
X15804524Y-14272428D01*
X15795000Y-14262905D01*
D17*
X10730620Y-14614000D02*
X10832620Y-14716000D01*
X10832620Y-14614000D02*
X10730620Y-14716000D01*
X10832620Y-14665000D02*
G75*
G03*
X10832620Y-14665000I-51000J0D01*
G01*
D11*
X11195000Y-14755476D02*
X11080715Y-14755476D01*
X11137858Y-14755476D02*
X11137858Y-14555476D01*
X11118810Y-14584048D01*
X11099762Y-14603095D01*
X11080715Y-14612619D01*
X11280715Y-14736428D02*
X11290239Y-14745952D01*
X11280715Y-14755476D01*
X11271191Y-14745952D01*
X11280715Y-14736428D01*
X11280715Y-14755476D01*
X11414048Y-14555476D02*
X11433096Y-14555476D01*
X11452143Y-14565000D01*
X11461667Y-14574524D01*
X11471191Y-14593571D01*
X11480715Y-14631667D01*
X11480715Y-14679286D01*
X11471191Y-14717381D01*
X11461667Y-14736428D01*
X11452143Y-14745952D01*
X11433096Y-14755476D01*
X11414048Y-14755476D01*
X11395000Y-14745952D01*
X11385477Y-14736428D01*
X11375953Y-14717381D01*
X11366429Y-14679286D01*
X11366429Y-14631667D01*
X11375953Y-14593571D01*
X11385477Y-14574524D01*
X11395000Y-14565000D01*
X11414048Y-14555476D01*
X11556905Y-14574524D02*
X11566429Y-14565000D01*
X11585477Y-14555476D01*
X11633096Y-14555476D01*
X11652143Y-14565000D01*
X11661667Y-14574524D01*
X11671191Y-14593571D01*
X11671191Y-14612619D01*
X11661667Y-14641190D01*
X11547381Y-14755476D01*
X11671191Y-14755476D01*
X11795000Y-14555476D02*
X11814048Y-14555476D01*
X11833096Y-14565000D01*
X11842620Y-14574524D01*
X11852143Y-14593571D01*
X11861667Y-14631667D01*
X11861667Y-14679286D01*
X11852143Y-14717381D01*
X11842620Y-14736428D01*
X11833096Y-14745952D01*
X11814048Y-14755476D01*
X11795000Y-14755476D01*
X11775953Y-14745952D01*
X11766429Y-14736428D01*
X11756905Y-14717381D01*
X11747381Y-14679286D01*
X11747381Y-14631667D01*
X11756905Y-14593571D01*
X11766429Y-14574524D01*
X11775953Y-14565000D01*
X11795000Y-14555476D01*
X11947381Y-14755476D02*
X11947381Y-14622143D01*
X11947381Y-14641190D02*
X11956905Y-14631667D01*
X11975953Y-14622143D01*
X12004524Y-14622143D01*
X12023572Y-14631667D01*
X12033096Y-14650714D01*
X12033096Y-14755476D01*
X12033096Y-14650714D02*
X12042620Y-14631667D01*
X12061667Y-14622143D01*
X12090239Y-14622143D01*
X12109286Y-14631667D01*
X12118810Y-14650714D01*
X12118810Y-14755476D01*
X12214048Y-14755476D02*
X12214048Y-14622143D01*
X12214048Y-14641190D02*
X12223572Y-14631667D01*
X12242620Y-14622143D01*
X12271191Y-14622143D01*
X12290239Y-14631667D01*
X12299762Y-14650714D01*
X12299762Y-14755476D01*
X12299762Y-14650714D02*
X12309286Y-14631667D01*
X12328334Y-14622143D01*
X12356905Y-14622143D01*
X12375953Y-14631667D01*
X12385477Y-14650714D01*
X12385477Y-14755476D01*
X12775953Y-14545952D02*
X12604524Y-14803095D01*
X13033096Y-14555476D02*
X13052143Y-14555476D01*
X13071191Y-14565000D01*
X13080715Y-14574524D01*
X13090239Y-14593571D01*
X13099762Y-14631667D01*
X13099762Y-14679286D01*
X13090239Y-14717381D01*
X13080715Y-14736428D01*
X13071191Y-14745952D01*
X13052143Y-14755476D01*
X13033096Y-14755476D01*
X13014048Y-14745952D01*
X13004524Y-14736428D01*
X12995000Y-14717381D01*
X12985477Y-14679286D01*
X12985477Y-14631667D01*
X12995000Y-14593571D01*
X13004524Y-14574524D01*
X13014048Y-14565000D01*
X13033096Y-14555476D01*
X13185477Y-14736428D02*
X13195000Y-14745952D01*
X13185477Y-14755476D01*
X13175953Y-14745952D01*
X13185477Y-14736428D01*
X13185477Y-14755476D01*
X13318810Y-14555476D02*
X13337858Y-14555476D01*
X13356905Y-14565000D01*
X13366429Y-14574524D01*
X13375953Y-14593571D01*
X13385477Y-14631667D01*
X13385477Y-14679286D01*
X13375953Y-14717381D01*
X13366429Y-14736428D01*
X13356905Y-14745952D01*
X13337858Y-14755476D01*
X13318810Y-14755476D01*
X13299762Y-14745952D01*
X13290239Y-14736428D01*
X13280715Y-14717381D01*
X13271191Y-14679286D01*
X13271191Y-14631667D01*
X13280715Y-14593571D01*
X13290239Y-14574524D01*
X13299762Y-14565000D01*
X13318810Y-14555476D01*
X13556905Y-14622143D02*
X13556905Y-14755476D01*
X13509286Y-14545952D02*
X13461667Y-14688809D01*
X13585477Y-14688809D01*
X13699762Y-14555476D02*
X13718810Y-14555476D01*
X13737858Y-14565000D01*
X13747381Y-14574524D01*
X13756905Y-14593571D01*
X13766429Y-14631667D01*
X13766429Y-14679286D01*
X13756905Y-14717381D01*
X13747381Y-14736428D01*
X13737858Y-14745952D01*
X13718810Y-14755476D01*
X13699762Y-14755476D01*
X13680715Y-14745952D01*
X13671191Y-14736428D01*
X13661667Y-14717381D01*
X13652143Y-14679286D01*
X13652143Y-14631667D01*
X13661667Y-14593571D01*
X13671191Y-14574524D01*
X13680715Y-14565000D01*
X13699762Y-14555476D01*
X13842620Y-14574524D02*
X13852143Y-14565000D01*
X13871191Y-14555476D01*
X13918810Y-14555476D01*
X13937858Y-14565000D01*
X13947381Y-14574524D01*
X13956905Y-14593571D01*
X13956905Y-14612619D01*
X13947381Y-14641190D01*
X13833096Y-14755476D01*
X13956905Y-14755476D01*
X14033096Y-14555476D02*
X14033096Y-14593571D01*
X14109286Y-14555476D02*
X14109286Y-14593571D01*
X14404524Y-14831667D02*
X14395000Y-14822143D01*
X14375953Y-14793571D01*
X14366429Y-14774524D01*
X14356905Y-14745952D01*
X14347381Y-14698333D01*
X14347381Y-14660238D01*
X14356905Y-14612619D01*
X14366429Y-14584048D01*
X14375953Y-14565000D01*
X14395000Y-14536428D01*
X14404524Y-14526905D01*
X14566429Y-14622143D02*
X14566429Y-14755476D01*
X14518810Y-14545952D02*
X14471191Y-14688809D01*
X14595000Y-14688809D01*
X14652143Y-14555476D02*
X14775953Y-14555476D01*
X14709286Y-14631667D01*
X14737858Y-14631667D01*
X14756905Y-14641190D01*
X14766429Y-14650714D01*
X14775953Y-14669762D01*
X14775953Y-14717381D01*
X14766429Y-14736428D01*
X14756905Y-14745952D01*
X14737858Y-14755476D01*
X14680715Y-14755476D01*
X14661667Y-14745952D01*
X14652143Y-14736428D01*
X15014048Y-14755476D02*
X15014048Y-14555476D01*
X15099762Y-14755476D02*
X15099762Y-14650714D01*
X15090239Y-14631667D01*
X15071191Y-14622143D01*
X15042619Y-14622143D01*
X15023572Y-14631667D01*
X15014048Y-14641190D01*
X15223572Y-14755476D02*
X15204524Y-14745952D01*
X15195000Y-14736428D01*
X15185477Y-14717381D01*
X15185477Y-14660238D01*
X15195000Y-14641190D01*
X15204524Y-14631667D01*
X15223572Y-14622143D01*
X15252143Y-14622143D01*
X15271191Y-14631667D01*
X15280715Y-14641190D01*
X15290239Y-14660238D01*
X15290239Y-14717381D01*
X15280715Y-14736428D01*
X15271191Y-14745952D01*
X15252143Y-14755476D01*
X15223572Y-14755476D01*
X15404524Y-14755476D02*
X15385477Y-14745952D01*
X15375953Y-14726905D01*
X15375953Y-14555476D01*
X15556905Y-14745952D02*
X15537858Y-14755476D01*
X15499762Y-14755476D01*
X15480715Y-14745952D01*
X15471191Y-14726905D01*
X15471191Y-14650714D01*
X15480715Y-14631667D01*
X15499762Y-14622143D01*
X15537858Y-14622143D01*
X15556905Y-14631667D01*
X15566429Y-14650714D01*
X15566429Y-14669762D01*
X15471191Y-14688809D01*
X15642619Y-14745952D02*
X15661667Y-14755476D01*
X15699762Y-14755476D01*
X15718810Y-14745952D01*
X15728334Y-14726905D01*
X15728334Y-14717381D01*
X15718810Y-14698333D01*
X15699762Y-14688809D01*
X15671191Y-14688809D01*
X15652143Y-14679286D01*
X15642619Y-14660238D01*
X15642619Y-14650714D01*
X15652143Y-14631667D01*
X15671191Y-14622143D01*
X15699762Y-14622143D01*
X15718810Y-14631667D01*
X15795000Y-14831667D02*
X15804524Y-14822143D01*
X15823572Y-14793571D01*
X15833096Y-14774524D01*
X15842619Y-14745952D01*
X15852143Y-14698333D01*
X15852143Y-14660238D01*
X15842619Y-14612619D01*
X15833096Y-14584048D01*
X15823572Y-14565000D01*
X15804524Y-14536428D01*
X15795000Y-14526905D01*
D18*
X10712620Y-14869000D02*
X10832620Y-14989000D01*
X10832620Y-14869000D02*
X10712620Y-14989000D01*
X10772620Y-14869000D02*
X10772620Y-14989000D01*
X10712620Y-14929000D02*
X10832620Y-14929000D01*
D11*
X11195000Y-15019476D02*
X11080715Y-15019476D01*
X11137858Y-15019476D02*
X11137858Y-14819476D01*
X11118810Y-14848048D01*
X11099762Y-14867095D01*
X11080715Y-14876619D01*
X11280715Y-15000428D02*
X11290239Y-15009952D01*
X11280715Y-15019476D01*
X11271191Y-15009952D01*
X11280715Y-15000428D01*
X11280715Y-15019476D01*
X11366429Y-14838524D02*
X11375953Y-14829000D01*
X11395000Y-14819476D01*
X11442620Y-14819476D01*
X11461667Y-14829000D01*
X11471191Y-14838524D01*
X11480715Y-14857571D01*
X11480715Y-14876619D01*
X11471191Y-14905190D01*
X11356905Y-15019476D01*
X11480715Y-15019476D01*
X11604524Y-14819476D02*
X11623572Y-14819476D01*
X11642620Y-14829000D01*
X11652143Y-14838524D01*
X11661667Y-14857571D01*
X11671191Y-14895667D01*
X11671191Y-14943286D01*
X11661667Y-14981381D01*
X11652143Y-15000428D01*
X11642620Y-15009952D01*
X11623572Y-15019476D01*
X11604524Y-15019476D01*
X11585477Y-15009952D01*
X11575953Y-15000428D01*
X11566429Y-14981381D01*
X11556905Y-14943286D01*
X11556905Y-14895667D01*
X11566429Y-14857571D01*
X11575953Y-14838524D01*
X11585477Y-14829000D01*
X11604524Y-14819476D01*
X11795000Y-14819476D02*
X11814048Y-14819476D01*
X11833096Y-14829000D01*
X11842620Y-14838524D01*
X11852143Y-14857571D01*
X11861667Y-14895667D01*
X11861667Y-14943286D01*
X11852143Y-14981381D01*
X11842620Y-15000428D01*
X11833096Y-15009952D01*
X11814048Y-15019476D01*
X11795000Y-15019476D01*
X11775953Y-15009952D01*
X11766429Y-15000428D01*
X11756905Y-14981381D01*
X11747381Y-14943286D01*
X11747381Y-14895667D01*
X11756905Y-14857571D01*
X11766429Y-14838524D01*
X11775953Y-14829000D01*
X11795000Y-14819476D01*
X11947381Y-15019476D02*
X11947381Y-14886143D01*
X11947381Y-14905190D02*
X11956905Y-14895667D01*
X11975953Y-14886143D01*
X12004524Y-14886143D01*
X12023572Y-14895667D01*
X12033096Y-14914714D01*
X12033096Y-15019476D01*
X12033096Y-14914714D02*
X12042620Y-14895667D01*
X12061667Y-14886143D01*
X12090239Y-14886143D01*
X12109286Y-14895667D01*
X12118810Y-14914714D01*
X12118810Y-15019476D01*
X12214048Y-15019476D02*
X12214048Y-14886143D01*
X12214048Y-14905190D02*
X12223572Y-14895667D01*
X12242620Y-14886143D01*
X12271191Y-14886143D01*
X12290239Y-14895667D01*
X12299762Y-14914714D01*
X12299762Y-15019476D01*
X12299762Y-14914714D02*
X12309286Y-14895667D01*
X12328334Y-14886143D01*
X12356905Y-14886143D01*
X12375953Y-14895667D01*
X12385477Y-14914714D01*
X12385477Y-15019476D01*
X12775953Y-14809952D02*
X12604524Y-15067095D01*
X13033096Y-14819476D02*
X13052143Y-14819476D01*
X13071191Y-14829000D01*
X13080715Y-14838524D01*
X13090239Y-14857571D01*
X13099762Y-14895667D01*
X13099762Y-14943286D01*
X13090239Y-14981381D01*
X13080715Y-15000428D01*
X13071191Y-15009952D01*
X13052143Y-15019476D01*
X13033096Y-15019476D01*
X13014048Y-15009952D01*
X13004524Y-15000428D01*
X12995000Y-14981381D01*
X12985477Y-14943286D01*
X12985477Y-14895667D01*
X12995000Y-14857571D01*
X13004524Y-14838524D01*
X13014048Y-14829000D01*
X13033096Y-14819476D01*
X13185477Y-15000428D02*
X13195000Y-15009952D01*
X13185477Y-15019476D01*
X13175953Y-15009952D01*
X13185477Y-15000428D01*
X13185477Y-15019476D01*
X13318810Y-14819476D02*
X13337858Y-14819476D01*
X13356905Y-14829000D01*
X13366429Y-14838524D01*
X13375953Y-14857571D01*
X13385477Y-14895667D01*
X13385477Y-14943286D01*
X13375953Y-14981381D01*
X13366429Y-15000428D01*
X13356905Y-15009952D01*
X13337858Y-15019476D01*
X13318810Y-15019476D01*
X13299762Y-15009952D01*
X13290239Y-15000428D01*
X13280715Y-14981381D01*
X13271191Y-14943286D01*
X13271191Y-14895667D01*
X13280715Y-14857571D01*
X13290239Y-14838524D01*
X13299762Y-14829000D01*
X13318810Y-14819476D01*
X13556905Y-14886143D02*
X13556905Y-15019476D01*
X13509286Y-14809952D02*
X13461667Y-14952809D01*
X13585477Y-14952809D01*
X13642620Y-14819476D02*
X13775953Y-14819476D01*
X13690239Y-15019476D01*
X13842620Y-14838524D02*
X13852143Y-14829000D01*
X13871191Y-14819476D01*
X13918810Y-14819476D01*
X13937858Y-14829000D01*
X13947381Y-14838524D01*
X13956905Y-14857571D01*
X13956905Y-14876619D01*
X13947381Y-14905190D01*
X13833096Y-15019476D01*
X13956905Y-15019476D01*
X14033096Y-14819476D02*
X14033096Y-14857571D01*
X14109286Y-14819476D02*
X14109286Y-14857571D01*
X14404524Y-15095667D02*
X14395000Y-15086143D01*
X14375953Y-15057571D01*
X14366429Y-15038524D01*
X14356905Y-15009952D01*
X14347381Y-14962333D01*
X14347381Y-14924238D01*
X14356905Y-14876619D01*
X14366429Y-14848048D01*
X14375953Y-14829000D01*
X14395000Y-14800428D01*
X14404524Y-14790905D01*
X14471191Y-14838524D02*
X14480715Y-14829000D01*
X14499762Y-14819476D01*
X14547381Y-14819476D01*
X14566429Y-14829000D01*
X14575953Y-14838524D01*
X14585477Y-14857571D01*
X14585477Y-14876619D01*
X14575953Y-14905190D01*
X14461667Y-15019476D01*
X14585477Y-15019476D01*
X14823572Y-15019476D02*
X14823572Y-14819476D01*
X14909286Y-15019476D02*
X14909286Y-14914714D01*
X14899762Y-14895667D01*
X14880715Y-14886143D01*
X14852143Y-14886143D01*
X14833096Y-14895667D01*
X14823572Y-14905190D01*
X15033096Y-15019476D02*
X15014048Y-15009952D01*
X15004524Y-15000428D01*
X14995000Y-14981381D01*
X14995000Y-14924238D01*
X15004524Y-14905190D01*
X15014048Y-14895667D01*
X15033096Y-14886143D01*
X15061667Y-14886143D01*
X15080715Y-14895667D01*
X15090239Y-14905190D01*
X15099762Y-14924238D01*
X15099762Y-14981381D01*
X15090239Y-15000428D01*
X15080715Y-15009952D01*
X15061667Y-15019476D01*
X15033096Y-15019476D01*
X15214048Y-15019476D02*
X15195000Y-15009952D01*
X15185477Y-14990905D01*
X15185477Y-14819476D01*
X15366429Y-15009952D02*
X15347381Y-15019476D01*
X15309286Y-15019476D01*
X15290239Y-15009952D01*
X15280715Y-14990905D01*
X15280715Y-14914714D01*
X15290239Y-14895667D01*
X15309286Y-14886143D01*
X15347381Y-14886143D01*
X15366429Y-14895667D01*
X15375953Y-14914714D01*
X15375953Y-14933762D01*
X15280715Y-14952809D01*
X15452143Y-15009952D02*
X15471191Y-15019476D01*
X15509286Y-15019476D01*
X15528334Y-15009952D01*
X15537858Y-14990905D01*
X15537858Y-14981381D01*
X15528334Y-14962333D01*
X15509286Y-14952809D01*
X15480715Y-14952809D01*
X15461667Y-14943286D01*
X15452143Y-14924238D01*
X15452143Y-14914714D01*
X15461667Y-14895667D01*
X15480715Y-14886143D01*
X15509286Y-14886143D01*
X15528334Y-14895667D01*
X15604524Y-15095667D02*
X15614048Y-15086143D01*
X15633096Y-15057571D01*
X15642619Y-15038524D01*
X15652143Y-15009952D01*
X15661667Y-14962333D01*
X15661667Y-14924238D01*
X15652143Y-14876619D01*
X15642619Y-14848048D01*
X15633096Y-14829000D01*
X15614048Y-14800428D01*
X15604524Y-14790905D01*
D19*
X10702620Y-15128000D02*
X10832620Y-15258000D01*
X10832620Y-15128000D02*
X10702620Y-15258000D01*
X10813582Y-15238962D02*
X10813582Y-15147038D01*
X10721657Y-15147038D01*
X10721657Y-15238962D01*
X10813582Y-15238962D01*
D11*
X11195000Y-15283476D02*
X11080715Y-15283476D01*
X11137858Y-15283476D02*
X11137858Y-15083476D01*
X11118810Y-15112048D01*
X11099762Y-15131095D01*
X11080715Y-15140619D01*
X11280715Y-15264428D02*
X11290239Y-15273952D01*
X11280715Y-15283476D01*
X11271191Y-15273952D01*
X11280715Y-15264428D01*
X11280715Y-15283476D01*
X11356905Y-15083476D02*
X11480715Y-15083476D01*
X11414048Y-15159667D01*
X11442620Y-15159667D01*
X11461667Y-15169190D01*
X11471191Y-15178714D01*
X11480715Y-15197762D01*
X11480715Y-15245381D01*
X11471191Y-15264428D01*
X11461667Y-15273952D01*
X11442620Y-15283476D01*
X11385477Y-15283476D01*
X11366429Y-15273952D01*
X11356905Y-15264428D01*
X11604524Y-15083476D02*
X11623572Y-15083476D01*
X11642620Y-15093000D01*
X11652143Y-15102524D01*
X11661667Y-15121571D01*
X11671191Y-15159667D01*
X11671191Y-15207286D01*
X11661667Y-15245381D01*
X11652143Y-15264428D01*
X11642620Y-15273952D01*
X11623572Y-15283476D01*
X11604524Y-15283476D01*
X11585477Y-15273952D01*
X11575953Y-15264428D01*
X11566429Y-15245381D01*
X11556905Y-15207286D01*
X11556905Y-15159667D01*
X11566429Y-15121571D01*
X11575953Y-15102524D01*
X11585477Y-15093000D01*
X11604524Y-15083476D01*
X11795000Y-15083476D02*
X11814048Y-15083476D01*
X11833096Y-15093000D01*
X11842620Y-15102524D01*
X11852143Y-15121571D01*
X11861667Y-15159667D01*
X11861667Y-15207286D01*
X11852143Y-15245381D01*
X11842620Y-15264428D01*
X11833096Y-15273952D01*
X11814048Y-15283476D01*
X11795000Y-15283476D01*
X11775953Y-15273952D01*
X11766429Y-15264428D01*
X11756905Y-15245381D01*
X11747381Y-15207286D01*
X11747381Y-15159667D01*
X11756905Y-15121571D01*
X11766429Y-15102524D01*
X11775953Y-15093000D01*
X11795000Y-15083476D01*
X11947381Y-15283476D02*
X11947381Y-15150143D01*
X11947381Y-15169190D02*
X11956905Y-15159667D01*
X11975953Y-15150143D01*
X12004524Y-15150143D01*
X12023572Y-15159667D01*
X12033096Y-15178714D01*
X12033096Y-15283476D01*
X12033096Y-15178714D02*
X12042620Y-15159667D01*
X12061667Y-15150143D01*
X12090239Y-15150143D01*
X12109286Y-15159667D01*
X12118810Y-15178714D01*
X12118810Y-15283476D01*
X12214048Y-15283476D02*
X12214048Y-15150143D01*
X12214048Y-15169190D02*
X12223572Y-15159667D01*
X12242620Y-15150143D01*
X12271191Y-15150143D01*
X12290239Y-15159667D01*
X12299762Y-15178714D01*
X12299762Y-15283476D01*
X12299762Y-15178714D02*
X12309286Y-15159667D01*
X12328334Y-15150143D01*
X12356905Y-15150143D01*
X12375953Y-15159667D01*
X12385477Y-15178714D01*
X12385477Y-15283476D01*
X12775953Y-15073952D02*
X12604524Y-15331095D01*
X13033096Y-15083476D02*
X13052143Y-15083476D01*
X13071191Y-15093000D01*
X13080715Y-15102524D01*
X13090239Y-15121571D01*
X13099762Y-15159667D01*
X13099762Y-15207286D01*
X13090239Y-15245381D01*
X13080715Y-15264428D01*
X13071191Y-15273952D01*
X13052143Y-15283476D01*
X13033096Y-15283476D01*
X13014048Y-15273952D01*
X13004524Y-15264428D01*
X12995000Y-15245381D01*
X12985477Y-15207286D01*
X12985477Y-15159667D01*
X12995000Y-15121571D01*
X13004524Y-15102524D01*
X13014048Y-15093000D01*
X13033096Y-15083476D01*
X13185477Y-15264428D02*
X13195000Y-15273952D01*
X13185477Y-15283476D01*
X13175953Y-15273952D01*
X13185477Y-15264428D01*
X13185477Y-15283476D01*
X13318810Y-15083476D02*
X13337858Y-15083476D01*
X13356905Y-15093000D01*
X13366429Y-15102524D01*
X13375953Y-15121571D01*
X13385477Y-15159667D01*
X13385477Y-15207286D01*
X13375953Y-15245381D01*
X13366429Y-15264428D01*
X13356905Y-15273952D01*
X13337858Y-15283476D01*
X13318810Y-15283476D01*
X13299762Y-15273952D01*
X13290239Y-15264428D01*
X13280715Y-15245381D01*
X13271191Y-15207286D01*
X13271191Y-15159667D01*
X13280715Y-15121571D01*
X13290239Y-15102524D01*
X13299762Y-15093000D01*
X13318810Y-15083476D01*
X13566429Y-15083476D02*
X13471191Y-15083476D01*
X13461667Y-15178714D01*
X13471191Y-15169190D01*
X13490239Y-15159667D01*
X13537858Y-15159667D01*
X13556905Y-15169190D01*
X13566429Y-15178714D01*
X13575953Y-15197762D01*
X13575953Y-15245381D01*
X13566429Y-15264428D01*
X13556905Y-15273952D01*
X13537858Y-15283476D01*
X13490239Y-15283476D01*
X13471191Y-15273952D01*
X13461667Y-15264428D01*
X13766429Y-15283476D02*
X13652143Y-15283476D01*
X13709286Y-15283476D02*
X13709286Y-15083476D01*
X13690239Y-15112048D01*
X13671191Y-15131095D01*
X13652143Y-15140619D01*
X13842620Y-15102524D02*
X13852143Y-15093000D01*
X13871191Y-15083476D01*
X13918810Y-15083476D01*
X13937858Y-15093000D01*
X13947381Y-15102524D01*
X13956905Y-15121571D01*
X13956905Y-15140619D01*
X13947381Y-15169190D01*
X13833096Y-15283476D01*
X13956905Y-15283476D01*
X14033096Y-15083476D02*
X14033096Y-15121571D01*
X14109286Y-15083476D02*
X14109286Y-15121571D01*
X14404524Y-15359667D02*
X14395000Y-15350143D01*
X14375953Y-15321571D01*
X14366429Y-15302524D01*
X14356905Y-15273952D01*
X14347381Y-15226333D01*
X14347381Y-15188238D01*
X14356905Y-15140619D01*
X14366429Y-15112048D01*
X14375953Y-15093000D01*
X14395000Y-15064428D01*
X14404524Y-15054905D01*
X14566429Y-15150143D02*
X14566429Y-15283476D01*
X14518810Y-15073952D02*
X14471191Y-15216809D01*
X14595000Y-15216809D01*
X14823572Y-15283476D02*
X14823572Y-15083476D01*
X14909286Y-15283476D02*
X14909286Y-15178714D01*
X14899762Y-15159667D01*
X14880715Y-15150143D01*
X14852143Y-15150143D01*
X14833096Y-15159667D01*
X14823572Y-15169190D01*
X15033096Y-15283476D02*
X15014048Y-15273952D01*
X15004524Y-15264428D01*
X14995000Y-15245381D01*
X14995000Y-15188238D01*
X15004524Y-15169190D01*
X15014048Y-15159667D01*
X15033096Y-15150143D01*
X15061667Y-15150143D01*
X15080715Y-15159667D01*
X15090239Y-15169190D01*
X15099762Y-15188238D01*
X15099762Y-15245381D01*
X15090239Y-15264428D01*
X15080715Y-15273952D01*
X15061667Y-15283476D01*
X15033096Y-15283476D01*
X15214048Y-15283476D02*
X15195000Y-15273952D01*
X15185477Y-15254905D01*
X15185477Y-15083476D01*
X15366429Y-15273952D02*
X15347381Y-15283476D01*
X15309286Y-15283476D01*
X15290239Y-15273952D01*
X15280715Y-15254905D01*
X15280715Y-15178714D01*
X15290239Y-15159667D01*
X15309286Y-15150143D01*
X15347381Y-15150143D01*
X15366429Y-15159667D01*
X15375953Y-15178714D01*
X15375953Y-15197762D01*
X15280715Y-15216809D01*
X15452143Y-15273952D02*
X15471191Y-15283476D01*
X15509286Y-15283476D01*
X15528334Y-15273952D01*
X15537858Y-15254905D01*
X15537858Y-15245381D01*
X15528334Y-15226333D01*
X15509286Y-15216809D01*
X15480715Y-15216809D01*
X15461667Y-15207286D01*
X15452143Y-15188238D01*
X15452143Y-15178714D01*
X15461667Y-15159667D01*
X15480715Y-15150143D01*
X15509286Y-15150143D01*
X15528334Y-15159667D01*
X15604524Y-15359667D02*
X15614048Y-15350143D01*
X15633096Y-15321571D01*
X15642619Y-15302524D01*
X15652143Y-15273952D01*
X15661667Y-15226333D01*
X15661667Y-15188238D01*
X15652143Y-15140619D01*
X15642619Y-15112048D01*
X15633096Y-15093000D01*
X15614048Y-15064428D01*
X15604524Y-15054905D01*
M02*
