M48
; DRILL file {KiCad (6.0.6)} date Wed Jun 21 15:59:25 2023
; FORMAT={-:-/ absolute / metric / decimal}
; #@! TF.CreationDate,2023-06-21T15:59:25+02:00
; #@! TF.GenerationSoftware,Kicad,Pcbnew,(6.0.6)
; #@! TF.FileFunction,Plated,1,2,PTH
FMAT,2
METRIC
; #@! TA.AperFunction,Plated,PTH,ViaDrill
T1C0.400
; #@! TA.AperFunction,Plated,PTH,ComponentDrill
T2C0.800
; #@! TA.AperFunction,Plated,PTH,ComponentDrill
T3C0.900
; #@! TA.AperFunction,Plated,PTH,ComponentDrill
T4C0.990
; #@! TA.AperFunction,Plated,PTH,ComponentDrill
T5C1.000
; #@! TA.AperFunction,Plated,PTH,ComponentDrill
T6C1.020
; #@! TA.AperFunction,Plated,PTH,ComponentDrill
T7C1.200
; #@! TA.AperFunction,Plated,PTH,ComponentDrill
T8C1.300
%
G90
G05
T1
X142.301Y-92.079
X151.03Y-76.634
X154.607Y-81.205
X159.206Y-117.51
X159.273Y-68.906
X159.766Y-71.882
X168.645Y-65.36
X174.697Y-76.886
T2
X114.046Y-110.49
X114.046Y-118.11
X114.3Y-54.102
X114.3Y-61.722
X114.3Y-83.058
X114.3Y-90.678
X118.618Y-83.058
X118.618Y-90.678
X118.872Y-110.49
X118.872Y-118.11
X119.126Y-54.102
X119.126Y-61.722
X130.307Y-67.046
X130.307Y-74.666
X132.847Y-67.046
X132.847Y-74.666
X135.387Y-67.046
X135.387Y-74.666
X137.927Y-67.046
X137.927Y-74.666
X140.228Y-78.74
X140.467Y-67.046
X140.467Y-74.666
X142.728Y-78.74
X143.007Y-67.046
X143.007Y-74.666
X145.547Y-67.046
X145.547Y-74.666
X148.087Y-67.046
X148.087Y-74.666
X150.627Y-67.046
X150.627Y-74.666
X153.167Y-67.046
X153.167Y-74.666
X159.771Y-66.792
X159.771Y-74.412
X162.311Y-66.792
X162.311Y-74.412
X164.851Y-66.792
X164.851Y-74.412
X167.391Y-66.792
X167.391Y-74.412
X169.931Y-66.792
X169.931Y-74.412
X169.946Y-78.486
X172.446Y-78.486
X172.471Y-66.792
X172.471Y-74.412
X175.011Y-66.792
X175.011Y-74.412
X177.551Y-66.792
X177.551Y-74.412
X180.091Y-66.792
X180.091Y-74.412
X182.631Y-66.792
X182.631Y-74.412
T3
X121.92Y-68.834
X121.92Y-71.374
X121.92Y-75.189
X121.92Y-77.729
X122.174Y-98.298
X122.174Y-100.838
X122.174Y-104.907
X122.174Y-107.447
T4
X112.198Y-71.192
X112.198Y-75.692
X112.268Y-100.402
X112.268Y-104.902
T5
X136.652Y-59.291
X136.652Y-61.831
X136.906Y-113.428
X136.906Y-115.968
X139.192Y-59.291
X139.192Y-61.831
X139.446Y-113.428
X139.446Y-115.968
X141.732Y-59.291
X141.732Y-61.831
X141.986Y-113.428
X141.986Y-115.968
X144.272Y-59.291
X144.272Y-61.831
X144.526Y-113.428
X144.526Y-115.968
X146.812Y-59.291
X146.812Y-61.831
X147.066Y-113.428
X147.066Y-115.968
X149.352Y-59.291
X149.352Y-61.831
X149.606Y-113.428
X149.606Y-115.968
X151.892Y-59.291
X151.892Y-61.831
X152.146Y-113.428
X152.146Y-115.968
X154.432Y-59.291
X154.432Y-61.831
X154.686Y-113.428
X154.686Y-115.968
X156.972Y-59.291
X156.972Y-61.831
X157.226Y-113.428
X157.226Y-115.968
X159.512Y-59.291
X159.512Y-61.831
X159.766Y-113.428
X159.766Y-115.968
X162.052Y-59.291
X162.052Y-61.831
X162.306Y-113.428
X162.306Y-115.968
X164.592Y-59.291
X164.592Y-61.831
X164.846Y-113.428
X164.846Y-115.968
X167.132Y-59.291
X167.132Y-61.831
X167.386Y-113.428
X167.386Y-115.968
X169.672Y-59.291
X169.672Y-61.831
X169.926Y-113.428
X169.926Y-115.968
X172.212Y-59.291
X172.212Y-61.831
X172.466Y-113.428
X172.466Y-115.968
X174.752Y-59.291
X174.752Y-61.831
X175.006Y-113.428
X175.006Y-115.968
X177.292Y-59.291
X177.292Y-61.831
X177.546Y-113.428
X177.546Y-115.968
X189.173Y-65.034
X189.173Y-67.574
X189.173Y-70.114
X189.173Y-72.654
X189.173Y-78.242
X189.173Y-80.782
X189.173Y-83.322
X189.173Y-85.862
T6
X133.35Y-87.376
X133.35Y-105.156
X133.58Y-93.726
X133.58Y-96.266
X133.58Y-98.806
X135.89Y-87.376
X135.89Y-105.156
X138.43Y-87.376
X138.43Y-105.156
X140.97Y-87.376
X140.97Y-105.156
X143.51Y-87.376
X143.51Y-105.156
X146.05Y-87.376
X146.05Y-105.156
X148.59Y-87.376
X148.59Y-105.156
X151.13Y-87.376
X151.13Y-105.156
X153.67Y-87.376
X153.67Y-105.156
X156.21Y-87.376
X156.21Y-105.156
X158.75Y-87.376
X158.75Y-105.156
X161.29Y-87.376
X161.29Y-105.156
X163.83Y-87.376
X163.83Y-105.156
X166.37Y-87.376
X166.37Y-105.156
X168.91Y-87.376
X168.91Y-105.156
X171.45Y-87.376
X171.45Y-105.156
X173.99Y-87.376
X173.99Y-105.156
X176.53Y-87.376
X176.53Y-105.156
X179.07Y-87.376
X179.07Y-105.156
X181.61Y-87.376
X181.61Y-105.156
T7
X187.706Y-91.694
X187.706Y-104.394
T8
X114.688Y-69.932
X114.688Y-76.942
X114.758Y-99.142
X114.758Y-106.152
T0
M30
