%TF.GenerationSoftware,KiCad,Pcbnew,(6.0.6)*%
%TF.CreationDate,2023-06-21T15:59:23+02:00*%
%TF.ProjectId,X68KFDPI,5836384b-4644-4504-992e-6b696361645f,rev?*%
%TF.SameCoordinates,Original*%
%TF.FileFunction,Copper,L1,Top*%
%TF.FilePolarity,Positive*%
%FSLAX46Y46*%
G04 Gerber Fmt 4.6, Leading zero omitted, Abs format (unit mm)*
G04 Created by KiCad (PCBNEW (6.0.6)) date 2023-06-21 15:59:23*
%MOMM*%
%LPD*%
G01*
G04 APERTURE LIST*
G04 Aperture macros list*
%AMRoundRect*
0 Rectangle with rounded corners*
0 $1 Rounding radius*
0 $2 $3 $4 $5 $6 $7 $8 $9 X,Y pos of 4 corners*
0 Add a 4 corners polygon primitive as box body*
4,1,4,$2,$3,$4,$5,$6,$7,$8,$9,$2,$3,0*
0 Add four circle primitives for the rounded corners*
1,1,$1+$1,$2,$3*
1,1,$1+$1,$4,$5*
1,1,$1+$1,$6,$7*
1,1,$1+$1,$8,$9*
0 Add four rect primitives between the rounded corners*
20,1,$1+$1,$2,$3,$4,$5,0*
20,1,$1+$1,$4,$5,$6,$7,0*
20,1,$1+$1,$6,$7,$8,$9,0*
20,1,$1+$1,$8,$9,$2,$3,0*%
G04 Aperture macros list end*
%TA.AperFunction,ComponentPad*%
%ADD10C,1.600000*%
%TD*%
%TA.AperFunction,ComponentPad*%
%ADD11R,1.800000X1.800000*%
%TD*%
%TA.AperFunction,ComponentPad*%
%ADD12C,1.800000*%
%TD*%
%TA.AperFunction,ComponentPad*%
%ADD13O,1.600000X1.600000*%
%TD*%
%TA.AperFunction,SMDPad,CuDef*%
%ADD14R,1.700000X3.500000*%
%TD*%
%TA.AperFunction,ComponentPad*%
%ADD15O,1.700000X1.700000*%
%TD*%
%TA.AperFunction,ComponentPad*%
%ADD16R,1.700000X1.700000*%
%TD*%
%TA.AperFunction,SMDPad,CuDef*%
%ADD17R,3.500000X1.700000*%
%TD*%
%TA.AperFunction,ComponentPad*%
%ADD18C,2.100000*%
%TD*%
%TA.AperFunction,ComponentPad*%
%ADD19C,1.750000*%
%TD*%
%TA.AperFunction,ComponentPad*%
%ADD20RoundRect,0.250000X-0.600000X0.600000X-0.600000X-0.600000X0.600000X-0.600000X0.600000X0.600000X0*%
%TD*%
%TA.AperFunction,ComponentPad*%
%ADD21C,1.700000*%
%TD*%
%TA.AperFunction,ComponentPad*%
%ADD22R,2.400000X2.400000*%
%TD*%
%TA.AperFunction,ComponentPad*%
%ADD23O,2.400000X2.400000*%
%TD*%
%TA.AperFunction,ComponentPad*%
%ADD24R,1.600000X1.600000*%
%TD*%
%TA.AperFunction,ComponentPad*%
%ADD25RoundRect,0.250000X0.600000X-0.600000X0.600000X0.600000X-0.600000X0.600000X-0.600000X-0.600000X0*%
%TD*%
%TA.AperFunction,ViaPad*%
%ADD26C,0.800000*%
%TD*%
%TA.AperFunction,Conductor*%
%ADD27C,0.250000*%
%TD*%
G04 APERTURE END LIST*
D10*
%TO.P,C2,1*%
%TO.N,+3.3V*%
X169946000Y-78486000D03*
%TO.P,C2,2*%
%TO.N,GND*%
X172446000Y-78486000D03*
%TD*%
D11*
%TO.P,D3,1,K*%
%TO.N,GND*%
X122174000Y-100838000D03*
D12*
%TO.P,D3,2,A*%
%TO.N,Net-(D3-Pad2)*%
X122174000Y-98298000D03*
%TD*%
D10*
%TO.P,R5,1*%
%TO.N,GND*%
X118618000Y-83058000D03*
D13*
%TO.P,R5,2*%
%TO.N,BT_FD0*%
X118618000Y-90678000D03*
%TD*%
D11*
%TO.P,D4,1,K*%
%TO.N,GND*%
X121920000Y-71374000D03*
D12*
%TO.P,D4,2,A*%
%TO.N,Net-(D4-Pad2)*%
X121920000Y-68834000D03*
%TD*%
D10*
%TO.P,R1,1*%
%TO.N,Net-(D1-Pad2)*%
X118872000Y-110490000D03*
D13*
%TO.P,R1,2*%
%TO.N,LEDFD0*%
X118872000Y-118110000D03*
%TD*%
D10*
%TO.P,R3,1*%
%TO.N,Net-(D3-Pad2)*%
X114046000Y-118110000D03*
D13*
%TO.P,R3,2*%
%TO.N,LED_F0_Red*%
X114046000Y-110490000D03*
%TD*%
D14*
%TO.P,U1,1,GPIO0*%
%TO.N,unconnected-(U1-Pad1)*%
X181610000Y-86476000D03*
D15*
X181610000Y-87376000D03*
D14*
%TO.P,U1,2,GPIO1*%
%TO.N,unconnected-(U1-Pad2)*%
X179070000Y-86476000D03*
D15*
X179070000Y-87376000D03*
D14*
%TO.P,U1,3,GND*%
%TO.N,GND*%
X176530000Y-86476000D03*
D16*
X176530000Y-87376000D03*
D15*
%TO.P,U1,4,GPIO2*%
%TO.N,~{OPT0'}*%
X173990000Y-87376000D03*
D14*
X173990000Y-86476000D03*
%TO.P,U1,5,GPIO3*%
%TO.N,~{OPT1'}*%
X171450000Y-86476000D03*
D15*
X171450000Y-87376000D03*
%TO.P,U1,6,GPIO4*%
%TO.N,~{OPT2'}*%
X168910000Y-87376000D03*
D14*
X168910000Y-86476000D03*
D15*
%TO.P,U1,7,GPIO5*%
%TO.N,~{OPT3'}*%
X166370000Y-87376000D03*
D14*
X166370000Y-86476000D03*
D16*
%TO.P,U1,8,GND*%
%TO.N,GND*%
X163830000Y-87376000D03*
D14*
X163830000Y-86476000D03*
D15*
%TO.P,U1,9,GPIO6*%
%TO.N,~{EJECT'}*%
X161290000Y-87376000D03*
D14*
X161290000Y-86476000D03*
D15*
%TO.P,U1,10,GPIO7*%
%TO.N,~{INSERTED'}*%
X158750000Y-87376000D03*
D14*
X158750000Y-86476000D03*
%TO.P,U1,11,GPIO8*%
%TO.N,~{FDDINT'}*%
X156210000Y-86476000D03*
D15*
X156210000Y-87376000D03*
D14*
%TO.P,U1,12,GPIO9*%
%TO.N,~{ERROR'}*%
X153670000Y-86476000D03*
D15*
X153670000Y-87376000D03*
D14*
%TO.P,U1,13,GND*%
%TO.N,GND*%
X151130000Y-86476000D03*
D16*
X151130000Y-87376000D03*
D14*
%TO.P,U1,14,GPIO10*%
%TO.N,~{EjectMSK'}*%
X148590000Y-86476000D03*
D15*
X148590000Y-87376000D03*
%TO.P,U1,15,GPIO11*%
%TO.N,~{MOTOR'}*%
X146050000Y-87376000D03*
D14*
X146050000Y-86476000D03*
%TO.P,U1,16,GPIO12*%
%TO.N,LEDFD0*%
X143510000Y-86476000D03*
D15*
X143510000Y-87376000D03*
D14*
%TO.P,U1,17,GPIO13*%
%TO.N,LEDFD1*%
X140970000Y-86476000D03*
D15*
X140970000Y-87376000D03*
D16*
%TO.P,U1,18,GND*%
%TO.N,GND*%
X138430000Y-87376000D03*
D14*
X138430000Y-86476000D03*
D15*
%TO.P,U1,19,GPIO14*%
%TO.N,LED_F0_Red*%
X135890000Y-87376000D03*
D14*
X135890000Y-86476000D03*
D15*
%TO.P,U1,20,GPIO15*%
%TO.N,LED_F1_Red*%
X133350000Y-87376000D03*
D14*
X133350000Y-86476000D03*
%TO.P,U1,21,GPIO16*%
%TO.N,BT_FD0*%
X133350000Y-106056000D03*
D15*
X133350000Y-105156000D03*
%TO.P,U1,22,GPIO17*%
%TO.N,BT_FD1*%
X135890000Y-105156000D03*
D14*
X135890000Y-106056000D03*
%TO.P,U1,23,GND*%
%TO.N,GND*%
X138430000Y-106056000D03*
D16*
X138430000Y-105156000D03*
D14*
%TO.P,U1,24,GPIO18*%
%TO.N,~{LED_BLINK'}*%
X140970000Y-106056000D03*
D15*
X140970000Y-105156000D03*
D14*
%TO.P,U1,25,GPIO19*%
%TO.N,unconnected-(U1-Pad25)*%
X143510000Y-106056000D03*
D15*
X143510000Y-105156000D03*
%TO.P,U1,26,GPIO20*%
%TO.N,unconnected-(U1-Pad26)*%
X146050000Y-105156000D03*
D14*
X146050000Y-106056000D03*
%TO.P,U1,27,GPIO21*%
%TO.N,unconnected-(U1-Pad27)*%
X148590000Y-106056000D03*
D15*
X148590000Y-105156000D03*
D14*
%TO.P,U1,28,GND*%
%TO.N,GND*%
X151130000Y-106056000D03*
D16*
X151130000Y-105156000D03*
D15*
%TO.P,U1,29,GPIO22*%
%TO.N,unconnected-(U1-Pad29)*%
X153670000Y-105156000D03*
D14*
X153670000Y-106056000D03*
%TO.P,U1,30,RUN*%
%TO.N,unconnected-(U1-Pad30)*%
X156210000Y-106056000D03*
D15*
X156210000Y-105156000D03*
%TO.P,U1,31,GPIO26_ADC0*%
%TO.N,unconnected-(U1-Pad31)*%
X158750000Y-105156000D03*
D14*
X158750000Y-106056000D03*
D15*
%TO.P,U1,32,GPIO27_ADC1*%
%TO.N,unconnected-(U1-Pad32)*%
X161290000Y-105156000D03*
D14*
X161290000Y-106056000D03*
%TO.P,U1,33,AGND*%
%TO.N,GND*%
X163830000Y-106056000D03*
D16*
X163830000Y-105156000D03*
D14*
%TO.P,U1,34,GPIO28_ADC2*%
%TO.N,unconnected-(U1-Pad34)*%
X166370000Y-106056000D03*
D15*
X166370000Y-105156000D03*
D14*
%TO.P,U1,35,ADC_VREF*%
%TO.N,unconnected-(U1-Pad35)*%
X168910000Y-106056000D03*
D15*
X168910000Y-105156000D03*
D14*
%TO.P,U1,36,3V3*%
%TO.N,+3.3V*%
X171450000Y-106056000D03*
D15*
X171450000Y-105156000D03*
D14*
%TO.P,U1,37,3V3_EN*%
%TO.N,unconnected-(U1-Pad37)*%
X173990000Y-106056000D03*
D15*
X173990000Y-105156000D03*
D14*
%TO.P,U1,38,GND*%
%TO.N,GND*%
X176530000Y-106056000D03*
D16*
X176530000Y-105156000D03*
D14*
%TO.P,U1,39,VSYS*%
%TO.N,Net-(D5-Pad1)*%
X179070000Y-106056000D03*
D15*
X179070000Y-105156000D03*
D14*
%TO.P,U1,40,VBUS*%
%TO.N,unconnected-(U1-Pad40)*%
X181610000Y-106056000D03*
D15*
X181610000Y-105156000D03*
%TO.P,U1,41,SWCLK*%
%TO.N,unconnected-(U1-Pad41)*%
X133580000Y-93726000D03*
D17*
X132680000Y-93726000D03*
D16*
%TO.P,U1,42,GND*%
%TO.N,unconnected-(U1-Pad42)*%
X133580000Y-96266000D03*
D17*
X132680000Y-96266000D03*
D15*
%TO.P,U1,43,SWDIO*%
%TO.N,unconnected-(U1-Pad43)*%
X133580000Y-98806000D03*
D17*
X132680000Y-98806000D03*
%TD*%
D16*
%TO.P,J8,1,Pin_1*%
%TO.N,+5V*%
X189173000Y-78242000D03*
D15*
%TO.P,J8,2,Pin_2*%
%TO.N,GND*%
X189173000Y-80782000D03*
%TO.P,J8,3,Pin_3*%
X189173000Y-83322000D03*
%TO.P,J8,4,Pin_4*%
%TO.N,unconnected-(J8-Pad4)*%
X189173000Y-85862000D03*
%TD*%
D18*
%TO.P,SW2,*%
%TO.N,*%
X114688500Y-76942000D03*
X114688500Y-69932000D03*
D19*
%TO.P,SW2,1,1*%
%TO.N,+3.3V*%
X112198500Y-75692000D03*
%TO.P,SW2,2,2*%
%TO.N,BT_FD1*%
X112198500Y-71192000D03*
%TD*%
D16*
%TO.P,J15,1,Pin_1*%
%TO.N,+5V*%
X189173000Y-65034000D03*
D15*
%TO.P,J15,2,Pin_2*%
%TO.N,GND*%
X189173000Y-67574000D03*
%TO.P,J15,3,Pin_3*%
X189173000Y-70114000D03*
%TO.P,J15,4,Pin_4*%
%TO.N,unconnected-(J15-Pad4)*%
X189173000Y-72654000D03*
%TD*%
D10*
%TO.P,R4,1*%
%TO.N,Net-(D4-Pad2)*%
X114300000Y-54102000D03*
D13*
%TO.P,R4,2*%
%TO.N,LED_F1_Red*%
X114300000Y-61722000D03*
%TD*%
D10*
%TO.P,R2,1*%
%TO.N,Net-(D2-Pad2)*%
X119126000Y-54102000D03*
D13*
%TO.P,R2,2*%
%TO.N,LEDFD1*%
X119126000Y-61722000D03*
%TD*%
D20*
%TO.P,J1,1,Pin_1*%
%TO.N,GND*%
X177546000Y-113428500D03*
D21*
%TO.P,J1,2,Pin_2*%
%TO.N,~{DENSITY}*%
X177546000Y-115968500D03*
%TO.P,J1,3,Pin_3*%
%TO.N,unconnected-(J1-Pad3)*%
X175006000Y-113428500D03*
%TO.P,J1,4,Pin_4*%
%TO.N,unconnected-(J1-Pad4)*%
X175006000Y-115968500D03*
%TO.P,J1,5,Pin_5*%
%TO.N,GND*%
X172466000Y-113428500D03*
%TO.P,J1,6,Pin_6*%
%TO.N,~{DS3}*%
X172466000Y-115968500D03*
%TO.P,J1,7,Pin_7*%
%TO.N,GND*%
X169926000Y-113428500D03*
%TO.P,J1,8,Pin_8*%
%TO.N,~{INDEX}*%
X169926000Y-115968500D03*
%TO.P,J1,9,Pin_9*%
%TO.N,GND*%
X167386000Y-113428500D03*
%TO.P,J1,10,Pin_10*%
%TO.N,~{DS0}*%
X167386000Y-115968500D03*
%TO.P,J1,11,Pin_11*%
%TO.N,GND*%
X164846000Y-113428500D03*
%TO.P,J1,12,Pin_12*%
%TO.N,~{DS1}*%
X164846000Y-115968500D03*
%TO.P,J1,13,Pin_13*%
%TO.N,GND*%
X162306000Y-113428500D03*
%TO.P,J1,14,Pin_14*%
%TO.N,~{DS2}*%
X162306000Y-115968500D03*
%TO.P,J1,15,Pin_15*%
%TO.N,GND*%
X159766000Y-113428500D03*
%TO.P,J1,16,Pin_16*%
%TO.N,~{MOTOR}*%
X159766000Y-115968500D03*
%TO.P,J1,17,Pin_17*%
%TO.N,GND*%
X157226000Y-113428500D03*
%TO.P,J1,18,Pin_18*%
%TO.N,~{DIR}*%
X157226000Y-115968500D03*
%TO.P,J1,19,Pin_19*%
%TO.N,GND*%
X154686000Y-113428500D03*
%TO.P,J1,20,Pin_20*%
%TO.N,~{STEP}*%
X154686000Y-115968500D03*
%TO.P,J1,21,Pin_21*%
%TO.N,GND*%
X152146000Y-113428500D03*
%TO.P,J1,22,Pin_22*%
%TO.N,~{WDATA}*%
X152146000Y-115968500D03*
%TO.P,J1,23,Pin_23*%
%TO.N,GND*%
X149606000Y-113428500D03*
%TO.P,J1,24,Pin_24*%
%TO.N,~{WGATE}*%
X149606000Y-115968500D03*
%TO.P,J1,25,Pin_25*%
%TO.N,GND*%
X147066000Y-113428500D03*
%TO.P,J1,26,Pin_26*%
%TO.N,~{TRK0}*%
X147066000Y-115968500D03*
%TO.P,J1,27,Pin_27*%
%TO.N,GND*%
X144526000Y-113428500D03*
%TO.P,J1,28,Pin_28*%
%TO.N,~{WPROT}*%
X144526000Y-115968500D03*
%TO.P,J1,29,Pin_29*%
%TO.N,GND*%
X141986000Y-113428500D03*
%TO.P,J1,30,Pin_30*%
%TO.N,~{RDATA}*%
X141986000Y-115968500D03*
%TO.P,J1,31,Pin_31*%
%TO.N,GND*%
X139446000Y-113428500D03*
%TO.P,J1,32,Pin_32*%
%TO.N,~{SIDE}*%
X139446000Y-115968500D03*
%TO.P,J1,33,Pin_33*%
%TO.N,GND*%
X136906000Y-113428500D03*
%TO.P,J1,34,Pin_34*%
%TO.N,~{RDY}*%
X136906000Y-115968500D03*
%TD*%
D22*
%TO.P,D5,1,K*%
%TO.N,Net-(D5-Pad1)*%
X187706000Y-104394000D03*
D23*
%TO.P,D5,2,A*%
%TO.N,+5V*%
X187706000Y-91694000D03*
%TD*%
D10*
%TO.P,R6,1*%
%TO.N,GND*%
X114300000Y-90678000D03*
D13*
%TO.P,R6,2*%
%TO.N,BT_FD1*%
X114300000Y-83058000D03*
%TD*%
D24*
%TO.P,U2,1,A->B*%
%TO.N,GND*%
X130307000Y-74666000D03*
D13*
%TO.P,U2,2,A0*%
%TO.N,~{OPT0'}*%
X132847000Y-74666000D03*
%TO.P,U2,3,A1*%
%TO.N,~{OPT1'}*%
X135387000Y-74666000D03*
%TO.P,U2,4,A2*%
%TO.N,~{OPT2'}*%
X137927000Y-74666000D03*
%TO.P,U2,5,A3*%
%TO.N,~{OPT3'}*%
X140467000Y-74666000D03*
%TO.P,U2,6,A4*%
%TO.N,~{EJECT'}*%
X143007000Y-74666000D03*
%TO.P,U2,7,A5*%
%TO.N,~{EjectMSK'}*%
X145547000Y-74666000D03*
%TO.P,U2,8,A6*%
%TO.N,~{LED_BLINK'}*%
X148087000Y-74666000D03*
%TO.P,U2,9,A7*%
%TO.N,~{MOTOR'}*%
X150627000Y-74666000D03*
%TO.P,U2,10,GND*%
%TO.N,GND*%
X153167000Y-74666000D03*
%TO.P,U2,11,B7*%
%TO.N,~{MOTOR}*%
X153167000Y-67046000D03*
%TO.P,U2,12,B6*%
%TO.N,~{LED_BLINK}*%
X150627000Y-67046000D03*
%TO.P,U2,13,B5*%
%TO.N,~{EjectMSK}*%
X148087000Y-67046000D03*
%TO.P,U2,14,B4*%
%TO.N,~{EJECT}*%
X145547000Y-67046000D03*
%TO.P,U2,15,B3*%
%TO.N,~{OPT3}*%
X143007000Y-67046000D03*
%TO.P,U2,16,B2*%
%TO.N,~{OPT2}*%
X140467000Y-67046000D03*
%TO.P,U2,17,B1*%
%TO.N,~{OPT1}*%
X137927000Y-67046000D03*
%TO.P,U2,18,B0*%
%TO.N,~{OPT0}*%
X135387000Y-67046000D03*
%TO.P,U2,19,CE*%
%TO.N,GND*%
X132847000Y-67046000D03*
%TO.P,U2,20,VCC*%
%TO.N,+3.3V*%
X130307000Y-67046000D03*
%TD*%
D11*
%TO.P,D2,1,K*%
%TO.N,GND*%
X121920000Y-77729000D03*
D12*
%TO.P,D2,2,A*%
%TO.N,Net-(D2-Pad2)*%
X121920000Y-75189000D03*
%TD*%
D18*
%TO.P,SW1,*%
%TO.N,*%
X114758000Y-106152000D03*
X114758000Y-99142000D03*
D19*
%TO.P,SW1,1,1*%
%TO.N,+3.3V*%
X112268000Y-104902000D03*
%TO.P,SW1,2,2*%
%TO.N,BT_FD0*%
X112268000Y-100402000D03*
%TD*%
D25*
%TO.P,J2,1,Pin_1*%
%TO.N,~{OPT0}*%
X136652000Y-61831500D03*
D21*
%TO.P,J2,2,Pin_2*%
%TO.N,~{DENSITY}*%
X136652000Y-59291500D03*
%TO.P,J2,3,Pin_3*%
%TO.N,~{OPT1}*%
X139192000Y-61831500D03*
%TO.P,J2,4,Pin_4*%
%TO.N,unconnected-(J2-Pad4)*%
X139192000Y-59291500D03*
%TO.P,J2,5,Pin_5*%
%TO.N,~{OPT2}*%
X141732000Y-61831500D03*
%TO.P,J2,6,Pin_6*%
%TO.N,~{DS3}*%
X141732000Y-59291500D03*
%TO.P,J2,7,Pin_7*%
%TO.N,~{OPT3}*%
X144272000Y-61831500D03*
%TO.P,J2,8,Pin_8*%
%TO.N,~{INDEX}*%
X144272000Y-59291500D03*
%TO.P,J2,9,Pin_9*%
%TO.N,~{EJECT}*%
X146812000Y-61831500D03*
%TO.P,J2,10,Pin_10*%
%TO.N,~{DS0}*%
X146812000Y-59291500D03*
%TO.P,J2,11,Pin_11*%
%TO.N,~{EjectMSK}*%
X149352000Y-61831500D03*
%TO.P,J2,12,Pin_12*%
%TO.N,~{DS1}*%
X149352000Y-59291500D03*
%TO.P,J2,13,Pin_13*%
%TO.N,~{LED_BLINK}*%
X151892000Y-61831500D03*
%TO.P,J2,14,Pin_14*%
%TO.N,~{DS2}*%
X151892000Y-59291500D03*
%TO.P,J2,15,Pin_15*%
%TO.N,~{INSERTED}*%
X154432000Y-61831500D03*
%TO.P,J2,16,Pin_16*%
%TO.N,~{MOTOR}*%
X154432000Y-59291500D03*
%TO.P,J2,17,Pin_17*%
%TO.N,~{ERROR}*%
X156972000Y-61831500D03*
%TO.P,J2,18,Pin_18*%
%TO.N,~{DIR}*%
X156972000Y-59291500D03*
%TO.P,J2,19,Pin_19*%
%TO.N,~{FDDINT}*%
X159512000Y-61831500D03*
%TO.P,J2,20,Pin_20*%
%TO.N,~{STEP}*%
X159512000Y-59291500D03*
%TO.P,J2,21,Pin_21*%
%TO.N,GND*%
X162052000Y-61831500D03*
%TO.P,J2,22,Pin_22*%
%TO.N,~{WDATA}*%
X162052000Y-59291500D03*
%TO.P,J2,23,Pin_23*%
%TO.N,GND*%
X164592000Y-61831500D03*
%TO.P,J2,24,Pin_24*%
%TO.N,~{WGATE}*%
X164592000Y-59291500D03*
%TO.P,J2,25,Pin_25*%
%TO.N,GND*%
X167132000Y-61831500D03*
%TO.P,J2,26,Pin_26*%
%TO.N,~{TRK0}*%
X167132000Y-59291500D03*
%TO.P,J2,27,Pin_27*%
%TO.N,GND*%
X169672000Y-61831500D03*
%TO.P,J2,28,Pin_28*%
%TO.N,~{WPROT}*%
X169672000Y-59291500D03*
%TO.P,J2,29,Pin_29*%
%TO.N,GND*%
X172212000Y-61831500D03*
%TO.P,J2,30,Pin_30*%
%TO.N,~{RDATA}*%
X172212000Y-59291500D03*
%TO.P,J2,31,Pin_31*%
%TO.N,GND*%
X174752000Y-61831500D03*
%TO.P,J2,32,Pin_32*%
%TO.N,~{SIDE}*%
X174752000Y-59291500D03*
%TO.P,J2,33,Pin_33*%
%TO.N,GND*%
X177292000Y-61831500D03*
%TO.P,J2,34,Pin_34*%
%TO.N,~{RDY}*%
X177292000Y-59291500D03*
%TD*%
D10*
%TO.P,C1,1*%
%TO.N,+3.3V*%
X140228000Y-78740000D03*
%TO.P,C1,2*%
%TO.N,GND*%
X142728000Y-78740000D03*
%TD*%
D11*
%TO.P,D1,1,K*%
%TO.N,GND*%
X122174000Y-107447000D03*
D12*
%TO.P,D1,2,A*%
%TO.N,Net-(D1-Pad2)*%
X122174000Y-104907000D03*
%TD*%
D24*
%TO.P,U3,1,A->B*%
%TO.N,+3.3V*%
X159771000Y-74412000D03*
D13*
%TO.P,U3,2,A0*%
%TO.N,~{INSERTED'}*%
X162311000Y-74412000D03*
%TO.P,U3,3,A1*%
%TO.N,~{ERROR'}*%
X164851000Y-74412000D03*
%TO.P,U3,4,A2*%
%TO.N,~{FDDINT'}*%
X167391000Y-74412000D03*
%TO.P,U3,5,A3*%
%TO.N,unconnected-(U3-Pad5)*%
X169931000Y-74412000D03*
%TO.P,U3,6,A4*%
%TO.N,unconnected-(U3-Pad6)*%
X172471000Y-74412000D03*
%TO.P,U3,7,A5*%
%TO.N,unconnected-(U3-Pad7)*%
X175011000Y-74412000D03*
%TO.P,U3,8,A6*%
%TO.N,unconnected-(U3-Pad8)*%
X177551000Y-74412000D03*
%TO.P,U3,9,A7*%
%TO.N,unconnected-(U3-Pad9)*%
X180091000Y-74412000D03*
%TO.P,U3,10,GND*%
%TO.N,GND*%
X182631000Y-74412000D03*
%TO.P,U3,11,B7*%
%TO.N,unconnected-(U3-Pad11)*%
X182631000Y-66792000D03*
%TO.P,U3,12,B6*%
%TO.N,unconnected-(U3-Pad12)*%
X180091000Y-66792000D03*
%TO.P,U3,13,B5*%
%TO.N,unconnected-(U3-Pad13)*%
X177551000Y-66792000D03*
%TO.P,U3,14,B4*%
%TO.N,unconnected-(U3-Pad14)*%
X175011000Y-66792000D03*
%TO.P,U3,15,B3*%
%TO.N,unconnected-(U3-Pad15)*%
X172471000Y-66792000D03*
%TO.P,U3,16,B2*%
%TO.N,~{FDDINT}*%
X169931000Y-66792000D03*
%TO.P,U3,17,B1*%
%TO.N,~{ERROR}*%
X167391000Y-66792000D03*
%TO.P,U3,18,B0*%
%TO.N,~{INSERTED}*%
X164851000Y-66792000D03*
%TO.P,U3,19,CE*%
%TO.N,GND*%
X162311000Y-66792000D03*
%TO.P,U3,20,VCC*%
%TO.N,+3.3V*%
X159771000Y-66792000D03*
%TD*%
D26*
%TO.N,GND*%
X159766000Y-71882000D03*
%TO.N,~{DS3}*%
X174697400Y-76885800D03*
%TO.N,~{INDEX}*%
X142300700Y-92079200D03*
%TO.N,~{DS0}*%
X168645500Y-65360200D03*
%TO.N,~{DS1}*%
X159206100Y-117510100D03*
%TO.N,~{DS2}*%
X151030200Y-76634100D03*
X159273100Y-68905800D03*
%TO.N,~{ERROR'}*%
X154606600Y-81204600D03*
%TD*%
D27*
%TO.N,+3.3V*%
X159771000Y-73401000D02*
X163075500Y-70096500D01*
X163075500Y-70096500D02*
X165727500Y-72748500D01*
X159771000Y-66792000D02*
X163075500Y-70096500D01*
X159771000Y-74412000D02*
X159771000Y-73401000D01*
%TO.N,GND*%
X159766000Y-71882000D02*
X156982000Y-74666000D01*
X156982000Y-74666000D02*
X153167000Y-74666000D01*
X130307000Y-73540900D02*
X127907700Y-71141500D01*
X166901100Y-117160000D02*
X170411000Y-117160000D01*
X163830000Y-88551100D02*
X163328400Y-89052700D01*
X144526000Y-113428500D02*
X147066000Y-113428500D01*
X166177900Y-116436800D02*
X166901100Y-117160000D01*
X172212000Y-61831500D02*
X169672000Y-61831500D01*
X163328400Y-89052700D02*
X153173900Y-89052700D01*
X122174000Y-107447000D02*
X123399100Y-107447000D01*
X171196000Y-116375000D02*
X171196000Y-113428500D01*
X181505900Y-74693300D02*
X177713200Y-78486000D01*
X164592000Y-61831500D02*
X162052000Y-61831500D01*
X153173900Y-89052700D02*
X152305100Y-88183900D01*
X114300000Y-90678000D02*
X114300000Y-92198300D01*
X157226000Y-113428500D02*
X159766000Y-113428500D01*
X172466000Y-113428500D02*
X173656600Y-114619100D01*
X152305100Y-88183900D02*
X152305100Y-87376000D01*
X131721900Y-67046000D02*
X131721900Y-67327300D01*
X141986000Y-113428500D02*
X144526000Y-113428500D01*
X166177900Y-113428500D02*
X167386000Y-113428500D01*
X166177900Y-113428500D02*
X166177900Y-116436800D01*
X182631000Y-74412000D02*
X181505900Y-74412000D01*
X122174000Y-100838000D02*
X122174000Y-99612900D01*
X121714600Y-99612900D02*
X122174000Y-99612900D01*
X127675200Y-71374000D02*
X121920000Y-71374000D01*
X162306000Y-113428500D02*
X164846000Y-113428500D01*
X121460500Y-76503900D02*
X121920000Y-76503900D01*
X120694900Y-75738300D02*
X121460500Y-76503900D01*
X121920000Y-72599100D02*
X120694900Y-73824200D01*
X163830000Y-87376000D02*
X163830000Y-88551100D01*
X173656600Y-114619100D02*
X176355400Y-114619100D01*
X121920000Y-71374000D02*
X121920000Y-72599100D01*
X120694900Y-73824200D02*
X120694900Y-75738300D01*
X176355400Y-114619100D02*
X177546000Y-113428500D01*
X159766000Y-113428500D02*
X162306000Y-113428500D01*
X164846000Y-113428500D02*
X166177900Y-113428500D01*
X167132000Y-61831500D02*
X164592000Y-61831500D01*
X154686000Y-113428500D02*
X157226000Y-113428500D01*
X129380600Y-113428500D02*
X123399100Y-107447000D01*
X136906000Y-113428500D02*
X129380600Y-113428500D01*
X177713200Y-78486000D02*
X172446000Y-78486000D01*
X171196000Y-113428500D02*
X172466000Y-113428500D01*
X131721900Y-67327300D02*
X127907700Y-71141500D01*
X149606000Y-113428500D02*
X152146000Y-113428500D01*
X130307000Y-74666000D02*
X130307000Y-73540900D01*
X114300000Y-92198300D02*
X121714600Y-99612900D01*
X121920000Y-77729000D02*
X121920000Y-76503900D01*
X174752000Y-61831500D02*
X172212000Y-61831500D01*
X181505900Y-74412000D02*
X181505900Y-74693300D01*
X170411000Y-117160000D02*
X171196000Y-116375000D01*
X127907700Y-71141500D02*
X127675200Y-71374000D01*
X132847000Y-67046000D02*
X131721900Y-67046000D01*
X169926000Y-113428500D02*
X171196000Y-113428500D01*
X139446000Y-113428500D02*
X141986000Y-113428500D01*
X152146000Y-113428500D02*
X154686000Y-113428500D01*
X147066000Y-113428500D02*
X149606000Y-113428500D01*
X151130000Y-87376000D02*
X152305100Y-87376000D01*
%TO.N,~{DENSITY}*%
X175354800Y-109207700D02*
X175354800Y-83938000D01*
X177546000Y-115968500D02*
X178751700Y-114762800D01*
X178751700Y-112604600D02*
X175354800Y-109207700D01*
X138015800Y-60655300D02*
X136652000Y-59291500D01*
X161817800Y-67920500D02*
X161041000Y-67143700D01*
X138015800Y-62349900D02*
X138015800Y-60655300D01*
X178751700Y-114762800D02*
X178751700Y-112604600D01*
X171288900Y-79872100D02*
X171288900Y-74137600D01*
X159993100Y-65353400D02*
X141019300Y-65353400D01*
X165071800Y-67920500D02*
X161817800Y-67920500D01*
X161041000Y-66401300D02*
X159993100Y-65353400D01*
X141019300Y-65353400D02*
X138015800Y-62349900D01*
X175354800Y-83938000D02*
X171288900Y-79872100D01*
X161041000Y-67143700D02*
X161041000Y-66401300D01*
X171288900Y-74137600D02*
X165071800Y-67920500D01*
%TO.N,~{DS3}*%
X171201000Y-66401700D02*
X168307200Y-63507900D01*
X173741000Y-75929400D02*
X173741000Y-71391200D01*
X173741000Y-71391200D02*
X171201000Y-68851200D01*
X142946800Y-58076700D02*
X141732000Y-59291500D01*
X174697400Y-76885800D02*
X173741000Y-75929400D01*
X160067500Y-58076700D02*
X142946800Y-58076700D01*
X168307200Y-61298100D02*
X167475800Y-60466700D01*
X160782000Y-58791200D02*
X160067500Y-58076700D01*
X168307200Y-63507900D02*
X168307200Y-61298100D01*
X160782000Y-59722500D02*
X160782000Y-58791200D01*
X167475800Y-60466700D02*
X161526200Y-60466700D01*
X171201000Y-68851200D02*
X171201000Y-66401700D01*
X161526200Y-60466700D02*
X160782000Y-59722500D01*
%TO.N,~{INDEX}*%
X165194800Y-104327100D02*
X152946900Y-92079200D01*
X169926000Y-115968500D02*
X168750800Y-114793300D01*
X168750800Y-114793300D02*
X168750800Y-113076900D01*
X168750800Y-113076900D02*
X165194800Y-109520900D01*
X165194800Y-109520900D02*
X165194800Y-104327100D01*
X152946900Y-92079200D02*
X142300700Y-92079200D01*
%TO.N,~{DS0}*%
X160782000Y-62273100D02*
X161515600Y-63006700D01*
X160782000Y-61409500D02*
X160782000Y-62273100D01*
X166292000Y-63006700D02*
X168645500Y-65360200D01*
X146812000Y-59291500D02*
X148099800Y-60579300D01*
X148099800Y-60579300D02*
X159951800Y-60579300D01*
X159951800Y-60579300D02*
X160782000Y-61409500D01*
X161515600Y-63006700D02*
X166292000Y-63006700D01*
%TO.N,~{DS1}*%
X163304400Y-117510100D02*
X159206100Y-117510100D01*
X164846000Y-115968500D02*
X163304400Y-117510100D01*
%TO.N,~{DS2}*%
X151752200Y-74476000D02*
X157322400Y-68905800D01*
X157322400Y-68905800D02*
X159273100Y-68905800D01*
X151752200Y-75912100D02*
X151752200Y-74476000D01*
X151030200Y-76634100D02*
X151752200Y-75912100D01*
%TO.N,~{WDATA}*%
X150876000Y-114698500D02*
X152146000Y-115968500D01*
X162052000Y-59291500D02*
X160350900Y-57590400D01*
X160350900Y-57590400D02*
X129062600Y-57590400D01*
X112472200Y-74180800D02*
X111922800Y-74180800D01*
X129062600Y-57590400D02*
X112472200Y-74180800D01*
X113881300Y-102652000D02*
X125927800Y-114698500D01*
X110970600Y-100822500D02*
X112800100Y-102652000D01*
X111922800Y-74180800D02*
X110970600Y-75133000D01*
X112800100Y-102652000D02*
X113881300Y-102652000D01*
X110970600Y-75133000D02*
X110970600Y-100822500D01*
X125927800Y-114698500D02*
X150876000Y-114698500D01*
%TO.N,~{WGATE}*%
X189567100Y-68844000D02*
X190348200Y-69625100D01*
X165767200Y-58116300D02*
X178036600Y-58116300D01*
X179832000Y-100330000D02*
X179525200Y-100636800D01*
X164592000Y-59291500D02*
X165767200Y-58116300D01*
X179231300Y-115994100D02*
X176990100Y-118235300D01*
X183756200Y-93984200D02*
X179832000Y-97908400D01*
X188764300Y-68844000D02*
X189567100Y-68844000D01*
X179832000Y-97908400D02*
X179832000Y-100330000D01*
X177894800Y-102469500D02*
X177894800Y-109782700D01*
X183756200Y-81499100D02*
X183756200Y-93984200D01*
X179231300Y-111119200D02*
X179231300Y-115994100D01*
X178036600Y-58116300D02*
X188764300Y-68844000D01*
X179525200Y-100636800D02*
X179525200Y-100839100D01*
X176990100Y-118235300D02*
X151872800Y-118235300D01*
X151872800Y-118235300D02*
X149606000Y-115968500D01*
X190348200Y-69625100D02*
X190348200Y-74907100D01*
X190348200Y-74907100D02*
X183756200Y-81499100D01*
X179525200Y-100839100D02*
X177894800Y-102469500D01*
X177894800Y-109782700D02*
X179231300Y-111119200D01*
%TO.N,~{INSERTED}*%
X154432000Y-61831500D02*
X157367200Y-64766700D01*
X157367200Y-64766700D02*
X161893200Y-64766700D01*
X161893200Y-64766700D02*
X163725900Y-66599400D01*
X163725900Y-66599400D02*
X163725900Y-66792000D01*
X164851000Y-66792000D02*
X163725900Y-66792000D01*
%TO.N,~{ERROR}*%
X156972000Y-61831500D02*
X159457000Y-64316500D01*
X159457000Y-64316500D02*
X164071700Y-64316500D01*
X166265900Y-66510700D02*
X166265900Y-66792000D01*
X164071700Y-64316500D02*
X166265900Y-66510700D01*
X167391000Y-66792000D02*
X166265900Y-66792000D01*
%TO.N,~{FDDINT}*%
X161501300Y-63820800D02*
X159512000Y-61831500D01*
X169931000Y-66792000D02*
X168805900Y-66792000D01*
X168805900Y-66792000D02*
X168805900Y-66597900D01*
X168805900Y-66597900D02*
X166028800Y-63820800D01*
X166028800Y-63820800D02*
X161501300Y-63820800D01*
%TO.N,+5V*%
X189173000Y-78242000D02*
X189173000Y-79417100D01*
X187706000Y-80516900D02*
X187706000Y-91694000D01*
X189173000Y-79417100D02*
X188805800Y-79417100D01*
X188805800Y-79417100D02*
X187706000Y-80516900D01*
%TO.N,+3.3V*%
X159771000Y-66792000D02*
X158645900Y-66792000D01*
X131479100Y-65873900D02*
X157727800Y-65873900D01*
X112198500Y-75692000D02*
X120844500Y-67046000D01*
X157727800Y-65873900D02*
X158645900Y-66792000D01*
X168587100Y-73960400D02*
X168587100Y-77127100D01*
X165727500Y-72748500D02*
X167375200Y-72748500D01*
X168587100Y-77127100D02*
X169946000Y-78486000D01*
X167375200Y-72748500D02*
X168587100Y-73960400D01*
X120844500Y-67046000D02*
X130307000Y-67046000D01*
X130307000Y-67046000D02*
X131479100Y-65873900D01*
%TO.N,BT_FD0*%
X133350000Y-105156000D02*
X133350000Y-103980900D01*
X119743100Y-90678000D02*
X133046000Y-103980900D01*
X118618000Y-90678000D02*
X119743100Y-90678000D01*
X133046000Y-103980900D02*
X133350000Y-103980900D01*
%TO.N,BT_FD1*%
X114300000Y-84183100D02*
X134097800Y-103980900D01*
X135890000Y-105156000D02*
X135890000Y-103980900D01*
X134097800Y-103980900D02*
X135890000Y-103980900D01*
X114300000Y-83058000D02*
X114300000Y-84183100D01*
%TO.N,~{OPT0'}*%
X132847000Y-75791100D02*
X139605200Y-82549300D01*
X139605200Y-88211000D02*
X142397000Y-91002800D01*
X132847000Y-74666000D02*
X132847000Y-75791100D01*
X139605200Y-82549300D02*
X139605200Y-88211000D01*
X142397000Y-91002800D02*
X171538300Y-91002800D01*
X171538300Y-91002800D02*
X173990000Y-88551100D01*
X173990000Y-87376000D02*
X173990000Y-88551100D01*
%TO.N,~{OPT1'}*%
X170274900Y-87376000D02*
X170274900Y-88188500D01*
X171450000Y-87376000D02*
X170274900Y-87376000D01*
X135387000Y-74666000D02*
X135387000Y-75791100D01*
X170274900Y-88188500D02*
X167910800Y-90552600D01*
X167910800Y-90552600D02*
X144522000Y-90552600D01*
X144522000Y-90552600D02*
X142145200Y-88175800D01*
X142145200Y-82549300D02*
X135387000Y-75791100D01*
X142145200Y-88175800D02*
X142145200Y-82549300D01*
%TO.N,~{OPT2'}*%
X137927000Y-74666000D02*
X137927000Y-75791100D01*
X168910000Y-88551100D02*
X167413300Y-90047800D01*
X146485400Y-90047800D02*
X144685200Y-88247600D01*
X167413300Y-90047800D02*
X146485400Y-90047800D01*
X168910000Y-87376000D02*
X168910000Y-88551100D01*
X144685200Y-88247600D02*
X144685200Y-82714900D01*
X138911500Y-75791100D02*
X137927000Y-75791100D01*
X144685200Y-82714900D02*
X141353200Y-79382900D01*
X141353200Y-78232800D02*
X138911500Y-75791100D01*
X141353200Y-79382900D02*
X141353200Y-78232800D01*
%TO.N,~{OPT3'}*%
X166370000Y-87376000D02*
X166370000Y-88551100D01*
X166370000Y-88551100D02*
X165408800Y-89512300D01*
X141451500Y-75791100D02*
X140467000Y-75791100D01*
X147225200Y-81564800D02*
X141451500Y-75791100D01*
X147225200Y-88185100D02*
X147225200Y-81564800D01*
X140467000Y-74666000D02*
X140467000Y-75791100D01*
X165408800Y-89512300D02*
X148552400Y-89512300D01*
X148552400Y-89512300D02*
X147225200Y-88185100D01*
%TO.N,~{EJECT'}*%
X161290000Y-87376000D02*
X161290000Y-88551100D01*
X144132100Y-74384700D02*
X144132100Y-74666000D01*
X146011700Y-73530000D02*
X144986800Y-73530000D01*
X154940000Y-88328000D02*
X154940000Y-83169200D01*
X154940000Y-83169200D02*
X146817000Y-75046200D01*
X161290000Y-88551100D02*
X155163100Y-88551100D01*
X146817000Y-75046200D02*
X146817000Y-74335300D01*
X155163100Y-88551100D02*
X154940000Y-88328000D01*
X146817000Y-74335300D02*
X146011700Y-73530000D01*
X144986800Y-73530000D02*
X144132100Y-74384700D01*
X143007000Y-74666000D02*
X144132100Y-74666000D01*
%TO.N,~{FDDINT'}*%
X156210000Y-85874300D02*
X156210000Y-87376000D01*
X166547200Y-75537100D02*
X156210000Y-85874300D01*
X167391000Y-74412000D02*
X167391000Y-75537100D01*
X167391000Y-75537100D02*
X166547200Y-75537100D01*
%TO.N,~{ERROR'}*%
X163725900Y-74693300D02*
X157214600Y-81204600D01*
X164851000Y-74412000D02*
X163725900Y-74412000D01*
X157214600Y-81204600D02*
X154606600Y-81204600D01*
X163725900Y-74412000D02*
X163725900Y-74693300D01*
%TO.N,~{EjectMSK'}*%
X148590000Y-78834100D02*
X148590000Y-87376000D01*
X145547000Y-74666000D02*
X145547000Y-75791100D01*
X145547000Y-75791100D02*
X148590000Y-78834100D01*
%TO.N,Net-(D5-Pad1)*%
X179070000Y-105156000D02*
X180245100Y-105156000D01*
X185754000Y-103967100D02*
X186180900Y-104394000D01*
X187706000Y-104394000D02*
X186180900Y-104394000D01*
X180626100Y-103967100D02*
X185754000Y-103967100D01*
X180245100Y-104348100D02*
X180626100Y-103967100D01*
X180245100Y-105156000D02*
X180245100Y-104348100D01*
%TD*%
M02*
