%TF.GenerationSoftware,KiCad,Pcbnew,(6.0.6)*%
%TF.CreationDate,2023-06-21T15:59:23+02:00*%
%TF.ProjectId,X68KFDPI,5836384b-4644-4504-992e-6b696361645f,rev?*%
%TF.SameCoordinates,Original*%
%TF.FileFunction,Legend,Top*%
%TF.FilePolarity,Positive*%
%FSLAX46Y46*%
G04 Gerber Fmt 4.6, Leading zero omitted, Abs format (unit mm)*
G04 Created by KiCad (PCBNEW (6.0.6)) date 2023-06-21 15:59:23*
%MOMM*%
%LPD*%
G01*
G04 APERTURE LIST*
%ADD10C,0.150000*%
%ADD11C,0.200000*%
%ADD12C,0.120000*%
G04 APERTURE END LIST*
D10*
X127468380Y-120083809D02*
X128468380Y-119417142D01*
X127468380Y-119417142D02*
X128468380Y-120083809D01*
X127468380Y-118607619D02*
X127468380Y-118798095D01*
X127516000Y-118893333D01*
X127563619Y-118940952D01*
X127706476Y-119036190D01*
X127896952Y-119083809D01*
X128277904Y-119083809D01*
X128373142Y-119036190D01*
X128420761Y-118988571D01*
X128468380Y-118893333D01*
X128468380Y-118702857D01*
X128420761Y-118607619D01*
X128373142Y-118559999D01*
X128277904Y-118512380D01*
X128039809Y-118512380D01*
X127944571Y-118559999D01*
X127896952Y-118607619D01*
X127849333Y-118702857D01*
X127849333Y-118893333D01*
X127896952Y-118988571D01*
X127944571Y-119036190D01*
X128039809Y-119083809D01*
X127896952Y-117940952D02*
X127849333Y-118036190D01*
X127801714Y-118083809D01*
X127706476Y-118131428D01*
X127658857Y-118131428D01*
X127563619Y-118083809D01*
X127516000Y-118036190D01*
X127468380Y-117940952D01*
X127468380Y-117750476D01*
X127516000Y-117655238D01*
X127563619Y-117607619D01*
X127658857Y-117559999D01*
X127706476Y-117559999D01*
X127801714Y-117607619D01*
X127849333Y-117655238D01*
X127896952Y-117750476D01*
X127896952Y-117940952D01*
X127944571Y-118036190D01*
X127992190Y-118083809D01*
X128087428Y-118131428D01*
X128277904Y-118131428D01*
X128373142Y-118083809D01*
X128420761Y-118036190D01*
X128468380Y-117940952D01*
X128468380Y-117750476D01*
X128420761Y-117655238D01*
X128373142Y-117607619D01*
X128277904Y-117559999D01*
X128087428Y-117559999D01*
X127992190Y-117607619D01*
X127944571Y-117655238D01*
X127896952Y-117750476D01*
X127468380Y-116940952D02*
X127468380Y-116845714D01*
X127516000Y-116750476D01*
X127563619Y-116702857D01*
X127658857Y-116655238D01*
X127849333Y-116607619D01*
X128087428Y-116607619D01*
X128277904Y-116655238D01*
X128373142Y-116702857D01*
X128420761Y-116750476D01*
X128468380Y-116845714D01*
X128468380Y-116940952D01*
X128420761Y-117036190D01*
X128373142Y-117083809D01*
X128277904Y-117131428D01*
X128087428Y-117179047D01*
X127849333Y-117179047D01*
X127658857Y-117131428D01*
X127563619Y-117083809D01*
X127516000Y-117036190D01*
X127468380Y-116940952D01*
X127468380Y-115988571D02*
X127468380Y-115893333D01*
X127516000Y-115798095D01*
X127563619Y-115750476D01*
X127658857Y-115702857D01*
X127849333Y-115655238D01*
X128087428Y-115655238D01*
X128277904Y-115702857D01*
X128373142Y-115750476D01*
X128420761Y-115798095D01*
X128468380Y-115893333D01*
X128468380Y-115988571D01*
X128420761Y-116083809D01*
X128373142Y-116131428D01*
X128277904Y-116179047D01*
X128087428Y-116226666D01*
X127849333Y-116226666D01*
X127658857Y-116179047D01*
X127563619Y-116131428D01*
X127516000Y-116083809D01*
X127468380Y-115988571D01*
X127468380Y-115036190D02*
X127468380Y-114940952D01*
X127516000Y-114845714D01*
X127563619Y-114798095D01*
X127658857Y-114750476D01*
X127849333Y-114702857D01*
X128087428Y-114702857D01*
X128277904Y-114750476D01*
X128373142Y-114798095D01*
X128420761Y-114845714D01*
X128468380Y-114940952D01*
X128468380Y-115036190D01*
X128420761Y-115131428D01*
X128373142Y-115179047D01*
X128277904Y-115226666D01*
X128087428Y-115274285D01*
X127849333Y-115274285D01*
X127658857Y-115226666D01*
X127563619Y-115179047D01*
X127516000Y-115131428D01*
X127468380Y-115036190D01*
X128420761Y-113131428D02*
X128468380Y-113226666D01*
X128468380Y-113417142D01*
X128420761Y-113512380D01*
X128325523Y-113559999D01*
X127944571Y-113559999D01*
X127849333Y-113512380D01*
X127801714Y-113417142D01*
X127801714Y-113226666D01*
X127849333Y-113131428D01*
X127944571Y-113083809D01*
X128039809Y-113083809D01*
X128135047Y-113559999D01*
X128468380Y-112750476D02*
X127801714Y-112226666D01*
X127801714Y-112750476D02*
X128468380Y-112226666D01*
X127801714Y-111988571D02*
X127801714Y-111607619D01*
X127468380Y-111845714D02*
X128325523Y-111845714D01*
X128420761Y-111798095D01*
X128468380Y-111702857D01*
X128468380Y-111607619D01*
X128420761Y-110893333D02*
X128468380Y-110988571D01*
X128468380Y-111179047D01*
X128420761Y-111274285D01*
X128325523Y-111321904D01*
X127944571Y-111321904D01*
X127849333Y-111274285D01*
X127801714Y-111179047D01*
X127801714Y-110988571D01*
X127849333Y-110893333D01*
X127944571Y-110845714D01*
X128039809Y-110845714D01*
X128135047Y-111321904D01*
X128468380Y-110417142D02*
X127801714Y-110417142D01*
X127992190Y-110417142D02*
X127896952Y-110369523D01*
X127849333Y-110321904D01*
X127801714Y-110226666D01*
X127801714Y-110131428D01*
X127801714Y-109798095D02*
X128468380Y-109798095D01*
X127896952Y-109798095D02*
X127849333Y-109750476D01*
X127801714Y-109655238D01*
X127801714Y-109512380D01*
X127849333Y-109417142D01*
X127944571Y-109369523D01*
X128468380Y-109369523D01*
X128468380Y-108464761D02*
X127944571Y-108464761D01*
X127849333Y-108512380D01*
X127801714Y-108607619D01*
X127801714Y-108798095D01*
X127849333Y-108893333D01*
X128420761Y-108464761D02*
X128468380Y-108559999D01*
X128468380Y-108798095D01*
X128420761Y-108893333D01*
X128325523Y-108940952D01*
X128230285Y-108940952D01*
X128135047Y-108893333D01*
X128087428Y-108798095D01*
X128087428Y-108559999D01*
X128039809Y-108464761D01*
X128468380Y-107845714D02*
X128420761Y-107940952D01*
X128325523Y-107988571D01*
X127468380Y-107988571D01*
X127944571Y-106369523D02*
X127944571Y-106702857D01*
X128468380Y-106702857D02*
X127468380Y-106702857D01*
X127468380Y-106226666D01*
X128468380Y-105702857D02*
X128420761Y-105798095D01*
X128325523Y-105845714D01*
X127468380Y-105845714D01*
X128468380Y-105179047D02*
X128420761Y-105274285D01*
X128373142Y-105321904D01*
X128277904Y-105369523D01*
X127992190Y-105369523D01*
X127896952Y-105321904D01*
X127849333Y-105274285D01*
X127801714Y-105179047D01*
X127801714Y-105036190D01*
X127849333Y-104940952D01*
X127896952Y-104893333D01*
X127992190Y-104845714D01*
X128277904Y-104845714D01*
X128373142Y-104893333D01*
X128420761Y-104940952D01*
X128468380Y-105036190D01*
X128468380Y-105179047D01*
X127801714Y-104417142D02*
X128801714Y-104417142D01*
X127849333Y-104417142D02*
X127801714Y-104321904D01*
X127801714Y-104131428D01*
X127849333Y-104036190D01*
X127896952Y-103988571D01*
X127992190Y-103940952D01*
X128277904Y-103940952D01*
X128373142Y-103988571D01*
X128420761Y-104036190D01*
X128468380Y-104131428D01*
X128468380Y-104321904D01*
X128420761Y-104417142D01*
X127801714Y-103512380D02*
X128801714Y-103512380D01*
X127849333Y-103512380D02*
X127801714Y-103417142D01*
X127801714Y-103226666D01*
X127849333Y-103131428D01*
X127896952Y-103083809D01*
X127992190Y-103036190D01*
X128277904Y-103036190D01*
X128373142Y-103083809D01*
X128420761Y-103131428D01*
X128468380Y-103226666D01*
X128468380Y-103417142D01*
X128420761Y-103512380D01*
X127801714Y-102702857D02*
X128468380Y-102464761D01*
X127801714Y-102226666D02*
X128468380Y-102464761D01*
X128706476Y-102559999D01*
X128754095Y-102607619D01*
X128801714Y-102702857D01*
X128182666Y-101131428D02*
X128182666Y-100655238D01*
X128468380Y-101226666D02*
X127468380Y-100893333D01*
X128468380Y-100560000D01*
X128468380Y-99798095D02*
X127468380Y-99798095D01*
X128420761Y-99798095D02*
X128468380Y-99893333D01*
X128468380Y-100083809D01*
X128420761Y-100179047D01*
X128373142Y-100226666D01*
X128277904Y-100274285D01*
X127992190Y-100274285D01*
X127896952Y-100226666D01*
X127849333Y-100179047D01*
X127801714Y-100083809D01*
X127801714Y-99893333D01*
X127849333Y-99798095D01*
X128468380Y-98893333D02*
X127944571Y-98893333D01*
X127849333Y-98940952D01*
X127801714Y-99036190D01*
X127801714Y-99226666D01*
X127849333Y-99321904D01*
X128420761Y-98893333D02*
X128468380Y-98988571D01*
X128468380Y-99226666D01*
X128420761Y-99321904D01*
X128325523Y-99369523D01*
X128230285Y-99369523D01*
X128135047Y-99321904D01*
X128087428Y-99226666D01*
X128087428Y-98988571D01*
X128039809Y-98893333D01*
X127801714Y-98417142D02*
X128801714Y-98417142D01*
X127849333Y-98417142D02*
X127801714Y-98321904D01*
X127801714Y-98131428D01*
X127849333Y-98036190D01*
X127896952Y-97988571D01*
X127992190Y-97940952D01*
X128277904Y-97940952D01*
X128373142Y-97988571D01*
X128420761Y-98036190D01*
X128468380Y-98131428D01*
X128468380Y-98321904D01*
X128420761Y-98417142D01*
X127801714Y-97655238D02*
X127801714Y-97274285D01*
X127468380Y-97512380D02*
X128325523Y-97512380D01*
X128420761Y-97464761D01*
X128468380Y-97369523D01*
X128468380Y-97274285D01*
X128420761Y-96560000D02*
X128468380Y-96655238D01*
X128468380Y-96845714D01*
X128420761Y-96940952D01*
X128325523Y-96988571D01*
X127944571Y-96988571D01*
X127849333Y-96940952D01*
X127801714Y-96845714D01*
X127801714Y-96655238D01*
X127849333Y-96560000D01*
X127944571Y-96512380D01*
X128039809Y-96512380D01*
X128135047Y-96988571D01*
X128468380Y-96083809D02*
X127801714Y-96083809D01*
X127992190Y-96083809D02*
X127896952Y-96036190D01*
X127849333Y-95988571D01*
X127801714Y-95893333D01*
X127801714Y-95798095D01*
X128468380Y-94702857D02*
X127468380Y-94702857D01*
X127849333Y-94702857D02*
X127801714Y-94607619D01*
X127801714Y-94417142D01*
X127849333Y-94321904D01*
X127896952Y-94274285D01*
X127992190Y-94226666D01*
X128277904Y-94226666D01*
X128373142Y-94274285D01*
X128420761Y-94321904D01*
X128468380Y-94417142D01*
X128468380Y-94607619D01*
X128420761Y-94702857D01*
X127801714Y-93893333D02*
X128468380Y-93655238D01*
X127801714Y-93417142D02*
X128468380Y-93655238D01*
X128706476Y-93750476D01*
X128754095Y-93798095D01*
X128801714Y-93893333D01*
X128182666Y-92321904D02*
X128182666Y-91845714D01*
X128468380Y-92417142D02*
X127468380Y-92083809D01*
X128468380Y-91750476D01*
X128373142Y-91417142D02*
X128420761Y-91369523D01*
X128468380Y-91417142D01*
X128420761Y-91464761D01*
X128373142Y-91417142D01*
X128468380Y-91417142D01*
X127468380Y-89988571D02*
X127468380Y-89798095D01*
X127516000Y-89702857D01*
X127611238Y-89607619D01*
X127801714Y-89560000D01*
X128135047Y-89560000D01*
X128325523Y-89607619D01*
X128420761Y-89702857D01*
X128468380Y-89798095D01*
X128468380Y-89988571D01*
X128420761Y-90083809D01*
X128325523Y-90179047D01*
X128135047Y-90226666D01*
X127801714Y-90226666D01*
X127611238Y-90179047D01*
X127516000Y-90083809D01*
X127468380Y-89988571D01*
X127801714Y-89274285D02*
X127801714Y-88893333D01*
X127468380Y-89131428D02*
X128325523Y-89131428D01*
X128420761Y-89083809D01*
X128468380Y-88988571D01*
X128468380Y-88893333D01*
X127801714Y-88702857D02*
X127801714Y-88321904D01*
X127468380Y-88560000D02*
X128325523Y-88560000D01*
X128420761Y-88512380D01*
X128468380Y-88417142D01*
X128468380Y-88321904D01*
X128468380Y-87560000D02*
X127944571Y-87560000D01*
X127849333Y-87607619D01*
X127801714Y-87702857D01*
X127801714Y-87893333D01*
X127849333Y-87988571D01*
X128420761Y-87560000D02*
X128468380Y-87655238D01*
X128468380Y-87893333D01*
X128420761Y-87988571D01*
X128325523Y-88036190D01*
X128230285Y-88036190D01*
X128135047Y-87988571D01*
X128087428Y-87893333D01*
X128087428Y-87655238D01*
X128039809Y-87560000D01*
X127801714Y-87179047D02*
X128468380Y-86940952D01*
X127801714Y-86702857D01*
X128468380Y-86321904D02*
X127801714Y-86321904D01*
X127468380Y-86321904D02*
X127516000Y-86369523D01*
X127563619Y-86321904D01*
X127516000Y-86274285D01*
X127468380Y-86321904D01*
X127563619Y-86321904D01*
X128468380Y-85417142D02*
X127944571Y-85417142D01*
X127849333Y-85464761D01*
X127801714Y-85560000D01*
X127801714Y-85750476D01*
X127849333Y-85845714D01*
X128420761Y-85417142D02*
X128468380Y-85512380D01*
X128468380Y-85750476D01*
X128420761Y-85845714D01*
X128325523Y-85893333D01*
X128230285Y-85893333D01*
X128135047Y-85845714D01*
X128087428Y-85750476D01*
X128087428Y-85512380D01*
X128039809Y-85417142D01*
X127801714Y-84940952D02*
X128468380Y-84940952D01*
X127896952Y-84940952D02*
X127849333Y-84893333D01*
X127801714Y-84798095D01*
X127801714Y-84655238D01*
X127849333Y-84560000D01*
X127944571Y-84512380D01*
X128468380Y-84512380D01*
X128468380Y-84036190D02*
X127801714Y-84036190D01*
X127468380Y-84036190D02*
X127516000Y-84083809D01*
X127563619Y-84036190D01*
X127516000Y-83988571D01*
X127468380Y-84036190D01*
X127563619Y-84036190D01*
X128849333Y-82512380D02*
X128801714Y-82560000D01*
X128658857Y-82655238D01*
X128563619Y-82702857D01*
X128420761Y-82750476D01*
X128182666Y-82798095D01*
X127992190Y-82798095D01*
X127754095Y-82750476D01*
X127611238Y-82702857D01*
X127516000Y-82655238D01*
X127373142Y-82560000D01*
X127325523Y-82512380D01*
X127563619Y-82179047D02*
X127516000Y-82131428D01*
X127468380Y-82036190D01*
X127468380Y-81798095D01*
X127516000Y-81702857D01*
X127563619Y-81655238D01*
X127658857Y-81607619D01*
X127754095Y-81607619D01*
X127896952Y-81655238D01*
X128468380Y-82226666D01*
X128468380Y-81607619D01*
X127468380Y-80988571D02*
X127468380Y-80893333D01*
X127516000Y-80798095D01*
X127563619Y-80750476D01*
X127658857Y-80702857D01*
X127849333Y-80655238D01*
X128087428Y-80655238D01*
X128277904Y-80702857D01*
X128373142Y-80750476D01*
X128420761Y-80798095D01*
X128468380Y-80893333D01*
X128468380Y-80988571D01*
X128420761Y-81083809D01*
X128373142Y-81131428D01*
X128277904Y-81179047D01*
X128087428Y-81226666D01*
X127849333Y-81226666D01*
X127658857Y-81179047D01*
X127563619Y-81131428D01*
X127516000Y-81083809D01*
X127468380Y-80988571D01*
X127563619Y-80274285D02*
X127516000Y-80226666D01*
X127468380Y-80131428D01*
X127468380Y-79893333D01*
X127516000Y-79798095D01*
X127563619Y-79750476D01*
X127658857Y-79702857D01*
X127754095Y-79702857D01*
X127896952Y-79750476D01*
X128468380Y-80321904D01*
X128468380Y-79702857D01*
X127468380Y-79369523D02*
X127468380Y-78750476D01*
X127849333Y-79083809D01*
X127849333Y-78940952D01*
X127896952Y-78845714D01*
X127944571Y-78798095D01*
X128039809Y-78750476D01*
X128277904Y-78750476D01*
X128373142Y-78798095D01*
X128420761Y-78845714D01*
X128468380Y-78940952D01*
X128468380Y-79226666D01*
X128420761Y-79321904D01*
X128373142Y-79369523D01*
X128849333Y-78417142D02*
X128801714Y-78369523D01*
X128658857Y-78274285D01*
X128563619Y-78226666D01*
X128420761Y-78179047D01*
X128182666Y-78131428D01*
X127992190Y-78131428D01*
X127754095Y-78179047D01*
X127611238Y-78226666D01*
X127516000Y-78274285D01*
X127373142Y-78369523D01*
X127325523Y-78417142D01*
D11*
X195095428Y-91060071D02*
X194381142Y-91060071D01*
X194309714Y-91774357D01*
X194381142Y-91702928D01*
X194524000Y-91631500D01*
X194881142Y-91631500D01*
X195024000Y-91702928D01*
X195095428Y-91774357D01*
X195166857Y-91917214D01*
X195166857Y-92274357D01*
X195095428Y-92417214D01*
X195024000Y-92488642D01*
X194881142Y-92560071D01*
X194524000Y-92560071D01*
X194381142Y-92488642D01*
X194309714Y-92417214D01*
X195595428Y-91060071D02*
X196095428Y-92560071D01*
X196595428Y-91060071D01*
X194238285Y-93546500D02*
X194095428Y-93475071D01*
X193881142Y-93475071D01*
X193666857Y-93546500D01*
X193524000Y-93689357D01*
X193452571Y-93832214D01*
X193381142Y-94117928D01*
X193381142Y-94332214D01*
X193452571Y-94617928D01*
X193524000Y-94760785D01*
X193666857Y-94903642D01*
X193881142Y-94975071D01*
X194024000Y-94975071D01*
X194238285Y-94903642D01*
X194309714Y-94832214D01*
X194309714Y-94332214D01*
X194024000Y-94332214D01*
X194952571Y-94975071D02*
X194952571Y-93475071D01*
X195809714Y-94975071D01*
X195809714Y-93475071D01*
X196524000Y-94975071D02*
X196524000Y-93475071D01*
X196881142Y-93475071D01*
X197095428Y-93546500D01*
X197238285Y-93689357D01*
X197309714Y-93832214D01*
X197381142Y-94117928D01*
X197381142Y-94332214D01*
X197309714Y-94617928D01*
X197238285Y-94760785D01*
X197095428Y-94903642D01*
X196881142Y-94975071D01*
X196524000Y-94975071D01*
X194238285Y-95961500D02*
X194095428Y-95890071D01*
X193881142Y-95890071D01*
X193666857Y-95961500D01*
X193524000Y-96104357D01*
X193452571Y-96247214D01*
X193381142Y-96532928D01*
X193381142Y-96747214D01*
X193452571Y-97032928D01*
X193524000Y-97175785D01*
X193666857Y-97318642D01*
X193881142Y-97390071D01*
X194024000Y-97390071D01*
X194238285Y-97318642D01*
X194309714Y-97247214D01*
X194309714Y-96747214D01*
X194024000Y-96747214D01*
X194952571Y-97390071D02*
X194952571Y-95890071D01*
X195809714Y-97390071D01*
X195809714Y-95890071D01*
X196524000Y-97390071D02*
X196524000Y-95890071D01*
X196881142Y-95890071D01*
X197095428Y-95961500D01*
X197238285Y-96104357D01*
X197309714Y-96247214D01*
X197381142Y-96532928D01*
X197381142Y-96747214D01*
X197309714Y-97032928D01*
X197238285Y-97175785D01*
X197095428Y-97318642D01*
X196881142Y-97390071D01*
X196524000Y-97390071D01*
X194416857Y-98805071D02*
X194416857Y-99805071D01*
X194416857Y-98947928D02*
X194488285Y-98876500D01*
X194631142Y-98805071D01*
X194845428Y-98805071D01*
X194988285Y-98876500D01*
X195059714Y-99019357D01*
X195059714Y-99805071D01*
X196416857Y-99733642D02*
X196274000Y-99805071D01*
X195988285Y-99805071D01*
X195845428Y-99733642D01*
X195774000Y-99662214D01*
X195702571Y-99519357D01*
X195702571Y-99090785D01*
X195774000Y-98947928D01*
X195845428Y-98876500D01*
X195988285Y-98805071D01*
X196274000Y-98805071D01*
X196416857Y-98876500D01*
X109675714Y-63514571D02*
X111475714Y-63514571D01*
X110618571Y-63514571D02*
X110618571Y-64543142D01*
X109675714Y-64543142D02*
X111475714Y-64543142D01*
X109675714Y-65400285D02*
X111475714Y-65400285D01*
X111475714Y-65828857D01*
X111390000Y-66086000D01*
X111218571Y-66257428D01*
X111047142Y-66343142D01*
X110704285Y-66428857D01*
X110447142Y-66428857D01*
X110104285Y-66343142D01*
X109932857Y-66257428D01*
X109761428Y-66086000D01*
X109675714Y-65828857D01*
X109675714Y-65400285D01*
X109675714Y-68143142D02*
X109675714Y-67114571D01*
X109675714Y-67628857D02*
X111475714Y-67628857D01*
X111218571Y-67457428D01*
X111047142Y-67286000D01*
X110961428Y-67114571D01*
X109421714Y-92470571D02*
X111221714Y-92470571D01*
X110364571Y-92470571D02*
X110364571Y-93499142D01*
X109421714Y-93499142D02*
X111221714Y-93499142D01*
X109421714Y-94356285D02*
X111221714Y-94356285D01*
X111221714Y-94784857D01*
X111136000Y-95042000D01*
X110964571Y-95213428D01*
X110793142Y-95299142D01*
X110450285Y-95384857D01*
X110193142Y-95384857D01*
X109850285Y-95299142D01*
X109678857Y-95213428D01*
X109507428Y-95042000D01*
X109421714Y-94784857D01*
X109421714Y-94356285D01*
X111221714Y-96499142D02*
X111221714Y-96670571D01*
X111136000Y-96842000D01*
X111050285Y-96927714D01*
X110878857Y-97013428D01*
X110536000Y-97099142D01*
X110107428Y-97099142D01*
X109764571Y-97013428D01*
X109593142Y-96927714D01*
X109507428Y-96842000D01*
X109421714Y-96670571D01*
X109421714Y-96499142D01*
X109507428Y-96327714D01*
X109593142Y-96242000D01*
X109764571Y-96156285D01*
X110107428Y-96070571D01*
X110536000Y-96070571D01*
X110878857Y-96156285D01*
X111050285Y-96242000D01*
X111136000Y-96327714D01*
X111221714Y-96499142D01*
X195349428Y-51690071D02*
X194635142Y-51690071D01*
X194563714Y-52404357D01*
X194635142Y-52332928D01*
X194778000Y-52261500D01*
X195135142Y-52261500D01*
X195278000Y-52332928D01*
X195349428Y-52404357D01*
X195420857Y-52547214D01*
X195420857Y-52904357D01*
X195349428Y-53047214D01*
X195278000Y-53118642D01*
X195135142Y-53190071D01*
X194778000Y-53190071D01*
X194635142Y-53118642D01*
X194563714Y-53047214D01*
X195849428Y-51690071D02*
X196349428Y-53190071D01*
X196849428Y-51690071D01*
X194492285Y-54176500D02*
X194349428Y-54105071D01*
X194135142Y-54105071D01*
X193920857Y-54176500D01*
X193778000Y-54319357D01*
X193706571Y-54462214D01*
X193635142Y-54747928D01*
X193635142Y-54962214D01*
X193706571Y-55247928D01*
X193778000Y-55390785D01*
X193920857Y-55533642D01*
X194135142Y-55605071D01*
X194278000Y-55605071D01*
X194492285Y-55533642D01*
X194563714Y-55462214D01*
X194563714Y-54962214D01*
X194278000Y-54962214D01*
X195206571Y-55605071D02*
X195206571Y-54105071D01*
X196063714Y-55605071D01*
X196063714Y-54105071D01*
X196778000Y-55605071D02*
X196778000Y-54105071D01*
X197135142Y-54105071D01*
X197349428Y-54176500D01*
X197492285Y-54319357D01*
X197563714Y-54462214D01*
X197635142Y-54747928D01*
X197635142Y-54962214D01*
X197563714Y-55247928D01*
X197492285Y-55390785D01*
X197349428Y-55533642D01*
X197135142Y-55605071D01*
X196778000Y-55605071D01*
X194492285Y-56591500D02*
X194349428Y-56520071D01*
X194135142Y-56520071D01*
X193920857Y-56591500D01*
X193778000Y-56734357D01*
X193706571Y-56877214D01*
X193635142Y-57162928D01*
X193635142Y-57377214D01*
X193706571Y-57662928D01*
X193778000Y-57805785D01*
X193920857Y-57948642D01*
X194135142Y-58020071D01*
X194278000Y-58020071D01*
X194492285Y-57948642D01*
X194563714Y-57877214D01*
X194563714Y-57377214D01*
X194278000Y-57377214D01*
X195206571Y-58020071D02*
X195206571Y-56520071D01*
X196063714Y-58020071D01*
X196063714Y-56520071D01*
X196778000Y-58020071D02*
X196778000Y-56520071D01*
X197135142Y-56520071D01*
X197349428Y-56591500D01*
X197492285Y-56734357D01*
X197563714Y-56877214D01*
X197635142Y-57162928D01*
X197635142Y-57377214D01*
X197563714Y-57662928D01*
X197492285Y-57805785D01*
X197349428Y-57948642D01*
X197135142Y-58020071D01*
X196778000Y-58020071D01*
X194670857Y-59435071D02*
X194670857Y-60435071D01*
X194670857Y-59577928D02*
X194742285Y-59506500D01*
X194885142Y-59435071D01*
X195099428Y-59435071D01*
X195242285Y-59506500D01*
X195313714Y-59649357D01*
X195313714Y-60435071D01*
X196670857Y-60363642D02*
X196528000Y-60435071D01*
X196242285Y-60435071D01*
X196099428Y-60363642D01*
X196028000Y-60292214D01*
X195956571Y-60149357D01*
X195956571Y-59720785D01*
X196028000Y-59577928D01*
X196099428Y-59506500D01*
X196242285Y-59435071D01*
X196528000Y-59435071D01*
X196670857Y-59506500D01*
D10*
%TO.C,C2*%
X167219333Y-78081142D02*
X167171714Y-78128761D01*
X167028857Y-78176380D01*
X166933619Y-78176380D01*
X166790761Y-78128761D01*
X166695523Y-78033523D01*
X166647904Y-77938285D01*
X166600285Y-77747809D01*
X166600285Y-77604952D01*
X166647904Y-77414476D01*
X166695523Y-77319238D01*
X166790761Y-77224000D01*
X166933619Y-77176380D01*
X167028857Y-77176380D01*
X167171714Y-77224000D01*
X167219333Y-77271619D01*
X167600285Y-77271619D02*
X167647904Y-77224000D01*
X167743142Y-77176380D01*
X167981238Y-77176380D01*
X168076476Y-77224000D01*
X168124095Y-77271619D01*
X168171714Y-77366857D01*
X168171714Y-77462095D01*
X168124095Y-77604952D01*
X167552666Y-78176380D01*
X168171714Y-78176380D01*
X169648380Y-81488388D02*
X169076952Y-81488388D01*
X169362666Y-81488388D02*
X169362666Y-80488388D01*
X169267428Y-80631246D01*
X169172190Y-80726484D01*
X169076952Y-80774103D01*
X170267428Y-80488388D02*
X170362666Y-80488388D01*
X170457904Y-80536008D01*
X170505523Y-80583627D01*
X170553142Y-80678865D01*
X170600761Y-80869341D01*
X170600761Y-81107436D01*
X170553142Y-81297912D01*
X170505523Y-81393150D01*
X170457904Y-81440769D01*
X170362666Y-81488388D01*
X170267428Y-81488388D01*
X170172190Y-81440769D01*
X170124571Y-81393150D01*
X170076952Y-81297912D01*
X170029333Y-81107436D01*
X170029333Y-80869341D01*
X170076952Y-80678865D01*
X170124571Y-80583627D01*
X170172190Y-80536008D01*
X170267428Y-80488388D01*
X171219809Y-80488388D02*
X171315047Y-80488388D01*
X171410285Y-80536008D01*
X171457904Y-80583627D01*
X171505523Y-80678865D01*
X171553142Y-80869341D01*
X171553142Y-81107436D01*
X171505523Y-81297912D01*
X171457904Y-81393150D01*
X171410285Y-81440769D01*
X171315047Y-81488388D01*
X171219809Y-81488388D01*
X171124571Y-81440769D01*
X171076952Y-81393150D01*
X171029333Y-81297912D01*
X170981714Y-81107436D01*
X170981714Y-80869341D01*
X171029333Y-80678865D01*
X171076952Y-80583627D01*
X171124571Y-80536008D01*
X171219809Y-80488388D01*
X171981714Y-80821722D02*
X171981714Y-81488388D01*
X171981714Y-80916960D02*
X172029333Y-80869341D01*
X172124571Y-80821722D01*
X172267428Y-80821722D01*
X172362666Y-80869341D01*
X172410285Y-80964579D01*
X172410285Y-81488388D01*
X173219809Y-80964579D02*
X172886476Y-80964579D01*
X172886476Y-81488388D02*
X172886476Y-80488388D01*
X173362666Y-80488388D01*
%TO.C,D3*%
X119666380Y-100306095D02*
X118666380Y-100306095D01*
X118666380Y-100068000D01*
X118714000Y-99925142D01*
X118809238Y-99829904D01*
X118904476Y-99782285D01*
X119094952Y-99734666D01*
X119237809Y-99734666D01*
X119428285Y-99782285D01*
X119523523Y-99829904D01*
X119618761Y-99925142D01*
X119666380Y-100068000D01*
X119666380Y-100306095D01*
X118666380Y-99401333D02*
X118666380Y-98782285D01*
X119047333Y-99115619D01*
X119047333Y-98972761D01*
X119094952Y-98877523D01*
X119142571Y-98829904D01*
X119237809Y-98782285D01*
X119475904Y-98782285D01*
X119571142Y-98829904D01*
X119618761Y-98877523D01*
X119666380Y-98972761D01*
X119666380Y-99258476D01*
X119618761Y-99353714D01*
X119571142Y-99401333D01*
%TO.C,R5*%
X119070380Y-87288666D02*
X118594190Y-87622000D01*
X119070380Y-87860095D02*
X118070380Y-87860095D01*
X118070380Y-87479142D01*
X118118000Y-87383904D01*
X118165619Y-87336285D01*
X118260857Y-87288666D01*
X118403714Y-87288666D01*
X118498952Y-87336285D01*
X118546571Y-87383904D01*
X118594190Y-87479142D01*
X118594190Y-87860095D01*
X118070380Y-86383904D02*
X118070380Y-86860095D01*
X118546571Y-86907714D01*
X118498952Y-86860095D01*
X118451333Y-86764857D01*
X118451333Y-86526761D01*
X118498952Y-86431523D01*
X118546571Y-86383904D01*
X118641809Y-86336285D01*
X118879904Y-86336285D01*
X118975142Y-86383904D01*
X119022761Y-86431523D01*
X119070380Y-86526761D01*
X119070380Y-86764857D01*
X119022761Y-86860095D01*
X118975142Y-86907714D01*
X121610380Y-87971238D02*
X121610380Y-88542666D01*
X121610380Y-88256952D02*
X120610380Y-88256952D01*
X120753238Y-88352190D01*
X120848476Y-88447428D01*
X120896095Y-88542666D01*
X120610380Y-87352190D02*
X120610380Y-87256952D01*
X120658000Y-87161714D01*
X120705619Y-87114095D01*
X120800857Y-87066476D01*
X120991333Y-87018857D01*
X121229428Y-87018857D01*
X121419904Y-87066476D01*
X121515142Y-87114095D01*
X121562761Y-87161714D01*
X121610380Y-87256952D01*
X121610380Y-87352190D01*
X121562761Y-87447428D01*
X121515142Y-87495047D01*
X121419904Y-87542666D01*
X121229428Y-87590285D01*
X120991333Y-87590285D01*
X120800857Y-87542666D01*
X120705619Y-87495047D01*
X120658000Y-87447428D01*
X120610380Y-87352190D01*
X121610380Y-86590285D02*
X120610380Y-86590285D01*
X121229428Y-86495047D02*
X121610380Y-86209333D01*
X120943714Y-86209333D02*
X121324666Y-86590285D01*
%TO.C,D4*%
X119412380Y-70842095D02*
X118412380Y-70842095D01*
X118412380Y-70604000D01*
X118460000Y-70461142D01*
X118555238Y-70365904D01*
X118650476Y-70318285D01*
X118840952Y-70270666D01*
X118983809Y-70270666D01*
X119174285Y-70318285D01*
X119269523Y-70365904D01*
X119364761Y-70461142D01*
X119412380Y-70604000D01*
X119412380Y-70842095D01*
X118745714Y-69413523D02*
X119412380Y-69413523D01*
X118364761Y-69651619D02*
X119079047Y-69889714D01*
X119079047Y-69270666D01*
%TO.C,R1*%
X119324380Y-114466666D02*
X118848190Y-114800000D01*
X119324380Y-115038095D02*
X118324380Y-115038095D01*
X118324380Y-114657142D01*
X118372000Y-114561904D01*
X118419619Y-114514285D01*
X118514857Y-114466666D01*
X118657714Y-114466666D01*
X118752952Y-114514285D01*
X118800571Y-114561904D01*
X118848190Y-114657142D01*
X118848190Y-115038095D01*
X119324380Y-113514285D02*
X119324380Y-114085714D01*
X119324380Y-113800000D02*
X118324380Y-113800000D01*
X118467238Y-113895238D01*
X118562476Y-113990476D01*
X118610095Y-114085714D01*
X122118380Y-115419047D02*
X121642190Y-115752380D01*
X122118380Y-115990476D02*
X121118380Y-115990476D01*
X121118380Y-115609523D01*
X121166000Y-115514285D01*
X121213619Y-115466666D01*
X121308857Y-115419047D01*
X121451714Y-115419047D01*
X121546952Y-115466666D01*
X121594571Y-115514285D01*
X121642190Y-115609523D01*
X121642190Y-115990476D01*
X121118380Y-115085714D02*
X121118380Y-114466666D01*
X121499333Y-114800000D01*
X121499333Y-114657142D01*
X121546952Y-114561904D01*
X121594571Y-114514285D01*
X121689809Y-114466666D01*
X121927904Y-114466666D01*
X122023142Y-114514285D01*
X122070761Y-114561904D01*
X122118380Y-114657142D01*
X122118380Y-114942857D01*
X122070761Y-115038095D01*
X122023142Y-115085714D01*
X121118380Y-114133333D02*
X121118380Y-113514285D01*
X121499333Y-113847619D01*
X121499333Y-113704761D01*
X121546952Y-113609523D01*
X121594571Y-113561904D01*
X121689809Y-113514285D01*
X121927904Y-113514285D01*
X122023142Y-113561904D01*
X122070761Y-113609523D01*
X122118380Y-113704761D01*
X122118380Y-113990476D01*
X122070761Y-114085714D01*
X122023142Y-114133333D01*
X121118380Y-112895238D02*
X121118380Y-112800000D01*
X121166000Y-112704761D01*
X121213619Y-112657142D01*
X121308857Y-112609523D01*
X121499333Y-112561904D01*
X121737428Y-112561904D01*
X121927904Y-112609523D01*
X122023142Y-112657142D01*
X122070761Y-112704761D01*
X122118380Y-112800000D01*
X122118380Y-112895238D01*
X122070761Y-112990476D01*
X122023142Y-113038095D01*
X121927904Y-113085714D01*
X121737428Y-113133333D01*
X121499333Y-113133333D01*
X121308857Y-113085714D01*
X121213619Y-113038095D01*
X121166000Y-112990476D01*
X121118380Y-112895238D01*
%TO.C,R3*%
X114498380Y-114466666D02*
X114022190Y-114800000D01*
X114498380Y-115038095D02*
X113498380Y-115038095D01*
X113498380Y-114657142D01*
X113546000Y-114561904D01*
X113593619Y-114514285D01*
X113688857Y-114466666D01*
X113831714Y-114466666D01*
X113926952Y-114514285D01*
X113974571Y-114561904D01*
X114022190Y-114657142D01*
X114022190Y-115038095D01*
X113498380Y-114133333D02*
X113498380Y-113514285D01*
X113879333Y-113847619D01*
X113879333Y-113704761D01*
X113926952Y-113609523D01*
X113974571Y-113561904D01*
X114069809Y-113514285D01*
X114307904Y-113514285D01*
X114403142Y-113561904D01*
X114450761Y-113609523D01*
X114498380Y-113704761D01*
X114498380Y-113990476D01*
X114450761Y-114085714D01*
X114403142Y-114133333D01*
X116868378Y-115419047D02*
X116392188Y-115752380D01*
X116868378Y-115990476D02*
X115868378Y-115990476D01*
X115868378Y-115609523D01*
X115915998Y-115514285D01*
X115963617Y-115466666D01*
X116058855Y-115419047D01*
X116201712Y-115419047D01*
X116296950Y-115466666D01*
X116344569Y-115514285D01*
X116392188Y-115609523D01*
X116392188Y-115990476D01*
X115868378Y-115085714D02*
X115868378Y-114466666D01*
X116249331Y-114800000D01*
X116249331Y-114657142D01*
X116296950Y-114561904D01*
X116344569Y-114514285D01*
X116439807Y-114466666D01*
X116677902Y-114466666D01*
X116773140Y-114514285D01*
X116820759Y-114561904D01*
X116868378Y-114657142D01*
X116868378Y-114942857D01*
X116820759Y-115038095D01*
X116773140Y-115085714D01*
X115868378Y-114133333D02*
X115868378Y-113514285D01*
X116249331Y-113847619D01*
X116249331Y-113704761D01*
X116296950Y-113609523D01*
X116344569Y-113561904D01*
X116439807Y-113514285D01*
X116677902Y-113514285D01*
X116773140Y-113561904D01*
X116820759Y-113609523D01*
X116868378Y-113704761D01*
X116868378Y-113990476D01*
X116820759Y-114085714D01*
X116773140Y-114133333D01*
X115868378Y-112895238D02*
X115868378Y-112800000D01*
X115915998Y-112704761D01*
X115963617Y-112657142D01*
X116058855Y-112609523D01*
X116249331Y-112561904D01*
X116487426Y-112561904D01*
X116677902Y-112609523D01*
X116773140Y-112657142D01*
X116820759Y-112704761D01*
X116868378Y-112800000D01*
X116868378Y-112895238D01*
X116820759Y-112990476D01*
X116773140Y-113038095D01*
X116677902Y-113085714D01*
X116487426Y-113133333D01*
X116249331Y-113133333D01*
X116058855Y-113085714D01*
X115963617Y-113038095D01*
X115915998Y-112990476D01*
X115868378Y-112895238D01*
%TO.C,U1*%
X156932380Y-97027904D02*
X157741904Y-97027904D01*
X157837142Y-96980285D01*
X157884761Y-96932666D01*
X157932380Y-96837428D01*
X157932380Y-96646952D01*
X157884761Y-96551714D01*
X157837142Y-96504095D01*
X157741904Y-96456476D01*
X156932380Y-96456476D01*
X157932380Y-95456476D02*
X157932380Y-96027904D01*
X157932380Y-95742190D02*
X156932380Y-95742190D01*
X157075238Y-95837428D01*
X157170476Y-95932666D01*
X157218095Y-96027904D01*
X155773380Y-97646952D02*
X154773380Y-97646952D01*
X154773380Y-97266000D01*
X154821000Y-97170761D01*
X154868619Y-97123142D01*
X154963857Y-97075523D01*
X155106714Y-97075523D01*
X155201952Y-97123142D01*
X155249571Y-97170761D01*
X155297190Y-97266000D01*
X155297190Y-97646952D01*
X155773380Y-96646952D02*
X155106714Y-96646952D01*
X154773380Y-96646952D02*
X154821000Y-96694571D01*
X154868619Y-96646952D01*
X154821000Y-96599333D01*
X154773380Y-96646952D01*
X154868619Y-96646952D01*
X155725761Y-95742190D02*
X155773380Y-95837428D01*
X155773380Y-96027904D01*
X155725761Y-96123142D01*
X155678142Y-96170761D01*
X155582904Y-96218380D01*
X155297190Y-96218380D01*
X155201952Y-96170761D01*
X155154333Y-96123142D01*
X155106714Y-96027904D01*
X155106714Y-95837428D01*
X155154333Y-95742190D01*
X155773380Y-95170761D02*
X155725761Y-95266000D01*
X155678142Y-95313619D01*
X155582904Y-95361238D01*
X155297190Y-95361238D01*
X155201952Y-95313619D01*
X155154333Y-95266000D01*
X155106714Y-95170761D01*
X155106714Y-95027904D01*
X155154333Y-94932666D01*
X155201952Y-94885047D01*
X155297190Y-94837428D01*
X155582904Y-94837428D01*
X155678142Y-94885047D01*
X155725761Y-94932666D01*
X155773380Y-95027904D01*
X155773380Y-95170761D01*
X174111218Y-84052903D02*
X174138155Y-84133715D01*
X174218967Y-84214528D01*
X174326717Y-84268402D01*
X174434467Y-84268402D01*
X174515279Y-84241465D01*
X174649966Y-84160653D01*
X174730778Y-84079841D01*
X174811590Y-83945154D01*
X174838528Y-83864341D01*
X174838528Y-83756592D01*
X174784653Y-83648842D01*
X174730778Y-83594967D01*
X174623028Y-83541093D01*
X174569154Y-83541093D01*
X174380592Y-83729654D01*
X174488341Y-83837404D01*
X174380592Y-83244781D02*
X173814906Y-83810467D01*
X173599407Y-83594967D01*
X173572470Y-83514155D01*
X173572470Y-83460280D01*
X173599407Y-83379468D01*
X173680219Y-83298656D01*
X173761032Y-83271719D01*
X173814906Y-83271719D01*
X173895719Y-83298656D01*
X174111218Y-83514155D01*
X173330033Y-83217844D02*
X173276158Y-83217844D01*
X173195346Y-83190906D01*
X173060659Y-83056219D01*
X173033722Y-82975407D01*
X173033722Y-82921532D01*
X173060659Y-82840720D01*
X173114534Y-82786845D01*
X173222284Y-82732971D01*
X173868781Y-82732971D01*
X173518595Y-82382784D01*
X169031218Y-84152903D02*
X169058155Y-84233715D01*
X169138967Y-84314528D01*
X169246717Y-84368402D01*
X169354467Y-84368402D01*
X169435279Y-84341465D01*
X169569966Y-84260653D01*
X169650778Y-84179841D01*
X169731590Y-84045154D01*
X169758528Y-83964341D01*
X169758528Y-83856592D01*
X169704653Y-83748842D01*
X169650778Y-83694967D01*
X169543028Y-83641093D01*
X169489154Y-83641093D01*
X169300592Y-83829654D01*
X169408341Y-83937404D01*
X169300592Y-83344781D02*
X168734906Y-83910467D01*
X168519407Y-83694967D01*
X168492470Y-83614155D01*
X168492470Y-83560280D01*
X168519407Y-83479468D01*
X168600219Y-83398656D01*
X168681032Y-83371719D01*
X168734906Y-83371719D01*
X168815719Y-83398656D01*
X169031218Y-83614155D01*
X168115346Y-82913783D02*
X168492470Y-82536659D01*
X168034534Y-83263969D02*
X168573282Y-82994595D01*
X168223096Y-82644409D01*
X151278155Y-109779841D02*
X151305093Y-109860653D01*
X151385905Y-109941465D01*
X151493654Y-109995340D01*
X151601404Y-109995340D01*
X151682216Y-109968402D01*
X151816903Y-109887590D01*
X151897715Y-109806778D01*
X151978528Y-109672091D01*
X152005465Y-109591279D01*
X152005465Y-109483529D01*
X151951590Y-109375780D01*
X151897715Y-109321905D01*
X151789966Y-109268030D01*
X151736091Y-109268030D01*
X151547529Y-109456592D01*
X151655279Y-109564341D01*
X151547529Y-108971719D02*
X150981844Y-109537404D01*
X151224280Y-108648470D01*
X150658595Y-109214155D01*
X150954906Y-108379096D02*
X150389221Y-108944781D01*
X150254534Y-108810094D01*
X150200659Y-108702345D01*
X150200659Y-108594595D01*
X150227597Y-108513783D01*
X150308409Y-108379096D01*
X150389221Y-108298284D01*
X150523908Y-108217471D01*
X150604720Y-108190534D01*
X150712470Y-108190534D01*
X150820219Y-108244409D01*
X150954906Y-108379096D01*
X154060592Y-110276277D02*
X154087529Y-110357089D01*
X154168341Y-110437902D01*
X154276091Y-110491776D01*
X154383841Y-110491776D01*
X154464653Y-110464839D01*
X154599340Y-110384027D01*
X154680152Y-110303215D01*
X154760964Y-110168528D01*
X154787902Y-110087715D01*
X154787902Y-109979966D01*
X154734027Y-109872216D01*
X154680152Y-109818341D01*
X154572402Y-109764467D01*
X154518528Y-109764467D01*
X154329966Y-109953028D01*
X154437715Y-110060778D01*
X154329966Y-109468155D02*
X153764280Y-110033841D01*
X153548781Y-109818341D01*
X153521844Y-109737529D01*
X153521844Y-109683654D01*
X153548781Y-109602842D01*
X153629593Y-109522030D01*
X153710406Y-109495093D01*
X153764280Y-109495093D01*
X153845093Y-109522030D01*
X154060592Y-109737529D01*
X153279407Y-109441218D02*
X153225532Y-109441218D01*
X153144720Y-109414280D01*
X153010033Y-109279593D01*
X152983096Y-109198781D01*
X152983096Y-109144906D01*
X153010033Y-109064094D01*
X153063908Y-109010219D01*
X153171658Y-108956345D01*
X153818155Y-108956345D01*
X153467969Y-108606158D01*
X152740659Y-108902470D02*
X152686784Y-108902470D01*
X152605972Y-108875532D01*
X152471285Y-108740845D01*
X152444348Y-108660033D01*
X152444348Y-108606158D01*
X152471285Y-108525346D01*
X152525160Y-108471471D01*
X152632910Y-108417597D01*
X153279407Y-108417597D01*
X152929221Y-108067410D01*
X179729966Y-110745526D02*
X180107089Y-109991279D01*
X179352842Y-110368402D01*
X179729966Y-109668030D02*
X179676091Y-109560280D01*
X179541404Y-109425593D01*
X179460592Y-109398656D01*
X179406717Y-109398656D01*
X179325905Y-109425593D01*
X179272030Y-109479468D01*
X179245093Y-109560280D01*
X179245093Y-109614155D01*
X179272030Y-109694967D01*
X179352842Y-109829654D01*
X179379780Y-109910467D01*
X179379780Y-109964341D01*
X179352842Y-110045154D01*
X179298967Y-110099028D01*
X179218155Y-110125966D01*
X179164280Y-110125966D01*
X179083468Y-110099028D01*
X178948781Y-109964341D01*
X178894906Y-109856592D01*
X178814094Y-109237032D02*
X179083468Y-108967658D01*
X178706345Y-109721905D02*
X178814094Y-109237032D01*
X178329221Y-109344781D01*
X178706345Y-108644409D02*
X178652470Y-108536659D01*
X178517783Y-108401972D01*
X178436971Y-108375035D01*
X178383096Y-108375035D01*
X178302284Y-108401972D01*
X178248409Y-108455847D01*
X178221471Y-108536659D01*
X178221471Y-108590534D01*
X178248409Y-108671346D01*
X178329221Y-108806033D01*
X178356158Y-108886845D01*
X178356158Y-108940720D01*
X178329221Y-109021532D01*
X178275346Y-109075407D01*
X178194534Y-109102345D01*
X178140659Y-109102345D01*
X178059847Y-109075407D01*
X177925160Y-108940720D01*
X177871285Y-108832971D01*
X176678155Y-84179841D02*
X176705093Y-84260653D01*
X176785905Y-84341465D01*
X176893654Y-84395340D01*
X177001404Y-84395340D01*
X177082216Y-84368402D01*
X177216903Y-84287590D01*
X177297715Y-84206778D01*
X177378528Y-84072091D01*
X177405465Y-83991279D01*
X177405465Y-83883529D01*
X177351590Y-83775780D01*
X177297715Y-83721905D01*
X177189966Y-83668030D01*
X177136091Y-83668030D01*
X176947529Y-83856592D01*
X177055279Y-83964341D01*
X176947529Y-83371719D02*
X176381844Y-83937404D01*
X176624280Y-83048470D01*
X176058595Y-83614155D01*
X176354906Y-82779096D02*
X175789221Y-83344781D01*
X175654534Y-83210094D01*
X175600659Y-83102345D01*
X175600659Y-82994595D01*
X175627597Y-82913783D01*
X175708409Y-82779096D01*
X175789221Y-82698284D01*
X175923908Y-82617471D01*
X176004720Y-82590534D01*
X176112470Y-82590534D01*
X176220219Y-82644409D01*
X176354906Y-82779096D01*
X171571218Y-84152903D02*
X171598155Y-84233715D01*
X171678967Y-84314528D01*
X171786717Y-84368402D01*
X171894467Y-84368402D01*
X171975279Y-84341465D01*
X172109966Y-84260653D01*
X172190778Y-84179841D01*
X172271590Y-84045154D01*
X172298528Y-83964341D01*
X172298528Y-83856592D01*
X172244653Y-83748842D01*
X172190778Y-83694967D01*
X172083028Y-83641093D01*
X172029154Y-83641093D01*
X171840592Y-83829654D01*
X171948341Y-83937404D01*
X171840592Y-83344781D02*
X171274906Y-83910467D01*
X171059407Y-83694967D01*
X171032470Y-83614155D01*
X171032470Y-83560280D01*
X171059407Y-83479468D01*
X171140219Y-83398656D01*
X171221032Y-83371719D01*
X171274906Y-83371719D01*
X171355719Y-83398656D01*
X171571218Y-83614155D01*
X170763096Y-83398656D02*
X170412910Y-83048470D01*
X170816971Y-83021532D01*
X170736158Y-82940720D01*
X170709221Y-82859908D01*
X170709221Y-82806033D01*
X170736158Y-82725221D01*
X170870845Y-82590534D01*
X170951658Y-82563597D01*
X171005532Y-82563597D01*
X171086345Y-82590534D01*
X171247969Y-82752158D01*
X171274906Y-82832971D01*
X171274906Y-82886845D01*
X161670592Y-110276277D02*
X161697529Y-110357089D01*
X161778341Y-110437902D01*
X161886091Y-110491776D01*
X161993841Y-110491776D01*
X162074653Y-110464839D01*
X162209340Y-110384027D01*
X162290152Y-110303215D01*
X162370964Y-110168528D01*
X162397902Y-110087715D01*
X162397902Y-109979966D01*
X162344027Y-109872216D01*
X162290152Y-109818341D01*
X162182402Y-109764467D01*
X162128528Y-109764467D01*
X161939966Y-109953028D01*
X162047715Y-110060778D01*
X161939966Y-109468155D02*
X161374280Y-110033841D01*
X161158781Y-109818341D01*
X161131844Y-109737529D01*
X161131844Y-109683654D01*
X161158781Y-109602842D01*
X161239593Y-109522030D01*
X161320406Y-109495093D01*
X161374280Y-109495093D01*
X161455093Y-109522030D01*
X161670592Y-109737529D01*
X160889407Y-109441218D02*
X160835532Y-109441218D01*
X160754720Y-109414280D01*
X160620033Y-109279593D01*
X160593096Y-109198781D01*
X160593096Y-109144906D01*
X160620033Y-109064094D01*
X160673908Y-109010219D01*
X160781658Y-108956345D01*
X161428155Y-108956345D01*
X161077969Y-108606158D01*
X160323722Y-108983282D02*
X159946598Y-108606158D01*
X160754720Y-108282910D01*
X148980592Y-84168277D02*
X149007529Y-84249089D01*
X149088341Y-84329902D01*
X149196091Y-84383776D01*
X149303841Y-84383776D01*
X149384653Y-84356839D01*
X149519340Y-84276027D01*
X149600152Y-84195215D01*
X149680964Y-84060528D01*
X149707902Y-83979715D01*
X149707902Y-83871966D01*
X149654027Y-83764216D01*
X149600152Y-83710341D01*
X149492402Y-83656467D01*
X149438528Y-83656467D01*
X149249966Y-83845028D01*
X149357715Y-83952778D01*
X149249966Y-83360155D02*
X148684280Y-83925841D01*
X148468781Y-83710341D01*
X148441844Y-83629529D01*
X148441844Y-83575654D01*
X148468781Y-83494842D01*
X148549593Y-83414030D01*
X148630406Y-83387093D01*
X148684280Y-83387093D01*
X148765093Y-83414030D01*
X148980592Y-83629529D01*
X148387969Y-82498158D02*
X148711218Y-82821407D01*
X148549593Y-82659783D02*
X147983908Y-83225468D01*
X148118595Y-83198531D01*
X148226345Y-83198531D01*
X148307157Y-83225468D01*
X147472097Y-82713658D02*
X147418223Y-82659783D01*
X147391285Y-82578971D01*
X147391285Y-82525096D01*
X147418223Y-82444284D01*
X147499035Y-82309597D01*
X147633722Y-82174910D01*
X147768409Y-82094097D01*
X147849221Y-82067160D01*
X147903096Y-82067160D01*
X147983908Y-82094097D01*
X148037783Y-82147972D01*
X148064720Y-82228784D01*
X148064720Y-82282659D01*
X148037783Y-82363471D01*
X147956971Y-82498158D01*
X147822284Y-82632845D01*
X147687597Y-82713658D01*
X147606784Y-82740595D01*
X147552910Y-82740595D01*
X147472097Y-82713658D01*
X158901218Y-84252903D02*
X158928155Y-84333715D01*
X159008967Y-84414528D01*
X159116717Y-84468402D01*
X159224467Y-84468402D01*
X159305279Y-84441465D01*
X159439966Y-84360653D01*
X159520778Y-84279841D01*
X159601590Y-84145154D01*
X159628528Y-84064341D01*
X159628528Y-83956592D01*
X159574653Y-83848842D01*
X159520778Y-83794967D01*
X159413028Y-83741093D01*
X159359154Y-83741093D01*
X159170592Y-83929654D01*
X159278341Y-84037404D01*
X159170592Y-83444781D02*
X158604906Y-84010467D01*
X158389407Y-83794967D01*
X158362470Y-83714155D01*
X158362470Y-83660280D01*
X158389407Y-83579468D01*
X158470219Y-83498656D01*
X158551032Y-83471719D01*
X158604906Y-83471719D01*
X158685719Y-83498656D01*
X158901218Y-83714155D01*
X158093096Y-83498656D02*
X157715972Y-83121532D01*
X158524094Y-82798284D01*
X138578155Y-109779841D02*
X138605093Y-109860653D01*
X138685905Y-109941465D01*
X138793654Y-109995340D01*
X138901404Y-109995340D01*
X138982216Y-109968402D01*
X139116903Y-109887590D01*
X139197715Y-109806778D01*
X139278528Y-109672091D01*
X139305465Y-109591279D01*
X139305465Y-109483529D01*
X139251590Y-109375780D01*
X139197715Y-109321905D01*
X139089966Y-109268030D01*
X139036091Y-109268030D01*
X138847529Y-109456592D01*
X138955279Y-109564341D01*
X138847529Y-108971719D02*
X138281844Y-109537404D01*
X138524280Y-108648470D01*
X137958595Y-109214155D01*
X138254906Y-108379096D02*
X137689221Y-108944781D01*
X137554534Y-108810094D01*
X137500659Y-108702345D01*
X137500659Y-108594595D01*
X137527597Y-108513783D01*
X137608409Y-108379096D01*
X137689221Y-108298284D01*
X137823908Y-108217471D01*
X137904720Y-108190534D01*
X138012470Y-108190534D01*
X138120219Y-108244409D01*
X138254906Y-108379096D01*
X164920964Y-110222402D02*
X164651590Y-109953028D01*
X165136463Y-110114653D02*
X164382216Y-110491776D01*
X164759340Y-109737529D01*
X163735719Y-109791404D02*
X163762656Y-109872216D01*
X163843468Y-109953028D01*
X163951218Y-110006903D01*
X164058967Y-110006903D01*
X164139780Y-109979966D01*
X164274467Y-109899154D01*
X164355279Y-109818341D01*
X164436091Y-109683654D01*
X164463028Y-109602842D01*
X164463028Y-109495093D01*
X164409154Y-109387343D01*
X164355279Y-109333468D01*
X164247529Y-109279593D01*
X164193654Y-109279593D01*
X164005093Y-109468155D01*
X164112842Y-109575905D01*
X164005093Y-108983282D02*
X163439407Y-109548967D01*
X163681844Y-108660033D01*
X163116158Y-109225719D01*
X163412470Y-108390659D02*
X162846784Y-108956345D01*
X162712097Y-108821658D01*
X162658223Y-108713908D01*
X162658223Y-108606158D01*
X162685160Y-108525346D01*
X162765972Y-108390659D01*
X162846784Y-108309847D01*
X162981471Y-108229035D01*
X163062284Y-108202097D01*
X163170033Y-108202097D01*
X163277783Y-108255972D01*
X163412470Y-108390659D01*
X179201218Y-84052903D02*
X179228155Y-84133715D01*
X179308967Y-84214528D01*
X179416717Y-84268402D01*
X179524467Y-84268402D01*
X179605279Y-84241465D01*
X179739966Y-84160653D01*
X179820778Y-84079841D01*
X179901590Y-83945154D01*
X179928528Y-83864341D01*
X179928528Y-83756592D01*
X179874653Y-83648842D01*
X179820778Y-83594967D01*
X179713028Y-83541093D01*
X179659154Y-83541093D01*
X179470592Y-83729654D01*
X179578341Y-83837404D01*
X179470592Y-83244781D02*
X178904906Y-83810467D01*
X178689407Y-83594967D01*
X178662470Y-83514155D01*
X178662470Y-83460280D01*
X178689407Y-83379468D01*
X178770219Y-83298656D01*
X178851032Y-83271719D01*
X178904906Y-83271719D01*
X178985719Y-83298656D01*
X179201218Y-83514155D01*
X178608595Y-82382784D02*
X178931844Y-82706033D01*
X178770219Y-82544409D02*
X178204534Y-83110094D01*
X178339221Y-83083157D01*
X178446971Y-83083157D01*
X178527783Y-83110094D01*
X166491218Y-84152903D02*
X166518155Y-84233715D01*
X166598967Y-84314528D01*
X166706717Y-84368402D01*
X166814467Y-84368402D01*
X166895279Y-84341465D01*
X167029966Y-84260653D01*
X167110778Y-84179841D01*
X167191590Y-84045154D01*
X167218528Y-83964341D01*
X167218528Y-83856592D01*
X167164653Y-83748842D01*
X167110778Y-83694967D01*
X167003028Y-83641093D01*
X166949154Y-83641093D01*
X166760592Y-83829654D01*
X166868341Y-83937404D01*
X166760592Y-83344781D02*
X166194906Y-83910467D01*
X165979407Y-83694967D01*
X165952470Y-83614155D01*
X165952470Y-83560280D01*
X165979407Y-83479468D01*
X166060219Y-83398656D01*
X166141032Y-83371719D01*
X166194906Y-83371719D01*
X166275719Y-83398656D01*
X166491218Y-83614155D01*
X165359847Y-83075407D02*
X165629221Y-83344781D01*
X165925532Y-83102345D01*
X165871658Y-83102345D01*
X165790845Y-83075407D01*
X165656158Y-82940720D01*
X165629221Y-82859908D01*
X165629221Y-82806033D01*
X165656158Y-82725221D01*
X165790845Y-82590534D01*
X165871658Y-82563597D01*
X165925532Y-82563597D01*
X166006345Y-82590534D01*
X166141032Y-82725221D01*
X166167969Y-82806033D01*
X166167969Y-82859908D01*
X146440592Y-110276277D02*
X146467529Y-110357089D01*
X146548341Y-110437902D01*
X146656091Y-110491776D01*
X146763841Y-110491776D01*
X146844653Y-110464839D01*
X146979340Y-110384027D01*
X147060152Y-110303215D01*
X147140964Y-110168528D01*
X147167902Y-110087715D01*
X147167902Y-109979966D01*
X147114027Y-109872216D01*
X147060152Y-109818341D01*
X146952402Y-109764467D01*
X146898528Y-109764467D01*
X146709966Y-109953028D01*
X146817715Y-110060778D01*
X146709966Y-109468155D02*
X146144280Y-110033841D01*
X145928781Y-109818341D01*
X145901844Y-109737529D01*
X145901844Y-109683654D01*
X145928781Y-109602842D01*
X146009593Y-109522030D01*
X146090406Y-109495093D01*
X146144280Y-109495093D01*
X146225093Y-109522030D01*
X146440592Y-109737529D01*
X145659407Y-109441218D02*
X145605532Y-109441218D01*
X145524720Y-109414280D01*
X145390033Y-109279593D01*
X145363096Y-109198781D01*
X145363096Y-109144906D01*
X145390033Y-109064094D01*
X145443908Y-109010219D01*
X145551658Y-108956345D01*
X146198155Y-108956345D01*
X145847969Y-108606158D01*
X144932097Y-108821658D02*
X144878223Y-108767783D01*
X144851285Y-108686971D01*
X144851285Y-108633096D01*
X144878223Y-108552284D01*
X144959035Y-108417597D01*
X145093722Y-108282910D01*
X145228409Y-108202097D01*
X145309221Y-108175160D01*
X145363096Y-108175160D01*
X145443908Y-108202097D01*
X145497783Y-108255972D01*
X145524720Y-108336784D01*
X145524720Y-108390659D01*
X145497783Y-108471471D01*
X145416971Y-108606158D01*
X145282284Y-108740845D01*
X145147597Y-108821658D01*
X145066784Y-108848595D01*
X145012910Y-108848595D01*
X144932097Y-108821658D01*
X148970592Y-110276277D02*
X148997529Y-110357089D01*
X149078341Y-110437902D01*
X149186091Y-110491776D01*
X149293841Y-110491776D01*
X149374653Y-110464839D01*
X149509340Y-110384027D01*
X149590152Y-110303215D01*
X149670964Y-110168528D01*
X149697902Y-110087715D01*
X149697902Y-109979966D01*
X149644027Y-109872216D01*
X149590152Y-109818341D01*
X149482402Y-109764467D01*
X149428528Y-109764467D01*
X149239966Y-109953028D01*
X149347715Y-110060778D01*
X149239966Y-109468155D02*
X148674280Y-110033841D01*
X148458781Y-109818341D01*
X148431844Y-109737529D01*
X148431844Y-109683654D01*
X148458781Y-109602842D01*
X148539593Y-109522030D01*
X148620406Y-109495093D01*
X148674280Y-109495093D01*
X148755093Y-109522030D01*
X148970592Y-109737529D01*
X148189407Y-109441218D02*
X148135532Y-109441218D01*
X148054720Y-109414280D01*
X147920033Y-109279593D01*
X147893096Y-109198781D01*
X147893096Y-109144906D01*
X147920033Y-109064094D01*
X147973908Y-109010219D01*
X148081658Y-108956345D01*
X148728155Y-108956345D01*
X148377969Y-108606158D01*
X147839221Y-108067410D02*
X148162470Y-108390659D01*
X148000845Y-108229035D02*
X147435160Y-108794720D01*
X147569847Y-108767783D01*
X147677597Y-108767783D01*
X147758409Y-108794720D01*
X141360592Y-84168277D02*
X141387529Y-84249089D01*
X141468341Y-84329902D01*
X141576091Y-84383776D01*
X141683841Y-84383776D01*
X141764653Y-84356839D01*
X141899340Y-84276027D01*
X141980152Y-84195215D01*
X142060964Y-84060528D01*
X142087902Y-83979715D01*
X142087902Y-83871966D01*
X142034027Y-83764216D01*
X141980152Y-83710341D01*
X141872402Y-83656467D01*
X141818528Y-83656467D01*
X141629966Y-83845028D01*
X141737715Y-83952778D01*
X141629966Y-83360155D02*
X141064280Y-83925841D01*
X140848781Y-83710341D01*
X140821844Y-83629529D01*
X140821844Y-83575654D01*
X140848781Y-83494842D01*
X140929593Y-83414030D01*
X141010406Y-83387093D01*
X141064280Y-83387093D01*
X141145093Y-83414030D01*
X141360592Y-83629529D01*
X140767969Y-82498158D02*
X141091218Y-82821407D01*
X140929593Y-82659783D02*
X140363908Y-83225468D01*
X140498595Y-83198531D01*
X140606345Y-83198531D01*
X140687157Y-83225468D01*
X140013722Y-82875282D02*
X139663536Y-82525096D01*
X140067597Y-82498158D01*
X139986784Y-82417346D01*
X139959847Y-82336534D01*
X139959847Y-82282659D01*
X139986784Y-82201847D01*
X140121471Y-82067160D01*
X140202284Y-82040223D01*
X140256158Y-82040223D01*
X140336971Y-82067160D01*
X140498595Y-82228784D01*
X140525532Y-82309597D01*
X140525532Y-82363471D01*
X138578155Y-84179841D02*
X138605093Y-84260653D01*
X138685905Y-84341465D01*
X138793654Y-84395340D01*
X138901404Y-84395340D01*
X138982216Y-84368402D01*
X139116903Y-84287590D01*
X139197715Y-84206778D01*
X139278528Y-84072091D01*
X139305465Y-83991279D01*
X139305465Y-83883529D01*
X139251590Y-83775780D01*
X139197715Y-83721905D01*
X139089966Y-83668030D01*
X139036091Y-83668030D01*
X138847529Y-83856592D01*
X138955279Y-83964341D01*
X138847529Y-83371719D02*
X138281844Y-83937404D01*
X138524280Y-83048470D01*
X137958595Y-83614155D01*
X138254906Y-82779096D02*
X137689221Y-83344781D01*
X137554534Y-83210094D01*
X137500659Y-83102345D01*
X137500659Y-82994595D01*
X137527597Y-82913783D01*
X137608409Y-82779096D01*
X137689221Y-82698284D01*
X137823908Y-82617471D01*
X137904720Y-82590534D01*
X138012470Y-82590534D01*
X138120219Y-82644409D01*
X138254906Y-82779096D01*
X136280592Y-110276277D02*
X136307529Y-110357089D01*
X136388341Y-110437902D01*
X136496091Y-110491776D01*
X136603841Y-110491776D01*
X136684653Y-110464839D01*
X136819340Y-110384027D01*
X136900152Y-110303215D01*
X136980964Y-110168528D01*
X137007902Y-110087715D01*
X137007902Y-109979966D01*
X136954027Y-109872216D01*
X136900152Y-109818341D01*
X136792402Y-109764467D01*
X136738528Y-109764467D01*
X136549966Y-109953028D01*
X136657715Y-110060778D01*
X136549966Y-109468155D02*
X135984280Y-110033841D01*
X135768781Y-109818341D01*
X135741844Y-109737529D01*
X135741844Y-109683654D01*
X135768781Y-109602842D01*
X135849593Y-109522030D01*
X135930406Y-109495093D01*
X135984280Y-109495093D01*
X136065093Y-109522030D01*
X136280592Y-109737529D01*
X135687969Y-108606158D02*
X136011218Y-108929407D01*
X135849593Y-108767783D02*
X135283908Y-109333468D01*
X135418595Y-109306531D01*
X135526345Y-109306531D01*
X135607157Y-109333468D01*
X134933722Y-108983282D02*
X134556598Y-108606158D01*
X135364720Y-108282910D01*
X159140592Y-110276277D02*
X159167529Y-110357089D01*
X159248341Y-110437902D01*
X159356091Y-110491776D01*
X159463841Y-110491776D01*
X159544653Y-110464839D01*
X159679340Y-110384027D01*
X159760152Y-110303215D01*
X159840964Y-110168528D01*
X159867902Y-110087715D01*
X159867902Y-109979966D01*
X159814027Y-109872216D01*
X159760152Y-109818341D01*
X159652402Y-109764467D01*
X159598528Y-109764467D01*
X159409966Y-109953028D01*
X159517715Y-110060778D01*
X159409966Y-109468155D02*
X158844280Y-110033841D01*
X158628781Y-109818341D01*
X158601844Y-109737529D01*
X158601844Y-109683654D01*
X158628781Y-109602842D01*
X158709593Y-109522030D01*
X158790406Y-109495093D01*
X158844280Y-109495093D01*
X158925093Y-109522030D01*
X159140592Y-109737529D01*
X158359407Y-109441218D02*
X158305532Y-109441218D01*
X158224720Y-109414280D01*
X158090033Y-109279593D01*
X158063096Y-109198781D01*
X158063096Y-109144906D01*
X158090033Y-109064094D01*
X158143908Y-109010219D01*
X158251658Y-108956345D01*
X158898155Y-108956345D01*
X158547969Y-108606158D01*
X157497410Y-108686971D02*
X157605160Y-108794720D01*
X157685972Y-108821658D01*
X157739847Y-108821658D01*
X157874534Y-108794720D01*
X158009221Y-108713908D01*
X158224720Y-108498409D01*
X158251658Y-108417597D01*
X158251658Y-108363722D01*
X158224720Y-108282910D01*
X158116971Y-108175160D01*
X158036158Y-108148223D01*
X157982284Y-108148223D01*
X157901471Y-108175160D01*
X157766784Y-108309847D01*
X157739847Y-108390659D01*
X157739847Y-108444534D01*
X157766784Y-108525346D01*
X157874534Y-108633096D01*
X157955346Y-108660033D01*
X158009221Y-108660033D01*
X158090033Y-108633096D01*
X141360592Y-110276277D02*
X141387529Y-110357089D01*
X141468341Y-110437902D01*
X141576091Y-110491776D01*
X141683841Y-110491776D01*
X141764653Y-110464839D01*
X141899340Y-110384027D01*
X141980152Y-110303215D01*
X142060964Y-110168528D01*
X142087902Y-110087715D01*
X142087902Y-109979966D01*
X142034027Y-109872216D01*
X141980152Y-109818341D01*
X141872402Y-109764467D01*
X141818528Y-109764467D01*
X141629966Y-109953028D01*
X141737715Y-110060778D01*
X141629966Y-109468155D02*
X141064280Y-110033841D01*
X140848781Y-109818341D01*
X140821844Y-109737529D01*
X140821844Y-109683654D01*
X140848781Y-109602842D01*
X140929593Y-109522030D01*
X141010406Y-109495093D01*
X141064280Y-109495093D01*
X141145093Y-109522030D01*
X141360592Y-109737529D01*
X140767969Y-108606158D02*
X141091218Y-108929407D01*
X140929593Y-108767783D02*
X140363908Y-109333468D01*
X140498595Y-109306531D01*
X140606345Y-109306531D01*
X140687157Y-109333468D01*
X140121471Y-108606158D02*
X140148409Y-108686971D01*
X140148409Y-108740845D01*
X140121471Y-108821658D01*
X140094534Y-108848595D01*
X140013722Y-108875532D01*
X139959847Y-108875532D01*
X139879035Y-108848595D01*
X139771285Y-108740845D01*
X139744348Y-108660033D01*
X139744348Y-108606158D01*
X139771285Y-108525346D01*
X139798223Y-108498409D01*
X139879035Y-108471471D01*
X139932910Y-108471471D01*
X140013722Y-108498409D01*
X140121471Y-108606158D01*
X140202284Y-108633096D01*
X140256158Y-108633096D01*
X140336971Y-108606158D01*
X140444720Y-108498409D01*
X140471658Y-108417597D01*
X140471658Y-108363722D01*
X140444720Y-108282910D01*
X140336971Y-108175160D01*
X140256158Y-108148223D01*
X140202284Y-108148223D01*
X140121471Y-108175160D01*
X140013722Y-108282910D01*
X139986784Y-108363722D01*
X139986784Y-108417597D01*
X140013722Y-108498409D01*
X146440592Y-84022277D02*
X146467529Y-84103089D01*
X146548341Y-84183902D01*
X146656091Y-84237776D01*
X146763841Y-84237776D01*
X146844653Y-84210839D01*
X146979340Y-84130027D01*
X147060152Y-84049215D01*
X147140964Y-83914528D01*
X147167902Y-83833715D01*
X147167902Y-83725966D01*
X147114027Y-83618216D01*
X147060152Y-83564341D01*
X146952402Y-83510467D01*
X146898528Y-83510467D01*
X146709966Y-83699028D01*
X146817715Y-83806778D01*
X146709966Y-83214155D02*
X146144280Y-83779841D01*
X145928781Y-83564341D01*
X145901844Y-83483529D01*
X145901844Y-83429654D01*
X145928781Y-83348842D01*
X146009593Y-83268030D01*
X146090406Y-83241093D01*
X146144280Y-83241093D01*
X146225093Y-83268030D01*
X146440592Y-83483529D01*
X145847969Y-82352158D02*
X146171218Y-82675407D01*
X146009593Y-82513783D02*
X145443908Y-83079468D01*
X145578595Y-83052531D01*
X145686345Y-83052531D01*
X145767157Y-83079468D01*
X145309221Y-81813410D02*
X145632470Y-82136659D01*
X145470845Y-81975035D02*
X144905160Y-82540720D01*
X145039847Y-82513783D01*
X145147597Y-82513783D01*
X145228409Y-82540720D01*
X133740592Y-84168277D02*
X133767529Y-84249089D01*
X133848341Y-84329902D01*
X133956091Y-84383776D01*
X134063841Y-84383776D01*
X134144653Y-84356839D01*
X134279340Y-84276027D01*
X134360152Y-84195215D01*
X134440964Y-84060528D01*
X134467902Y-83979715D01*
X134467902Y-83871966D01*
X134414027Y-83764216D01*
X134360152Y-83710341D01*
X134252402Y-83656467D01*
X134198528Y-83656467D01*
X134009966Y-83845028D01*
X134117715Y-83952778D01*
X134009966Y-83360155D02*
X133444280Y-83925841D01*
X133228781Y-83710341D01*
X133201844Y-83629529D01*
X133201844Y-83575654D01*
X133228781Y-83494842D01*
X133309593Y-83414030D01*
X133390406Y-83387093D01*
X133444280Y-83387093D01*
X133525093Y-83414030D01*
X133740592Y-83629529D01*
X133147969Y-82498158D02*
X133471218Y-82821407D01*
X133309593Y-82659783D02*
X132743908Y-83225468D01*
X132878595Y-83198531D01*
X132986345Y-83198531D01*
X133067157Y-83225468D01*
X132070473Y-82552033D02*
X132339847Y-82821407D01*
X132636158Y-82578971D01*
X132582284Y-82578971D01*
X132501471Y-82552033D01*
X132366784Y-82417346D01*
X132339847Y-82336534D01*
X132339847Y-82282659D01*
X132366784Y-82201847D01*
X132501471Y-82067160D01*
X132582284Y-82040223D01*
X132636158Y-82040223D01*
X132716971Y-82067160D01*
X132851658Y-82201847D01*
X132878595Y-82282659D01*
X132878595Y-82336534D01*
X133740592Y-110276277D02*
X133767529Y-110357089D01*
X133848341Y-110437902D01*
X133956091Y-110491776D01*
X134063841Y-110491776D01*
X134144653Y-110464839D01*
X134279340Y-110384027D01*
X134360152Y-110303215D01*
X134440964Y-110168528D01*
X134467902Y-110087715D01*
X134467902Y-109979966D01*
X134414027Y-109872216D01*
X134360152Y-109818341D01*
X134252402Y-109764467D01*
X134198528Y-109764467D01*
X134009966Y-109953028D01*
X134117715Y-110060778D01*
X134009966Y-109468155D02*
X133444280Y-110033841D01*
X133228781Y-109818341D01*
X133201844Y-109737529D01*
X133201844Y-109683654D01*
X133228781Y-109602842D01*
X133309593Y-109522030D01*
X133390406Y-109495093D01*
X133444280Y-109495093D01*
X133525093Y-109522030D01*
X133740592Y-109737529D01*
X133147969Y-108606158D02*
X133471218Y-108929407D01*
X133309593Y-108767783D02*
X132743908Y-109333468D01*
X132878595Y-109306531D01*
X132986345Y-109306531D01*
X133067157Y-109333468D01*
X132097410Y-108686971D02*
X132205160Y-108794720D01*
X132285972Y-108821658D01*
X132339847Y-108821658D01*
X132474534Y-108794720D01*
X132609221Y-108713908D01*
X132824720Y-108498409D01*
X132851658Y-108417597D01*
X132851658Y-108363722D01*
X132824720Y-108282910D01*
X132716971Y-108175160D01*
X132636158Y-108148223D01*
X132582284Y-108148223D01*
X132501471Y-108175160D01*
X132366784Y-108309847D01*
X132339847Y-108390659D01*
X132339847Y-108444534D01*
X132366784Y-108525346D01*
X132474534Y-108633096D01*
X132555346Y-108660033D01*
X132609221Y-108660033D01*
X132690033Y-108633096D01*
X151278155Y-84179841D02*
X151305093Y-84260653D01*
X151385905Y-84341465D01*
X151493654Y-84395340D01*
X151601404Y-84395340D01*
X151682216Y-84368402D01*
X151816903Y-84287590D01*
X151897715Y-84206778D01*
X151978528Y-84072091D01*
X152005465Y-83991279D01*
X152005465Y-83883529D01*
X151951590Y-83775780D01*
X151897715Y-83721905D01*
X151789966Y-83668030D01*
X151736091Y-83668030D01*
X151547529Y-83856592D01*
X151655279Y-83964341D01*
X151547529Y-83371719D02*
X150981844Y-83937404D01*
X151224280Y-83048470D01*
X150658595Y-83614155D01*
X150954906Y-82779096D02*
X150389221Y-83344781D01*
X150254534Y-83210094D01*
X150200659Y-83102345D01*
X150200659Y-82994595D01*
X150227597Y-82913783D01*
X150308409Y-82779096D01*
X150389221Y-82698284D01*
X150523908Y-82617471D01*
X150604720Y-82590534D01*
X150712470Y-82590534D01*
X150820219Y-82644409D01*
X150954906Y-82779096D01*
X143900592Y-110276277D02*
X143927529Y-110357089D01*
X144008341Y-110437902D01*
X144116091Y-110491776D01*
X144223841Y-110491776D01*
X144304653Y-110464839D01*
X144439340Y-110384027D01*
X144520152Y-110303215D01*
X144600964Y-110168528D01*
X144627902Y-110087715D01*
X144627902Y-109979966D01*
X144574027Y-109872216D01*
X144520152Y-109818341D01*
X144412402Y-109764467D01*
X144358528Y-109764467D01*
X144169966Y-109953028D01*
X144277715Y-110060778D01*
X144169966Y-109468155D02*
X143604280Y-110033841D01*
X143388781Y-109818341D01*
X143361844Y-109737529D01*
X143361844Y-109683654D01*
X143388781Y-109602842D01*
X143469593Y-109522030D01*
X143550406Y-109495093D01*
X143604280Y-109495093D01*
X143685093Y-109522030D01*
X143900592Y-109737529D01*
X143307969Y-108606158D02*
X143631218Y-108929407D01*
X143469593Y-108767783D02*
X142903908Y-109333468D01*
X143038595Y-109306531D01*
X143146345Y-109306531D01*
X143227157Y-109333468D01*
X143038595Y-108336784D02*
X142930845Y-108229035D01*
X142850033Y-108202097D01*
X142796158Y-108202097D01*
X142661471Y-108229035D01*
X142526784Y-108309847D01*
X142311285Y-108525346D01*
X142284348Y-108606158D01*
X142284348Y-108660033D01*
X142311285Y-108740845D01*
X142419035Y-108848595D01*
X142499847Y-108875532D01*
X142553722Y-108875532D01*
X142634534Y-108848595D01*
X142769221Y-108713908D01*
X142796158Y-108633096D01*
X142796158Y-108579221D01*
X142769221Y-108498409D01*
X142661471Y-108390659D01*
X142580659Y-108363722D01*
X142526784Y-108363722D01*
X142445972Y-108390659D01*
X156883435Y-109427624D02*
X156802622Y-109885560D01*
X157206683Y-109750873D02*
X156640998Y-110316558D01*
X156425499Y-110101059D01*
X156398561Y-110020247D01*
X156398561Y-109966372D01*
X156425499Y-109885560D01*
X156506311Y-109804748D01*
X156587123Y-109777810D01*
X156640998Y-109777810D01*
X156721810Y-109804748D01*
X156937309Y-110020247D01*
X156075312Y-109750873D02*
X156533248Y-109292937D01*
X156560186Y-109212125D01*
X156560186Y-109158250D01*
X156533248Y-109077438D01*
X156425499Y-108969688D01*
X156344687Y-108942751D01*
X156290812Y-108942751D01*
X156210000Y-108969688D01*
X155752064Y-109427624D01*
X156048375Y-108592564D02*
X155482690Y-109158250D01*
X155725126Y-108269316D01*
X155159441Y-108835001D01*
X163978155Y-84179841D02*
X164005093Y-84260653D01*
X164085905Y-84341465D01*
X164193654Y-84395340D01*
X164301404Y-84395340D01*
X164382216Y-84368402D01*
X164516903Y-84287590D01*
X164597715Y-84206778D01*
X164678528Y-84072091D01*
X164705465Y-83991279D01*
X164705465Y-83883529D01*
X164651590Y-83775780D01*
X164597715Y-83721905D01*
X164489966Y-83668030D01*
X164436091Y-83668030D01*
X164247529Y-83856592D01*
X164355279Y-83964341D01*
X164247529Y-83371719D02*
X163681844Y-83937404D01*
X163924280Y-83048470D01*
X163358595Y-83614155D01*
X163654906Y-82779096D02*
X163089221Y-83344781D01*
X162954534Y-83210094D01*
X162900659Y-83102345D01*
X162900659Y-82994595D01*
X162927597Y-82913783D01*
X163008409Y-82779096D01*
X163089221Y-82698284D01*
X163223908Y-82617471D01*
X163304720Y-82590534D01*
X163412470Y-82590534D01*
X163520219Y-82644409D01*
X163654906Y-82779096D01*
X131603809Y-92375523D02*
X131641904Y-92261238D01*
X131641904Y-92070761D01*
X131603809Y-91994571D01*
X131565714Y-91956476D01*
X131489523Y-91918380D01*
X131413333Y-91918380D01*
X131337142Y-91956476D01*
X131299047Y-91994571D01*
X131260952Y-92070761D01*
X131222857Y-92223142D01*
X131184761Y-92299333D01*
X131146666Y-92337428D01*
X131070476Y-92375523D01*
X130994285Y-92375523D01*
X130918095Y-92337428D01*
X130880000Y-92299333D01*
X130841904Y-92223142D01*
X130841904Y-92032666D01*
X130880000Y-91918380D01*
X130841904Y-91651714D02*
X131641904Y-91461238D01*
X131070476Y-91308857D01*
X131641904Y-91156476D01*
X130841904Y-90966000D01*
X131565714Y-90204095D02*
X131603809Y-90242190D01*
X131641904Y-90356476D01*
X131641904Y-90432666D01*
X131603809Y-90546952D01*
X131527619Y-90623142D01*
X131451428Y-90661238D01*
X131299047Y-90699333D01*
X131184761Y-90699333D01*
X131032380Y-90661238D01*
X130956190Y-90623142D01*
X130880000Y-90546952D01*
X130841904Y-90432666D01*
X130841904Y-90356476D01*
X130880000Y-90242190D01*
X130918095Y-90204095D01*
X131641904Y-89480285D02*
X131641904Y-89861238D01*
X130841904Y-89861238D01*
X131641904Y-89213619D02*
X130841904Y-89213619D01*
X131641904Y-88756476D02*
X131184761Y-89099333D01*
X130841904Y-88756476D02*
X131299047Y-89213619D01*
X161411218Y-84152903D02*
X161438155Y-84233715D01*
X161518967Y-84314528D01*
X161626717Y-84368402D01*
X161734467Y-84368402D01*
X161815279Y-84341465D01*
X161949966Y-84260653D01*
X162030778Y-84179841D01*
X162111590Y-84045154D01*
X162138528Y-83964341D01*
X162138528Y-83856592D01*
X162084653Y-83748842D01*
X162030778Y-83694967D01*
X161923028Y-83641093D01*
X161869154Y-83641093D01*
X161680592Y-83829654D01*
X161788341Y-83937404D01*
X161680592Y-83344781D02*
X161114906Y-83910467D01*
X160899407Y-83694967D01*
X160872470Y-83614155D01*
X160872470Y-83560280D01*
X160899407Y-83479468D01*
X160980219Y-83398656D01*
X161061032Y-83371719D01*
X161114906Y-83371719D01*
X161195719Y-83398656D01*
X161411218Y-83614155D01*
X160306784Y-83102345D02*
X160414534Y-83210094D01*
X160495346Y-83237032D01*
X160549221Y-83237032D01*
X160683908Y-83210094D01*
X160818595Y-83129282D01*
X161034094Y-82913783D01*
X161061032Y-82832971D01*
X161061032Y-82779096D01*
X161034094Y-82698284D01*
X160926345Y-82590534D01*
X160845532Y-82563597D01*
X160791658Y-82563597D01*
X160710845Y-82590534D01*
X160576158Y-82725221D01*
X160549221Y-82806033D01*
X160549221Y-82859908D01*
X160576158Y-82940720D01*
X160683908Y-83048470D01*
X160764720Y-83075407D01*
X160818595Y-83075407D01*
X160899407Y-83048470D01*
X182407309Y-110912870D02*
X182784433Y-110158622D01*
X182030186Y-110535746D01*
X181922436Y-109889248D02*
X181868561Y-109781499D01*
X181868561Y-109727624D01*
X181895499Y-109646812D01*
X181976311Y-109565999D01*
X182057123Y-109539062D01*
X182110998Y-109539062D01*
X182191810Y-109565999D01*
X182407309Y-109781499D01*
X181841624Y-110347184D01*
X181653062Y-110158622D01*
X181626125Y-110077810D01*
X181626125Y-110023935D01*
X181653062Y-109943123D01*
X181706937Y-109889248D01*
X181787749Y-109862311D01*
X181841624Y-109862311D01*
X181922436Y-109889248D01*
X182110998Y-110077810D01*
X181275938Y-109781499D02*
X181733874Y-109323563D01*
X181760812Y-109242751D01*
X181760812Y-109188876D01*
X181733874Y-109108064D01*
X181626125Y-109000314D01*
X181545312Y-108973377D01*
X181491438Y-108973377D01*
X181410625Y-109000314D01*
X180952690Y-109458250D01*
X181249001Y-108677065D02*
X181195126Y-108569316D01*
X181060439Y-108434629D01*
X180979627Y-108407691D01*
X180925752Y-108407691D01*
X180844940Y-108434629D01*
X180791065Y-108488503D01*
X180764128Y-108569316D01*
X180764128Y-108623190D01*
X180791065Y-108704003D01*
X180871877Y-108838690D01*
X180898815Y-108919502D01*
X180898815Y-108973377D01*
X180871877Y-109054189D01*
X180818003Y-109108064D01*
X180737190Y-109135001D01*
X180683316Y-109135001D01*
X180602503Y-109108064D01*
X180467816Y-108973377D01*
X180413942Y-108865627D01*
X176678155Y-109779841D02*
X176705093Y-109860653D01*
X176785905Y-109941465D01*
X176893654Y-109995340D01*
X177001404Y-109995340D01*
X177082216Y-109968402D01*
X177216903Y-109887590D01*
X177297715Y-109806778D01*
X177378528Y-109672091D01*
X177405465Y-109591279D01*
X177405465Y-109483529D01*
X177351590Y-109375780D01*
X177297715Y-109321905D01*
X177189966Y-109268030D01*
X177136091Y-109268030D01*
X176947529Y-109456592D01*
X177055279Y-109564341D01*
X176947529Y-108971719D02*
X176381844Y-109537404D01*
X176624280Y-108648470D01*
X176058595Y-109214155D01*
X176354906Y-108379096D02*
X175789221Y-108944781D01*
X175654534Y-108810094D01*
X175600659Y-108702345D01*
X175600659Y-108594595D01*
X175627597Y-108513783D01*
X175708409Y-108379096D01*
X175789221Y-108298284D01*
X175923908Y-108217471D01*
X176004720Y-108190534D01*
X176112470Y-108190534D01*
X176220219Y-108244409D01*
X176354906Y-108379096D01*
X171770592Y-110176152D02*
X171420406Y-109825966D01*
X171824467Y-109799028D01*
X171743654Y-109718216D01*
X171716717Y-109637404D01*
X171716717Y-109583529D01*
X171743654Y-109502717D01*
X171878341Y-109368030D01*
X171959154Y-109341093D01*
X172013028Y-109341093D01*
X172093841Y-109368030D01*
X172255465Y-109529654D01*
X172282402Y-109610467D01*
X172282402Y-109664341D01*
X171258781Y-109664341D02*
X171635905Y-108910094D01*
X170881658Y-109287218D01*
X170746971Y-109152531D02*
X170396784Y-108802345D01*
X170800845Y-108775407D01*
X170720033Y-108694595D01*
X170693096Y-108613783D01*
X170693096Y-108559908D01*
X170720033Y-108479096D01*
X170854720Y-108344409D01*
X170935532Y-108317471D01*
X170989407Y-108317471D01*
X171070219Y-108344409D01*
X171231844Y-108506033D01*
X171258781Y-108586845D01*
X171258781Y-108640720D01*
X167014592Y-110276277D02*
X167041529Y-110357089D01*
X167122341Y-110437902D01*
X167230091Y-110491776D01*
X167337841Y-110491776D01*
X167418653Y-110464839D01*
X167553340Y-110384027D01*
X167634152Y-110303215D01*
X167714964Y-110168528D01*
X167741902Y-110087715D01*
X167741902Y-109979966D01*
X167688027Y-109872216D01*
X167634152Y-109818341D01*
X167526402Y-109764467D01*
X167472528Y-109764467D01*
X167283966Y-109953028D01*
X167391715Y-110060778D01*
X167283966Y-109468155D02*
X166718280Y-110033841D01*
X166502781Y-109818341D01*
X166475844Y-109737529D01*
X166475844Y-109683654D01*
X166502781Y-109602842D01*
X166583593Y-109522030D01*
X166664406Y-109495093D01*
X166718280Y-109495093D01*
X166799093Y-109522030D01*
X167014592Y-109737529D01*
X166233407Y-109441218D02*
X166179532Y-109441218D01*
X166098720Y-109414280D01*
X165964033Y-109279593D01*
X165937096Y-109198781D01*
X165937096Y-109144906D01*
X165964033Y-109064094D01*
X166017908Y-109010219D01*
X166125658Y-108956345D01*
X166772155Y-108956345D01*
X166421969Y-108606158D01*
X165775471Y-108606158D02*
X165802409Y-108686971D01*
X165802409Y-108740845D01*
X165775471Y-108821658D01*
X165748534Y-108848595D01*
X165667722Y-108875532D01*
X165613847Y-108875532D01*
X165533035Y-108848595D01*
X165425285Y-108740845D01*
X165398348Y-108660033D01*
X165398348Y-108606158D01*
X165425285Y-108525346D01*
X165452223Y-108498409D01*
X165533035Y-108471471D01*
X165586910Y-108471471D01*
X165667722Y-108498409D01*
X165775471Y-108606158D01*
X165856284Y-108633096D01*
X165910158Y-108633096D01*
X165990971Y-108606158D01*
X166098720Y-108498409D01*
X166125658Y-108417597D01*
X166125658Y-108363722D01*
X166098720Y-108282910D01*
X165990971Y-108175160D01*
X165910158Y-108148223D01*
X165856284Y-108148223D01*
X165775471Y-108175160D01*
X165667722Y-108282910D01*
X165640784Y-108363722D01*
X165640784Y-108417597D01*
X165667722Y-108498409D01*
X143900592Y-84022277D02*
X143927529Y-84103089D01*
X144008341Y-84183902D01*
X144116091Y-84237776D01*
X144223841Y-84237776D01*
X144304653Y-84210839D01*
X144439340Y-84130027D01*
X144520152Y-84049215D01*
X144600964Y-83914528D01*
X144627902Y-83833715D01*
X144627902Y-83725966D01*
X144574027Y-83618216D01*
X144520152Y-83564341D01*
X144412402Y-83510467D01*
X144358528Y-83510467D01*
X144169966Y-83699028D01*
X144277715Y-83806778D01*
X144169966Y-83214155D02*
X143604280Y-83779841D01*
X143388781Y-83564341D01*
X143361844Y-83483529D01*
X143361844Y-83429654D01*
X143388781Y-83348842D01*
X143469593Y-83268030D01*
X143550406Y-83241093D01*
X143604280Y-83241093D01*
X143685093Y-83268030D01*
X143900592Y-83483529D01*
X143307969Y-82352158D02*
X143631218Y-82675407D01*
X143469593Y-82513783D02*
X142903908Y-83079468D01*
X143038595Y-83052531D01*
X143146345Y-83052531D01*
X143227157Y-83079468D01*
X142580659Y-82648470D02*
X142526784Y-82648470D01*
X142445972Y-82621532D01*
X142311285Y-82486845D01*
X142284348Y-82406033D01*
X142284348Y-82352158D01*
X142311285Y-82271346D01*
X142365160Y-82217471D01*
X142472910Y-82163597D01*
X143119407Y-82163597D01*
X142769221Y-81813410D01*
X136280592Y-84122277D02*
X136307529Y-84203089D01*
X136388341Y-84283902D01*
X136496091Y-84337776D01*
X136603841Y-84337776D01*
X136684653Y-84310839D01*
X136819340Y-84230027D01*
X136900152Y-84149215D01*
X136980964Y-84014528D01*
X137007902Y-83933715D01*
X137007902Y-83825966D01*
X136954027Y-83718216D01*
X136900152Y-83664341D01*
X136792402Y-83610467D01*
X136738528Y-83610467D01*
X136549966Y-83799028D01*
X136657715Y-83906778D01*
X136549966Y-83314155D02*
X135984280Y-83879841D01*
X135768781Y-83664341D01*
X135741844Y-83583529D01*
X135741844Y-83529654D01*
X135768781Y-83448842D01*
X135849593Y-83368030D01*
X135930406Y-83341093D01*
X135984280Y-83341093D01*
X136065093Y-83368030D01*
X136280592Y-83583529D01*
X135687969Y-82452158D02*
X136011218Y-82775407D01*
X135849593Y-82613783D02*
X135283908Y-83179468D01*
X135418595Y-83152531D01*
X135526345Y-83152531D01*
X135607157Y-83179468D01*
X134825972Y-82344409D02*
X135203096Y-81967285D01*
X134745160Y-82694595D02*
X135283908Y-82425221D01*
X134933722Y-82075035D01*
X181731218Y-84152903D02*
X181758155Y-84233715D01*
X181838967Y-84314528D01*
X181946717Y-84368402D01*
X182054467Y-84368402D01*
X182135279Y-84341465D01*
X182269966Y-84260653D01*
X182350778Y-84179841D01*
X182431590Y-84045154D01*
X182458528Y-83964341D01*
X182458528Y-83856592D01*
X182404653Y-83748842D01*
X182350778Y-83694967D01*
X182243028Y-83641093D01*
X182189154Y-83641093D01*
X182000592Y-83829654D01*
X182108341Y-83937404D01*
X182000592Y-83344781D02*
X181434906Y-83910467D01*
X181219407Y-83694967D01*
X181192470Y-83614155D01*
X181192470Y-83560280D01*
X181219407Y-83479468D01*
X181300219Y-83398656D01*
X181381032Y-83371719D01*
X181434906Y-83371719D01*
X181515719Y-83398656D01*
X181731218Y-83614155D01*
X180761471Y-83237032D02*
X180707597Y-83183157D01*
X180680659Y-83102345D01*
X180680659Y-83048470D01*
X180707597Y-82967658D01*
X180788409Y-82832971D01*
X180923096Y-82698284D01*
X181057783Y-82617471D01*
X181138595Y-82590534D01*
X181192470Y-82590534D01*
X181273282Y-82617471D01*
X181327157Y-82671346D01*
X181354094Y-82752158D01*
X181354094Y-82806033D01*
X181327157Y-82886845D01*
X181246345Y-83021532D01*
X181111658Y-83156219D01*
X180976971Y-83237032D01*
X180896158Y-83263969D01*
X180842284Y-83263969D01*
X180761471Y-83237032D01*
X172013773Y-112111211D02*
X171744399Y-111841837D01*
X172229272Y-112003462D02*
X171475025Y-112380585D01*
X171852149Y-111626338D01*
X171663587Y-111437776D02*
X171097902Y-112003462D01*
X170963215Y-111868775D01*
X170909340Y-111761025D01*
X170909340Y-111653276D01*
X170936277Y-111572463D01*
X171017089Y-111437776D01*
X171097902Y-111356964D01*
X171232589Y-111276152D01*
X171313401Y-111249215D01*
X171421150Y-111249215D01*
X171528900Y-111303089D01*
X171663587Y-111437776D01*
X170720778Y-110602717D02*
X170774653Y-110602717D01*
X170882402Y-110656592D01*
X170936277Y-110710467D01*
X170990152Y-110818216D01*
X170990152Y-110925966D01*
X170963215Y-111006778D01*
X170882402Y-111141465D01*
X170801590Y-111222277D01*
X170666903Y-111303089D01*
X170586091Y-111330027D01*
X170478341Y-111330027D01*
X170370592Y-111276152D01*
X170316717Y-111222277D01*
X170262842Y-111114528D01*
X170262842Y-111060653D01*
X170720778Y-110387218D02*
X170289780Y-109956219D01*
X169616345Y-110521905D02*
X169993468Y-109767658D01*
X169239221Y-110144781D01*
X169293096Y-109067285D02*
X169212284Y-109525221D01*
X169616345Y-109390534D02*
X169050659Y-109956219D01*
X168835160Y-109740720D01*
X168808223Y-109659908D01*
X168808223Y-109606033D01*
X168835160Y-109525221D01*
X168915972Y-109444409D01*
X168996784Y-109417471D01*
X169050659Y-109417471D01*
X169131471Y-109444409D01*
X169346971Y-109659908D01*
X168754348Y-109121160D02*
X168565786Y-108932598D01*
X168781285Y-108555475D02*
X169050659Y-108824849D01*
X168484974Y-109390534D01*
X168215600Y-109121160D01*
X168053975Y-108420788D02*
X168242537Y-108609349D01*
X168538849Y-108313038D02*
X167973163Y-108878723D01*
X167703789Y-108609349D01*
X153791218Y-84152903D02*
X153818155Y-84233715D01*
X153898967Y-84314528D01*
X154006717Y-84368402D01*
X154114467Y-84368402D01*
X154195279Y-84341465D01*
X154329966Y-84260653D01*
X154410778Y-84179841D01*
X154491590Y-84045154D01*
X154518528Y-83964341D01*
X154518528Y-83856592D01*
X154464653Y-83748842D01*
X154410778Y-83694967D01*
X154303028Y-83641093D01*
X154249154Y-83641093D01*
X154060592Y-83829654D01*
X154168341Y-83937404D01*
X154060592Y-83344781D02*
X153494906Y-83910467D01*
X153279407Y-83694967D01*
X153252470Y-83614155D01*
X153252470Y-83560280D01*
X153279407Y-83479468D01*
X153360219Y-83398656D01*
X153441032Y-83371719D01*
X153494906Y-83371719D01*
X153575719Y-83398656D01*
X153791218Y-83614155D01*
X153467969Y-82752158D02*
X153360219Y-82644409D01*
X153279407Y-82617471D01*
X153225532Y-82617471D01*
X153090845Y-82644409D01*
X152956158Y-82725221D01*
X152740659Y-82940720D01*
X152713722Y-83021532D01*
X152713722Y-83075407D01*
X152740659Y-83156219D01*
X152848409Y-83263969D01*
X152929221Y-83290906D01*
X152983096Y-83290906D01*
X153063908Y-83263969D01*
X153198595Y-83129282D01*
X153225532Y-83048470D01*
X153225532Y-82994595D01*
X153198595Y-82913783D01*
X153090845Y-82806033D01*
X153010033Y-82779096D01*
X152956158Y-82779096D01*
X152875346Y-82806033D01*
X175838308Y-111743868D02*
X175488122Y-111393682D01*
X175892183Y-111366744D01*
X175811370Y-111285932D01*
X175784433Y-111205120D01*
X175784433Y-111151245D01*
X175811370Y-111070433D01*
X175946057Y-110935746D01*
X176026870Y-110908809D01*
X176080744Y-110908809D01*
X176161557Y-110935746D01*
X176323181Y-111097370D01*
X176350118Y-111178183D01*
X176350118Y-111232057D01*
X175326497Y-111232057D02*
X175703621Y-110477810D01*
X174949374Y-110854934D01*
X174814687Y-110720247D02*
X174464500Y-110370061D01*
X174868561Y-110343123D01*
X174787749Y-110262311D01*
X174760812Y-110181499D01*
X174760812Y-110127624D01*
X174787749Y-110046812D01*
X174922436Y-109912125D01*
X175003248Y-109885187D01*
X175057123Y-109885187D01*
X175137935Y-109912125D01*
X175299560Y-110073749D01*
X175326497Y-110154561D01*
X175326497Y-110208436D01*
X174976311Y-109642751D02*
X174545312Y-109211752D01*
X174060439Y-109427251D02*
X173871877Y-109238690D01*
X174087377Y-108861566D02*
X174356751Y-109130940D01*
X173791065Y-109696625D01*
X173521691Y-109427251D01*
X173844940Y-108619129D02*
X173279255Y-109184815D01*
X173521691Y-108295881D01*
X172956006Y-108861566D01*
X131603809Y-103561238D02*
X131641904Y-103446952D01*
X131641904Y-103256476D01*
X131603809Y-103180285D01*
X131565714Y-103142190D01*
X131489523Y-103104095D01*
X131413333Y-103104095D01*
X131337142Y-103142190D01*
X131299047Y-103180285D01*
X131260952Y-103256476D01*
X131222857Y-103408857D01*
X131184761Y-103485047D01*
X131146666Y-103523142D01*
X131070476Y-103561238D01*
X130994285Y-103561238D01*
X130918095Y-103523142D01*
X130880000Y-103485047D01*
X130841904Y-103408857D01*
X130841904Y-103218380D01*
X130880000Y-103104095D01*
X130841904Y-102837428D02*
X131641904Y-102646952D01*
X131070476Y-102494571D01*
X131641904Y-102342190D01*
X130841904Y-102151714D01*
X131641904Y-101846952D02*
X130841904Y-101846952D01*
X130841904Y-101656476D01*
X130880000Y-101542190D01*
X130956190Y-101466000D01*
X131032380Y-101427904D01*
X131184761Y-101389809D01*
X131299047Y-101389809D01*
X131451428Y-101427904D01*
X131527619Y-101466000D01*
X131603809Y-101542190D01*
X131641904Y-101656476D01*
X131641904Y-101846952D01*
X131641904Y-101046952D02*
X130841904Y-101046952D01*
X130841904Y-100513619D02*
X130841904Y-100361238D01*
X130880000Y-100285047D01*
X130956190Y-100208857D01*
X131108571Y-100170761D01*
X131375238Y-100170761D01*
X131527619Y-100208857D01*
X131603809Y-100285047D01*
X131641904Y-100361238D01*
X131641904Y-100513619D01*
X131603809Y-100589809D01*
X131527619Y-100666000D01*
X131375238Y-100704095D01*
X131108571Y-100704095D01*
X130956190Y-100666000D01*
X130880000Y-100589809D01*
X130841904Y-100513619D01*
X156331218Y-84152903D02*
X156358155Y-84233715D01*
X156438967Y-84314528D01*
X156546717Y-84368402D01*
X156654467Y-84368402D01*
X156735279Y-84341465D01*
X156869966Y-84260653D01*
X156950778Y-84179841D01*
X157031590Y-84045154D01*
X157058528Y-83964341D01*
X157058528Y-83856592D01*
X157004653Y-83748842D01*
X156950778Y-83694967D01*
X156843028Y-83641093D01*
X156789154Y-83641093D01*
X156600592Y-83829654D01*
X156708341Y-83937404D01*
X156600592Y-83344781D02*
X156034906Y-83910467D01*
X155819407Y-83694967D01*
X155792470Y-83614155D01*
X155792470Y-83560280D01*
X155819407Y-83479468D01*
X155900219Y-83398656D01*
X155981032Y-83371719D01*
X156034906Y-83371719D01*
X156115719Y-83398656D01*
X156331218Y-83614155D01*
X155630845Y-83021532D02*
X155657783Y-83102345D01*
X155657783Y-83156219D01*
X155630845Y-83237032D01*
X155603908Y-83263969D01*
X155523096Y-83290906D01*
X155469221Y-83290906D01*
X155388409Y-83263969D01*
X155280659Y-83156219D01*
X155253722Y-83075407D01*
X155253722Y-83021532D01*
X155280659Y-82940720D01*
X155307597Y-82913783D01*
X155388409Y-82886845D01*
X155442284Y-82886845D01*
X155523096Y-82913783D01*
X155630845Y-83021532D01*
X155711658Y-83048470D01*
X155765532Y-83048470D01*
X155846345Y-83021532D01*
X155954094Y-82913783D01*
X155981032Y-82832971D01*
X155981032Y-82779096D01*
X155954094Y-82698284D01*
X155846345Y-82590534D01*
X155765532Y-82563597D01*
X155711658Y-82563597D01*
X155630845Y-82590534D01*
X155523096Y-82698284D01*
X155496158Y-82779096D01*
X155496158Y-82832971D01*
X155523096Y-82913783D01*
%TO.C,J8*%
X193224666Y-75424380D02*
X193224666Y-76138666D01*
X193177047Y-76281523D01*
X193081809Y-76376761D01*
X192938952Y-76424380D01*
X192843714Y-76424380D01*
X193843714Y-75852952D02*
X193748476Y-75805333D01*
X193700857Y-75757714D01*
X193653238Y-75662476D01*
X193653238Y-75614857D01*
X193700857Y-75519619D01*
X193748476Y-75472000D01*
X193843714Y-75424380D01*
X194034190Y-75424380D01*
X194129428Y-75472000D01*
X194177047Y-75519619D01*
X194224666Y-75614857D01*
X194224666Y-75662476D01*
X194177047Y-75757714D01*
X194129428Y-75805333D01*
X194034190Y-75852952D01*
X193843714Y-75852952D01*
X193748476Y-75900571D01*
X193700857Y-75948190D01*
X193653238Y-76043428D01*
X193653238Y-76233904D01*
X193700857Y-76329142D01*
X193748476Y-76376761D01*
X193843714Y-76424380D01*
X194034190Y-76424380D01*
X194129428Y-76376761D01*
X194177047Y-76329142D01*
X194224666Y-76233904D01*
X194224666Y-76043428D01*
X194177047Y-75948190D01*
X194129428Y-75900571D01*
X194034190Y-75852952D01*
%TO.C,SW2*%
X114283261Y-74775333D02*
X114330880Y-74632476D01*
X114330880Y-74394380D01*
X114283261Y-74299142D01*
X114235642Y-74251523D01*
X114140404Y-74203904D01*
X114045166Y-74203904D01*
X113949928Y-74251523D01*
X113902309Y-74299142D01*
X113854690Y-74394380D01*
X113807071Y-74584857D01*
X113759452Y-74680095D01*
X113711833Y-74727714D01*
X113616595Y-74775333D01*
X113521357Y-74775333D01*
X113426119Y-74727714D01*
X113378500Y-74680095D01*
X113330880Y-74584857D01*
X113330880Y-74346761D01*
X113378500Y-74203904D01*
X113330880Y-73870571D02*
X114330880Y-73632476D01*
X113616595Y-73442000D01*
X114330880Y-73251523D01*
X113330880Y-73013428D01*
X113426119Y-72680095D02*
X113378500Y-72632476D01*
X113330880Y-72537238D01*
X113330880Y-72299142D01*
X113378500Y-72203904D01*
X113426119Y-72156285D01*
X113521357Y-72108666D01*
X113616595Y-72108666D01*
X113759452Y-72156285D01*
X114330880Y-72727714D01*
X114330880Y-72108666D01*
%TO.C,J15*%
X192748476Y-62216380D02*
X192748476Y-62930666D01*
X192700857Y-63073523D01*
X192605619Y-63168761D01*
X192462761Y-63216380D01*
X192367523Y-63216380D01*
X193748476Y-63216380D02*
X193177047Y-63216380D01*
X193462761Y-63216380D02*
X193462761Y-62216380D01*
X193367523Y-62359238D01*
X193272285Y-62454476D01*
X193177047Y-62502095D01*
X194653238Y-62216380D02*
X194177047Y-62216380D01*
X194129428Y-62692571D01*
X194177047Y-62644952D01*
X194272285Y-62597333D01*
X194510380Y-62597333D01*
X194605619Y-62644952D01*
X194653238Y-62692571D01*
X194700857Y-62787809D01*
X194700857Y-63025904D01*
X194653238Y-63121142D01*
X194605619Y-63168761D01*
X194510380Y-63216380D01*
X194272285Y-63216380D01*
X194177047Y-63168761D01*
X194129428Y-63121142D01*
%TO.C,R4*%
X115006380Y-58078666D02*
X114530190Y-58412000D01*
X115006380Y-58650095D02*
X114006380Y-58650095D01*
X114006380Y-58269142D01*
X114054000Y-58173904D01*
X114101619Y-58126285D01*
X114196857Y-58078666D01*
X114339714Y-58078666D01*
X114434952Y-58126285D01*
X114482571Y-58173904D01*
X114530190Y-58269142D01*
X114530190Y-58650095D01*
X114339714Y-57221523D02*
X115006380Y-57221523D01*
X113958761Y-57459619D02*
X114673047Y-57697714D01*
X114673047Y-57078666D01*
X117038380Y-59031047D02*
X116562190Y-59364380D01*
X117038380Y-59602476D02*
X116038380Y-59602476D01*
X116038380Y-59221523D01*
X116086000Y-59126285D01*
X116133619Y-59078666D01*
X116228857Y-59031047D01*
X116371714Y-59031047D01*
X116466952Y-59078666D01*
X116514571Y-59126285D01*
X116562190Y-59221523D01*
X116562190Y-59602476D01*
X116038380Y-58697714D02*
X116038380Y-58078666D01*
X116419333Y-58412000D01*
X116419333Y-58269142D01*
X116466952Y-58173904D01*
X116514571Y-58126285D01*
X116609809Y-58078666D01*
X116847904Y-58078666D01*
X116943142Y-58126285D01*
X116990761Y-58173904D01*
X117038380Y-58269142D01*
X117038380Y-58554857D01*
X116990761Y-58650095D01*
X116943142Y-58697714D01*
X116038380Y-57745333D02*
X116038380Y-57126285D01*
X116419333Y-57459619D01*
X116419333Y-57316761D01*
X116466952Y-57221523D01*
X116514571Y-57173904D01*
X116609809Y-57126285D01*
X116847904Y-57126285D01*
X116943142Y-57173904D01*
X116990761Y-57221523D01*
X117038380Y-57316761D01*
X117038380Y-57602476D01*
X116990761Y-57697714D01*
X116943142Y-57745333D01*
X116038380Y-56507238D02*
X116038380Y-56412000D01*
X116086000Y-56316761D01*
X116133619Y-56269142D01*
X116228857Y-56221523D01*
X116419333Y-56173904D01*
X116657428Y-56173904D01*
X116847904Y-56221523D01*
X116943142Y-56269142D01*
X116990761Y-56316761D01*
X117038380Y-56412000D01*
X117038380Y-56507238D01*
X116990761Y-56602476D01*
X116943142Y-56650095D01*
X116847904Y-56697714D01*
X116657428Y-56745333D01*
X116419333Y-56745333D01*
X116228857Y-56697714D01*
X116133619Y-56650095D01*
X116086000Y-56602476D01*
X116038380Y-56507238D01*
%TO.C,R2*%
X119578380Y-58078666D02*
X119102190Y-58412000D01*
X119578380Y-58650095D02*
X118578380Y-58650095D01*
X118578380Y-58269142D01*
X118626000Y-58173904D01*
X118673619Y-58126285D01*
X118768857Y-58078666D01*
X118911714Y-58078666D01*
X119006952Y-58126285D01*
X119054571Y-58173904D01*
X119102190Y-58269142D01*
X119102190Y-58650095D01*
X118673619Y-57697714D02*
X118626000Y-57650095D01*
X118578380Y-57554857D01*
X118578380Y-57316761D01*
X118626000Y-57221523D01*
X118673619Y-57173904D01*
X118768857Y-57126285D01*
X118864095Y-57126285D01*
X119006952Y-57173904D01*
X119578380Y-57745333D01*
X119578380Y-57126285D01*
X122118380Y-59285047D02*
X121642190Y-59618380D01*
X122118380Y-59856476D02*
X121118380Y-59856476D01*
X121118380Y-59475523D01*
X121166000Y-59380285D01*
X121213619Y-59332666D01*
X121308857Y-59285047D01*
X121451714Y-59285047D01*
X121546952Y-59332666D01*
X121594571Y-59380285D01*
X121642190Y-59475523D01*
X121642190Y-59856476D01*
X121118380Y-58951714D02*
X121118380Y-58332666D01*
X121499333Y-58666000D01*
X121499333Y-58523142D01*
X121546952Y-58427904D01*
X121594571Y-58380285D01*
X121689809Y-58332666D01*
X121927904Y-58332666D01*
X122023142Y-58380285D01*
X122070761Y-58427904D01*
X122118380Y-58523142D01*
X122118380Y-58808857D01*
X122070761Y-58904095D01*
X122023142Y-58951714D01*
X121118380Y-57999333D02*
X121118380Y-57380285D01*
X121499333Y-57713619D01*
X121499333Y-57570761D01*
X121546952Y-57475523D01*
X121594571Y-57427904D01*
X121689809Y-57380285D01*
X121927904Y-57380285D01*
X122023142Y-57427904D01*
X122070761Y-57475523D01*
X122118380Y-57570761D01*
X122118380Y-57856476D01*
X122070761Y-57951714D01*
X122023142Y-57999333D01*
X121118380Y-56761238D02*
X121118380Y-56666000D01*
X121166000Y-56570761D01*
X121213619Y-56523142D01*
X121308857Y-56475523D01*
X121499333Y-56427904D01*
X121737428Y-56427904D01*
X121927904Y-56475523D01*
X122023142Y-56523142D01*
X122070761Y-56570761D01*
X122118380Y-56666000D01*
X122118380Y-56761238D01*
X122070761Y-56856476D01*
X122023142Y-56904095D01*
X121927904Y-56951714D01*
X121737428Y-56999333D01*
X121499333Y-56999333D01*
X121308857Y-56951714D01*
X121213619Y-56904095D01*
X121166000Y-56856476D01*
X121118380Y-56761238D01*
%TO.C,J1*%
X183098380Y-119976833D02*
X183812666Y-119976833D01*
X183955523Y-120024452D01*
X184050761Y-120119690D01*
X184098380Y-120262547D01*
X184098380Y-120357785D01*
X184098380Y-118976833D02*
X184098380Y-119548261D01*
X184098380Y-119262547D02*
X183098380Y-119262547D01*
X183241238Y-119357785D01*
X183336476Y-119453023D01*
X183384095Y-119548261D01*
%TO.C,D5*%
X185238380Y-98782095D02*
X184238380Y-98782095D01*
X184238380Y-98544000D01*
X184286000Y-98401142D01*
X184381238Y-98305904D01*
X184476476Y-98258285D01*
X184666952Y-98210666D01*
X184809809Y-98210666D01*
X185000285Y-98258285D01*
X185095523Y-98305904D01*
X185190761Y-98401142D01*
X185238380Y-98544000D01*
X185238380Y-98782095D01*
X184238380Y-97305904D02*
X184238380Y-97782095D01*
X184714571Y-97829714D01*
X184666952Y-97782095D01*
X184619333Y-97686857D01*
X184619333Y-97448761D01*
X184666952Y-97353523D01*
X184714571Y-97305904D01*
X184809809Y-97258285D01*
X185047904Y-97258285D01*
X185143142Y-97305904D01*
X185190761Y-97353523D01*
X185238380Y-97448761D01*
X185238380Y-97686857D01*
X185190761Y-97782095D01*
X185143142Y-97829714D01*
X185958380Y-104655904D02*
X184958380Y-104655904D01*
X185958380Y-104084476D02*
X185386952Y-104513047D01*
X184958380Y-104084476D02*
X185529809Y-104655904D01*
%TO.C,R6*%
X112382380Y-87034666D02*
X111906190Y-87368000D01*
X112382380Y-87606095D02*
X111382380Y-87606095D01*
X111382380Y-87225142D01*
X111430000Y-87129904D01*
X111477619Y-87082285D01*
X111572857Y-87034666D01*
X111715714Y-87034666D01*
X111810952Y-87082285D01*
X111858571Y-87129904D01*
X111906190Y-87225142D01*
X111906190Y-87606095D01*
X111382380Y-86177523D02*
X111382380Y-86368000D01*
X111430000Y-86463238D01*
X111477619Y-86510857D01*
X111620476Y-86606095D01*
X111810952Y-86653714D01*
X112191904Y-86653714D01*
X112287142Y-86606095D01*
X112334761Y-86558476D01*
X112382380Y-86463238D01*
X112382380Y-86272761D01*
X112334761Y-86177523D01*
X112287142Y-86129904D01*
X112191904Y-86082285D01*
X111953809Y-86082285D01*
X111858571Y-86129904D01*
X111810952Y-86177523D01*
X111763333Y-86272761D01*
X111763333Y-86463238D01*
X111810952Y-86558476D01*
X111858571Y-86606095D01*
X111953809Y-86653714D01*
X113958761Y-93162380D02*
X113387333Y-93162380D01*
X113673047Y-93162380D02*
X113673047Y-92162380D01*
X113577809Y-92305238D01*
X113482571Y-92400476D01*
X113387333Y-92448095D01*
X114577809Y-92162380D02*
X114673047Y-92162380D01*
X114768285Y-92210000D01*
X114815904Y-92257619D01*
X114863523Y-92352857D01*
X114911142Y-92543333D01*
X114911142Y-92781428D01*
X114863523Y-92971904D01*
X114815904Y-93067142D01*
X114768285Y-93114761D01*
X114673047Y-93162380D01*
X114577809Y-93162380D01*
X114482571Y-93114761D01*
X114434952Y-93067142D01*
X114387333Y-92971904D01*
X114339714Y-92781428D01*
X114339714Y-92543333D01*
X114387333Y-92352857D01*
X114434952Y-92257619D01*
X114482571Y-92210000D01*
X114577809Y-92162380D01*
X115339714Y-93162380D02*
X115339714Y-92162380D01*
X115434952Y-92781428D02*
X115720666Y-93162380D01*
X115720666Y-92495714D02*
X115339714Y-92876666D01*
%TO.C,U2*%
X127429380Y-71617904D02*
X128238904Y-71617904D01*
X128334142Y-71570285D01*
X128381761Y-71522666D01*
X128429380Y-71427428D01*
X128429380Y-71236952D01*
X128381761Y-71141714D01*
X128334142Y-71094095D01*
X128238904Y-71046476D01*
X127429380Y-71046476D01*
X127524619Y-70617904D02*
X127477000Y-70570285D01*
X127429380Y-70475047D01*
X127429380Y-70236952D01*
X127477000Y-70141714D01*
X127524619Y-70094095D01*
X127619857Y-70046476D01*
X127715095Y-70046476D01*
X127857952Y-70094095D01*
X128429380Y-70665523D01*
X128429380Y-70046476D01*
%TO.C,D2*%
X119412380Y-77197095D02*
X118412380Y-77197095D01*
X118412380Y-76959000D01*
X118460000Y-76816142D01*
X118555238Y-76720904D01*
X118650476Y-76673285D01*
X118840952Y-76625666D01*
X118983809Y-76625666D01*
X119174285Y-76673285D01*
X119269523Y-76720904D01*
X119364761Y-76816142D01*
X119412380Y-76959000D01*
X119412380Y-77197095D01*
X118507619Y-76244714D02*
X118460000Y-76197095D01*
X118412380Y-76101857D01*
X118412380Y-75863761D01*
X118460000Y-75768523D01*
X118507619Y-75720904D01*
X118602857Y-75673285D01*
X118698095Y-75673285D01*
X118840952Y-75720904D01*
X119412380Y-76292333D01*
X119412380Y-75673285D01*
%TO.C,SW1*%
X114352761Y-103985333D02*
X114400380Y-103842476D01*
X114400380Y-103604380D01*
X114352761Y-103509142D01*
X114305142Y-103461523D01*
X114209904Y-103413904D01*
X114114666Y-103413904D01*
X114019428Y-103461523D01*
X113971809Y-103509142D01*
X113924190Y-103604380D01*
X113876571Y-103794857D01*
X113828952Y-103890095D01*
X113781333Y-103937714D01*
X113686095Y-103985333D01*
X113590857Y-103985333D01*
X113495619Y-103937714D01*
X113448000Y-103890095D01*
X113400380Y-103794857D01*
X113400380Y-103556761D01*
X113448000Y-103413904D01*
X113400380Y-103080571D02*
X114400380Y-102842476D01*
X113686095Y-102652000D01*
X114400380Y-102461523D01*
X113400380Y-102223428D01*
X114400380Y-101318666D02*
X114400380Y-101890095D01*
X114400380Y-101604380D02*
X113400380Y-101604380D01*
X113543238Y-101699619D01*
X113638476Y-101794857D01*
X113686095Y-101890095D01*
%TO.C,J2*%
X130004380Y-55949833D02*
X130718666Y-55949833D01*
X130861523Y-55997452D01*
X130956761Y-56092690D01*
X131004380Y-56235547D01*
X131004380Y-56330785D01*
X130099619Y-55521261D02*
X130052000Y-55473642D01*
X130004380Y-55378404D01*
X130004380Y-55140309D01*
X130052000Y-55045071D01*
X130099619Y-54997452D01*
X130194857Y-54949833D01*
X130290095Y-54949833D01*
X130432952Y-54997452D01*
X131004380Y-55568880D01*
X131004380Y-54949833D01*
%TO.C,C1*%
X137755333Y-79097142D02*
X137707714Y-79144761D01*
X137564857Y-79192380D01*
X137469619Y-79192380D01*
X137326761Y-79144761D01*
X137231523Y-79049523D01*
X137183904Y-78954285D01*
X137136285Y-78763809D01*
X137136285Y-78620952D01*
X137183904Y-78430476D01*
X137231523Y-78335238D01*
X137326761Y-78240000D01*
X137469619Y-78192380D01*
X137564857Y-78192380D01*
X137707714Y-78240000D01*
X137755333Y-78287619D01*
X138707714Y-79192380D02*
X138136285Y-79192380D01*
X138422000Y-79192380D02*
X138422000Y-78192380D01*
X138326761Y-78335238D01*
X138231523Y-78430476D01*
X138136285Y-78478095D01*
X145010380Y-79192380D02*
X144438952Y-79192380D01*
X144724666Y-79192380D02*
X144724666Y-78192380D01*
X144629428Y-78335238D01*
X144534190Y-78430476D01*
X144438952Y-78478095D01*
X145629428Y-78192380D02*
X145724666Y-78192380D01*
X145819904Y-78240000D01*
X145867523Y-78287619D01*
X145915142Y-78382857D01*
X145962761Y-78573333D01*
X145962761Y-78811428D01*
X145915142Y-79001904D01*
X145867523Y-79097142D01*
X145819904Y-79144761D01*
X145724666Y-79192380D01*
X145629428Y-79192380D01*
X145534190Y-79144761D01*
X145486571Y-79097142D01*
X145438952Y-79001904D01*
X145391333Y-78811428D01*
X145391333Y-78573333D01*
X145438952Y-78382857D01*
X145486571Y-78287619D01*
X145534190Y-78240000D01*
X145629428Y-78192380D01*
X146581809Y-78192380D02*
X146677047Y-78192380D01*
X146772285Y-78240000D01*
X146819904Y-78287619D01*
X146867523Y-78382857D01*
X146915142Y-78573333D01*
X146915142Y-78811428D01*
X146867523Y-79001904D01*
X146819904Y-79097142D01*
X146772285Y-79144761D01*
X146677047Y-79192380D01*
X146581809Y-79192380D01*
X146486571Y-79144761D01*
X146438952Y-79097142D01*
X146391333Y-79001904D01*
X146343714Y-78811428D01*
X146343714Y-78573333D01*
X146391333Y-78382857D01*
X146438952Y-78287619D01*
X146486571Y-78240000D01*
X146581809Y-78192380D01*
X147343714Y-78525714D02*
X147343714Y-79192380D01*
X147343714Y-78620952D02*
X147391333Y-78573333D01*
X147486571Y-78525714D01*
X147629428Y-78525714D01*
X147724666Y-78573333D01*
X147772285Y-78668571D01*
X147772285Y-79192380D01*
X148581809Y-78668571D02*
X148248476Y-78668571D01*
X148248476Y-79192380D02*
X148248476Y-78192380D01*
X148724666Y-78192380D01*
%TO.C,D1*%
X119666380Y-106915095D02*
X118666380Y-106915095D01*
X118666380Y-106677000D01*
X118714000Y-106534142D01*
X118809238Y-106438904D01*
X118904476Y-106391285D01*
X119094952Y-106343666D01*
X119237809Y-106343666D01*
X119428285Y-106391285D01*
X119523523Y-106438904D01*
X119618761Y-106534142D01*
X119666380Y-106677000D01*
X119666380Y-106915095D01*
X119666380Y-105391285D02*
X119666380Y-105962714D01*
X119666380Y-105677000D02*
X118666380Y-105677000D01*
X118809238Y-105772238D01*
X118904476Y-105867476D01*
X118952095Y-105962714D01*
%TO.C,U3*%
X156893380Y-71363904D02*
X157702904Y-71363904D01*
X157798142Y-71316285D01*
X157845761Y-71268666D01*
X157893380Y-71173428D01*
X157893380Y-70982952D01*
X157845761Y-70887714D01*
X157798142Y-70840095D01*
X157702904Y-70792476D01*
X156893380Y-70792476D01*
X156893380Y-70411523D02*
X156893380Y-69792476D01*
X157274333Y-70125809D01*
X157274333Y-69982952D01*
X157321952Y-69887714D01*
X157369571Y-69840095D01*
X157464809Y-69792476D01*
X157702904Y-69792476D01*
X157798142Y-69840095D01*
X157845761Y-69887714D01*
X157893380Y-69982952D01*
X157893380Y-70268666D01*
X157845761Y-70363904D01*
X157798142Y-70411523D01*
D12*
%TO.C,C2*%
X169176000Y-79906000D02*
X173216000Y-79906000D01*
X169176000Y-79281000D02*
X169176000Y-79906000D01*
X169176000Y-77066000D02*
X169176000Y-77691000D01*
X173216000Y-77066000D02*
X173216000Y-77691000D01*
X169176000Y-77066000D02*
X173216000Y-77066000D01*
X173216000Y-79281000D02*
X173216000Y-79906000D01*
%TO.C,D3*%
X120938000Y-101128000D02*
X121094000Y-101128000D01*
X123254000Y-101128000D02*
X123410000Y-101128000D01*
X121095392Y-97895665D02*
G75*
G03*
X120938484Y-101128000I1078608J-1672335D01*
G01*
X121094163Y-98526870D02*
G75*
G03*
X121094000Y-100608961I1079837J-1041130D01*
G01*
X123409516Y-101128000D02*
G75*
G03*
X123252608Y-97895665I-1235516J1560000D01*
G01*
X123254000Y-100608961D02*
G75*
G03*
X123253837Y-98526870I-1080000J1040961D01*
G01*
%TO.C,R5*%
X119658000Y-83598000D02*
X119988000Y-83598000D01*
X117248000Y-90138000D02*
X117578000Y-90138000D01*
X117578000Y-83598000D02*
X117248000Y-83598000D01*
X119988000Y-83598000D02*
X119988000Y-90138000D01*
X117248000Y-83598000D02*
X117248000Y-90138000D01*
X119988000Y-90138000D02*
X119658000Y-90138000D01*
%TO.C,D4*%
X120684000Y-71664000D02*
X120840000Y-71664000D01*
X123000000Y-71664000D02*
X123156000Y-71664000D01*
X120841392Y-68431665D02*
G75*
G03*
X120684484Y-71664000I1078608J-1672335D01*
G01*
X123155516Y-71664000D02*
G75*
G03*
X122998608Y-68431665I-1235516J1560000D01*
G01*
X120840163Y-69062870D02*
G75*
G03*
X120840000Y-71144961I1079837J-1041130D01*
G01*
X123000000Y-71144961D02*
G75*
G03*
X122999837Y-69062870I-1080000J1040961D01*
G01*
%TO.C,R1*%
X120242000Y-117570000D02*
X119912000Y-117570000D01*
X117502000Y-117570000D02*
X117832000Y-117570000D01*
X117832000Y-111030000D02*
X117502000Y-111030000D01*
X120242000Y-111030000D02*
X120242000Y-117570000D01*
X117502000Y-111030000D02*
X117502000Y-117570000D01*
X119912000Y-111030000D02*
X120242000Y-111030000D01*
%TO.C,R3*%
X115416000Y-111030000D02*
X115086000Y-111030000D01*
X113006000Y-117570000D02*
X112676000Y-117570000D01*
X112676000Y-117570000D02*
X112676000Y-111030000D01*
X115416000Y-117570000D02*
X115416000Y-111030000D01*
X112676000Y-111030000D02*
X113006000Y-111030000D01*
X115086000Y-117570000D02*
X115416000Y-117570000D01*
%TO.C,U1*%
X175480000Y-85766000D02*
X175080000Y-85766000D01*
X142380000Y-85766000D02*
X141980000Y-85766000D01*
X167880000Y-106766000D02*
X167480000Y-106766000D01*
X172880000Y-106766000D02*
X172480000Y-106766000D01*
X180580000Y-85766000D02*
X180180000Y-85766000D01*
X165280000Y-85766000D02*
X164880000Y-85766000D01*
X131980000Y-97366000D02*
X131980000Y-97766000D01*
X139880000Y-85766000D02*
X139480000Y-85766000D01*
X182980000Y-85766000D02*
X182980000Y-106766000D01*
X177980000Y-106766000D02*
X177580000Y-106766000D01*
X144980000Y-106766000D02*
X144580000Y-106766000D01*
X162780000Y-85766000D02*
X162380000Y-85766000D01*
X180313000Y-88773000D02*
X182980000Y-88773000D01*
X182980000Y-85766000D02*
X182680000Y-85766000D01*
X144980000Y-85766000D02*
X144580000Y-85766000D01*
X157680000Y-85766000D02*
X157280000Y-85766000D01*
X172880000Y-85766000D02*
X172480000Y-85766000D01*
X152580000Y-106766000D02*
X152180000Y-106766000D01*
X147480000Y-106766000D02*
X147080000Y-106766000D01*
X147480000Y-85766000D02*
X147080000Y-85766000D01*
X139880000Y-106766000D02*
X139480000Y-106766000D01*
X160180000Y-106766000D02*
X159780000Y-106766000D01*
X137380000Y-106766000D02*
X136980000Y-106766000D01*
X155180000Y-106766000D02*
X154780000Y-106766000D01*
X182980000Y-106766000D02*
X182680000Y-106766000D01*
X150080000Y-106766000D02*
X149680000Y-106766000D01*
X131980000Y-92566000D02*
X131980000Y-85766000D01*
X150080000Y-85766000D02*
X149680000Y-85766000D01*
X131980000Y-106766000D02*
X131980000Y-99966000D01*
X180580000Y-106766000D02*
X180180000Y-106766000D01*
X134780000Y-85766000D02*
X134380000Y-85766000D01*
X170380000Y-106766000D02*
X169980000Y-106766000D01*
X177980000Y-85766000D02*
X177580000Y-85766000D01*
X162780000Y-106766000D02*
X162380000Y-106766000D01*
X134780000Y-106766000D02*
X134380000Y-106766000D01*
X137380000Y-85766000D02*
X136980000Y-85766000D01*
X157680000Y-106766000D02*
X157280000Y-106766000D01*
X167880000Y-85766000D02*
X167480000Y-85766000D01*
X152580000Y-85766000D02*
X152180000Y-85766000D01*
X160180000Y-85766000D02*
X159780000Y-85766000D01*
X155180000Y-85766000D02*
X154780000Y-85766000D01*
X175480000Y-106766000D02*
X175080000Y-106766000D01*
X142380000Y-106766000D02*
X141980000Y-106766000D01*
X180313000Y-85766000D02*
X180313000Y-88773000D01*
X131980000Y-94766000D02*
X131980000Y-95166000D01*
X165280000Y-106766000D02*
X164880000Y-106766000D01*
X170380000Y-85766000D02*
X169980000Y-85766000D01*
%TO.C,J8*%
X199273000Y-82942000D02*
X199273000Y-83702000D01*
X193273000Y-78522000D02*
X199273000Y-78522000D01*
X190215929Y-82942000D02*
X190613000Y-82942000D01*
X199273000Y-78622000D02*
X193273000Y-78622000D01*
X193273000Y-78042000D02*
X199273000Y-78042000D01*
X193273000Y-77922000D02*
X199273000Y-77922000D01*
X190613000Y-79512000D02*
X193273000Y-79512000D01*
X190283000Y-77862000D02*
X190613000Y-77862000D01*
X190613000Y-82052000D02*
X193273000Y-82052000D01*
X193273000Y-78282000D02*
X199273000Y-78282000D01*
X190215929Y-86242000D02*
X190613000Y-86242000D01*
X199273000Y-81162000D02*
X193273000Y-81162000D01*
X199273000Y-77862000D02*
X199273000Y-78622000D01*
X190613000Y-84592000D02*
X193273000Y-84592000D01*
X187903000Y-78242000D02*
X187903000Y-76972000D01*
X190613000Y-76912000D02*
X190613000Y-87192000D01*
X190215929Y-85482000D02*
X190613000Y-85482000D01*
X190613000Y-87192000D02*
X193273000Y-87192000D01*
X190215929Y-80402000D02*
X190613000Y-80402000D01*
X193273000Y-77862000D02*
X199273000Y-77862000D01*
X193273000Y-78162000D02*
X199273000Y-78162000D01*
X190215929Y-83702000D02*
X190613000Y-83702000D01*
X193273000Y-76912000D02*
X190613000Y-76912000D01*
X190283000Y-78622000D02*
X190613000Y-78622000D01*
X193273000Y-82942000D02*
X199273000Y-82942000D01*
X193273000Y-78402000D02*
X199273000Y-78402000D01*
X193273000Y-85482000D02*
X199273000Y-85482000D01*
X199273000Y-83702000D02*
X193273000Y-83702000D01*
X199273000Y-85482000D02*
X199273000Y-86242000D01*
X193273000Y-87192000D02*
X193273000Y-76912000D01*
X199273000Y-80402000D02*
X199273000Y-81162000D01*
X187903000Y-76972000D02*
X189173000Y-76972000D01*
X190215929Y-81162000D02*
X190613000Y-81162000D01*
X199273000Y-86242000D02*
X193273000Y-86242000D01*
X193273000Y-80402000D02*
X199273000Y-80402000D01*
%TO.C,SW2*%
X113168500Y-75142000D02*
X113168500Y-71742000D01*
X109498500Y-69582000D02*
X113398500Y-69582000D01*
X109498500Y-77302000D02*
X113398500Y-77302000D01*
X115998500Y-69582000D02*
X116508500Y-69582000D01*
X116508500Y-77302000D02*
X116508500Y-76782000D01*
X113168500Y-76782000D02*
X113398500Y-76782000D01*
X113168500Y-70102000D02*
X113398500Y-70102000D01*
X109498500Y-77302000D02*
X109498500Y-69582000D01*
X116508500Y-70102000D02*
X116508500Y-69582000D01*
X115998500Y-76782000D02*
X116508500Y-76782000D01*
X113168500Y-70642000D02*
X113168500Y-70102000D01*
X115998500Y-70102000D02*
X116508500Y-70102000D01*
X115998500Y-77302000D02*
X116508500Y-77302000D01*
X113168500Y-76782000D02*
X113168500Y-76242000D01*
%TO.C,J15*%
X190215929Y-67194000D02*
X190613000Y-67194000D01*
X193273000Y-65314000D02*
X199273000Y-65314000D01*
X199273000Y-64654000D02*
X199273000Y-65414000D01*
X193273000Y-63704000D02*
X190613000Y-63704000D01*
X199273000Y-73034000D02*
X193273000Y-73034000D01*
X190613000Y-68844000D02*
X193273000Y-68844000D01*
X193273000Y-67194000D02*
X199273000Y-67194000D01*
X190215929Y-73034000D02*
X190613000Y-73034000D01*
X190215929Y-72274000D02*
X190613000Y-72274000D01*
X199273000Y-67954000D02*
X193273000Y-67954000D01*
X193273000Y-69734000D02*
X199273000Y-69734000D01*
X187903000Y-63764000D02*
X189173000Y-63764000D01*
X199273000Y-70494000D02*
X193273000Y-70494000D01*
X190613000Y-73984000D02*
X193273000Y-73984000D01*
X193273000Y-64954000D02*
X199273000Y-64954000D01*
X193273000Y-65194000D02*
X199273000Y-65194000D01*
X190215929Y-70494000D02*
X190613000Y-70494000D01*
X193273000Y-65074000D02*
X199273000Y-65074000D01*
X193273000Y-64834000D02*
X199273000Y-64834000D01*
X193273000Y-72274000D02*
X199273000Y-72274000D01*
X190613000Y-63704000D02*
X190613000Y-73984000D01*
X190215929Y-69734000D02*
X190613000Y-69734000D01*
X199273000Y-67194000D02*
X199273000Y-67954000D01*
X190283000Y-64654000D02*
X190613000Y-64654000D01*
X190283000Y-65414000D02*
X190613000Y-65414000D01*
X190613000Y-71384000D02*
X193273000Y-71384000D01*
X190613000Y-66304000D02*
X193273000Y-66304000D01*
X190215929Y-67954000D02*
X190613000Y-67954000D01*
X199273000Y-65414000D02*
X193273000Y-65414000D01*
X193273000Y-73984000D02*
X193273000Y-63704000D01*
X187903000Y-65034000D02*
X187903000Y-63764000D01*
X193273000Y-64654000D02*
X199273000Y-64654000D01*
X199273000Y-69734000D02*
X199273000Y-70494000D01*
X193273000Y-64714000D02*
X199273000Y-64714000D01*
X199273000Y-72274000D02*
X199273000Y-73034000D01*
%TO.C,R4*%
X112930000Y-61182000D02*
X113260000Y-61182000D01*
X115340000Y-54642000D02*
X115670000Y-54642000D01*
X112930000Y-54642000D02*
X112930000Y-61182000D01*
X115670000Y-54642000D02*
X115670000Y-61182000D01*
X115670000Y-61182000D02*
X115340000Y-61182000D01*
X113260000Y-54642000D02*
X112930000Y-54642000D01*
%TO.C,R2*%
X120496000Y-61182000D02*
X120166000Y-61182000D01*
X117756000Y-61182000D02*
X118086000Y-61182000D01*
X120496000Y-54642000D02*
X120496000Y-61182000D01*
X117756000Y-54642000D02*
X117756000Y-61182000D01*
X120166000Y-54642000D02*
X120496000Y-54642000D01*
X118086000Y-54642000D02*
X117756000Y-54642000D01*
%TO.C,J1*%
X177046000Y-111078500D02*
X177546000Y-112078500D01*
X159276000Y-117698500D02*
X159276000Y-126818500D01*
X177546000Y-112078500D02*
X178046000Y-111078500D01*
X155176000Y-117698500D02*
X155176000Y-126818500D01*
X182756000Y-126818500D02*
X131696000Y-126818500D01*
X182756000Y-117698500D02*
X182756000Y-126818500D01*
X178046000Y-111078500D02*
X177046000Y-111078500D01*
X131696000Y-117698500D02*
X182756000Y-117698500D01*
X131696000Y-126818500D02*
X131696000Y-117698500D01*
%TO.C,D5*%
X187706000Y-102954000D02*
X187706000Y-101964000D01*
X185786000Y-101964000D02*
X189626000Y-101964000D01*
X185786000Y-94124000D02*
X185786000Y-101964000D01*
X189626000Y-94124000D02*
X185786000Y-94124000D01*
X185786000Y-100824000D02*
X189626000Y-100824000D01*
X189626000Y-101964000D02*
X189626000Y-94124000D01*
X185786000Y-100584000D02*
X189626000Y-100584000D01*
X185786000Y-100704000D02*
X189626000Y-100704000D01*
X187706000Y-93134000D02*
X187706000Y-94124000D01*
%TO.C,R6*%
X115340000Y-90138000D02*
X115670000Y-90138000D01*
X113260000Y-90138000D02*
X112930000Y-90138000D01*
X115670000Y-90138000D02*
X115670000Y-83598000D01*
X112930000Y-83598000D02*
X113260000Y-83598000D01*
X115670000Y-83598000D02*
X115340000Y-83598000D01*
X112930000Y-90138000D02*
X112930000Y-83598000D01*
%TO.C,U2*%
X154497000Y-73506000D02*
X154497000Y-68206000D01*
X128917000Y-65716000D02*
X128917000Y-75996000D01*
X128977000Y-73506000D02*
X154497000Y-73506000D01*
X128917000Y-75996000D02*
X154557000Y-75996000D01*
X128977000Y-71856000D02*
X128977000Y-73506000D01*
X154557000Y-75996000D02*
X154557000Y-65716000D01*
X154497000Y-68206000D02*
X128977000Y-68206000D01*
X128977000Y-68206000D02*
X128977000Y-69856000D01*
X154557000Y-65716000D02*
X128917000Y-65716000D01*
X128977000Y-71856000D02*
G75*
G03*
X128977000Y-69856000I0J1000000D01*
G01*
%TO.C,D2*%
X120684000Y-78019000D02*
X120840000Y-78019000D01*
X123000000Y-78019000D02*
X123156000Y-78019000D01*
X123155516Y-78019000D02*
G75*
G03*
X122998608Y-74786665I-1235516J1560000D01*
G01*
X123000000Y-77499961D02*
G75*
G03*
X122999837Y-75417870I-1080000J1040961D01*
G01*
X120841392Y-74786665D02*
G75*
G03*
X120684484Y-78019000I1078608J-1672335D01*
G01*
X120840163Y-75417870D02*
G75*
G03*
X120840000Y-77499961I1079837J-1041130D01*
G01*
%TO.C,SW1*%
X116068000Y-106512000D02*
X116578000Y-106512000D01*
X116068000Y-99312000D02*
X116578000Y-99312000D01*
X113238000Y-99312000D02*
X113468000Y-99312000D01*
X113238000Y-105992000D02*
X113238000Y-105452000D01*
X116068000Y-98792000D02*
X116578000Y-98792000D01*
X116578000Y-106512000D02*
X116578000Y-105992000D01*
X116068000Y-105992000D02*
X116578000Y-105992000D01*
X113238000Y-104352000D02*
X113238000Y-100952000D01*
X109568000Y-106512000D02*
X109568000Y-98792000D01*
X113238000Y-99852000D02*
X113238000Y-99312000D01*
X113238000Y-105992000D02*
X113468000Y-105992000D01*
X109568000Y-98792000D02*
X113468000Y-98792000D01*
X109568000Y-106512000D02*
X113468000Y-106512000D01*
X116578000Y-99312000D02*
X116578000Y-98792000D01*
%TO.C,J2*%
X136652000Y-63181500D02*
X136152000Y-64181500D01*
X159022000Y-57561500D02*
X159022000Y-48441500D01*
X182502000Y-57561500D02*
X131442000Y-57561500D01*
X182502000Y-48441500D02*
X182502000Y-57561500D01*
X137152000Y-64181500D02*
X136652000Y-63181500D01*
X136152000Y-64181500D02*
X137152000Y-64181500D01*
X131442000Y-57561500D02*
X131442000Y-48441500D01*
X154922000Y-57561500D02*
X154922000Y-48441500D01*
X131442000Y-48441500D02*
X182502000Y-48441500D01*
%TO.C,C1*%
X139458000Y-79535000D02*
X139458000Y-80160000D01*
X139458000Y-80160000D02*
X143498000Y-80160000D01*
X143498000Y-77320000D02*
X143498000Y-77945000D01*
X139458000Y-77320000D02*
X143498000Y-77320000D01*
X139458000Y-77320000D02*
X139458000Y-77945000D01*
X143498000Y-79535000D02*
X143498000Y-80160000D01*
%TO.C,D1*%
X123254000Y-107737000D02*
X123410000Y-107737000D01*
X120938000Y-107737000D02*
X121094000Y-107737000D01*
X123254000Y-107217961D02*
G75*
G03*
X123253837Y-105135870I-1080000J1040961D01*
G01*
X121095392Y-104504665D02*
G75*
G03*
X120938484Y-107737000I1078608J-1672335D01*
G01*
X123409516Y-107737000D02*
G75*
G03*
X123252608Y-104504665I-1235516J1560000D01*
G01*
X121094163Y-105135870D02*
G75*
G03*
X121094000Y-107217961I1079837J-1041130D01*
G01*
%TO.C,U3*%
X158441000Y-73252000D02*
X183961000Y-73252000D01*
X158381000Y-75742000D02*
X184021000Y-75742000D01*
X184021000Y-75742000D02*
X184021000Y-65462000D01*
X158381000Y-65462000D02*
X158381000Y-75742000D01*
X183961000Y-67952000D02*
X158441000Y-67952000D01*
X183961000Y-73252000D02*
X183961000Y-67952000D01*
X184021000Y-65462000D02*
X158381000Y-65462000D01*
X158441000Y-67952000D02*
X158441000Y-69602000D01*
X158441000Y-71602000D02*
X158441000Y-73252000D01*
X158441000Y-71602000D02*
G75*
G03*
X158441000Y-69602000I0J1000000D01*
G01*
%TD*%
M02*
